%FSTAX43Y43*%
%MOMM*%
G71*
G01*
G75*
G04 Layer_Color=65280*
G04:AMPARAMS|DCode=10|XSize=1.3mm|YSize=1mm|CornerRadius=0.25mm|HoleSize=0mm|Usage=FLASHONLY|Rotation=270.000|XOffset=0mm|YOffset=0mm|HoleType=Round|Shape=RoundedRectangle|*
%AMROUNDEDRECTD10*
21,1,1.300,0.500,0,0,270.0*
21,1,0.800,1.000,0,0,270.0*
1,1,0.500,-0.250,-0.400*
1,1,0.500,-0.250,0.400*
1,1,0.500,0.250,0.400*
1,1,0.500,0.250,-0.400*
%
%ADD10ROUNDEDRECTD10*%
G04:AMPARAMS|DCode=11|XSize=1.5mm|YSize=1.3mm|CornerRadius=0.325mm|HoleSize=0mm|Usage=FLASHONLY|Rotation=270.000|XOffset=0mm|YOffset=0mm|HoleType=Round|Shape=RoundedRectangle|*
%AMROUNDEDRECTD11*
21,1,1.500,0.650,0,0,270.0*
21,1,0.850,1.300,0,0,270.0*
1,1,0.650,-0.325,-0.425*
1,1,0.650,-0.325,0.425*
1,1,0.650,0.325,0.425*
1,1,0.650,0.325,-0.425*
%
%ADD11ROUNDEDRECTD11*%
G04:AMPARAMS|DCode=12|XSize=1.9mm|YSize=0.5mm|CornerRadius=0.125mm|HoleSize=0mm|Usage=FLASHONLY|Rotation=0.000|XOffset=0mm|YOffset=0mm|HoleType=Round|Shape=RoundedRectangle|*
%AMROUNDEDRECTD12*
21,1,1.900,0.250,0,0,0.0*
21,1,1.650,0.500,0,0,0.0*
1,1,0.250,0.825,-0.125*
1,1,0.250,-0.825,-0.125*
1,1,0.250,-0.825,0.125*
1,1,0.250,0.825,0.125*
%
%ADD12ROUNDEDRECTD12*%
G04:AMPARAMS|DCode=13|XSize=1.9mm|YSize=0.5mm|CornerRadius=0.125mm|HoleSize=0mm|Usage=FLASHONLY|Rotation=90.000|XOffset=0mm|YOffset=0mm|HoleType=Round|Shape=RoundedRectangle|*
%AMROUNDEDRECTD13*
21,1,1.900,0.250,0,0,90.0*
21,1,1.650,0.500,0,0,90.0*
1,1,0.250,0.125,0.825*
1,1,0.250,0.125,-0.825*
1,1,0.250,-0.125,-0.825*
1,1,0.250,-0.125,0.825*
%
%ADD13ROUNDEDRECTD13*%
G04:AMPARAMS|DCode=14|XSize=1.3mm|YSize=1mm|CornerRadius=0.25mm|HoleSize=0mm|Usage=FLASHONLY|Rotation=180.000|XOffset=0mm|YOffset=0mm|HoleType=Round|Shape=RoundedRectangle|*
%AMROUNDEDRECTD14*
21,1,1.300,0.500,0,0,180.0*
21,1,0.800,1.000,0,0,180.0*
1,1,0.500,-0.400,0.250*
1,1,0.500,0.400,0.250*
1,1,0.500,0.400,-0.250*
1,1,0.500,-0.400,-0.250*
%
%ADD14ROUNDEDRECTD14*%
G04:AMPARAMS|DCode=15|XSize=1.5mm|YSize=1.3mm|CornerRadius=0.325mm|HoleSize=0mm|Usage=FLASHONLY|Rotation=0.000|XOffset=0mm|YOffset=0mm|HoleType=Round|Shape=RoundedRectangle|*
%AMROUNDEDRECTD15*
21,1,1.500,0.650,0,0,0.0*
21,1,0.850,1.300,0,0,0.0*
1,1,0.650,0.425,-0.325*
1,1,0.650,-0.425,-0.325*
1,1,0.650,-0.425,0.325*
1,1,0.650,0.425,0.325*
%
%ADD15ROUNDEDRECTD15*%
G04:AMPARAMS|DCode=16|XSize=2.65mm|YSize=1.75mm|CornerRadius=0.438mm|HoleSize=0mm|Usage=FLASHONLY|Rotation=270.000|XOffset=0mm|YOffset=0mm|HoleType=Round|Shape=RoundedRectangle|*
%AMROUNDEDRECTD16*
21,1,2.650,0.875,0,0,270.0*
21,1,1.775,1.750,0,0,270.0*
1,1,0.875,-0.438,-0.887*
1,1,0.875,-0.438,0.887*
1,1,0.875,0.438,0.887*
1,1,0.875,0.438,-0.887*
%
%ADD16ROUNDEDRECTD16*%
G04:AMPARAMS|DCode=17|XSize=0.9mm|YSize=2.7mm|CornerRadius=0.225mm|HoleSize=0mm|Usage=FLASHONLY|Rotation=270.000|XOffset=0mm|YOffset=0mm|HoleType=Round|Shape=RoundedRectangle|*
%AMROUNDEDRECTD17*
21,1,0.900,2.250,0,0,270.0*
21,1,0.450,2.700,0,0,270.0*
1,1,0.450,-1.125,-0.225*
1,1,0.450,-1.125,0.225*
1,1,0.450,1.125,0.225*
1,1,0.450,1.125,-0.225*
%
%ADD17ROUNDEDRECTD17*%
G04:AMPARAMS|DCode=18|XSize=1mm|YSize=2.8mm|CornerRadius=0.25mm|HoleSize=0mm|Usage=FLASHONLY|Rotation=270.000|XOffset=0mm|YOffset=0mm|HoleType=Round|Shape=RoundedRectangle|*
%AMROUNDEDRECTD18*
21,1,1.000,2.300,0,0,270.0*
21,1,0.500,2.800,0,0,270.0*
1,1,0.500,-1.150,-0.250*
1,1,0.500,-1.150,0.250*
1,1,0.500,1.150,0.250*
1,1,0.500,1.150,-0.250*
%
%ADD18ROUNDEDRECTD18*%
G04:AMPARAMS|DCode=19|XSize=1.5mm|YSize=1.25mm|CornerRadius=0.313mm|HoleSize=0mm|Usage=FLASHONLY|Rotation=0.000|XOffset=0mm|YOffset=0mm|HoleType=Round|Shape=RoundedRectangle|*
%AMROUNDEDRECTD19*
21,1,1.500,0.625,0,0,0.0*
21,1,0.875,1.250,0,0,0.0*
1,1,0.625,0.438,-0.313*
1,1,0.625,-0.438,-0.313*
1,1,0.625,-0.438,0.313*
1,1,0.625,0.438,0.313*
%
%ADD19ROUNDEDRECTD19*%
%ADD20O,0.500X2.250*%
G04:AMPARAMS|DCode=21|XSize=2.5mm|YSize=2mm|CornerRadius=0.5mm|HoleSize=0mm|Usage=FLASHONLY|Rotation=90.000|XOffset=0mm|YOffset=0mm|HoleType=Round|Shape=RoundedRectangle|*
%AMROUNDEDRECTD21*
21,1,2.500,1.000,0,0,90.0*
21,1,1.500,2.000,0,0,90.0*
1,1,1.000,0.500,0.750*
1,1,1.000,0.500,-0.750*
1,1,1.000,-0.500,-0.750*
1,1,1.000,-0.500,0.750*
%
%ADD21ROUNDEDRECTD21*%
%ADD22C,0.500*%
%ADD23C,1.000*%
%ADD24C,0.300*%
%ADD25C,1.600*%
%ADD26C,1.300*%
%ADD27C,1.000*%
%ADD28C,1.100*%
%ADD29C,0.700*%
G04:AMPARAMS|DCode=30|XSize=0.9mm|YSize=0.8mm|CornerRadius=0.2mm|HoleSize=0mm|Usage=FLASHONLY|Rotation=180.000|XOffset=0mm|YOffset=0mm|HoleType=Round|Shape=RoundedRectangle|*
%AMROUNDEDRECTD30*
21,1,0.900,0.400,0,0,180.0*
21,1,0.500,0.800,0,0,180.0*
1,1,0.400,-0.250,0.200*
1,1,0.400,0.250,0.200*
1,1,0.400,0.250,-0.200*
1,1,0.400,-0.250,-0.200*
%
%ADD30ROUNDEDRECTD30*%
G04:AMPARAMS|DCode=31|XSize=1.5mm|YSize=1.25mm|CornerRadius=0.313mm|HoleSize=0mm|Usage=FLASHONLY|Rotation=270.000|XOffset=0mm|YOffset=0mm|HoleType=Round|Shape=RoundedRectangle|*
%AMROUNDEDRECTD31*
21,1,1.500,0.625,0,0,270.0*
21,1,0.875,1.250,0,0,270.0*
1,1,0.625,-0.313,-0.438*
1,1,0.625,-0.313,0.438*
1,1,0.625,0.313,0.438*
1,1,0.625,0.313,-0.438*
%
%ADD31ROUNDEDRECTD31*%
%ADD32C,0.178*%
%ADD33C,0.005*%
%ADD34C,0.250*%
%ADD35C,0.254*%
%ADD36C,0.400*%
G04:AMPARAMS|DCode=37|XSize=1.503mm|YSize=1.203mm|CornerRadius=0.352mm|HoleSize=0mm|Usage=FLASHONLY|Rotation=270.000|XOffset=0mm|YOffset=0mm|HoleType=Round|Shape=RoundedRectangle|*
%AMROUNDEDRECTD37*
21,1,1.503,0.500,0,0,270.0*
21,1,0.800,1.203,0,0,270.0*
1,1,0.703,-0.250,-0.400*
1,1,0.703,-0.250,0.400*
1,1,0.703,0.250,0.400*
1,1,0.703,0.250,-0.400*
%
%ADD37ROUNDEDRECTD37*%
G04:AMPARAMS|DCode=38|XSize=1.703mm|YSize=1.503mm|CornerRadius=0.427mm|HoleSize=0mm|Usage=FLASHONLY|Rotation=270.000|XOffset=0mm|YOffset=0mm|HoleType=Round|Shape=RoundedRectangle|*
%AMROUNDEDRECTD38*
21,1,1.703,0.650,0,0,270.0*
21,1,0.850,1.503,0,0,270.0*
1,1,0.853,-0.325,-0.425*
1,1,0.853,-0.325,0.425*
1,1,0.853,0.325,0.425*
1,1,0.853,0.325,-0.425*
%
%ADD38ROUNDEDRECTD38*%
G04:AMPARAMS|DCode=39|XSize=2.1mm|YSize=0.7mm|CornerRadius=0.225mm|HoleSize=0mm|Usage=FLASHONLY|Rotation=0.000|XOffset=0mm|YOffset=0mm|HoleType=Round|Shape=RoundedRectangle|*
%AMROUNDEDRECTD39*
21,1,2.100,0.250,0,0,0.0*
21,1,1.650,0.700,0,0,0.0*
1,1,0.450,0.825,-0.125*
1,1,0.450,-0.825,-0.125*
1,1,0.450,-0.825,0.125*
1,1,0.450,0.825,0.125*
%
%ADD39ROUNDEDRECTD39*%
G04:AMPARAMS|DCode=40|XSize=2.1mm|YSize=0.7mm|CornerRadius=0.225mm|HoleSize=0mm|Usage=FLASHONLY|Rotation=90.000|XOffset=0mm|YOffset=0mm|HoleType=Round|Shape=RoundedRectangle|*
%AMROUNDEDRECTD40*
21,1,2.100,0.250,0,0,90.0*
21,1,1.650,0.700,0,0,90.0*
1,1,0.450,0.125,0.825*
1,1,0.450,0.125,-0.825*
1,1,0.450,-0.125,-0.825*
1,1,0.450,-0.125,0.825*
%
%ADD40ROUNDEDRECTD40*%
G04:AMPARAMS|DCode=41|XSize=1.503mm|YSize=1.203mm|CornerRadius=0.352mm|HoleSize=0mm|Usage=FLASHONLY|Rotation=180.000|XOffset=0mm|YOffset=0mm|HoleType=Round|Shape=RoundedRectangle|*
%AMROUNDEDRECTD41*
21,1,1.503,0.500,0,0,180.0*
21,1,0.800,1.203,0,0,180.0*
1,1,0.703,-0.400,0.250*
1,1,0.703,0.400,0.250*
1,1,0.703,0.400,-0.250*
1,1,0.703,-0.400,-0.250*
%
%ADD41ROUNDEDRECTD41*%
G04:AMPARAMS|DCode=42|XSize=1.703mm|YSize=1.503mm|CornerRadius=0.427mm|HoleSize=0mm|Usage=FLASHONLY|Rotation=0.000|XOffset=0mm|YOffset=0mm|HoleType=Round|Shape=RoundedRectangle|*
%AMROUNDEDRECTD42*
21,1,1.703,0.650,0,0,0.0*
21,1,0.850,1.503,0,0,0.0*
1,1,0.853,0.425,-0.325*
1,1,0.853,-0.425,-0.325*
1,1,0.853,-0.425,0.325*
1,1,0.853,0.425,0.325*
%
%ADD42ROUNDEDRECTD42*%
G04:AMPARAMS|DCode=43|XSize=2.853mm|YSize=1.953mm|CornerRadius=0.539mm|HoleSize=0mm|Usage=FLASHONLY|Rotation=270.000|XOffset=0mm|YOffset=0mm|HoleType=Round|Shape=RoundedRectangle|*
%AMROUNDEDRECTD43*
21,1,2.853,0.875,0,0,270.0*
21,1,1.775,1.953,0,0,270.0*
1,1,1.078,-0.438,-0.887*
1,1,1.078,-0.438,0.887*
1,1,1.078,0.438,0.887*
1,1,1.078,0.438,-0.887*
%
%ADD43ROUNDEDRECTD43*%
G04:AMPARAMS|DCode=44|XSize=1.103mm|YSize=2.903mm|CornerRadius=0.327mm|HoleSize=0mm|Usage=FLASHONLY|Rotation=270.000|XOffset=0mm|YOffset=0mm|HoleType=Round|Shape=RoundedRectangle|*
%AMROUNDEDRECTD44*
21,1,1.103,2.250,0,0,270.0*
21,1,0.450,2.903,0,0,270.0*
1,1,0.653,-1.125,-0.225*
1,1,0.653,-1.125,0.225*
1,1,0.653,1.125,0.225*
1,1,0.653,1.125,-0.225*
%
%ADD44ROUNDEDRECTD44*%
G04:AMPARAMS|DCode=45|XSize=1.203mm|YSize=3.003mm|CornerRadius=0.352mm|HoleSize=0mm|Usage=FLASHONLY|Rotation=270.000|XOffset=0mm|YOffset=0mm|HoleType=Round|Shape=RoundedRectangle|*
%AMROUNDEDRECTD45*
21,1,1.203,2.300,0,0,270.0*
21,1,0.500,3.003,0,0,270.0*
1,1,0.703,-1.150,-0.250*
1,1,0.703,-1.150,0.250*
1,1,0.703,1.150,0.250*
1,1,0.703,1.150,-0.250*
%
%ADD45ROUNDEDRECTD45*%
G04:AMPARAMS|DCode=46|XSize=1.703mm|YSize=1.453mm|CornerRadius=0.414mm|HoleSize=0mm|Usage=FLASHONLY|Rotation=0.000|XOffset=0mm|YOffset=0mm|HoleType=Round|Shape=RoundedRectangle|*
%AMROUNDEDRECTD46*
21,1,1.703,0.625,0,0,0.0*
21,1,0.875,1.453,0,0,0.0*
1,1,0.828,0.438,-0.313*
1,1,0.828,-0.438,-0.313*
1,1,0.828,-0.438,0.313*
1,1,0.828,0.438,0.313*
%
%ADD46ROUNDEDRECTD46*%
%ADD47O,0.703X2.453*%
G04:AMPARAMS|DCode=48|XSize=2.703mm|YSize=2.203mm|CornerRadius=0.602mm|HoleSize=0mm|Usage=FLASHONLY|Rotation=90.000|XOffset=0mm|YOffset=0mm|HoleType=Round|Shape=RoundedRectangle|*
%AMROUNDEDRECTD48*
21,1,2.703,1.000,0,0,90.0*
21,1,1.500,2.203,0,0,90.0*
1,1,1.203,0.500,0.750*
1,1,1.203,0.500,-0.750*
1,1,1.203,-0.500,-0.750*
1,1,1.203,-0.500,0.750*
%
%ADD48ROUNDEDRECTD48*%
%ADD49C,1.800*%
%ADD50C,1.803*%
%ADD51C,1.500*%
%ADD52C,1.503*%
%ADD53C,1.200*%
%ADD54C,1.303*%
%ADD55C,0.903*%
G04:AMPARAMS|DCode=56|XSize=1.103mm|YSize=1.003mm|CornerRadius=0.302mm|HoleSize=0mm|Usage=FLASHONLY|Rotation=180.000|XOffset=0mm|YOffset=0mm|HoleType=Round|Shape=RoundedRectangle|*
%AMROUNDEDRECTD56*
21,1,1.103,0.400,0,0,180.0*
21,1,0.500,1.003,0,0,180.0*
1,1,0.603,-0.250,0.200*
1,1,0.603,0.250,0.200*
1,1,0.603,0.250,-0.200*
1,1,0.603,-0.250,-0.200*
%
%ADD56ROUNDEDRECTD56*%
G04:AMPARAMS|DCode=57|XSize=1.703mm|YSize=1.453mm|CornerRadius=0.414mm|HoleSize=0mm|Usage=FLASHONLY|Rotation=270.000|XOffset=0mm|YOffset=0mm|HoleType=Round|Shape=RoundedRectangle|*
%AMROUNDEDRECTD57*
21,1,1.703,0.625,0,0,270.0*
21,1,0.875,1.453,0,0,270.0*
1,1,0.828,-0.313,-0.438*
1,1,0.828,-0.313,0.438*
1,1,0.828,0.313,0.438*
1,1,0.828,0.313,-0.438*
%
%ADD57ROUNDEDRECTD57*%
%ADD58C,0.200*%
%ADD59C,0.050*%
G36*
X0082246Y0060329D02*
X0082259D01*
X0082274Y0060328D01*
X008229Y0060327D01*
X0082325Y0060323D01*
X0082362Y0060319D01*
X0082398Y0060313D01*
X0082414Y0060308D01*
X0082431Y0060303D01*
X0082432D01*
X0082434Y0060302D01*
X0082439Y00603D01*
X0082445Y0060298D01*
X0082452Y0060295D01*
X008246Y0060292D01*
X0082479Y0060282D01*
X00825Y0060271D01*
X0082521Y0060257D01*
X0082541Y006024D01*
X008256Y006022D01*
Y0060219D01*
X0082562Y0060218D01*
X0082564Y0060214D01*
X0082567Y006021D01*
X0082574Y0060198D01*
X0082583Y0060182D01*
X0082591Y0060162D01*
X0082598Y0060137D01*
X0082603Y006011D01*
X0082605Y006008D01*
Y0060079D01*
Y0060077D01*
Y0060074D01*
Y0060069D01*
X0082604Y0060058D01*
X0082602Y0060044D01*
X0082599Y0060027D01*
X0082595Y0060008D01*
X0082588Y005999D01*
X008258Y0059972D01*
X0082578Y005997D01*
X0082575Y0059964D01*
X0082569Y0059956D01*
X0082562Y0059944D01*
X0082551Y0059932D01*
X0082539Y0059919D01*
X0082525Y0059907D01*
X0082508Y0059895D01*
X0082506Y0059894D01*
X00825Y005989D01*
X0082489Y0059884D01*
X0082477Y0059877D01*
X008246Y005987D01*
X008244Y0059862D01*
X0082418Y0059854D01*
X0082393Y0059847D01*
X0082392D01*
X008239Y0059846D01*
X0082386D01*
X0082381Y0059844D01*
X0082375Y0059842D01*
X0082366Y0059841D01*
X0082356Y005984D01*
X0082345Y0059837D01*
X0082332Y0059836D01*
X008232Y0059835D01*
X0082304Y0059833D01*
X0082288Y0059832D01*
X008227Y005983D01*
X0082253D01*
X0082212Y0059829D01*
X008219D01*
X0082178Y005983D01*
X0082165D01*
X008215Y0059832D01*
X0082133Y0059833D01*
X0082098Y0059836D01*
X0082062Y0059841D01*
X0082026Y0059848D01*
X0082009Y0059853D01*
X0081993Y0059857D01*
X0081992D01*
X0081989Y0059859D01*
X0081985Y005986D01*
X0081979Y0059862D01*
X0081972Y0059866D01*
X0081965Y0059869D01*
X0081946Y0059878D01*
X0081925Y005989D01*
X0081904Y0059904D01*
X0081883Y0059921D01*
X0081864Y005994D01*
Y0059942D01*
X0081862Y0059943D01*
X0081861Y0059946D01*
X0081857Y005995D01*
X008185Y0059963D01*
X0081842Y0059978D01*
X0081834Y0059999D01*
X0081827Y0060022D01*
X0081822Y0060049D01*
X008182Y006008D01*
Y0060081D01*
Y0060085D01*
Y006009D01*
X0081821Y0060099D01*
X0081822Y0060108D01*
X0081824Y0060118D01*
X0081827Y006013D01*
X0081829Y0060143D01*
X0081838Y0060171D01*
X0081845Y0060186D01*
X0081852Y00602D01*
X0081862Y0060216D01*
X0081872Y006023D01*
X0081884Y0060243D01*
X0081898Y0060255D01*
X0081899Y0060257D01*
X0081903Y0060259D01*
X0081909Y0060263D01*
X0081917Y0060267D01*
X0081927Y0060273D01*
X008194Y0060279D01*
X0081955Y0060286D01*
X0081974Y0060293D01*
X0081994Y00603D01*
X0082018Y0060307D01*
X0082043Y0060313D01*
X0082071Y0060319D01*
X0082103Y0060323D01*
X0082136Y0060327D01*
X0082173Y0060329D01*
X0082212Y006033D01*
X0082234D01*
X0082246Y0060329D01*
D02*
G37*
G36*
X0082412Y0083354D02*
X0082413Y0083351D01*
X0082416Y0083347D01*
X0082419Y0083342D01*
X0082423Y0083335D01*
X0082426Y0083327D01*
X0082437Y0083308D01*
X008245Y0083287D01*
X0082465Y0083264D01*
X0082482Y008324D01*
X0082501Y0083218D01*
X0082502Y0083217D01*
X0082503Y0083216D01*
X008251Y0083209D01*
X0082521Y0083198D01*
X0082534Y0083185D01*
X008255Y0083171D01*
X0082568Y0083157D01*
X0082587Y0083144D01*
X0082605Y0083134D01*
Y0083072D01*
X0081832D01*
Y0083166D01*
X0082434D01*
X0082433Y0083168D01*
X0082429Y0083172D01*
X0082423Y0083181D01*
X0082414Y0083191D01*
X0082404Y0083204D01*
X0082393Y0083219D01*
X0082381Y0083237D01*
X0082369Y0083257D01*
Y0083258D01*
X0082368Y0083259D01*
X0082363Y0083266D01*
X0082357Y0083277D01*
X008235Y0083289D01*
X0082342Y0083305D01*
X0082335Y0083321D01*
X0082327Y0083339D01*
X008232Y0083355D01*
X0082412D01*
Y0083354D01*
D02*
G37*
G36*
X0034099Y0117918D02*
X0033498D01*
X0033499Y0117916D01*
X0033503Y0117912D01*
X0033509Y0117903D01*
X0033518Y0117893D01*
X0033528Y011788D01*
X0033539Y0117865D01*
X0033551Y0117847D01*
X0033563Y0117827D01*
Y0117826D01*
X0033564Y0117825D01*
X0033569Y0117818D01*
X0033575Y0117807D01*
X0033582Y0117795D01*
X003359Y0117779D01*
X0033597Y0117763D01*
X0033605Y0117745D01*
X0033612Y0117729D01*
X003352D01*
Y011773D01*
X0033519Y0117733D01*
X0033516Y0117737D01*
X0033513Y0117742D01*
X0033509Y0117749D01*
X0033506Y0117757D01*
X0033495Y0117776D01*
X0033482Y0117797D01*
X0033467Y011782D01*
X003345Y0117844D01*
X0033431Y0117866D01*
X003343Y0117867D01*
X0033429Y0117868D01*
X0033422Y0117875D01*
X0033411Y0117886D01*
X0033398Y0117899D01*
X0033382Y0117913D01*
X0033364Y0117927D01*
X0033345Y011794D01*
X0033327Y011795D01*
Y0118012D01*
X0034099D01*
Y0117918D01*
D02*
G37*
G36*
X0082412Y0060854D02*
X0082413Y0060851D01*
X0082416Y0060847D01*
X0082419Y0060842D01*
X0082423Y0060835D01*
X0082426Y0060827D01*
X0082437Y0060808D01*
X008245Y0060787D01*
X0082465Y0060764D01*
X0082482Y006074D01*
X0082501Y0060718D01*
X0082502Y0060717D01*
X0082503Y0060716D01*
X008251Y0060709D01*
X0082521Y0060698D01*
X0082534Y0060685D01*
X008255Y0060671D01*
X0082568Y0060657D01*
X0082587Y0060644D01*
X0082605Y0060634D01*
Y0060572D01*
X0081832D01*
Y0060666D01*
X0082434D01*
X0082433Y0060668D01*
X0082429Y0060672D01*
X0082423Y0060681D01*
X0082414Y0060691D01*
X0082404Y0060704D01*
X0082393Y0060719D01*
X0082381Y0060737D01*
X0082369Y0060757D01*
Y0060758D01*
X0082368Y0060759D01*
X0082363Y0060766D01*
X0082357Y0060777D01*
X008235Y0060789D01*
X0082342Y0060805D01*
X0082335Y0060821D01*
X0082327Y0060839D01*
X008232Y0060855D01*
X0082412D01*
Y0060854D01*
D02*
G37*
G36*
X0023992D02*
X0023993Y0060851D01*
X0023996Y0060847D01*
X0023999Y0060842D01*
X0024003Y0060835D01*
X0024006Y0060827D01*
X0024017Y0060808D01*
X002403Y0060787D01*
X0024045Y0060764D01*
X0024062Y006074D01*
X0024081Y0060718D01*
X0024082Y0060717D01*
X0024083Y0060716D01*
X002409Y0060709D01*
X0024101Y0060698D01*
X0024114Y0060685D01*
X002413Y0060671D01*
X0024148Y0060657D01*
X0024167Y0060644D01*
X0024185Y0060634D01*
Y0060572D01*
X0023413D01*
Y0060666D01*
X0024014D01*
X0024013Y0060668D01*
X0024009Y0060672D01*
X0024003Y0060681D01*
X0023994Y0060691D01*
X0023984Y0060704D01*
X0023973Y0060719D01*
X0023961Y0060737D01*
X0023949Y0060757D01*
Y0060758D01*
X0023948Y0060759D01*
X0023943Y0060766D01*
X0023937Y0060777D01*
X002393Y0060789D01*
X0023922Y0060805D01*
X0023915Y0060821D01*
X0023907Y0060839D01*
X00239Y0060855D01*
X0023992D01*
Y0060854D01*
D02*
G37*
G36*
X0023826Y0060329D02*
X0023839D01*
X0023854Y0060328D01*
X002387Y0060327D01*
X0023905Y0060323D01*
X0023942Y0060319D01*
X0023978Y0060313D01*
X0023994Y0060308D01*
X0024011Y0060303D01*
X0024012D01*
X0024014Y0060302D01*
X0024019Y00603D01*
X0024025Y0060298D01*
X0024032Y0060295D01*
X002404Y0060292D01*
X0024059Y0060282D01*
X002408Y0060271D01*
X0024101Y0060257D01*
X0024121Y006024D01*
X002414Y006022D01*
Y0060219D01*
X0024142Y0060218D01*
X0024144Y0060214D01*
X0024147Y006021D01*
X0024154Y0060198D01*
X0024163Y0060182D01*
X0024171Y0060162D01*
X0024178Y0060137D01*
X0024183Y006011D01*
X0024185Y006008D01*
Y0060079D01*
Y0060077D01*
Y0060074D01*
Y0060069D01*
X0024184Y0060058D01*
X0024182Y0060044D01*
X0024179Y0060027D01*
X0024175Y0060008D01*
X0024168Y005999D01*
X002416Y0059972D01*
X0024158Y005997D01*
X0024155Y0059964D01*
X0024149Y0059956D01*
X0024142Y0059944D01*
X0024131Y0059932D01*
X0024119Y0059919D01*
X0024105Y0059907D01*
X0024088Y0059895D01*
X0024086Y0059894D01*
X002408Y005989D01*
X0024069Y0059884D01*
X0024057Y0059877D01*
X002404Y005987D01*
X002402Y0059862D01*
X0023998Y0059854D01*
X0023973Y0059847D01*
X0023972D01*
X002397Y0059846D01*
X0023966D01*
X0023961Y0059844D01*
X0023955Y0059842D01*
X0023946Y0059841D01*
X0023936Y005984D01*
X0023925Y0059837D01*
X0023912Y0059836D01*
X00239Y0059835D01*
X0023884Y0059833D01*
X0023868Y0059832D01*
X002385Y005983D01*
X0023833D01*
X0023792Y0059829D01*
X002377D01*
X0023758Y005983D01*
X0023745D01*
X002373Y0059832D01*
X0023713Y0059833D01*
X0023678Y0059836D01*
X0023642Y0059841D01*
X0023606Y0059848D01*
X0023589Y0059853D01*
X0023573Y0059857D01*
X0023572D01*
X0023569Y0059859D01*
X0023565Y005986D01*
X0023559Y0059862D01*
X0023552Y0059866D01*
X0023545Y0059869D01*
X0023526Y0059878D01*
X0023505Y005989D01*
X0023484Y0059904D01*
X0023463Y0059921D01*
X0023444Y005994D01*
Y0059942D01*
X0023442Y0059943D01*
X0023441Y0059946D01*
X0023437Y005995D01*
X002343Y0059963D01*
X0023422Y0059978D01*
X0023414Y0059999D01*
X0023407Y0060022D01*
X0023402Y0060049D01*
X00234Y006008D01*
Y0060081D01*
Y0060085D01*
Y006009D01*
X0023401Y0060099D01*
X0023402Y0060108D01*
X0023404Y0060118D01*
X0023407Y006013D01*
X0023409Y0060143D01*
X0023418Y0060171D01*
X0023425Y0060186D01*
X0023432Y00602D01*
X0023442Y0060216D01*
X0023452Y006023D01*
X0023464Y0060243D01*
X0023478Y0060255D01*
X0023479Y0060257D01*
X0023483Y0060259D01*
X0023489Y0060263D01*
X0023497Y0060267D01*
X0023507Y0060273D01*
X002352Y0060279D01*
X0023535Y0060286D01*
X0023554Y0060293D01*
X0023574Y00603D01*
X0023598Y0060307D01*
X0023623Y0060313D01*
X0023651Y0060319D01*
X0023683Y0060323D01*
X0023716Y0060327D01*
X0023753Y0060329D01*
X0023792Y006033D01*
X0023814D01*
X0023826Y0060329D01*
D02*
G37*
G36*
X0023992Y0083354D02*
X0023993Y0083351D01*
X0023996Y0083347D01*
X0023999Y0083342D01*
X0024003Y0083335D01*
X0024006Y0083327D01*
X0024017Y0083308D01*
X002403Y0083287D01*
X0024045Y0083264D01*
X0024062Y008324D01*
X0024081Y0083218D01*
X0024082Y0083217D01*
X0024083Y0083216D01*
X002409Y0083209D01*
X0024101Y0083198D01*
X0024114Y0083185D01*
X002413Y0083171D01*
X0024148Y0083157D01*
X0024167Y0083144D01*
X0024185Y0083134D01*
Y0083072D01*
X0023413D01*
Y0083166D01*
X0024014D01*
X0024013Y0083168D01*
X0024009Y0083172D01*
X0024003Y0083181D01*
X0023994Y0083191D01*
X0023984Y0083204D01*
X0023973Y0083219D01*
X0023961Y0083237D01*
X0023949Y0083257D01*
Y0083258D01*
X0023948Y0083259D01*
X0023943Y0083266D01*
X0023937Y0083277D01*
X002393Y0083289D01*
X0023922Y0083305D01*
X0023915Y0083321D01*
X0023907Y0083339D01*
X00239Y0083355D01*
X0023992D01*
Y0083354D01*
D02*
G37*
G36*
X0034099Y012027D02*
X0034087D01*
X0034078Y0120271D01*
X0034069Y0120273D01*
X0034059Y0120274D01*
X0034047Y0120277D01*
X0034035Y0120281D01*
X0034034D01*
X0034033Y0120282D01*
X0034026Y0120284D01*
X0034016Y0120289D01*
X0034002Y0120296D01*
X0033987Y0120304D01*
X003397Y0120316D01*
X0033952Y0120328D01*
X0033933Y0120343D01*
X0033932D01*
X0033931Y0120345D01*
X0033924Y0120351D01*
X0033913Y012036D01*
X0033899Y0120374D01*
X0033883Y0120392D01*
X0033863Y0120413D01*
X0033841Y0120439D01*
X0033816Y0120467D01*
X0033815Y0120468D01*
X0033811Y0120473D01*
X0033807Y0120479D01*
X0033799Y0120487D01*
X003379Y0120497D01*
X003378Y0120509D01*
X0033758Y0120535D01*
X0033731Y0120563D01*
X0033704Y0120591D01*
X0033691Y0120605D01*
X0033678Y0120617D01*
X0033665Y0120627D01*
X0033653Y0120637D01*
X0033652D01*
X0033651Y0120639D01*
X0033648Y0120641D01*
X0033643Y0120644D01*
X0033631Y0120651D01*
X0033616Y0120659D01*
X0033598Y0120667D01*
X003358Y0120674D01*
X0033559Y0120679D01*
X0033539Y0120681D01*
X0033536D01*
X0033529Y012068D01*
X0033519Y0120679D01*
X0033506Y0120676D01*
X0033491Y0120671D01*
X0033475Y0120664D01*
X0033459Y0120654D01*
X0033444Y012064D01*
X0033443Y0120638D01*
X0033438Y0120633D01*
X0033432Y0120624D01*
X0033424Y0120612D01*
X0033417Y0120597D01*
X0033411Y0120579D01*
X0033406Y0120558D01*
X0033405Y0120535D01*
Y0120534D01*
Y0120531D01*
Y0120528D01*
X0033406Y0120523D01*
X0033407Y0120511D01*
X003341Y0120496D01*
X0033416Y0120479D01*
X0033423Y012046D01*
X0033433Y0120442D01*
X0033447Y0120426D01*
X003345Y0120425D01*
X0033454Y012042D01*
X0033464Y0120413D01*
X0033477Y0120406D01*
X0033493Y0120398D01*
X0033512Y0120392D01*
X0033534Y0120387D01*
X003356Y0120385D01*
X0033549Y0120288D01*
X0033544D01*
X0033539Y0120289D01*
X0033532Y012029D01*
X0033522Y0120292D01*
X0033512Y0120294D01*
X0033488Y0120301D01*
X0033461Y012031D01*
X0033434Y0120323D01*
X0033407Y012034D01*
X0033396Y012035D01*
X0033384Y0120362D01*
X0033383Y0120363D01*
X0033382Y0120365D01*
X0033378Y0120369D01*
X0033375Y0120373D01*
X0033371Y012038D01*
X0033365Y0120388D01*
X0033361Y0120398D01*
X0033355Y0120408D01*
X003335Y012042D01*
X0033344Y0120433D01*
X003334Y0120448D01*
X0033336Y0120463D01*
X0033329Y0120498D01*
X0033328Y0120517D01*
X0033327Y0120537D01*
Y0120538D01*
Y0120542D01*
Y0120548D01*
X0033328Y0120556D01*
X0033329Y0120565D01*
X003333Y0120576D01*
X0033331Y0120588D01*
X0033335Y01206D01*
X0033342Y0120628D01*
X0033352Y0120658D01*
X0033359Y0120673D01*
X0033368Y0120687D01*
X0033378Y01207D01*
X0033389Y0120713D01*
X003339Y0120714D01*
X0033391Y0120715D01*
X0033395Y0120719D01*
X0033399Y0120723D01*
X0033406Y0120728D01*
X0033413Y0120734D01*
X0033431Y0120746D01*
X0033453Y0120757D01*
X0033479Y0120768D01*
X0033508Y0120776D01*
X0033525Y0120777D01*
X0033541Y0120778D01*
X0033549D01*
X0033559Y0120777D01*
X003357Y0120776D01*
X0033584Y0120774D01*
X00336Y012077D01*
X0033616Y0120765D01*
X0033632Y0120758D01*
X0033635Y0120757D01*
X003364Y0120755D01*
X0033649Y012075D01*
X003366Y0120743D01*
X0033674Y0120735D01*
X0033691Y0120725D01*
X0033707Y012071D01*
X0033726Y0120695D01*
X0033728Y0120693D01*
X0033735Y0120687D01*
X0033746Y0120676D01*
X0033753Y0120669D01*
X0033761Y0120661D01*
X003377Y0120652D01*
X0033781Y012064D01*
X0033792Y0120628D01*
X0033804Y0120616D01*
X0033817Y0120602D01*
X0033831Y0120585D01*
X0033845Y0120569D01*
X0033862Y012055D01*
X0033863Y0120549D01*
X0033865Y0120547D01*
X0033869Y0120542D01*
X0033874Y0120536D01*
X0033885Y0120522D01*
X00339Y0120504D01*
X0033917Y0120487D01*
X0033933Y0120468D01*
X0033947Y0120453D01*
X0033953Y0120447D01*
X0033959Y0120441D01*
X003396Y012044D01*
X0033964Y0120438D01*
X0033968Y0120433D01*
X0033975Y0120427D01*
X0033991Y0120414D01*
X0034009Y0120401D01*
Y012078D01*
X0034099D01*
Y012027D01*
D02*
G37*
G36*
X0082412Y0111929D02*
X0082413Y0111926D01*
X0082416Y0111922D01*
X0082419Y0111917D01*
X0082423Y011191D01*
X0082426Y0111902D01*
X0082437Y0111883D01*
X008245Y0111862D01*
X0082465Y0111839D01*
X0082482Y0111815D01*
X0082501Y0111793D01*
X0082502Y0111792D01*
X0082503Y0111791D01*
X008251Y0111784D01*
X0082521Y0111773D01*
X0082534Y011176D01*
X008255Y0111746D01*
X0082568Y0111732D01*
X0082587Y0111719D01*
X0082605Y0111709D01*
Y0111647D01*
X0081832D01*
Y0111741D01*
X0082434D01*
X0082433Y0111743D01*
X0082429Y0111747D01*
X0082423Y0111756D01*
X0082414Y0111766D01*
X0082404Y0111779D01*
X0082393Y0111794D01*
X0082381Y0111812D01*
X0082369Y0111832D01*
Y0111833D01*
X0082368Y0111834D01*
X0082363Y0111841D01*
X0082357Y0111852D01*
X008235Y0111864D01*
X0082342Y011188D01*
X0082335Y0111896D01*
X0082327Y0111914D01*
X008232Y011193D01*
X0082412D01*
Y0111929D01*
D02*
G37*
G36*
Y0089429D02*
X0082413Y0089426D01*
X0082416Y0089422D01*
X0082419Y0089417D01*
X0082423Y008941D01*
X0082426Y0089402D01*
X0082437Y0089383D01*
X008245Y0089362D01*
X0082465Y0089339D01*
X0082482Y0089315D01*
X0082501Y0089293D01*
X0082502Y0089292D01*
X0082503Y0089291D01*
X008251Y0089284D01*
X0082521Y0089273D01*
X0082534Y008926D01*
X008255Y0089246D01*
X0082568Y0089232D01*
X0082587Y0089219D01*
X0082605Y0089209D01*
Y0089147D01*
X0081832D01*
Y0089241D01*
X0082434D01*
X0082433Y0089243D01*
X0082429Y0089247D01*
X0082423Y0089256D01*
X0082414Y0089266D01*
X0082404Y0089279D01*
X0082393Y0089294D01*
X0082381Y0089312D01*
X0082369Y0089332D01*
Y0089333D01*
X0082368Y0089334D01*
X0082363Y0089341D01*
X0082357Y0089352D01*
X008235Y0089364D01*
X0082342Y008938D01*
X0082335Y0089396D01*
X0082327Y0089414D01*
X008232Y008943D01*
X0082412D01*
Y0089429D01*
D02*
G37*
G36*
X0082246Y0088904D02*
X0082259D01*
X0082274Y0088903D01*
X008229Y0088902D01*
X0082325Y0088898D01*
X0082362Y0088894D01*
X0082398Y0088888D01*
X0082414Y0088883D01*
X0082431Y0088878D01*
X0082432D01*
X0082434Y0088877D01*
X0082439Y0088875D01*
X0082445Y0088873D01*
X0082452Y008887D01*
X008246Y0088867D01*
X0082479Y0088857D01*
X00825Y0088846D01*
X0082521Y0088832D01*
X0082541Y0088815D01*
X008256Y0088795D01*
Y0088794D01*
X0082562Y0088793D01*
X0082564Y0088789D01*
X0082567Y0088785D01*
X0082574Y0088773D01*
X0082583Y0088757D01*
X0082591Y0088737D01*
X0082598Y0088712D01*
X0082603Y0088685D01*
X0082605Y0088655D01*
Y0088654D01*
Y0088652D01*
Y0088649D01*
Y0088644D01*
X0082604Y0088633D01*
X0082602Y0088619D01*
X0082599Y0088602D01*
X0082595Y0088583D01*
X0082588Y0088565D01*
X008258Y0088547D01*
X0082578Y0088545D01*
X0082575Y0088539D01*
X0082569Y0088531D01*
X0082562Y0088519D01*
X0082551Y0088507D01*
X0082539Y0088494D01*
X0082525Y0088482D01*
X0082508Y008847D01*
X0082506Y0088469D01*
X00825Y0088465D01*
X0082489Y0088459D01*
X0082477Y0088452D01*
X008246Y0088445D01*
X008244Y0088437D01*
X0082418Y0088429D01*
X0082393Y0088422D01*
X0082392D01*
X008239Y0088421D01*
X0082386D01*
X0082381Y0088419D01*
X0082375Y0088417D01*
X0082366Y0088416D01*
X0082356Y0088415D01*
X0082345Y0088412D01*
X0082332Y0088411D01*
X008232Y008841D01*
X0082304Y0088408D01*
X0082288Y0088407D01*
X008227Y0088405D01*
X0082253D01*
X0082212Y0088404D01*
X008219D01*
X0082178Y0088405D01*
X0082165D01*
X008215Y0088407D01*
X0082133Y0088408D01*
X0082098Y0088411D01*
X0082062Y0088416D01*
X0082026Y0088423D01*
X0082009Y0088428D01*
X0081993Y0088432D01*
X0081992D01*
X0081989Y0088434D01*
X0081985Y0088435D01*
X0081979Y0088437D01*
X0081972Y0088441D01*
X0081965Y0088444D01*
X0081946Y0088453D01*
X0081925Y0088465D01*
X0081904Y0088479D01*
X0081883Y0088496D01*
X0081864Y0088515D01*
Y0088517D01*
X0081862Y0088518D01*
X0081861Y0088521D01*
X0081857Y0088525D01*
X008185Y0088538D01*
X0081842Y0088553D01*
X0081834Y0088574D01*
X0081827Y0088597D01*
X0081822Y0088624D01*
X008182Y0088655D01*
Y0088656D01*
Y008866D01*
Y0088665D01*
X0081821Y0088674D01*
X0081822Y0088683D01*
X0081824Y0088693D01*
X0081827Y0088705D01*
X0081829Y0088718D01*
X0081838Y0088746D01*
X0081845Y0088761D01*
X0081852Y0088775D01*
X0081862Y0088791D01*
X0081872Y0088805D01*
X0081884Y0088818D01*
X0081898Y008883D01*
X0081899Y0088832D01*
X0081903Y0088834D01*
X0081909Y0088838D01*
X0081917Y0088842D01*
X0081927Y0088848D01*
X008194Y0088854D01*
X0081955Y0088861D01*
X0081974Y0088868D01*
X0081994Y0088875D01*
X0082018Y0088882D01*
X0082043Y0088888D01*
X0082071Y0088894D01*
X0082103Y0088898D01*
X0082136Y0088902D01*
X0082173Y0088904D01*
X0082212Y0088905D01*
X0082234D01*
X0082246Y0088904D01*
D02*
G37*
G36*
X0024065Y0118236D02*
Y0118231D01*
Y0118224D01*
X0024064Y0118216D01*
X0024063Y0118207D01*
X0024062Y0118196D01*
X0024058Y0118184D01*
X0024055Y0118173D01*
Y0118171D01*
X0024054Y011817D01*
X0024051Y0118163D01*
X0024047Y0118154D01*
X002404Y011814D01*
X0024031Y0118125D01*
X002402Y0118107D01*
X0024008Y0118089D01*
X0023993Y0118071D01*
Y011807D01*
X002399Y0118068D01*
X0023985Y0118061D01*
X0023975Y0118051D01*
X0023961Y0118037D01*
X0023944Y011802D01*
X0023922Y0118D01*
X0023897Y0117978D01*
X0023869Y0117954D01*
X0023867Y0117952D01*
X0023863Y0117949D01*
X0023857Y0117944D01*
X0023849Y0117936D01*
X0023838Y0117928D01*
X0023826Y0117917D01*
X0023801Y0117895D01*
X0023773Y0117868D01*
X0023744Y0117841D01*
X002373Y0117828D01*
X0023719Y0117815D01*
X0023708Y0117803D01*
X0023699Y0117791D01*
Y011779D01*
X0023696Y0117789D01*
X0023694Y0117785D01*
X0023692Y011778D01*
X0023685Y0117769D01*
X0023677Y0117753D01*
X0023668Y0117736D01*
X0023661Y0117717D01*
X0023657Y0117696D01*
X0023654Y0117676D01*
Y0117675D01*
Y0117674D01*
X0023656Y0117667D01*
X0023657Y0117656D01*
X0023659Y0117643D01*
X0023665Y0117628D01*
X0023672Y0117613D01*
X0023681Y0117596D01*
X0023695Y0117581D01*
X0023698Y011758D01*
X0023702Y0117575D01*
X0023712Y011757D01*
X0023723Y0117561D01*
X0023739Y0117554D01*
X0023756Y0117548D01*
X0023777Y0117544D01*
X0023801Y0117543D01*
X0023808D01*
X0023812Y0117544D01*
X0023824Y0117545D01*
X0023839Y0117547D01*
X0023857Y0117553D01*
X0023876Y011756D01*
X0023893Y0117571D01*
X002391Y0117585D01*
X0023911Y0117587D01*
X0023915Y0117592D01*
X0023922Y0117601D01*
X002393Y0117614D01*
X0023938Y011763D01*
X0023944Y0117649D01*
X0023948Y0117671D01*
X0023951Y0117697D01*
X0024048Y0117687D01*
Y0117685D01*
Y0117682D01*
X0024047Y0117676D01*
X0024045Y0117669D01*
X0024043Y011766D01*
X0024042Y0117649D01*
X0024035Y0117626D01*
X0024026Y0117599D01*
X0024013Y0117572D01*
X0023995Y0117545D01*
X0023986Y0117533D01*
X0023974Y0117522D01*
X0023973Y011752D01*
X002397Y0117519D01*
X0023967Y0117516D01*
X0023962Y0117512D01*
X0023955Y0117509D01*
X0023947Y0117503D01*
X0023938Y0117498D01*
X0023927Y0117492D01*
X0023915Y0117488D01*
X0023903Y0117482D01*
X0023887Y0117477D01*
X0023872Y0117474D01*
X0023837Y0117467D01*
X0023818Y0117465D01*
X0023798Y0117464D01*
X0023788D01*
X002378Y0117465D01*
X002377Y0117467D01*
X002376Y0117468D01*
X0023748Y0117469D01*
X0023735Y0117472D01*
X0023707Y0117479D01*
X0023678Y011749D01*
X0023663Y0117497D01*
X0023648Y0117505D01*
X0023636Y0117516D01*
X0023623Y0117526D01*
X0023622Y0117527D01*
X002362Y0117529D01*
X0023617Y0117532D01*
X0023612Y0117537D01*
X0023607Y0117544D01*
X0023602Y0117551D01*
X002359Y0117568D01*
X0023578Y0117591D01*
X0023568Y0117616D01*
X0023559Y0117646D01*
X0023558Y0117662D01*
X0023557Y0117678D01*
Y0117681D01*
Y0117687D01*
X0023558Y0117696D01*
X0023559Y0117708D01*
X0023562Y0117722D01*
X0023565Y0117737D01*
X002357Y0117753D01*
X0023577Y011777D01*
X0023578Y0117772D01*
X0023581Y0117778D01*
X0023585Y0117786D01*
X0023592Y0117798D01*
X00236Y0117812D01*
X0023611Y0117828D01*
X0023625Y0117845D01*
X002364Y0117863D01*
X0023643Y0117866D01*
X0023648Y0117873D01*
X0023659Y0117883D01*
X0023666Y011789D01*
X0023674Y0117899D01*
X0023684Y0117908D01*
X0023695Y0117919D01*
X0023707Y0117929D01*
X002372Y0117942D01*
X0023734Y0117955D01*
X002375Y0117969D01*
X0023767Y0117983D01*
X0023785Y0117999D01*
X0023787Y0118D01*
X0023789Y0118003D01*
X0023794Y0118006D01*
X00238Y0118011D01*
X0023814Y0118023D01*
X0023831Y0118038D01*
X0023849Y0118054D01*
X0023867Y0118071D01*
X0023883Y0118085D01*
X0023889Y0118091D01*
X0023894Y0118096D01*
X0023896Y0118098D01*
X0023898Y0118101D01*
X0023903Y0118106D01*
X0023908Y0118113D01*
X0023921Y0118128D01*
X0023934Y0118147D01*
X0023556D01*
Y0118237D01*
X0024065D01*
Y0118236D01*
D02*
G37*
G36*
X0030361Y0120776D02*
X0030362Y0120773D01*
X0030365Y0120769D01*
X0030368Y0120764D01*
X0030372Y0120757D01*
X0030375Y0120749D01*
X0030386Y012073D01*
X0030399Y0120709D01*
X0030414Y0120686D01*
X0030431Y0120662D01*
X003045Y012064D01*
X0030451Y0120639D01*
X0030452Y0120638D01*
X0030459Y0120631D01*
X003047Y012062D01*
X0030483Y0120607D01*
X0030499Y0120593D01*
X0030517Y0120579D01*
X0030536Y0120566D01*
X0030554Y0120556D01*
Y0120494D01*
X0029781D01*
Y0120588D01*
X0030383D01*
X0030382Y012059D01*
X0030378Y0120594D01*
X0030372Y0120603D01*
X0030363Y0120613D01*
X0030353Y0120626D01*
X0030342Y0120641D01*
X003033Y0120659D01*
X0030318Y0120679D01*
Y012068D01*
X0030317Y0120681D01*
X0030312Y0120688D01*
X0030306Y0120699D01*
X0030299Y0120711D01*
X0030291Y0120727D01*
X0030284Y0120743D01*
X0030276Y0120761D01*
X0030269Y0120777D01*
X0030361D01*
Y0120776D01*
D02*
G37*
G36*
X0029803Y0118235D02*
X0029812Y0118233D01*
X0029822Y0118232D01*
X0029834Y0118229D01*
X0029846Y0118225D01*
X0029847D01*
X0029848Y0118224D01*
X0029855Y0118222D01*
X0029865Y0118217D01*
X0029879Y011821D01*
X0029894Y0118202D01*
X0029911Y011819D01*
X0029929Y0118178D01*
X0029948Y0118163D01*
X0029949D01*
X002995Y0118161D01*
X0029957Y0118155D01*
X0029968Y0118146D01*
X0029982Y0118132D01*
X0029998Y0118114D01*
X0030018Y0118093D01*
X003004Y0118067D01*
X0030065Y0118039D01*
X0030066Y0118038D01*
X003007Y0118033D01*
X0030074Y0118027D01*
X0030082Y0118019D01*
X0030091Y0118009D01*
X0030101Y0117997D01*
X0030123Y0117971D01*
X003015Y0117943D01*
X0030177Y0117915D01*
X003019Y0117901D01*
X0030203Y0117889D01*
X0030216Y0117879D01*
X0030228Y0117869D01*
X0030229D01*
X003023Y0117867D01*
X0030233Y0117865D01*
X0030238Y0117862D01*
X003025Y0117855D01*
X0030265Y0117847D01*
X0030283Y0117839D01*
X0030301Y0117832D01*
X0030322Y0117827D01*
X0030342Y0117825D01*
X0030345D01*
X0030352Y0117826D01*
X0030362Y0117827D01*
X0030375Y011783D01*
X003039Y0117835D01*
X0030406Y0117842D01*
X0030422Y0117852D01*
X0030437Y0117866D01*
X0030438Y0117868D01*
X0030443Y0117873D01*
X0030449Y0117882D01*
X0030457Y0117894D01*
X0030464Y0117909D01*
X003047Y0117927D01*
X0030475Y0117948D01*
X0030476Y0117971D01*
Y0117972D01*
Y0117975D01*
Y0117978D01*
X0030475Y0117983D01*
X0030474Y0117995D01*
X0030471Y011801D01*
X0030465Y0118027D01*
X0030458Y0118046D01*
X0030448Y0118064D01*
X0030434Y011808D01*
X0030431Y0118081D01*
X0030427Y0118086D01*
X0030417Y0118093D01*
X0030404Y01181D01*
X0030388Y0118108D01*
X0030369Y0118114D01*
X0030347Y0118119D01*
X0030321Y0118121D01*
X0030332Y0118218D01*
X0030337D01*
X0030342Y0118217D01*
X0030349Y0118216D01*
X0030359Y0118214D01*
X0030369Y0118212D01*
X0030393Y0118205D01*
X003042Y0118196D01*
X0030447Y0118183D01*
X0030474Y0118166D01*
X0030485Y0118156D01*
X0030497Y0118145D01*
X0030498Y0118143D01*
X0030499Y0118141D01*
X0030503Y0118137D01*
X0030506Y0118133D01*
X003051Y0118126D01*
X0030516Y0118118D01*
X003052Y0118108D01*
X0030526Y0118098D01*
X0030531Y0118086D01*
X0030537Y0118073D01*
X0030541Y0118058D01*
X0030545Y0118043D01*
X0030552Y0118007D01*
X0030553Y0117989D01*
X0030554Y0117969D01*
Y0117968D01*
Y0117964D01*
Y0117958D01*
X0030553Y011795D01*
X0030552Y0117941D01*
X0030551Y011793D01*
X003055Y0117919D01*
X0030546Y0117906D01*
X0030539Y0117878D01*
X0030529Y0117848D01*
X0030522Y0117833D01*
X0030513Y0117819D01*
X0030503Y0117806D01*
X0030492Y0117793D01*
X0030491Y0117792D01*
X003049Y0117791D01*
X0030486Y0117787D01*
X0030482Y0117783D01*
X0030475Y0117778D01*
X0030468Y0117772D01*
X003045Y011776D01*
X0030428Y0117749D01*
X0030402Y0117738D01*
X0030373Y011773D01*
X0030356Y0117729D01*
X003034Y0117728D01*
X0030332D01*
X0030322Y0117729D01*
X0030311Y011773D01*
X0030297Y0117732D01*
X0030281Y0117736D01*
X0030265Y0117741D01*
X0030249Y0117748D01*
X0030246Y0117749D01*
X0030241Y0117751D01*
X0030232Y0117756D01*
X0030221Y0117763D01*
X0030207Y0117771D01*
X003019Y0117782D01*
X0030174Y0117796D01*
X0030155Y0117811D01*
X0030153Y0117813D01*
X0030146Y0117819D01*
X0030135Y011783D01*
X0030128Y0117837D01*
X003012Y0117845D01*
X0030111Y0117854D01*
X00301Y0117866D01*
X0030089Y0117878D01*
X0030077Y011789D01*
X0030064Y0117904D01*
X003005Y0117921D01*
X0030036Y0117937D01*
X0030019Y0117956D01*
X0030018Y0117957D01*
X0030016Y0117959D01*
X0030012Y0117964D01*
X0030007Y011797D01*
X0029996Y0117984D01*
X0029981Y0118002D01*
X0029964Y0118019D01*
X0029948Y0118038D01*
X0029934Y0118053D01*
X0029928Y0118059D01*
X0029922Y0118065D01*
X0029921Y0118066D01*
X0029917Y0118068D01*
X0029913Y0118073D01*
X0029906Y0118079D01*
X002989Y0118092D01*
X0029872Y0118105D01*
Y0117726D01*
X0029781D01*
Y0118236D01*
X0029794D01*
X0029803Y0118235D01*
D02*
G37*
G36*
X0026418Y0117635D02*
X0026419Y0117636D01*
X0026424Y0117641D01*
X0026432Y0117647D01*
X0026443Y0117655D01*
X0026455Y0117666D01*
X0026471Y0117676D01*
X0026488Y0117689D01*
X0026508Y0117701D01*
X0026509D01*
X002651Y0117702D01*
X0026518Y0117707D01*
X0026528Y0117712D01*
X0026541Y0117719D01*
X0026556Y0117728D01*
X0026573Y0117735D01*
X002659Y0117743D01*
X0026607Y011775D01*
Y0117657D01*
X0026605D01*
X0026603Y0117656D01*
X0026598Y0117654D01*
X0026594Y011765D01*
X0026587Y0117647D01*
X0026578Y0117643D01*
X002656Y0117633D01*
X0026539Y011762D01*
X0026515Y0117605D01*
X0026492Y0117587D01*
X0026469Y0117568D01*
X0026468Y0117567D01*
X0026467Y0117566D01*
X002646Y0117559D01*
X002645Y0117548D01*
X0026437Y0117536D01*
X0026423Y0117519D01*
X0026409Y0117502D01*
X0026396Y0117483D01*
X0026385Y0117464D01*
X0026323D01*
Y0118237D01*
X0026418D01*
Y0117635D01*
D02*
G37*
G36*
X0023826Y0088904D02*
X0023839D01*
X0023854Y0088903D01*
X002387Y0088902D01*
X0023905Y0088898D01*
X0023942Y0088894D01*
X0023978Y0088888D01*
X0023994Y0088883D01*
X0024011Y0088878D01*
X0024012D01*
X0024014Y0088877D01*
X0024019Y0088875D01*
X0024025Y0088873D01*
X0024032Y008887D01*
X002404Y0088867D01*
X0024059Y0088857D01*
X002408Y0088846D01*
X0024101Y0088832D01*
X0024121Y0088815D01*
X002414Y0088795D01*
Y0088794D01*
X0024142Y0088793D01*
X0024144Y0088789D01*
X0024147Y0088785D01*
X0024154Y0088773D01*
X0024163Y0088757D01*
X0024171Y0088737D01*
X0024178Y0088712D01*
X0024183Y0088685D01*
X0024185Y0088655D01*
Y0088654D01*
Y0088652D01*
Y0088649D01*
Y0088644D01*
X0024184Y0088633D01*
X0024182Y0088619D01*
X0024179Y0088602D01*
X0024175Y0088583D01*
X0024168Y0088565D01*
X002416Y0088547D01*
X0024158Y0088545D01*
X0024155Y0088539D01*
X0024149Y0088531D01*
X0024142Y0088519D01*
X0024131Y0088507D01*
X0024119Y0088494D01*
X0024105Y0088482D01*
X0024088Y008847D01*
X0024086Y0088469D01*
X002408Y0088465D01*
X0024069Y0088459D01*
X0024057Y0088452D01*
X002404Y0088445D01*
X002402Y0088437D01*
X0023998Y0088429D01*
X0023973Y0088422D01*
X0023972D01*
X002397Y0088421D01*
X0023966D01*
X0023961Y0088419D01*
X0023955Y0088417D01*
X0023946Y0088416D01*
X0023936Y0088415D01*
X0023925Y0088412D01*
X0023912Y0088411D01*
X00239Y008841D01*
X0023884Y0088408D01*
X0023868Y0088407D01*
X002385Y0088405D01*
X0023833D01*
X0023792Y0088404D01*
X002377D01*
X0023758Y0088405D01*
X0023745D01*
X002373Y0088407D01*
X0023713Y0088408D01*
X0023678Y0088411D01*
X0023642Y0088416D01*
X0023606Y0088423D01*
X0023589Y0088428D01*
X0023573Y0088432D01*
X0023572D01*
X0023569Y0088434D01*
X0023565Y0088435D01*
X0023559Y0088437D01*
X0023552Y0088441D01*
X0023545Y0088444D01*
X0023526Y0088453D01*
X0023505Y0088465D01*
X0023484Y0088479D01*
X0023463Y0088496D01*
X0023444Y0088515D01*
Y0088517D01*
X0023442Y0088518D01*
X0023441Y0088521D01*
X0023437Y0088525D01*
X002343Y0088538D01*
X0023422Y0088553D01*
X0023414Y0088574D01*
X0023407Y0088597D01*
X0023402Y0088624D01*
X00234Y0088655D01*
Y0088656D01*
Y008866D01*
Y0088665D01*
X0023401Y0088674D01*
X0023402Y0088683D01*
X0023404Y0088693D01*
X0023407Y0088705D01*
X0023409Y0088718D01*
X0023418Y0088746D01*
X0023425Y0088761D01*
X0023432Y0088775D01*
X0023442Y0088791D01*
X0023452Y0088805D01*
X0023464Y0088818D01*
X0023478Y008883D01*
X0023479Y0088832D01*
X0023483Y0088834D01*
X0023489Y0088838D01*
X0023497Y0088842D01*
X0023507Y0088848D01*
X002352Y0088854D01*
X0023535Y0088861D01*
X0023554Y0088868D01*
X0023574Y0088875D01*
X0023598Y0088882D01*
X0023623Y0088888D01*
X0023651Y0088894D01*
X0023683Y0088898D01*
X0023716Y0088902D01*
X0023753Y0088904D01*
X0023792Y0088905D01*
X0023814D01*
X0023826Y0088904D01*
D02*
G37*
G36*
X0048035Y0120936D02*
X0047728D01*
X0047686Y0120729D01*
X0047687Y012073D01*
X0047689Y0120732D01*
X0047693Y0120734D01*
X0047697Y0120737D01*
X0047704Y0120741D01*
X0047711Y0120744D01*
X004773Y0120754D01*
X0047751Y0120763D01*
X0047776Y012077D01*
X0047803Y0120776D01*
X0047831Y0120778D01*
X004784D01*
X0047847Y0120777D01*
X0047857Y0120776D01*
X0047866Y0120775D01*
X0047878Y0120772D01*
X0047889Y012077D01*
X0047916Y0120761D01*
X004793Y0120756D01*
X0047944Y0120749D01*
X004796Y0120741D01*
X0047974Y0120732D01*
X0047988Y0120721D01*
X0048001Y0120708D01*
X0048002Y0120707D01*
X0048004Y0120705D01*
X0048008Y0120701D01*
X0048011Y0120695D01*
X0048017Y0120688D01*
X0048023Y012068D01*
X0048029Y0120671D01*
X0048036Y012066D01*
X0048043Y0120647D01*
X0048049Y0120634D01*
X0048054Y0120619D01*
X004806Y0120604D01*
X0048064Y0120586D01*
X0048067Y0120569D01*
X004807Y0120549D01*
X0048071Y0120529D01*
Y0120528D01*
Y0120524D01*
Y0120518D01*
X004807Y0120511D01*
X0048069Y0120502D01*
X0048067Y0120491D01*
X0048066Y012048D01*
X0048064Y0120467D01*
X0048056Y0120439D01*
X0048045Y012041D01*
X0048038Y0120393D01*
X004803Y0120378D01*
X0048021Y0120363D01*
X004801Y0120349D01*
X0048009Y0120347D01*
X0048006Y0120345D01*
X0048002Y012034D01*
X0047996Y0120335D01*
X0047989Y0120328D01*
X004798Y0120319D01*
X0047969Y0120311D01*
X0047956Y0120303D01*
X0047943Y0120294D01*
X0047928Y0120285D01*
X004791Y0120277D01*
X0047893Y012027D01*
X0047873Y0120264D01*
X0047853Y012026D01*
X0047831Y0120257D01*
X0047807Y0120256D01*
X0047797D01*
X004779Y0120257D01*
X0047782Y0120258D01*
X0047771Y012026D01*
X0047759Y0120261D01*
X0047747Y0120263D01*
X004772Y012027D01*
X0047691Y0120281D01*
X0047677Y0120288D01*
X0047663Y0120296D01*
X0047649Y0120304D01*
X0047636Y0120315D01*
X0047635Y0120316D01*
X0047634Y0120317D01*
X0047631Y0120321D01*
X0047626Y0120325D01*
X0047621Y0120331D01*
X0047615Y0120338D01*
X004761Y0120346D01*
X0047602Y0120356D01*
X004759Y0120378D01*
X0047577Y0120405D01*
X0047567Y0120435D01*
X0047564Y0120453D01*
X0047562Y012047D01*
X0047661Y0120477D01*
Y0120476D01*
Y0120474D01*
X0047662Y012047D01*
X0047663Y0120466D01*
X0047667Y0120453D01*
X0047672Y0120436D01*
X0047677Y0120419D01*
X0047687Y0120401D01*
X0047697Y0120384D01*
X0047711Y0120369D01*
X0047714Y0120367D01*
X0047718Y0120363D01*
X0047727Y0120358D01*
X0047738Y0120351D01*
X0047752Y0120345D01*
X0047769Y0120339D01*
X0047787Y0120335D01*
X0047807Y0120333D01*
X0047814D01*
X0047819Y0120335D01*
X0047832Y0120336D01*
X0047848Y0120339D01*
X0047866Y0120346D01*
X0047886Y0120354D01*
X0047905Y0120367D01*
X0047914Y0120374D01*
X0047923Y0120384D01*
Y0120385D01*
X0047926Y0120386D01*
X004793Y0120393D01*
X0047939Y0120405D01*
X0047947Y012042D01*
X0047955Y012044D01*
X0047963Y0120463D01*
X0047968Y012049D01*
X004797Y0120521D01*
Y0120522D01*
Y0120524D01*
Y0120529D01*
X0047969Y0120534D01*
Y0120541D01*
X0047968Y0120549D01*
X0047964Y0120568D01*
X004796Y0120588D01*
X0047951Y0120609D01*
X004794Y012063D01*
X0047924Y0120648D01*
X0047922Y0120651D01*
X0047916Y0120655D01*
X0047907Y0120664D01*
X0047893Y0120672D01*
X0047876Y012068D01*
X0047855Y0120688D01*
X0047832Y0120693D01*
X0047806Y0120695D01*
X0047798D01*
X004779Y0120694D01*
X0047778Y0120693D01*
X0047765Y0120689D01*
X0047751Y0120686D01*
X0047737Y012068D01*
X0047723Y0120673D01*
X0047722Y0120672D01*
X0047717Y0120669D01*
X004771Y0120665D01*
X0047702Y0120659D01*
X0047694Y0120651D01*
X0047684Y0120641D01*
X0047675Y0120631D01*
X0047667Y0120619D01*
X0047578Y0120632D01*
X0047653Y0121027D01*
X0048035D01*
Y0120936D01*
D02*
G37*
G36*
X0037685Y0120269D02*
X003759D01*
Y0120871D01*
X0037589Y012087D01*
X0037584Y0120865D01*
X0037576Y0120859D01*
X0037565Y0120851D01*
X0037553Y012084D01*
X0037537Y012083D01*
X003752Y0120817D01*
X00375Y0120805D01*
X0037499D01*
X0037498Y0120804D01*
X003749Y0120799D01*
X003748Y0120794D01*
X0037467Y0120787D01*
X0037452Y0120778D01*
X0037435Y0120771D01*
X0037418Y0120763D01*
X0037402Y0120756D01*
Y0120849D01*
X0037403D01*
X0037405Y012085D01*
X003741Y0120852D01*
X0037414Y0120856D01*
X0037421Y0120859D01*
X003743Y0120863D01*
X0037448Y0120873D01*
X0037469Y0120886D01*
X0037493Y0120901D01*
X0037516Y0120919D01*
X0037539Y0120938D01*
X003754Y0120939D01*
X0037541Y012094D01*
X0037548Y0120947D01*
X0037558Y0120958D01*
X0037571Y012097D01*
X0037585Y0120987D01*
X0037599Y0121004D01*
X0037612Y0121023D01*
X0037623Y0121042D01*
X0037685D01*
Y0120269D01*
D02*
G37*
G36*
X0082Y0140269D02*
X0082009Y0140268D01*
X0082019Y0140267D01*
X0082031Y0140263D01*
X0082043Y014026D01*
X0082044D01*
X0082045Y0140259D01*
X0082052Y0140256D01*
X0082062Y0140252D01*
X0082076Y0140245D01*
X0082091Y0140236D01*
X0082108Y0140225D01*
X0082126Y0140213D01*
X0082145Y0140198D01*
X0082146D01*
X0082147Y0140195D01*
X0082154Y014019D01*
X0082165Y014018D01*
X0082179Y0140166D01*
X0082195Y0140149D01*
X0082215Y0140127D01*
X0082237Y0140102D01*
X0082262Y0140074D01*
X0082263Y0140072D01*
X0082267Y0140068D01*
X0082271Y0140062D01*
X0082279Y0140054D01*
X0082288Y0140043D01*
X0082298Y0140031D01*
X008232Y0140006D01*
X0082347Y0139978D01*
X0082374Y0139949D01*
X0082387Y0139935D01*
X00824Y0139924D01*
X0082413Y0139913D01*
X0082425Y0139904D01*
X0082426D01*
X0082427Y0139901D01*
X008243Y0139899D01*
X0082435Y0139897D01*
X0082447Y013989D01*
X0082462Y0139882D01*
X008248Y0139873D01*
X0082498Y0139866D01*
X0082519Y0139862D01*
X0082539Y0139859D01*
X0082542D01*
X0082549Y0139861D01*
X0082559Y0139862D01*
X0082572Y0139864D01*
X0082587Y013987D01*
X0082603Y0139877D01*
X0082619Y0139886D01*
X0082634Y01399D01*
X0082635Y0139903D01*
X008264Y0139907D01*
X0082646Y0139917D01*
X0082654Y0139928D01*
X0082661Y0139944D01*
X0082667Y0139961D01*
X0082672Y0139982D01*
X0082673Y0140006D01*
Y0140007D01*
Y0140009D01*
Y0140013D01*
X0082672Y0140017D01*
X0082671Y0140029D01*
X0082668Y0140044D01*
X0082662Y0140062D01*
X0082655Y0140081D01*
X0082645Y0140098D01*
X0082631Y0140115D01*
X0082628Y0140116D01*
X0082624Y014012D01*
X0082614Y0140127D01*
X0082601Y0140135D01*
X0082585Y0140143D01*
X0082566Y0140149D01*
X0082544Y0140153D01*
X0082518Y0140156D01*
X0082529Y0140253D01*
X0082534D01*
X0082539Y0140252D01*
X0082546Y014025D01*
X0082556Y0140248D01*
X0082566Y0140247D01*
X008259Y014024D01*
X0082617Y0140231D01*
X0082644Y0140218D01*
X0082671Y01402D01*
X0082682Y0140191D01*
X0082694Y0140179D01*
X0082695Y0140178D01*
X0082696Y0140175D01*
X00827Y0140172D01*
X0082703Y0140167D01*
X0082707Y014016D01*
X0082713Y0140152D01*
X0082717Y0140143D01*
X0082723Y0140132D01*
X0082728Y014012D01*
X0082734Y0140108D01*
X0082738Y0140092D01*
X0082742Y0140077D01*
X0082749Y0140042D01*
X008275Y0140023D01*
X0082751Y0140003D01*
Y0140002D01*
Y0139999D01*
Y0139993D01*
X008275Y0139985D01*
X0082749Y0139975D01*
X0082748Y0139965D01*
X0082747Y0139953D01*
X0082743Y013994D01*
X0082736Y0139912D01*
X0082726Y0139883D01*
X0082719Y0139868D01*
X008271Y0139853D01*
X00827Y0139841D01*
X0082689Y0139828D01*
X0082688Y0139827D01*
X0082687Y0139825D01*
X0082683Y0139822D01*
X0082679Y0139817D01*
X0082672Y0139812D01*
X0082665Y0139807D01*
X0082647Y0139795D01*
X0082625Y0139783D01*
X0082599Y0139773D01*
X008257Y0139764D01*
X0082553Y0139763D01*
X0082537Y0139762D01*
X0082529D01*
X0082519Y0139763D01*
X0082508Y0139764D01*
X0082494Y0139767D01*
X0082478Y013977D01*
X0082462Y0139775D01*
X0082446Y0139782D01*
X0082443Y0139783D01*
X0082438Y0139786D01*
X0082429Y013979D01*
X0082418Y0139797D01*
X0082404Y0139805D01*
X0082387Y0139816D01*
X0082371Y013983D01*
X0082352Y0139845D01*
X008235Y0139848D01*
X0082343Y0139853D01*
X0082332Y0139864D01*
X0082325Y0139871D01*
X0082317Y0139879D01*
X0082308Y0139889D01*
X0082297Y01399D01*
X0082286Y0139912D01*
X0082274Y0139925D01*
X0082261Y0139939D01*
X0082247Y0139955D01*
X0082233Y0139972D01*
X0082216Y013999D01*
X0082215Y0139992D01*
X0082213Y0139994D01*
X0082209Y0139999D01*
X0082204Y0140005D01*
X0082193Y0140019D01*
X0082178Y0140036D01*
X0082161Y0140054D01*
X0082145Y0140072D01*
X0082131Y0140088D01*
X0082125Y0140094D01*
X0082119Y0140099D01*
X0082118Y0140101D01*
X0082114Y0140103D01*
X008211Y0140108D01*
X0082103Y0140113D01*
X0082087Y0140126D01*
X0082069Y0140139D01*
Y0139761D01*
X0081979D01*
Y014027D01*
X0081991D01*
X0082Y0140269D01*
D02*
G37*
G36*
X0082558Y014281D02*
X0082559Y0142808D01*
X0082562Y0142803D01*
X0082565Y0142799D01*
X0082569Y0142792D01*
X0082572Y0142783D01*
X0082583Y0142765D01*
X0082596Y0142744D01*
X0082611Y014272D01*
X0082628Y0142697D01*
X0082647Y0142674D01*
X0082648Y0142673D01*
X0082649Y0142672D01*
X0082656Y0142665D01*
X0082667Y0142655D01*
X008268Y0142642D01*
X0082696Y0142628D01*
X0082714Y0142614D01*
X0082733Y0142601D01*
X0082751Y014259D01*
Y0142528D01*
X0081979D01*
Y0142623D01*
X008258D01*
X0082579Y0142624D01*
X0082575Y0142629D01*
X0082569Y0142637D01*
X008256Y0142648D01*
X008255Y014266D01*
X0082539Y0142676D01*
X0082526Y0142693D01*
X0082515Y0142713D01*
Y0142714D01*
X0082514Y0142715D01*
X0082509Y0142723D01*
X0082503Y0142733D01*
X0082496Y0142746D01*
X0082488Y0142761D01*
X0082481Y0142778D01*
X0082473Y0142795D01*
X0082466Y0142811D01*
X0082558D01*
Y014281D01*
D02*
G37*
G36*
X0023843Y0120269D02*
X0023748D01*
Y0120871D01*
X0023747Y012087D01*
X0023742Y0120865D01*
X0023734Y0120859D01*
X0023723Y0120851D01*
X002371Y012084D01*
X0023695Y012083D01*
X0023678Y0120817D01*
X0023658Y0120805D01*
X0023656D01*
X0023655Y0120804D01*
X0023648Y0120799D01*
X0023638Y0120794D01*
X0023625Y0120787D01*
X002361Y0120778D01*
X0023593Y0120771D01*
X0023576Y0120763D01*
X0023559Y0120756D01*
Y0120849D01*
X002356D01*
X0023563Y012085D01*
X0023567Y0120852D01*
X0023572Y0120856D01*
X0023579Y0120859D01*
X0023587Y0120863D01*
X0023606Y0120873D01*
X0023627Y0120886D01*
X0023651Y0120901D01*
X0023674Y0120919D01*
X0023696Y0120938D01*
X0023697Y0120939D01*
X0023699Y012094D01*
X0023706Y0120947D01*
X0023716Y0120958D01*
X0023729Y012097D01*
X0023743Y0120987D01*
X0023757Y0121004D01*
X002377Y0121023D01*
X0023781Y0121042D01*
X0023843D01*
Y0120269D01*
D02*
G37*
G36*
X0026386Y0121041D02*
X0026396Y0121039D01*
X0026406Y0121038D01*
X0026418Y0121037D01*
X0026431Y0121034D01*
X0026459Y0121027D01*
X0026488Y0121016D01*
X0026503Y0121009D01*
X0026517Y0121001D01*
X002653Y012099D01*
X0026543Y012098D01*
X0026544Y0120979D01*
X0026545Y0120977D01*
X0026549Y0120974D01*
X0026554Y0120969D01*
X0026558Y0120962D01*
X0026564Y0120955D01*
X0026576Y0120938D01*
X0026588Y0120915D01*
X0026598Y012089D01*
X0026606Y012086D01*
X0026607Y0120844D01*
X0026609Y0120828D01*
Y0120825D01*
Y0120819D01*
X0026607Y012081D01*
X0026606Y0120798D01*
X0026604Y0120784D01*
X00266Y0120769D01*
X0026596Y0120753D01*
X0026589Y0120736D01*
X0026588Y0120734D01*
X0026585Y0120728D01*
X0026581Y012072D01*
X0026573Y0120708D01*
X0026565Y0120694D01*
X0026555Y0120678D01*
X0026541Y0120661D01*
X0026525Y0120643D01*
X0026523Y012064D01*
X0026517Y0120633D01*
X0026507Y0120623D01*
X00265Y0120616D01*
X0026492Y0120607D01*
X0026482Y0120598D01*
X002647Y0120588D01*
X0026459Y0120577D01*
X0026446Y0120564D01*
X0026432Y0120551D01*
X0026415Y0120537D01*
X0026399Y0120523D01*
X002638Y0120507D01*
X0026379Y0120506D01*
X0026377Y0120503D01*
X0026372Y01205D01*
X0026366Y0120495D01*
X0026352Y0120483D01*
X0026335Y0120468D01*
X0026317Y0120452D01*
X0026298Y0120435D01*
X0026283Y0120421D01*
X0026277Y0120415D01*
X0026271Y012041D01*
X002627Y0120408D01*
X0026268Y0120405D01*
X0026263Y01204D01*
X0026257Y0120393D01*
X0026244Y0120378D01*
X0026232Y0120359D01*
X002661D01*
Y0120269D01*
X00261D01*
Y012027D01*
Y0120275D01*
Y0120282D01*
X0026102Y012029D01*
X0026103Y0120299D01*
X0026104Y012031D01*
X0026107Y0120322D01*
X0026111Y0120333D01*
Y0120335D01*
X0026112Y0120336D01*
X0026114Y0120343D01*
X0026119Y0120352D01*
X0026126Y0120366D01*
X0026134Y0120381D01*
X0026146Y0120399D01*
X0026158Y0120417D01*
X0026173Y0120435D01*
Y0120436D01*
X0026175Y0120438D01*
X0026181Y0120445D01*
X0026191Y0120455D01*
X0026205Y0120469D01*
X0026222Y0120486D01*
X0026243Y0120506D01*
X0026269Y0120528D01*
X0026297Y0120552D01*
X0026298Y0120554D01*
X0026303Y0120557D01*
X0026309Y0120562D01*
X0026317Y012057D01*
X0026328Y0120578D01*
X0026339Y0120589D01*
X0026365Y0120611D01*
X0026393Y0120638D01*
X0026421Y0120665D01*
X0026435Y0120678D01*
X0026447Y0120691D01*
X0026458Y0120703D01*
X0026467Y0120715D01*
Y0120716D01*
X0026469Y0120717D01*
X0026472Y0120721D01*
X0026474Y0120726D01*
X0026481Y0120737D01*
X0026489Y0120753D01*
X0026497Y012077D01*
X0026504Y0120789D01*
X0026509Y012081D01*
X0026511Y012083D01*
Y0120831D01*
Y0120832D01*
X002651Y0120839D01*
X0026509Y012085D01*
X0026507Y0120863D01*
X0026501Y0120878D01*
X0026494Y0120893D01*
X0026485Y012091D01*
X002647Y0120925D01*
X0026468Y0120926D01*
X0026463Y0120931D01*
X0026454Y0120936D01*
X0026442Y0120945D01*
X0026427Y0120952D01*
X002641Y0120958D01*
X0026388Y0120962D01*
X0026365Y0120963D01*
X0026358D01*
X0026353Y0120962D01*
X0026342Y0120961D01*
X0026326Y0120959D01*
X0026309Y0120953D01*
X002629Y0120946D01*
X0026273Y0120935D01*
X0026256Y0120921D01*
X0026255Y0120919D01*
X002625Y0120914D01*
X0026243Y0120905D01*
X0026236Y0120892D01*
X0026228Y0120876D01*
X0026222Y0120857D01*
X0026218Y0120835D01*
X0026215Y0120809D01*
X0026118Y0120819D01*
Y0120821D01*
Y0120824D01*
X0026119Y012083D01*
X002612Y0120837D01*
X0026123Y0120846D01*
X0026124Y0120857D01*
X0026131Y012088D01*
X002614Y0120907D01*
X0026153Y0120934D01*
X0026171Y0120961D01*
X002618Y0120973D01*
X0026192Y0120984D01*
X0026193Y0120986D01*
X0026195Y0120987D01*
X0026199Y012099D01*
X0026203Y0120994D01*
X0026211Y0120997D01*
X0026219Y0121003D01*
X0026228Y0121008D01*
X0026239Y0121014D01*
X002625Y0121018D01*
X0026263Y0121024D01*
X0026278Y0121029D01*
X0026294Y0121032D01*
X0026329Y0121039D01*
X0026348Y0121041D01*
X0026367Y0121042D01*
X0026378D01*
X0026386Y0121041D01*
D02*
G37*
G36*
X0037685Y0117729D02*
X003759D01*
Y0118331D01*
X0037589Y011833D01*
X0037584Y0118325D01*
X0037576Y0118319D01*
X0037565Y0118311D01*
X0037553Y01183D01*
X0037537Y011829D01*
X003752Y0118277D01*
X00375Y0118265D01*
X0037499D01*
X0037498Y0118264D01*
X003749Y0118259D01*
X003748Y0118254D01*
X0037467Y0118247D01*
X0037452Y0118238D01*
X0037435Y0118231D01*
X0037418Y0118223D01*
X0037402Y0118216D01*
Y0118309D01*
X0037403D01*
X0037405Y011831D01*
X003741Y0118312D01*
X0037414Y0118316D01*
X0037421Y0118319D01*
X003743Y0118323D01*
X0037448Y0118333D01*
X0037469Y0118346D01*
X0037493Y0118361D01*
X0037516Y0118379D01*
X0037539Y0118398D01*
X003754Y0118399D01*
X0037541Y01184D01*
X0037548Y0118407D01*
X0037558Y0118418D01*
X0037571Y011843D01*
X0037585Y0118447D01*
X0037599Y0118464D01*
X0037612Y0118483D01*
X0037623Y0118502D01*
X0037685D01*
Y0117729D01*
D02*
G37*
G36*
X0048035Y0118396D02*
X0047728D01*
X0047686Y0118189D01*
X0047687Y011819D01*
X0047689Y0118192D01*
X0047693Y0118194D01*
X0047697Y0118197D01*
X0047704Y0118201D01*
X0047711Y0118204D01*
X004773Y0118214D01*
X0047751Y0118223D01*
X0047776Y011823D01*
X0047803Y0118236D01*
X0047831Y0118238D01*
X004784D01*
X0047847Y0118237D01*
X0047857Y0118236D01*
X0047866Y0118235D01*
X0047878Y0118232D01*
X0047889Y011823D01*
X0047916Y0118221D01*
X004793Y0118216D01*
X0047944Y0118209D01*
X004796Y0118201D01*
X0047974Y0118192D01*
X0047988Y0118181D01*
X0048001Y0118168D01*
X0048002Y0118167D01*
X0048004Y0118165D01*
X0048008Y0118161D01*
X0048011Y0118155D01*
X0048017Y0118148D01*
X0048023Y011814D01*
X0048029Y0118131D01*
X0048036Y011812D01*
X0048043Y0118107D01*
X0048049Y0118094D01*
X0048054Y0118079D01*
X004806Y0118064D01*
X0048064Y0118046D01*
X0048067Y0118029D01*
X004807Y0118009D01*
X0048071Y0117989D01*
Y0117988D01*
Y0117984D01*
Y0117978D01*
X004807Y0117971D01*
X0048069Y0117962D01*
X0048067Y0117951D01*
X0048066Y011794D01*
X0048064Y0117927D01*
X0048056Y0117899D01*
X0048045Y011787D01*
X0048038Y0117853D01*
X004803Y0117838D01*
X0048021Y0117823D01*
X004801Y0117809D01*
X0048009Y0117807D01*
X0048006Y0117805D01*
X0048002Y01178D01*
X0047996Y0117795D01*
X0047989Y0117788D01*
X004798Y0117779D01*
X0047969Y0117771D01*
X0047956Y0117763D01*
X0047943Y0117754D01*
X0047928Y0117745D01*
X004791Y0117737D01*
X0047893Y011773D01*
X0047873Y0117724D01*
X0047853Y011772D01*
X0047831Y0117717D01*
X0047807Y0117716D01*
X0047797D01*
X004779Y0117717D01*
X0047782Y0117718D01*
X0047771Y011772D01*
X0047759Y0117721D01*
X0047747Y0117723D01*
X004772Y011773D01*
X0047691Y0117741D01*
X0047677Y0117748D01*
X0047663Y0117756D01*
X0047649Y0117764D01*
X0047636Y0117775D01*
X0047635Y0117776D01*
X0047634Y0117777D01*
X0047631Y0117781D01*
X0047626Y0117785D01*
X0047621Y0117791D01*
X0047615Y0117798D01*
X004761Y0117806D01*
X0047602Y0117816D01*
X004759Y0117838D01*
X0047577Y0117865D01*
X0047567Y0117895D01*
X0047564Y0117913D01*
X0047562Y011793D01*
X0047661Y0117937D01*
Y0117936D01*
Y0117934D01*
X0047662Y011793D01*
X0047663Y0117926D01*
X0047667Y0117913D01*
X0047672Y0117896D01*
X0047677Y0117879D01*
X0047687Y0117861D01*
X0047697Y0117844D01*
X0047711Y0117829D01*
X0047714Y0117827D01*
X0047718Y0117823D01*
X0047727Y0117818D01*
X0047738Y0117811D01*
X0047752Y0117805D01*
X0047769Y0117799D01*
X0047787Y0117795D01*
X0047807Y0117793D01*
X0047814D01*
X0047819Y0117795D01*
X0047832Y0117796D01*
X0047848Y0117799D01*
X0047866Y0117806D01*
X0047886Y0117814D01*
X0047905Y0117827D01*
X0047914Y0117834D01*
X0047923Y0117844D01*
Y0117845D01*
X0047926Y0117846D01*
X004793Y0117853D01*
X0047939Y0117865D01*
X0047947Y011788D01*
X0047955Y01179D01*
X0047963Y0117923D01*
X0047968Y011795D01*
X004797Y0117981D01*
Y0117982D01*
Y0117984D01*
Y0117989D01*
X0047969Y0117994D01*
Y0118001D01*
X0047968Y0118009D01*
X0047964Y0118028D01*
X004796Y0118048D01*
X0047951Y0118069D01*
X004794Y011809D01*
X0047924Y0118108D01*
X0047922Y0118111D01*
X0047916Y0118115D01*
X0047907Y0118124D01*
X0047893Y0118132D01*
X0047876Y011814D01*
X0047855Y0118148D01*
X0047832Y0118153D01*
X0047806Y0118155D01*
X0047798D01*
X004779Y0118154D01*
X0047778Y0118153D01*
X0047765Y0118149D01*
X0047751Y0118146D01*
X0047737Y011814D01*
X0047723Y0118133D01*
X0047722Y0118132D01*
X0047717Y0118129D01*
X004771Y0118125D01*
X0047702Y0118119D01*
X0047694Y0118111D01*
X0047684Y0118101D01*
X0047675Y0118091D01*
X0047667Y0118079D01*
X0047578Y0118092D01*
X0047653Y0118487D01*
X0048035D01*
Y0118396D01*
D02*
G37*
G36*
X0035179Y0070867D02*
X0035166D01*
X0035158Y0070868D01*
X0035149Y007087D01*
X0035138Y0070871D01*
X0035126Y0070874D01*
X0035115Y0070878D01*
X0035113D01*
X0035112Y0070879D01*
X0035105Y0070881D01*
X0035096Y0070886D01*
X0035082Y0070893D01*
X0035067Y0070901D01*
X0035049Y0070913D01*
X0035031Y0070925D01*
X0035013Y007094D01*
X0035012D01*
X003501Y0070942D01*
X0035003Y0070948D01*
X0034993Y0070957D01*
X0034979Y0070971D01*
X0034962Y0070989D01*
X0034942Y007101D01*
X003492Y0071036D01*
X0034896Y0071064D01*
X0034894Y0071065D01*
X0034891Y007107D01*
X0034886Y0071076D01*
X0034878Y0071084D01*
X003487Y0071094D01*
X0034859Y0071106D01*
X0034837Y0071132D01*
X003481Y007116D01*
X0034783Y0071188D01*
X003477Y0071202D01*
X0034757Y0071214D01*
X0034745Y0071224D01*
X0034733Y0071234D01*
X0034732D01*
X0034731Y0071236D01*
X0034727Y0071238D01*
X0034722Y0071241D01*
X0034711Y0071248D01*
X0034695Y0071256D01*
X0034678Y0071264D01*
X0034659Y0071271D01*
X0034638Y0071276D01*
X0034618Y0071278D01*
X0034616D01*
X0034609Y0071277D01*
X0034598Y0071276D01*
X0034585Y0071273D01*
X003457Y0071268D01*
X0034555Y0071261D01*
X0034539Y0071251D01*
X0034523Y0071237D01*
X0034522Y0071235D01*
X0034517Y007123D01*
X0034512Y0071221D01*
X0034503Y0071209D01*
X0034496Y0071194D01*
X003449Y0071176D01*
X0034486Y0071155D01*
X0034485Y0071132D01*
Y0071131D01*
Y0071128D01*
Y0071125D01*
X0034486Y007112D01*
X0034487Y0071108D01*
X0034489Y0071093D01*
X0034495Y0071076D01*
X0034502Y0071057D01*
X0034513Y0071039D01*
X0034527Y0071023D01*
X0034529Y0071022D01*
X0034534Y0071017D01*
X0034543Y007101D01*
X0034556Y0071003D01*
X0034572Y0070995D01*
X0034591Y0070989D01*
X0034613Y0070984D01*
X0034639Y0070982D01*
X0034629Y0070885D01*
X0034624D01*
X0034618Y0070886D01*
X0034611Y0070887D01*
X0034602Y0070889D01*
X0034591Y0070891D01*
X0034568Y0070898D01*
X0034541Y0070907D01*
X0034514Y007092D01*
X0034487Y0070937D01*
X0034475Y0070947D01*
X0034464Y0070959D01*
X0034462Y007096D01*
X0034461Y0070962D01*
X0034458Y0070966D01*
X0034454Y007097D01*
X0034451Y0070977D01*
X0034445Y0070985D01*
X003444Y0070995D01*
X0034434Y0071005D01*
X003443Y0071017D01*
X0034424Y007103D01*
X0034419Y0071045D01*
X0034416Y007106D01*
X0034409Y0071095D01*
X0034407Y0071114D01*
X0034406Y0071134D01*
Y0071135D01*
Y0071139D01*
Y0071145D01*
X0034407Y0071153D01*
X0034409Y0071162D01*
X003441Y0071173D01*
X0034411Y0071185D01*
X0034414Y0071197D01*
X0034421Y0071225D01*
X0034432Y0071255D01*
X0034439Y007127D01*
X0034447Y0071284D01*
X0034458Y0071297D01*
X0034468Y007131D01*
X0034469Y0071311D01*
X0034471Y0071312D01*
X0034474Y0071316D01*
X0034479Y007132D01*
X0034486Y0071325D01*
X0034493Y0071331D01*
X003451Y0071343D01*
X0034533Y0071354D01*
X0034558Y0071365D01*
X0034588Y0071373D01*
X0034604Y0071374D01*
X003462Y0071375D01*
X0034629D01*
X0034638Y0071374D01*
X003465Y0071373D01*
X0034664Y0071371D01*
X0034679Y0071367D01*
X0034695Y0071362D01*
X0034712Y0071355D01*
X0034714Y0071354D01*
X003472Y0071352D01*
X0034728Y0071347D01*
X003474Y007134D01*
X0034754Y0071332D01*
X003477Y0071322D01*
X0034787Y0071307D01*
X0034805Y0071292D01*
X0034808Y007129D01*
X0034815Y0071284D01*
X0034825Y0071273D01*
X0034832Y0071266D01*
X0034841Y0071258D01*
X003485Y0071249D01*
X0034861Y0071237D01*
X0034871Y0071225D01*
X0034884Y0071213D01*
X0034897Y0071199D01*
X0034911Y0071182D01*
X0034925Y0071166D01*
X0034941Y0071147D01*
X0034942Y0071146D01*
X0034945Y0071144D01*
X0034948Y0071139D01*
X0034953Y0071133D01*
X0034965Y0071119D01*
X003498Y0071101D01*
X0034996Y0071084D01*
X0035013Y0071065D01*
X0035027Y007105D01*
X0035033Y0071044D01*
X0035038Y0071038D01*
X003504Y0071037D01*
X0035043Y0071035D01*
X0035048Y007103D01*
X0035055Y0071024D01*
X003507Y0071011D01*
X0035089Y0070998D01*
Y0071377D01*
X0035179D01*
Y0070867D01*
D02*
G37*
G36*
X0038354Y0068515D02*
X0037752D01*
X0037753Y0068513D01*
X0037758Y0068509D01*
X0037764Y00685D01*
X0037772Y006849D01*
X0037783Y0068477D01*
X0037793Y0068462D01*
X0037806Y0068444D01*
X0037818Y0068424D01*
Y0068423D01*
X0037819Y0068422D01*
X0037824Y0068415D01*
X0037829Y0068404D01*
X0037836Y0068392D01*
X0037845Y0068376D01*
X0037852Y006836D01*
X003786Y0068342D01*
X0037867Y0068326D01*
X0037774D01*
Y0068327D01*
X0037773Y006833D01*
X0037771Y0068334D01*
X0037767Y0068339D01*
X0037764Y0068346D01*
X003776Y0068354D01*
X003775Y0068373D01*
X0037737Y0068394D01*
X0037722Y0068417D01*
X0037704Y0068441D01*
X0037685Y0068463D01*
X0037684Y0068464D01*
X0037683Y0068465D01*
X0037676Y0068472D01*
X0037665Y0068483D01*
X0037653Y0068496D01*
X0037636Y006851D01*
X0037619Y0068524D01*
X00376Y0068537D01*
X0037581Y0068547D01*
Y0068609D01*
X0038354D01*
Y0068515D01*
D02*
G37*
G36*
X0023992Y0111929D02*
X0023993Y0111926D01*
X0023996Y0111922D01*
X0023999Y0111917D01*
X0024003Y011191D01*
X0024006Y0111902D01*
X0024017Y0111883D01*
X002403Y0111862D01*
X0024045Y0111839D01*
X0024062Y0111815D01*
X0024081Y0111793D01*
X0024082Y0111792D01*
X0024083Y0111791D01*
X002409Y0111784D01*
X0024101Y0111773D01*
X0024114Y011176D01*
X002413Y0111746D01*
X0024148Y0111732D01*
X0024167Y0111719D01*
X0024185Y0111709D01*
Y0111647D01*
X0023413D01*
Y0111741D01*
X0024014D01*
X0024013Y0111743D01*
X0024009Y0111747D01*
X0024003Y0111756D01*
X0023994Y0111766D01*
X0023984Y0111779D01*
X0023973Y0111794D01*
X0023961Y0111812D01*
X0023949Y0111832D01*
Y0111833D01*
X0023948Y0111834D01*
X0023943Y0111841D01*
X0023937Y0111852D01*
X002393Y0111864D01*
X0023922Y011188D01*
X0023915Y0111896D01*
X0023907Y0111914D01*
X00239Y011193D01*
X0023992D01*
Y0111929D01*
D02*
G37*
G36*
Y0089429D02*
X0023993Y0089426D01*
X0023996Y0089422D01*
X0023999Y0089417D01*
X0024003Y008941D01*
X0024006Y0089402D01*
X0024017Y0089383D01*
X002403Y0089362D01*
X0024045Y0089339D01*
X0024062Y0089315D01*
X0024081Y0089293D01*
X0024082Y0089292D01*
X0024083Y0089291D01*
X002409Y0089284D01*
X0024101Y0089273D01*
X0024114Y008926D01*
X002413Y0089246D01*
X0024148Y0089232D01*
X0024167Y0089219D01*
X0024185Y0089209D01*
Y0089147D01*
X0023413D01*
Y0089241D01*
X0024014D01*
X0024013Y0089243D01*
X0024009Y0089247D01*
X0024003Y0089256D01*
X0023994Y0089266D01*
X0023984Y0089279D01*
X0023973Y0089294D01*
X0023961Y0089312D01*
X0023949Y0089332D01*
Y0089333D01*
X0023948Y0089334D01*
X0023943Y0089341D01*
X0023937Y0089352D01*
X002393Y0089364D01*
X0023922Y008938D01*
X0023915Y0089396D01*
X0023907Y0089414D01*
X00239Y008943D01*
X0023992D01*
Y0089429D01*
D02*
G37*
G36*
X0035179Y0068515D02*
X0034577D01*
X0034578Y0068513D01*
X0034583Y0068509D01*
X0034589Y00685D01*
X0034597Y006849D01*
X0034608Y0068477D01*
X0034618Y0068462D01*
X0034631Y0068444D01*
X0034643Y0068424D01*
Y0068423D01*
X0034644Y0068422D01*
X0034649Y0068415D01*
X0034654Y0068404D01*
X0034661Y0068392D01*
X003467Y0068376D01*
X0034677Y006836D01*
X0034685Y0068342D01*
X0034692Y0068326D01*
X0034599D01*
Y0068327D01*
X0034598Y006833D01*
X0034596Y0068334D01*
X0034592Y0068339D01*
X0034589Y0068346D01*
X0034585Y0068354D01*
X0034575Y0068373D01*
X0034562Y0068394D01*
X0034547Y0068417D01*
X0034529Y0068441D01*
X003451Y0068463D01*
X0034509Y0068464D01*
X0034508Y0068465D01*
X0034501Y0068472D01*
X003449Y0068483D01*
X0034478Y0068496D01*
X0034461Y006851D01*
X0034444Y0068524D01*
X0034425Y0068537D01*
X0034406Y0068547D01*
Y0068609D01*
X0035179D01*
Y0068515D01*
D02*
G37*
G36*
X0038354Y0070867D02*
X0038341D01*
X0038333Y0070868D01*
X0038324Y007087D01*
X0038313Y0070871D01*
X0038301Y0070874D01*
X003829Y0070878D01*
X0038288D01*
X0038287Y0070879D01*
X003828Y0070881D01*
X0038271Y0070886D01*
X0038257Y0070893D01*
X0038242Y0070901D01*
X0038224Y0070913D01*
X0038206Y0070925D01*
X0038188Y007094D01*
X0038187D01*
X0038185Y0070942D01*
X0038178Y0070948D01*
X0038168Y0070957D01*
X0038154Y0070971D01*
X0038137Y0070989D01*
X0038117Y007101D01*
X0038095Y0071036D01*
X0038071Y0071064D01*
X0038069Y0071065D01*
X0038066Y007107D01*
X0038061Y0071076D01*
X0038053Y0071084D01*
X0038045Y0071094D01*
X0038034Y0071106D01*
X0038012Y0071132D01*
X0037985Y007116D01*
X0037958Y0071188D01*
X0037945Y0071202D01*
X0037932Y0071214D01*
X003792Y0071224D01*
X0037908Y0071234D01*
X0037907D01*
X0037906Y0071236D01*
X0037902Y0071238D01*
X0037897Y0071241D01*
X0037886Y0071248D01*
X003787Y0071256D01*
X0037853Y0071264D01*
X0037834Y0071271D01*
X0037813Y0071276D01*
X0037793Y0071278D01*
X0037791D01*
X0037784Y0071277D01*
X0037773Y0071276D01*
X003776Y0071273D01*
X0037745Y0071268D01*
X003773Y0071261D01*
X0037714Y0071251D01*
X0037698Y0071237D01*
X0037697Y0071235D01*
X0037692Y007123D01*
X0037687Y0071221D01*
X0037678Y0071209D01*
X0037671Y0071194D01*
X0037665Y0071176D01*
X0037661Y0071155D01*
X003766Y0071132D01*
Y0071131D01*
Y0071128D01*
Y0071125D01*
X0037661Y007112D01*
X0037662Y0071108D01*
X0037664Y0071093D01*
X003767Y0071076D01*
X0037677Y0071057D01*
X0037688Y0071039D01*
X0037702Y0071023D01*
X0037704Y0071022D01*
X0037709Y0071017D01*
X0037718Y007101D01*
X0037731Y0071003D01*
X0037747Y0070995D01*
X0037766Y0070989D01*
X0037788Y0070984D01*
X0037814Y0070982D01*
X0037804Y0070885D01*
X0037799D01*
X0037793Y0070886D01*
X0037786Y0070887D01*
X0037777Y0070889D01*
X0037766Y0070891D01*
X0037743Y0070898D01*
X0037716Y0070907D01*
X0037689Y007092D01*
X0037662Y0070937D01*
X003765Y0070947D01*
X0037639Y0070959D01*
X0037637Y007096D01*
X0037636Y0070962D01*
X0037633Y0070966D01*
X0037629Y007097D01*
X0037626Y0070977D01*
X003762Y0070985D01*
X0037615Y0070995D01*
X0037609Y0071005D01*
X0037605Y0071017D01*
X0037599Y007103D01*
X0037594Y0071045D01*
X0037591Y007106D01*
X0037584Y0071095D01*
X0037582Y0071114D01*
X0037581Y0071134D01*
Y0071135D01*
Y0071139D01*
Y0071145D01*
X0037582Y0071153D01*
X0037584Y0071162D01*
X0037585Y0071173D01*
X0037586Y0071185D01*
X0037589Y0071197D01*
X0037596Y0071225D01*
X0037607Y0071255D01*
X0037614Y007127D01*
X0037622Y0071284D01*
X0037633Y0071297D01*
X0037643Y007131D01*
X0037644Y0071311D01*
X0037646Y0071312D01*
X0037649Y0071316D01*
X0037654Y007132D01*
X0037661Y0071325D01*
X0037668Y0071331D01*
X0037685Y0071343D01*
X0037708Y0071354D01*
X0037733Y0071365D01*
X0037763Y0071373D01*
X0037779Y0071374D01*
X0037795Y0071375D01*
X0037804D01*
X0037813Y0071374D01*
X0037825Y0071373D01*
X0037839Y0071371D01*
X0037854Y0071367D01*
X003787Y0071362D01*
X0037887Y0071355D01*
X0037889Y0071354D01*
X0037895Y0071352D01*
X0037903Y0071347D01*
X0037915Y007134D01*
X0037929Y0071332D01*
X0037945Y0071322D01*
X0037962Y0071307D01*
X003798Y0071292D01*
X0037983Y007129D01*
X003799Y0071284D01*
X0038Y0071273D01*
X0038007Y0071266D01*
X0038016Y0071258D01*
X0038025Y0071249D01*
X0038035Y0071237D01*
X0038046Y0071225D01*
X0038059Y0071213D01*
X0038072Y0071199D01*
X0038086Y0071182D01*
X00381Y0071166D01*
X0038116Y0071147D01*
X0038117Y0071146D01*
X003812Y0071144D01*
X0038123Y0071139D01*
X0038128Y0071133D01*
X003814Y0071119D01*
X0038155Y0071101D01*
X0038171Y0071084D01*
X0038188Y0071065D01*
X0038202Y007105D01*
X0038208Y0071044D01*
X0038213Y0071038D01*
X0038215Y0071037D01*
X0038218Y0071035D01*
X0038223Y007103D01*
X003823Y0071024D01*
X0038245Y0071011D01*
X0038264Y0070998D01*
Y0071377D01*
X0038354D01*
Y0070867D01*
D02*
G37*
%LPC*%
G36*
X0082246Y0088808D02*
X0082194D01*
X0082181Y0088807D01*
X0082166D01*
X0082149Y0088806D01*
X0082129Y0088805D01*
X0082109Y0088802D01*
X0082067Y0088798D01*
X0082025Y0088789D01*
X0082006Y0088785D01*
X0081988Y0088779D01*
X0081972Y0088772D01*
X0081959Y0088765D01*
X0081958D01*
X0081957Y0088763D01*
X008195Y0088757D01*
X0081939Y0088747D01*
X0081929Y0088734D01*
X0081917Y0088718D01*
X0081906Y0088699D01*
X0081899Y0088678D01*
X0081898Y0088667D01*
X0081897Y0088655D01*
Y0088654D01*
Y0088652D01*
Y0088649D01*
X0081898Y0088644D01*
X00819Y0088633D01*
X0081905Y0088617D01*
X0081912Y00886D01*
X0081923Y0088582D01*
X008193Y0088573D01*
X0081939Y0088563D01*
X0081948Y0088554D01*
X0081959Y0088546D01*
X008196D01*
X0081962Y0088544D01*
X0081966Y0088541D01*
X0081972Y0088539D01*
X0081979Y0088535D01*
X0081989Y0088532D01*
X0082001Y0088528D01*
X0082014Y0088524D01*
X008203Y0088519D01*
X0082048Y0088515D01*
X0082069Y0088512D01*
X0082092Y0088508D01*
X0082118Y0088505D01*
X0082146Y0088504D01*
X0082178Y0088501D01*
X0082229D01*
X0082242Y0088503D01*
X0082258D01*
X0082275Y0088504D01*
X0082294Y0088505D01*
X0082315Y0088507D01*
X0082357Y0088512D01*
X0082398Y008852D01*
X0082418Y0088525D01*
X0082436Y0088531D01*
X0082451Y0088538D01*
X0082464Y0088546D01*
X0082465D01*
X0082466Y0088548D01*
X0082473Y0088554D01*
X0082484Y0088563D01*
X0082495Y0088576D01*
X0082507Y0088593D01*
X0082518Y0088612D01*
X0082525Y0088633D01*
X0082526Y0088644D01*
X0082527Y0088656D01*
Y0088657D01*
Y0088658D01*
Y0088662D01*
X0082526Y0088667D01*
X0082525Y0088678D01*
X008252Y0088693D01*
X0082513Y008871D01*
X0082503Y0088727D01*
X0082489Y0088745D01*
X008248Y0088753D01*
X0082471Y008876D01*
X0082469D01*
X0082467Y0088763D01*
X0082462Y0088765D01*
X0082457Y0088767D01*
X0082448Y0088771D01*
X0082439Y0088775D01*
X0082426Y008878D01*
X0082412Y0088784D01*
X0082396Y0088788D01*
X0082377Y0088793D01*
X0082356Y0088797D01*
X0082331Y0088801D01*
X0082306Y0088804D01*
X0082277Y0088806D01*
X0082246Y0088808D01*
D02*
G37*
G36*
X0023826D02*
X0023774D01*
X0023761Y0088807D01*
X0023746D01*
X0023729Y0088806D01*
X0023709Y0088805D01*
X0023689Y0088802D01*
X0023647Y0088798D01*
X0023605Y0088789D01*
X0023586Y0088785D01*
X0023568Y0088779D01*
X0023552Y0088772D01*
X0023539Y0088765D01*
X0023538D01*
X0023537Y0088763D01*
X002353Y0088757D01*
X0023519Y0088747D01*
X0023509Y0088734D01*
X0023497Y0088718D01*
X0023486Y0088699D01*
X0023479Y0088678D01*
X0023478Y0088667D01*
X0023477Y0088655D01*
Y0088654D01*
Y0088652D01*
Y0088649D01*
X0023478Y0088644D01*
X002348Y0088633D01*
X0023485Y0088617D01*
X0023492Y00886D01*
X0023503Y0088582D01*
X002351Y0088573D01*
X0023519Y0088563D01*
X0023528Y0088554D01*
X0023539Y0088546D01*
X002354D01*
X0023542Y0088544D01*
X0023546Y0088541D01*
X0023552Y0088539D01*
X0023559Y0088535D01*
X0023569Y0088532D01*
X0023581Y0088528D01*
X0023594Y0088524D01*
X002361Y0088519D01*
X0023628Y0088515D01*
X0023649Y0088512D01*
X0023672Y0088508D01*
X0023698Y0088505D01*
X0023726Y0088504D01*
X0023758Y0088501D01*
X0023809D01*
X0023822Y0088503D01*
X0023838D01*
X0023855Y0088504D01*
X0023874Y0088505D01*
X0023895Y0088507D01*
X0023937Y0088512D01*
X0023978Y008852D01*
X0023998Y0088525D01*
X0024016Y0088531D01*
X0024031Y0088538D01*
X0024044Y0088546D01*
X0024045D01*
X0024046Y0088548D01*
X0024053Y0088554D01*
X0024064Y0088563D01*
X0024075Y0088576D01*
X0024087Y0088593D01*
X0024097Y0088612D01*
X0024105Y0088633D01*
X0024106Y0088644D01*
X0024107Y0088656D01*
Y0088657D01*
Y0088658D01*
Y0088662D01*
X0024106Y0088667D01*
X0024105Y0088678D01*
X00241Y0088693D01*
X0024093Y008871D01*
X0024083Y0088727D01*
X0024069Y0088745D01*
X002406Y0088753D01*
X0024051Y008876D01*
X0024049D01*
X0024047Y0088763D01*
X0024042Y0088765D01*
X0024037Y0088767D01*
X0024028Y0088771D01*
X0024019Y0088775D01*
X0024006Y008878D01*
X0023992Y0088784D01*
X0023976Y0088788D01*
X0023957Y0088793D01*
X0023936Y0088797D01*
X0023911Y0088801D01*
X0023886Y0088804D01*
X0023857Y0088806D01*
X0023826Y0088808D01*
D02*
G37*
G36*
X0082246Y0060233D02*
X0082194D01*
X0082181Y0060232D01*
X0082166D01*
X0082149Y0060231D01*
X0082129Y006023D01*
X0082109Y0060227D01*
X0082067Y0060223D01*
X0082025Y0060214D01*
X0082006Y006021D01*
X0081988Y0060204D01*
X0081972Y0060197D01*
X0081959Y006019D01*
X0081958D01*
X0081957Y0060188D01*
X008195Y0060182D01*
X0081939Y0060172D01*
X0081929Y0060159D01*
X0081917Y0060143D01*
X0081906Y0060124D01*
X0081899Y0060103D01*
X0081898Y0060092D01*
X0081897Y006008D01*
Y0060079D01*
Y0060077D01*
Y0060074D01*
X0081898Y0060069D01*
X00819Y0060058D01*
X0081905Y0060042D01*
X0081912Y0060025D01*
X0081923Y0060007D01*
X008193Y0059998D01*
X0081939Y0059988D01*
X0081948Y0059979D01*
X0081959Y0059971D01*
X008196D01*
X0081962Y0059969D01*
X0081966Y0059966D01*
X0081972Y0059964D01*
X0081979Y005996D01*
X0081989Y0059957D01*
X0082001Y0059953D01*
X0082014Y0059949D01*
X008203Y0059944D01*
X0082048Y005994D01*
X0082069Y0059937D01*
X0082092Y0059933D01*
X0082118Y005993D01*
X0082146Y0059929D01*
X0082178Y0059926D01*
X0082229D01*
X0082242Y0059928D01*
X0082258D01*
X0082275Y0059929D01*
X0082294Y005993D01*
X0082315Y0059932D01*
X0082357Y0059937D01*
X0082398Y0059945D01*
X0082418Y005995D01*
X0082436Y0059956D01*
X0082451Y0059963D01*
X0082464Y0059971D01*
X0082465D01*
X0082466Y0059973D01*
X0082473Y0059979D01*
X0082484Y0059988D01*
X0082495Y0060001D01*
X0082507Y0060018D01*
X0082518Y0060037D01*
X0082525Y0060058D01*
X0082526Y0060069D01*
X0082527Y0060081D01*
Y0060082D01*
Y0060083D01*
Y0060087D01*
X0082526Y0060092D01*
X0082525Y0060103D01*
X008252Y0060118D01*
X0082513Y0060135D01*
X0082503Y0060152D01*
X0082489Y006017D01*
X008248Y0060178D01*
X0082471Y0060185D01*
X0082469D01*
X0082467Y0060188D01*
X0082462Y006019D01*
X0082457Y0060192D01*
X0082448Y0060196D01*
X0082439Y00602D01*
X0082426Y0060205D01*
X0082412Y0060209D01*
X0082396Y0060213D01*
X0082377Y0060218D01*
X0082356Y0060222D01*
X0082331Y0060226D01*
X0082306Y0060229D01*
X0082277Y0060231D01*
X0082246Y0060233D01*
D02*
G37*
G36*
X0023826D02*
X0023774D01*
X0023761Y0060232D01*
X0023746D01*
X0023729Y0060231D01*
X0023709Y006023D01*
X0023689Y0060227D01*
X0023647Y0060223D01*
X0023605Y0060214D01*
X0023586Y006021D01*
X0023568Y0060204D01*
X0023552Y0060197D01*
X0023539Y006019D01*
X0023538D01*
X0023537Y0060188D01*
X002353Y0060182D01*
X0023519Y0060172D01*
X0023509Y0060159D01*
X0023497Y0060143D01*
X0023486Y0060124D01*
X0023479Y0060103D01*
X0023478Y0060092D01*
X0023477Y006008D01*
Y0060079D01*
Y0060077D01*
Y0060074D01*
X0023478Y0060069D01*
X002348Y0060058D01*
X0023485Y0060042D01*
X0023492Y0060025D01*
X0023503Y0060007D01*
X002351Y0059998D01*
X0023519Y0059988D01*
X0023528Y0059979D01*
X0023539Y0059971D01*
X002354D01*
X0023542Y0059969D01*
X0023546Y0059966D01*
X0023552Y0059964D01*
X0023559Y005996D01*
X0023569Y0059957D01*
X0023581Y0059953D01*
X0023594Y0059949D01*
X002361Y0059944D01*
X0023628Y005994D01*
X0023649Y0059937D01*
X0023672Y0059933D01*
X0023698Y005993D01*
X0023726Y0059929D01*
X0023758Y0059926D01*
X0023809D01*
X0023822Y0059928D01*
X0023838D01*
X0023855Y0059929D01*
X0023874Y005993D01*
X0023895Y0059932D01*
X0023937Y0059937D01*
X0023978Y0059945D01*
X0023998Y005995D01*
X0024016Y0059956D01*
X0024031Y0059963D01*
X0024044Y0059971D01*
X0024045D01*
X0024046Y0059973D01*
X0024053Y0059979D01*
X0024064Y0059988D01*
X0024075Y0060001D01*
X0024087Y0060018D01*
X0024097Y0060037D01*
X0024105Y0060058D01*
X0024106Y0060069D01*
X0024107Y0060081D01*
Y0060082D01*
Y0060083D01*
Y0060087D01*
X0024106Y0060092D01*
X0024105Y0060103D01*
X00241Y0060118D01*
X0024093Y0060135D01*
X0024083Y0060152D01*
X0024069Y006017D01*
X002406Y0060178D01*
X0024051Y0060185D01*
X0024049D01*
X0024047Y0060188D01*
X0024042Y006019D01*
X0024037Y0060192D01*
X0024028Y0060196D01*
X0024019Y00602D01*
X0024006Y0060205D01*
X0023992Y0060209D01*
X0023976Y0060213D01*
X0023957Y0060218D01*
X0023936Y0060222D01*
X0023911Y0060226D01*
X0023886Y0060229D01*
X0023857Y0060231D01*
X0023826Y0060233D01*
D02*
G37*
%LPD*%
D59*
X0027343Y0119243D02*
G03*
X0027623Y0119523I0J000028D01*
G01*
X0027623Y0121523D02*
G03*
X0027343Y0121803I-000028J0D01*
G01*
X0022543Y0119523D02*
G03*
X0022783Y0119243I000026J-000002D01*
G01*
Y0121803D02*
G03*
X0022543Y0121523I000002J-000026D01*
G01*
X0024613Y0120523D02*
G03*
X0024613Y0120523I-00008J0D01*
G01*
X0027153D02*
G03*
X0027153Y0120523I-00008J0D01*
G01*
X0048806Y0116703D02*
G03*
X0049085Y0116983I0J000028D01*
G01*
X0049085Y0118983D02*
G03*
X0048806Y0119263I-000028J0D01*
G01*
X0036386Y0116983D02*
G03*
X0036625Y0116703I000026J-000002D01*
G01*
Y0119263D02*
G03*
X0036386Y0118983I000002J-000026D01*
G01*
X0038456Y0117983D02*
G03*
X0038456Y0117983I-00008J0D01*
G01*
D02*
G03*
X0038456Y0117983I-00008J0D01*
G01*
X0040995D02*
G03*
X0040995Y0117983I-00008J0D01*
G01*
X0043535D02*
G03*
X0043535Y0117983I-00008J0D01*
G01*
X0046076D02*
G03*
X0046076Y0117983I-00008J0D01*
G01*
X0048616D02*
G03*
X0048616Y0117983I-00008J0D01*
G01*
Y0120523D02*
G03*
X0048616Y0120523I-00008J0D01*
G01*
X0046076D02*
G03*
X0046076Y0120523I-00008J0D01*
G01*
X0043535D02*
G03*
X0043535Y0120523I-00008J0D01*
G01*
X0040995D02*
G03*
X0040995Y0120523I-00008J0D01*
G01*
X0038456D02*
G03*
X0038456Y0120523I-00008J0D01*
G01*
D02*
G03*
X0038456Y0120523I-00008J0D01*
G01*
X0036625Y0121803D02*
G03*
X0036386Y0121523I000002J-000026D01*
G01*
X0036386Y0119523D02*
G03*
X0036625Y0119243I000026J-000002D01*
G01*
X0049085Y0121523D02*
G03*
X0048806Y0121803I-000028J0D01*
G01*
Y0119243D02*
G03*
X0049085Y0119523I0J000028D01*
G01*
X003128Y0130385D02*
G03*
X0031205Y013046I-0000075J0D01*
G01*
X0029755D02*
G03*
X002968Y0130385I0J-0000075D01*
G01*
Y0129435D02*
G03*
X0029855Y012926I0000175J0D01*
G01*
X0031105D02*
G03*
X003128Y0129435I0J0000175D01*
G01*
Y013221D02*
G03*
X003113Y013236I-000015J0D01*
G01*
X002983D02*
G03*
X002968Y013221I0J-000015D01*
G01*
Y0131235D02*
G03*
X0029755Y013116I0000075J0D01*
G01*
X0031205D02*
G03*
X003128Y0131235I0J0000075D01*
G01*
X002968Y0135363D02*
G03*
X0029755Y0135288I0000075J0D01*
G01*
X0031205D02*
G03*
X003128Y0135363I0J0000075D01*
G01*
Y0136312D02*
G03*
X0031105Y0136488I-0000175J0D01*
G01*
X0029855D02*
G03*
X002968Y0136312I0J-0000175D01*
G01*
Y0133538D02*
G03*
X002983Y0133387I000015J0D01*
G01*
X003113D02*
G03*
X003128Y0133538I0J000015D01*
G01*
Y0134512D02*
G03*
X0031205Y0134587I-0000075J0D01*
G01*
X0029755D02*
G03*
X002968Y0134512I0J-0000075D01*
G01*
X004017Y0130068D02*
G03*
X0040095Y0130143I-0000075J0D01*
G01*
X0038645D02*
G03*
X003857Y0130068I0J-0000075D01*
G01*
Y0129117D02*
G03*
X0038745Y0128943I0000175J0D01*
G01*
X0039995D02*
G03*
X004017Y0129117I0J0000175D01*
G01*
Y0131893D02*
G03*
X004002Y0132042I-000015J0D01*
G01*
X003872D02*
G03*
X003857Y0131893I0J-000015D01*
G01*
Y0130917D02*
G03*
X0038645Y0130842I0000075J0D01*
G01*
X0040095D02*
G03*
X004017Y0130917I0J0000075D01*
G01*
X0069622Y0090838D02*
G03*
X0069698Y0090912I0J0000075D01*
G01*
X0068098D02*
G03*
X0068173Y0090838I0000075J0D01*
G01*
X0068247Y0092037D02*
G03*
X0068098Y0091887I0J-000015D01*
G01*
X0069698D02*
G03*
X0069548Y0092037I-000015J0D01*
G01*
X0069522Y0088938D02*
G03*
X0069698Y0089113I0J0000175D01*
G01*
X0068098D02*
G03*
X0068272Y0088938I0000175J0D01*
G01*
X0068173Y0090137D02*
G03*
X0068098Y0090062I0J-0000075D01*
G01*
X0069698D02*
G03*
X0069622Y0090137I-0000075J0D01*
G01*
X0030513Y0055155D02*
G03*
X0030587Y005508I0000075J0D01*
G01*
Y005668D02*
G03*
X0030513Y0056605I0J-0000075D01*
G01*
X0031712Y005653D02*
G03*
X0031562Y005668I-000015J0D01*
G01*
Y005508D02*
G03*
X0031712Y005523I0J000015D01*
G01*
X0028612Y0055255D02*
G03*
X0028788Y005508I0000175J0D01*
G01*
Y005668D02*
G03*
X0028612Y0056505I0J-0000175D01*
G01*
X0029812Y0056605D02*
G03*
X0029737Y005668I-0000075J0D01*
G01*
Y005508D02*
G03*
X0029812Y0055155I0J0000075D01*
G01*
X0040673D02*
G03*
X0040748Y005508I0000075J0D01*
G01*
Y005668D02*
G03*
X0040673Y0056605I0J-0000075D01*
G01*
X0041873Y005653D02*
G03*
X0041722Y005668I-000015J0D01*
G01*
Y005508D02*
G03*
X0041873Y005523I0J000015D01*
G01*
X0038772Y0055255D02*
G03*
X0038947Y005508I0000175J0D01*
G01*
Y005668D02*
G03*
X0038772Y0056505I0J-0000175D01*
G01*
X0039972Y0056605D02*
G03*
X0039897Y005668I-0000075J0D01*
G01*
Y005508D02*
G03*
X0039972Y0055155I0J0000075D01*
G01*
X0061818Y0121582D02*
G03*
X0065817Y0121582I0002J0D01*
G01*
X0062518Y0112982D02*
G03*
X0065118Y0112982I00013J0D01*
G01*
X0056998Y0111713D02*
G03*
X0056998Y0111713I-00008J0D01*
G01*
Y0109173D02*
G03*
X0056998Y0109173I-00008J0D01*
G01*
X0072238Y0111713D02*
G03*
X0072238Y0111713I-00008J0D01*
G01*
Y0109173D02*
G03*
X0072238Y0109173I-00008J0D01*
G01*
Y0104092D02*
G03*
X0072238Y0104092I-00008J0D01*
G01*
Y0106632D02*
G03*
X0072238Y0106632I-00008J0D01*
G01*
X0056998Y0104092D02*
G03*
X0056998Y0104092I-00008J0D01*
G01*
Y0106632D02*
G03*
X0056998Y0106632I-00008J0D01*
G01*
X0072238Y0099012D02*
G03*
X0072238Y0099012I-00008J0D01*
G01*
Y0101552D02*
G03*
X0072238Y0101552I-00008J0D01*
G01*
X0056998Y0099012D02*
G03*
X0056998Y0099012I-00008J0D01*
G01*
Y0101552D02*
G03*
X0056998Y0101552I-00008J0D01*
G01*
X0072238Y0093933D02*
G03*
X0072238Y0093933I-00008J0D01*
G01*
Y0096473D02*
G03*
X0072238Y0096473I-00008J0D01*
G01*
X0056998Y0093933D02*
G03*
X0056998Y0093933I-00008J0D01*
G01*
Y0096473D02*
G03*
X0056998Y0096473I-00008J0D01*
G01*
X0072238Y0088853D02*
G03*
X0072238Y0088853I-00008J0D01*
G01*
Y0091393D02*
G03*
X0072238Y0091393I-00008J0D01*
G01*
X0056998Y0088853D02*
G03*
X0056998Y0088853I-00008J0D01*
G01*
Y0091393D02*
G03*
X0056998Y0091393I-00008J0D01*
G01*
X0072238Y0083772D02*
G03*
X0072238Y0083772I-00008J0D01*
G01*
Y0086312D02*
G03*
X0072238Y0086312I-00008J0D01*
G01*
X0056998Y0083772D02*
G03*
X0056998Y0083772I-00008J0D01*
G01*
Y0086312D02*
G03*
X0056998Y0086312I-00008J0D01*
G01*
X0072238Y0078692D02*
G03*
X0072238Y0078692I-00008J0D01*
G01*
Y0081232D02*
G03*
X0072238Y0081232I-00008J0D01*
G01*
X0056998Y0078692D02*
G03*
X0056998Y0078692I-00008J0D01*
G01*
Y0081232D02*
G03*
X0056998Y0081232I-00008J0D01*
G01*
X0072238Y0073613D02*
G03*
X0072238Y0073613I-00008J0D01*
G01*
Y0076152D02*
G03*
X0072238Y0076152I-00008J0D01*
G01*
X0056998Y0073613D02*
G03*
X0056998Y0073613I-00008J0D01*
G01*
Y0076152D02*
G03*
X0056998Y0076152I-00008J0D01*
G01*
X0072238Y0068533D02*
G03*
X0072238Y0068533I-00008J0D01*
G01*
Y0071073D02*
G03*
X0072238Y0071073I-00008J0D01*
G01*
X0056998Y0068533D02*
G03*
X0056998Y0068533I-00008J0D01*
G01*
Y0071073D02*
G03*
X0056998Y0071073I-00008J0D01*
G01*
X0072238Y0063452D02*
G03*
X0072238Y0063452I-00008J0D01*
G01*
Y0065993D02*
G03*
X0072238Y0065993I-00008J0D01*
G01*
X0056998Y0063452D02*
G03*
X0056998Y0063452I-00008J0D01*
G01*
Y0065993D02*
G03*
X0056998Y0065993I-00008J0D01*
G01*
X0033065Y013585D02*
G03*
X0033065Y013585I-000064J0D01*
G01*
X0027003Y012837D02*
G03*
X0027003Y012837I-000065J0D01*
G01*
Y013325D02*
G03*
X0027003Y013325I-000065J0D01*
G01*
X00287Y0134543D02*
G03*
X0024005Y0134543I-0002348J-0000558D01*
G01*
Y0127077D02*
G03*
X00287Y0127077I0002348J0000558D01*
G01*
X0065738Y012446D02*
G03*
X0065738Y012446I-000065J0D01*
G01*
Y013208D02*
G03*
X0065738Y013208I-000065J0D01*
G01*
X0063197Y012446D02*
G03*
X0063197Y012446I-000065J0D01*
G01*
Y013208D02*
G03*
X0063197Y013208I-000065J0D01*
G01*
X0081357Y0131128D02*
G03*
X0081658Y0130827I00003J0D01*
G01*
X0082808D02*
G03*
X0083107Y0131128I0J00003D01*
G01*
Y0137428D02*
G03*
X0082757Y0137777I-000035J0D01*
G01*
X0081707D02*
G03*
X0081357Y0137428I0J-000035D01*
G01*
X0083033Y0140018D02*
G03*
X0083033Y0140018I-00008J0D01*
G01*
Y0142557D02*
G03*
X0083033Y0142557I-00008J0D01*
G01*
X0083512Y0143587D02*
G03*
X0083232Y0143827I-000026J-000002D01*
G01*
X0081232Y0143827D02*
G03*
X0080952Y0143587I-000002J-000026D01*
G01*
X0083232Y0138747D02*
G03*
X0083512Y0139027I0J000028D01*
G01*
X0080952D02*
G03*
X0081232Y0138747I000028J0D01*
G01*
X0072798Y014132D02*
G03*
X0072872Y0141395I0J0000075D01*
G01*
X0071272D02*
G03*
X0071348Y014132I0000075J0D01*
G01*
X0071448Y014252D02*
G03*
X0071272Y0142345I0J-0000175D01*
G01*
X0072872D02*
G03*
X0072698Y014252I-0000175J0D01*
G01*
X0072723Y013942D02*
G03*
X0072872Y013957I0J000015D01*
G01*
X0071272D02*
G03*
X0071423Y013942I000015J0D01*
G01*
X0071348Y014062D02*
G03*
X0071272Y0140545I0J-0000075D01*
G01*
X0072872D02*
G03*
X0072798Y014062I-0000075J0D01*
G01*
X005156Y0086283D02*
G03*
X0046865Y0086283I-0002348J-0000558D01*
G01*
Y0078817D02*
G03*
X005156Y0078817I0002348J0000558D01*
G01*
X0049862Y008011D02*
G03*
X0049862Y008011I-000065J0D01*
G01*
Y008499D02*
G03*
X0049862Y008499I-000065J0D01*
G01*
X0036205Y007211D02*
G03*
X0035925Y007239I-000028J0D01*
G01*
X0033925Y007239D02*
G03*
X0033645Y007211I0J-000028D01*
G01*
X0035925Y006731D02*
G03*
X0036205Y006755I000002J000026D01*
G01*
X0033645D02*
G03*
X0033925Y006731I000026J000002D01*
G01*
X0035725Y006858D02*
G03*
X0035725Y006858I-00008J0D01*
G01*
Y007112D02*
G03*
X0035725Y007112I-00008J0D01*
G01*
X003938Y007211D02*
G03*
X00391Y007239I-000028J0D01*
G01*
X00371Y007239D02*
G03*
X003682Y007211I0J-000028D01*
G01*
X00391Y006731D02*
G03*
X003938Y006755I000002J000026D01*
G01*
X003682D02*
G03*
X00371Y006731I000026J000002D01*
G01*
X00389Y006858D02*
G03*
X00389Y006858I-00008J0D01*
G01*
Y007112D02*
G03*
X00389Y007112I-00008J0D01*
G01*
X0043283Y0058293D02*
G03*
X0043283Y0058293I-00015J0D01*
G01*
X0039893D02*
G03*
X0039893Y0058293I-000065J0D01*
G01*
X0044973D02*
G03*
X0044973Y0058293I-000065J0D01*
G01*
X0043283D02*
G03*
X0043283Y0058293I-00015J0D01*
G01*
X003891Y0057431D02*
G03*
X0044642Y0057383I0002873J0000862D01*
G01*
X0044629Y0059242D02*
G03*
X0038922Y0059196I-0002846J-0000949D01*
G01*
X0033187Y0058293D02*
G03*
X0033187Y0058293I-00015J0D01*
G01*
X0029796D02*
G03*
X0029796Y0058293I-000065J0D01*
G01*
X0034876D02*
G03*
X0034876Y0058293I-000065J0D01*
G01*
X0033187D02*
G03*
X0033187Y0058293I-00015J0D01*
G01*
X0028813Y0057431D02*
G03*
X0034545Y0057383I0002873J0000862D01*
G01*
X0034533Y0059242D02*
G03*
X0028826Y0059196I-0002846J-0000949D01*
G01*
X0022812Y011303D02*
G03*
X0022532Y011279I-000002J-000026D01*
G01*
X0025093D02*
G03*
X0024812Y011303I-000026J-000002D01*
G01*
X0024612Y011176D02*
G03*
X0024612Y011176I-00008J0D01*
G01*
D02*
G03*
X0024612Y011176I-00008J0D01*
G01*
Y010922D02*
G03*
X0024612Y010922I-00008J0D01*
G01*
Y010668D02*
G03*
X0024612Y010668I-00008J0D01*
G01*
Y010414D02*
G03*
X0024612Y010414I-00008J0D01*
G01*
Y01016D02*
G03*
X0024612Y01016I-00008J0D01*
G01*
Y009906D02*
G03*
X0024612Y009906I-00008J0D01*
G01*
Y009652D02*
G03*
X0024612Y009652I-00008J0D01*
G01*
Y009398D02*
G03*
X0024612Y009398I-00008J0D01*
G01*
Y009144D02*
G03*
X0024612Y009144I-00008J0D01*
G01*
Y00889D02*
G03*
X0024612Y00889I-00008J0D01*
G01*
X0024812Y008763D02*
G03*
X0025093Y008787I000002J000026D01*
G01*
X0022532D02*
G03*
X0022812Y008763I000026J000002D01*
G01*
X0022532Y0059295D02*
G03*
X0022812Y0059055I000026J000002D01*
G01*
X0024812Y0059055D02*
G03*
X0025093Y0059295I000002J000026D01*
G01*
X0024612Y0060325D02*
G03*
X0024612Y0060325I-00008J0D01*
G01*
Y0062865D02*
G03*
X0024612Y0062865I-00008J0D01*
G01*
Y0065405D02*
G03*
X0024612Y0065405I-00008J0D01*
G01*
Y0067945D02*
G03*
X0024612Y0067945I-00008J0D01*
G01*
Y0070485D02*
G03*
X0024612Y0070485I-00008J0D01*
G01*
Y0073025D02*
G03*
X0024612Y0073025I-00008J0D01*
G01*
Y0075565D02*
G03*
X0024612Y0075565I-00008J0D01*
G01*
Y0078105D02*
G03*
X0024612Y0078105I-00008J0D01*
G01*
Y0080645D02*
G03*
X0024612Y0080645I-00008J0D01*
G01*
Y0083185D02*
G03*
X0024612Y0083185I-00008J0D01*
G01*
D02*
G03*
X0024612Y0083185I-00008J0D01*
G01*
X0025093Y0084215D02*
G03*
X0024812Y0084455I-000026J-000002D01*
G01*
X0022812Y0084455D02*
G03*
X0022532Y0084215I-000002J-000026D01*
G01*
X0080952Y0059295D02*
G03*
X0081232Y0059055I000026J000002D01*
G01*
X0083232Y0059055D02*
G03*
X0083512Y0059295I000002J000026D01*
G01*
X0083033Y0060325D02*
G03*
X0083033Y0060325I-00008J0D01*
G01*
Y0062865D02*
G03*
X0083033Y0062865I-00008J0D01*
G01*
Y0065405D02*
G03*
X0083033Y0065405I-00008J0D01*
G01*
Y0067945D02*
G03*
X0083033Y0067945I-00008J0D01*
G01*
Y0070485D02*
G03*
X0083033Y0070485I-00008J0D01*
G01*
Y0073025D02*
G03*
X0083033Y0073025I-00008J0D01*
G01*
Y0075565D02*
G03*
X0083033Y0075565I-00008J0D01*
G01*
Y0078105D02*
G03*
X0083033Y0078105I-00008J0D01*
G01*
Y0080645D02*
G03*
X0083033Y0080645I-00008J0D01*
G01*
Y0083185D02*
G03*
X0083033Y0083185I-00008J0D01*
G01*
D02*
G03*
X0083033Y0083185I-00008J0D01*
G01*
X0083512Y0084215D02*
G03*
X0083232Y0084455I-000026J-000002D01*
G01*
X0081232Y0084455D02*
G03*
X0080952Y0084215I-000002J-000026D01*
G01*
X0034646Y0120523D02*
G03*
X0034646Y0120523I-00008J0D01*
G01*
Y0117983D02*
G03*
X0034646Y0117983I-00008J0D01*
G01*
X0032565Y0116953D02*
G03*
X0032846Y0116713I000026J000002D01*
G01*
X0034846Y0116713D02*
G03*
X0035125Y0116953I000002J000026D01*
G01*
X0032846Y0121793D02*
G03*
X0032565Y0121513I0J-000028D01*
G01*
X0035125D02*
G03*
X0034846Y0121793I-000028J0D01*
G01*
X0030836Y0117983D02*
G03*
X0030836Y0117983I-00008J0D01*
G01*
Y0120523D02*
G03*
X0030836Y0120523I-00008J0D01*
G01*
X0031316Y0121553D02*
G03*
X0031035Y0121793I-000026J-000002D01*
G01*
X0029035Y0121793D02*
G03*
X0028756Y0121553I-000002J-000026D01*
G01*
X0031035Y0116713D02*
G03*
X0031316Y0116993I0J000028D01*
G01*
X0028756D02*
G03*
X0029035Y0116713I000028J0D01*
G01*
X0024612Y0117983D02*
G03*
X0024612Y0117983I-00008J0D01*
G01*
X0027153D02*
G03*
X0027153Y0117983I-00008J0D01*
G01*
X0027382Y0116703D02*
G03*
X0027622Y0116983I-000002J000026D01*
G01*
X0027622Y0118983D02*
G03*
X0027382Y0119263I-000026J000002D01*
G01*
X0022542Y0116983D02*
G03*
X0022823Y0116703I000028J0D01*
G01*
Y0119263D02*
G03*
X0022542Y0118983I0J-000028D01*
G01*
X0081232Y011303D02*
G03*
X0080952Y011279I-000002J-000026D01*
G01*
X0083512D02*
G03*
X0083232Y011303I-000026J-000002D01*
G01*
X0083033Y011176D02*
G03*
X0083033Y011176I-00008J0D01*
G01*
D02*
G03*
X0083033Y011176I-00008J0D01*
G01*
Y010922D02*
G03*
X0083033Y010922I-00008J0D01*
G01*
Y010668D02*
G03*
X0083033Y010668I-00008J0D01*
G01*
Y010414D02*
G03*
X0083033Y010414I-00008J0D01*
G01*
Y01016D02*
G03*
X0083033Y01016I-00008J0D01*
G01*
Y009906D02*
G03*
X0083033Y009906I-00008J0D01*
G01*
Y009652D02*
G03*
X0083033Y009652I-00008J0D01*
G01*
Y009398D02*
G03*
X0083033Y009398I-00008J0D01*
G01*
Y009144D02*
G03*
X0083033Y009144I-00008J0D01*
G01*
Y00889D02*
G03*
X0083033Y00889I-00008J0D01*
G01*
X0083232Y008763D02*
G03*
X0083512Y008787I000002J000026D01*
G01*
X0080952D02*
G03*
X0081232Y008763I000026J000002D01*
G01*
X002305Y0125098D02*
X002455D01*
Y0122298D02*
Y0125098D01*
X002305Y0122298D02*
Y0125098D01*
Y0122298D02*
X002455D01*
X002305Y0122623D02*
X002454D01*
X002305Y0124768D02*
X002454D01*
X002565Y0125098D02*
X002715D01*
Y0122298D02*
Y0125098D01*
X002565Y0122298D02*
Y0125098D01*
Y0122298D02*
X002715D01*
X002565Y0122623D02*
X002714D01*
X002565Y0124768D02*
X002714D01*
X0027623Y0119523D02*
Y0121523D01*
X0022543Y0119523D02*
Y0121523D01*
X0022783Y0121803D02*
X0024829D01*
X0022783Y0119243D02*
X0024819D01*
X0027369Y0121793D02*
Y0121803D01*
Y0119243D02*
Y0119253D01*
X0025337Y0119243D02*
X0027369D01*
X0025337Y0121803D02*
X0027369D01*
X0025083Y0121539D02*
X0025337Y0121793D01*
X0024829D02*
X0025083Y0121539D01*
Y0119497D02*
X0025337Y0119243D01*
X0025083Y0119497D02*
Y0119507D01*
X0024829Y0119253D02*
X0025083Y0119507D01*
X0049085Y0116983D02*
Y0118983D01*
X0036386Y0116983D02*
Y0118983D01*
X0038672Y0119253D02*
X0038925Y0118999D01*
X003918Y0119253D01*
X0038672Y0116703D02*
Y0116713D01*
X0038925Y0116967D01*
Y0116957D02*
Y0116967D01*
Y0116957D02*
X003918Y0116703D01*
X0036625Y0119263D02*
X0038672D01*
X0041211Y0119253D02*
X0041465Y0118999D01*
X004172Y0119253D01*
X003918Y0119263D02*
X0041211D01*
Y0119253D02*
Y0119263D01*
X0036625Y0116703D02*
X0038661D01*
X0038672Y0116713D01*
X003918Y0116703D02*
X0041211D01*
Y0116713D01*
X0041465Y0116967D01*
X004172Y0116713D01*
X0044259Y0119263D02*
X0046292D01*
X0041706D02*
X0043751D01*
X0044006Y0118999D02*
X0044259Y0119253D01*
X0043751D02*
X0044006Y0118999D01*
X0048832Y0119253D02*
Y0119263D01*
X0044259Y0116703D02*
X0046292D01*
X0043742D02*
X0043751Y0116713D01*
X0041706Y0116703D02*
X0043742D01*
X0044006Y0116957D02*
X0044259Y0116703D01*
X0044006Y0116957D02*
Y0116967D01*
X0043751Y0116713D02*
X0044006Y0116967D01*
X0043751Y0116703D02*
Y0116713D01*
X0048832Y0116703D02*
Y0116713D01*
X0046799Y0116703D02*
X0048832D01*
X0046799Y0119263D02*
X0048832D01*
X0046546Y0118999D02*
X0046799Y0119253D01*
X0046292D02*
X0046546Y0118999D01*
Y0116957D02*
X0046799Y0116703D01*
X0046546Y0116957D02*
Y0116967D01*
X0046292Y0116713D02*
X0046546Y0116967D01*
X0046292Y0119253D02*
X0046546Y0119507D01*
Y0119497D02*
Y0119507D01*
Y0119497D02*
X0046799Y0119243D01*
X0046292Y0121793D02*
X0046546Y0121539D01*
X0046799Y0121793D01*
Y0121803D02*
X0048832D01*
X0046799Y0119243D02*
X0048832D01*
Y0119253D01*
X0043751Y0119243D02*
Y0119253D01*
X0044006Y0119507D01*
Y0119497D02*
Y0119507D01*
Y0119497D02*
X0044259Y0119243D01*
X0041706D02*
X0043742D01*
X0043751Y0119253D01*
X0044259Y0119243D02*
X0046292D01*
X0048832Y0121793D02*
Y0121803D01*
X0043751Y0121793D02*
X0044006Y0121539D01*
X0044259Y0121793D01*
X0041706Y0121803D02*
X0043751D01*
X0044259D02*
X0046292D01*
X0041465Y0119507D02*
X004172Y0119253D01*
X0041211D02*
X0041465Y0119507D01*
X0041211Y0119243D02*
Y0119253D01*
X003918Y0119243D02*
X0041211D01*
X0038661D02*
X0038672Y0119253D01*
X0036625Y0119243D02*
X0038661D01*
X0041211Y0121793D02*
Y0121803D01*
X003918D02*
X0041211D01*
X0041465Y0121539D02*
X004172Y0121793D01*
X0041211D02*
X0041465Y0121539D01*
X0036625Y0121803D02*
X0038672D01*
X0038925Y0119497D02*
X003918Y0119243D01*
X0038925Y0119497D02*
Y0119507D01*
X0038672Y0119253D02*
X0038925Y0119507D01*
X0038672Y0119243D02*
Y0119253D01*
X0038925Y0121539D02*
X003918Y0121793D01*
X0038672D02*
X0038925Y0121539D01*
X0036386Y0119523D02*
Y0121523D01*
X0049085Y0119523D02*
Y0121523D01*
X0031205Y012971D02*
Y013191D01*
X0029755Y012971D02*
X0031205D01*
X0029755D02*
Y013191D01*
X0031205D01*
X0029855Y012926D02*
X0031105D01*
X002968Y0129435D02*
Y0130385D01*
X003128Y0129435D02*
Y0130385D01*
X0029755Y012971D02*
X0031205D01*
X002983Y013236D02*
X003113D01*
X003128Y0131235D02*
Y013221D01*
X002968Y0131235D02*
Y013221D01*
X0029755Y0133837D02*
Y0136038D01*
X0031205D01*
Y0133837D02*
Y0136038D01*
X0029755Y0133837D02*
X0031205D01*
X0029855Y0136488D02*
X0031105D01*
X003128Y0135363D02*
Y0136312D01*
X002968Y0135363D02*
Y0136312D01*
X0029755Y0136038D02*
X0031205D01*
X002983Y0133387D02*
X003113D01*
X002968Y0133538D02*
Y0134512D01*
X003128Y0133538D02*
Y0134512D01*
X00274Y0134855D02*
X002849D01*
X002739Y0135185D02*
X002849D01*
X002739Y0132785D02*
X002849D01*
X00274Y0133115D02*
X002849D01*
X002739Y0132785D02*
Y0135185D01*
X002849Y0132785D02*
Y0135185D01*
X002739Y0126765D02*
X002848D01*
X002739Y0126435D02*
X002849D01*
X002739Y0128835D02*
X002849D01*
X002739Y0128505D02*
X002848D01*
X002849Y0126435D02*
Y0128835D01*
X002739Y0126435D02*
Y0128835D01*
X0040095Y0129393D02*
Y0131592D01*
X0038645Y0129393D02*
X0040095D01*
X0038645D02*
Y0131592D01*
X0040095D01*
X0038745Y0128943D02*
X0039995D01*
X003857Y0129117D02*
Y0130068D01*
X004017Y0129117D02*
Y0130068D01*
X0038645Y0129393D02*
X0040095D01*
X003872Y0132042D02*
X004002D01*
X004017Y0130917D02*
Y0131893D01*
X003857Y0130917D02*
Y0131893D01*
X0039445Y0124768D02*
X0040936D01*
X0039445Y0122623D02*
X0040936D01*
X0039445Y0122298D02*
X0040945D01*
X0039445D02*
Y0125098D01*
X0040945Y0122298D02*
Y0125098D01*
X0039445D02*
X0040945D01*
X0041986Y0124768D02*
X0043475D01*
X0041986Y0122623D02*
X0043475D01*
X0041986Y0122298D02*
X0043486D01*
X0041986D02*
Y0125098D01*
X0043486Y0122298D02*
Y0125098D01*
X0041986D02*
X0043486D01*
X0047065Y0124768D02*
X0048556D01*
X0047065Y0122623D02*
X0048556D01*
X0047065Y0122298D02*
X0048565D01*
X0047065D02*
Y0125098D01*
X0048565Y0122298D02*
Y0125098D01*
X0047065D02*
X0048565D01*
X0068098Y0090912D02*
Y0091887D01*
X0069698Y0090912D02*
Y0091887D01*
X0068247Y0092037D02*
X0069548D01*
X0068173Y0089387D02*
X0069622D01*
X0069698Y0089113D02*
Y0090062D01*
X0068098Y0089113D02*
Y0090062D01*
X0068272Y0088938D02*
X0069522D01*
X0068173Y0091588D02*
X0069622D01*
X0068173Y0089387D02*
Y0091588D01*
Y0089387D02*
X0069622D01*
Y0091588D01*
X0048175Y0084525D02*
Y0086925D01*
X0047075Y0084525D02*
Y0086925D01*
X0047085Y0084855D02*
X0048175D01*
X0047075Y0084525D02*
X0048175D01*
X0047075Y0086925D02*
X0048175D01*
X0047085Y0086595D02*
X0048175D01*
X0047075Y0078175D02*
Y0080575D01*
X0048175Y0078175D02*
Y0080575D01*
X0047075Y0080245D02*
X0048165D01*
X0047075Y0080575D02*
X0048175D01*
X0047075Y0078175D02*
X0048175D01*
X0047075Y0078505D02*
X0048165D01*
X0030587Y005668D02*
X0031562D01*
X0030587Y005508D02*
X0031562D01*
X0031712Y005523D02*
Y005653D01*
X0029062Y0055155D02*
Y0056605D01*
X0028788Y005508D02*
X0029737D01*
X0028788Y005668D02*
X0029737D01*
X0028612Y0055255D02*
Y0056505D01*
X0031263Y0055155D02*
Y0056605D01*
X0029062D02*
X0031263D01*
X0029062Y0055155D02*
Y0056605D01*
Y0055155D02*
X0031263D01*
X0028763Y0059575D02*
Y0061075D01*
X0031562D01*
X0028763Y0059575D02*
X0031562D01*
Y0061075D01*
X0031237Y0059575D02*
Y0061065D01*
X0029093Y0059575D02*
Y0061065D01*
X0040748Y005668D02*
X0041722D01*
X0040748Y005508D02*
X0041722D01*
X0041873Y005523D02*
Y005653D01*
X0039222Y0055155D02*
Y0056605D01*
X0038947Y005508D02*
X0039897D01*
X0038947Y005668D02*
X0039897D01*
X0038772Y0055255D02*
Y0056505D01*
X0041423Y0055155D02*
Y0056605D01*
X0039222D02*
X0041423D01*
X0039222Y0055155D02*
Y0056605D01*
Y0055155D02*
X0041423D01*
X0038605Y0059575D02*
Y0061075D01*
X0041405D01*
X0038605Y0059575D02*
X0041405D01*
Y0061075D01*
X004108Y0059575D02*
Y0061065D01*
X0038935Y0059575D02*
Y0061065D01*
X0052318Y0121582D02*
X0075317D01*
Y0055583D02*
Y0121582D01*
X0052318Y0055583D02*
X0075317D01*
X0052318D02*
Y0121582D01*
X0053818Y0113582D02*
X0073817D01*
Y0061583D02*
Y0113582D01*
X0053818Y0061583D02*
X0073817D01*
X0053818D02*
Y0113582D01*
X0056451Y0062182D02*
Y0112982D01*
Y0062182D02*
X0071184D01*
Y0112982D01*
X0056451D02*
X0071184D01*
X0051818Y0136583D02*
X0054818D01*
Y0133583D02*
Y0136583D01*
X0052818Y0121582D02*
Y0133583D01*
X0053818D02*
X0054818D01*
X0053818Y0121582D02*
Y0133583D01*
X0051818D02*
Y0136583D01*
Y0133583D02*
X0052818D01*
X0043932Y0133235D02*
Y0134725D01*
X0041787Y0133235D02*
Y0134725D01*
X0041463Y0133235D02*
Y0134735D01*
Y0133235D02*
X0044263D01*
X0041463Y0134735D02*
X0044263D01*
Y0133235D02*
Y0134735D01*
X0034173Y0139913D02*
Y0141402D01*
X0036318Y0139913D02*
Y0141402D01*
X0036643Y0139902D02*
Y0141402D01*
X0033842D02*
X0036643D01*
X0033842Y0139902D02*
X0036643D01*
X0033842D02*
Y0141402D01*
X0031375Y01369D02*
X0038475D01*
Y01298D02*
Y01369D01*
X0031375Y01298D02*
X0038475D01*
X0031375D02*
Y01369D01*
X0037975D02*
Y013865D01*
X0037475Y01369D02*
X0037975D01*
X0037475D02*
Y013865D01*
X0037975D01*
X0037175Y01369D02*
Y013865D01*
X0036675Y01369D02*
X0037175D01*
X0036675D02*
Y013865D01*
X0037175D01*
X0036375Y01369D02*
Y013865D01*
X0035875Y01369D02*
X0036375D01*
X0035875D02*
Y013865D01*
X0036375D01*
X0035575Y01369D02*
Y013865D01*
X0035075Y01369D02*
X0035575D01*
X0035075D02*
Y013865D01*
X0035575D01*
X0034775Y01369D02*
Y013865D01*
X0034275Y01369D02*
X0034775D01*
X0034275D02*
Y013865D01*
X0034775D01*
X0033975Y01369D02*
Y013865D01*
X0033475Y01369D02*
X0033975D01*
X0033475D02*
Y013865D01*
X0033975D01*
X0033175Y01369D02*
Y013865D01*
X0032675Y01369D02*
X0033175D01*
X0032675D02*
Y013865D01*
X0033175D01*
X0032375Y01369D02*
Y013865D01*
X0031875Y01369D02*
X0032375D01*
X0031875D02*
Y013865D01*
X0032375D01*
X0038475Y01303D02*
X0040225D01*
X0038475D02*
Y01308D01*
X0040225D01*
Y01303D02*
Y01308D01*
X0038475Y01311D02*
X0040225D01*
X0038475D02*
Y01316D01*
X0040225D01*
Y01311D02*
Y01316D01*
X0038475Y01319D02*
X0040225D01*
X0038475D02*
Y01324D01*
X0040225D01*
Y01319D02*
Y01324D01*
X0038475Y01327D02*
X0040225D01*
X0038475D02*
Y01332D01*
X0040225D01*
Y01327D02*
Y01332D01*
X0038475Y01335D02*
X0040225D01*
X0038475D02*
Y0134D01*
X0040225D01*
Y01335D02*
Y0134D01*
X0038475Y01343D02*
X0040225D01*
X0038475D02*
Y01348D01*
X0040225D01*
Y01343D02*
Y01348D01*
X0038475Y01351D02*
X0040225D01*
X0038475D02*
Y01356D01*
X0040225D01*
Y01351D02*
Y01356D01*
X0038475Y01359D02*
X0040225D01*
X0038475D02*
Y01364D01*
X0040225D01*
Y01359D02*
Y01364D01*
X0031875Y012805D02*
Y01298D01*
X0032375D01*
Y012805D02*
Y01298D01*
X0031875Y012805D02*
X0032375D01*
X0032675D02*
Y01298D01*
X0033175D01*
Y012805D02*
Y01298D01*
X0032675Y012805D02*
X0033175D01*
X0033475D02*
Y01298D01*
X0033975D01*
Y012805D02*
Y01298D01*
X0033475Y012805D02*
X0033975D01*
X0034275D02*
Y01298D01*
X0034775D01*
Y012805D02*
Y01298D01*
X0034275Y012805D02*
X0034775D01*
X0035075D02*
Y01298D01*
X0035575D01*
Y012805D02*
Y01298D01*
X0035075Y012805D02*
X0035575D01*
X0035875D02*
Y01298D01*
X0036375D01*
Y012805D02*
Y01298D01*
X0035875Y012805D02*
X0036375D01*
X0036675D02*
Y01298D01*
X0037175D01*
Y012805D02*
Y01298D01*
X0036675Y012805D02*
X0037175D01*
X0037475D02*
Y01298D01*
X0037975D01*
Y012805D02*
Y01298D01*
X0037475Y012805D02*
X0037975D01*
X0029625Y01303D02*
Y01308D01*
Y01303D02*
X0031375D01*
Y01308D01*
X0029625D02*
X0031375D01*
X0029625Y01311D02*
Y01316D01*
Y01311D02*
X0031375D01*
Y01316D01*
X0029625D02*
X0031375D01*
X0029625Y01319D02*
Y01324D01*
Y01319D02*
X0031375D01*
Y01324D01*
X0029625D02*
X0031375D01*
X0029625Y01327D02*
Y01332D01*
Y01327D02*
X0031375D01*
Y01332D01*
X0029625D02*
X0031375D01*
X0029625Y01335D02*
Y0134D01*
Y01335D02*
X0031375D01*
Y0134D01*
X0029625D02*
X0031375D01*
X0029625Y01343D02*
Y01348D01*
Y01343D02*
X0031375D01*
Y01348D01*
X0029625D02*
X0031375D01*
X0029625Y01351D02*
Y01356D01*
Y01351D02*
X0031375D01*
Y01356D01*
X0029625D02*
X0031375D01*
X0029625Y01359D02*
Y01364D01*
Y01359D02*
X0031375D01*
Y01364D01*
X0029625D02*
X0031375D01*
X0024003Y0127077D02*
Y0134543D01*
X0028702Y0127077D02*
Y0134543D01*
X0064213Y0129068D02*
X0065963D01*
X0064213Y0129168D02*
X0065963D01*
X0064213Y0129268D02*
X0065963D01*
X0064213Y0129368D02*
X0065963D01*
X0064213Y0129468D02*
X0065963D01*
X0064213D02*
X0065963D01*
X0064213Y0129968D02*
X0065963D01*
X0065088Y012997D02*
Y013143D01*
X0065963Y012657D02*
Y012997D01*
X0064213Y012657D02*
X0065963D01*
X0064213D02*
Y012997D01*
X0065088Y012511D02*
Y012656D01*
X0061673Y0129068D02*
X0063423D01*
X0061673Y0129168D02*
X0063423D01*
X0061673Y0129268D02*
X0063423D01*
X0061673Y0129368D02*
X0063423D01*
X0061673Y0129468D02*
X0063423D01*
X0061673D02*
X0063423D01*
X0061673Y0129968D02*
X0063423D01*
X0062548Y012997D02*
Y013143D01*
X0063423Y012657D02*
Y012997D01*
X0061673Y012657D02*
X0063423D01*
X0061673D02*
Y012997D01*
X0062548Y012511D02*
Y012656D01*
X0066878Y0130057D02*
X0068368D01*
X0066878Y0132202D02*
X0068368D01*
X0066878Y0132527D02*
X0068378D01*
X0066878Y0129727D02*
Y0132527D01*
X0068378Y0129727D02*
Y0132527D01*
X0066878Y0129727D02*
X0068378D01*
X0069418Y0130057D02*
X0070908D01*
X0069418Y0132202D02*
X0070908D01*
X0069418Y0132527D02*
X0070918D01*
X0069418Y0129727D02*
Y0132527D01*
X0070918Y0129727D02*
Y0132527D01*
X0069418Y0129727D02*
X0070918D01*
X0059257Y0130057D02*
X0060748D01*
X0059257Y0132202D02*
X0060748D01*
X0059257Y0132527D02*
X0060757D01*
X0059257Y0129727D02*
Y0132527D01*
X0060757Y0129727D02*
Y0132527D01*
X0059257Y0129727D02*
X0060757D01*
X0056728Y0132197D02*
X0058217D01*
X0056728Y0130053D02*
X0058217D01*
X0056717Y0129727D02*
X0058217D01*
Y0132527D01*
X0056717Y0129727D02*
Y0132527D01*
X0058217D01*
X0081493Y0123625D02*
X0082982D01*
X0081493Y012148D02*
X0082982D01*
X0081482Y0121155D02*
X0082982D01*
Y0123955D01*
X0081482Y0121155D02*
Y0123955D01*
X0082982D01*
X0080757Y0131503D02*
Y0137102D01*
Y0131503D02*
X0083707D01*
Y0137102D01*
X0080757D02*
X0083707D01*
X0081357D02*
Y0137428D01*
X0083107Y0137102D02*
Y0137428D01*
X0081707Y0137777D02*
X0082757D01*
X0083107Y0131128D02*
Y0131503D01*
X0081357Y0131128D02*
Y0131503D01*
X0081658Y0130827D02*
X0082808D01*
X0080757Y0131803D02*
X0083707D01*
X0080757Y0131902D02*
X0083707D01*
X0080757Y0132003D02*
X0083707D01*
X0080757Y0132102D02*
X0083707D01*
X0080757Y0132202D02*
X0083707D01*
X0080757Y0132303D02*
X0083707D01*
X0080757Y0132402D02*
X0083707D01*
X0080757Y0132503D02*
X0083707D01*
X0080757Y0132602D02*
X0083707D01*
X0080757Y0132702D02*
X0083707D01*
X0080963Y0141542D02*
X0081216Y0141288D01*
X0081206D02*
X0081216D01*
X0080952Y0141033D02*
X0081206Y0141288D01*
X0083248D02*
X0083503Y0141542D01*
X0083248Y0141288D02*
X0083503Y0141033D01*
X0083512Y0139001D02*
Y0141033D01*
X0080952Y0139001D02*
Y0141033D01*
Y0139001D02*
X0080963D01*
X0083503D02*
X0083512D01*
X0080952Y0141551D02*
Y0143587D01*
X0083512Y0141542D02*
Y0143587D01*
X0081232Y0143827D02*
X0083232D01*
X0081232Y0138747D02*
X0083232D01*
X0070723Y013389D02*
Y0134165D01*
Y013389D02*
X0073423D01*
Y0134165D01*
X0070723Y013789D02*
X0073423D01*
X0070723Y0137615D02*
Y013789D01*
X0073423Y0137615D02*
Y013789D01*
X0073448Y0134165D02*
Y0137615D01*
X0070698D02*
X0073448D01*
X0070698Y0134165D02*
Y0137615D01*
Y0134165D02*
X0073448D01*
X0072798Y013987D02*
Y014207D01*
X0071348D02*
X0072798D01*
X0071348Y013987D02*
Y014207D01*
Y013987D02*
X0072798D01*
X0071448Y014252D02*
X0072698D01*
X0071272Y0141395D02*
Y0142345D01*
X0072872Y0141395D02*
Y0142345D01*
X0071348Y014207D02*
X0072798D01*
X0071423Y013942D02*
X0072723D01*
X0072872Y013957D02*
Y0140545D01*
X0071272Y013957D02*
Y0140545D01*
X0060025Y0134473D02*
Y0134928D01*
X006696Y0134473D02*
Y0134928D01*
X0058035Y0136923D02*
X005965D01*
X0058035Y0134473D02*
Y0136923D01*
Y0134473D02*
X0060025D01*
X0058035Y0142372D02*
X005965D01*
X0058035Y0139923D02*
Y0142372D01*
Y0139923D02*
X005965D01*
X0068935D02*
Y0142372D01*
X006735D02*
X0068935D01*
X006735Y0139923D02*
X0068935D01*
X006696Y0134473D02*
X006895D01*
X006735Y0136923D02*
X006895D01*
Y0134473D02*
Y0136923D01*
X006735Y0134928D02*
Y0144128D01*
X005965D02*
X006735D01*
X005965Y0134928D02*
Y0144128D01*
Y0134928D02*
X006735D01*
X006535Y0134443D02*
Y0134928D01*
X006485Y0134443D02*
X006535D01*
X006485D02*
Y0134928D01*
X006405Y0134443D02*
Y0134928D01*
Y0134443D02*
X006455D01*
Y0134928D01*
X006325Y0134443D02*
Y0134928D01*
Y0134443D02*
X006375D01*
Y0134928D01*
X006245Y0134428D02*
Y0134913D01*
Y0134428D02*
X006295D01*
Y0134913D01*
X006165Y0134443D02*
Y0134928D01*
Y0134443D02*
X006215D01*
Y0134928D01*
X0046862Y0078817D02*
Y0086283D01*
X0051562Y0078817D02*
Y0086283D01*
X0033925Y007239D02*
X0035925D01*
X0033925Y006731D02*
X0035925D01*
X0033645Y006755D02*
Y0069596D01*
X0036205Y006755D02*
Y0069586D01*
X0033645Y0072136D02*
X0033655D01*
X0036195D02*
X0036205D01*
Y0070104D02*
Y0072136D01*
X0033645Y0070104D02*
Y0072136D01*
X0033655Y0070104D02*
X0033909Y006985D01*
X0033655Y0069596D02*
X0033909Y006985D01*
X0035951D02*
X0036205Y0070104D01*
X0035941Y006985D02*
X0035951D01*
X0035941D02*
X0036195Y0069596D01*
X00371Y007239D02*
X00391D01*
X00371Y006731D02*
X00391D01*
X003682Y006755D02*
Y0069596D01*
X003938Y006755D02*
Y0069586D01*
X003682Y0072136D02*
X003683D01*
X003937D02*
X003938D01*
Y0070104D02*
Y0072136D01*
X003682Y0070104D02*
Y0072136D01*
X003683Y0070104D02*
X0037084Y006985D01*
X003683Y0069596D02*
X0037084Y006985D01*
X0039126D02*
X003938Y0070104D01*
X0039116Y006985D02*
X0039126D01*
X0039116D02*
X003937Y0069596D01*
X0031317Y0067497D02*
X0032818D01*
Y0070298D01*
X0031317Y0067497D02*
Y0070298D01*
X0032818D01*
X0031317Y0069973D02*
X0032807D01*
X0031317Y0067827D02*
X0032807D01*
X0040208Y0067497D02*
X0041708D01*
Y0070298D01*
X0040208Y0067497D02*
Y0070298D01*
X0041708D01*
X0040208Y0069973D02*
X0041697D01*
X0040208Y0067827D02*
X0041697D01*
X0022812Y011303D02*
X0024812D01*
X0024829Y011049D02*
X0025083Y0110744D01*
X0024829Y011049D02*
X0025083Y0110236D01*
X0022532Y0110744D02*
X0022542D01*
X0022796Y011049D01*
X0022787D02*
X0022796D01*
X0022532Y0110236D02*
X0022787Y011049D01*
X0025093Y0110744D02*
Y011279D01*
X0024829Y010795D02*
X0025083Y0108204D01*
X0024829Y010795D02*
X0025083Y0107696D01*
X0025093Y0108204D02*
Y0110236D01*
X0025083Y0108204D02*
X0025093D01*
X0022532Y0110754D02*
Y011279D01*
Y0110754D02*
X0022542Y0110744D01*
X0022532Y0108204D02*
Y0110236D01*
Y0108204D02*
X0022542D01*
X0022796Y010795D01*
X0022542Y0107696D02*
X0022796Y010795D01*
X0025083Y0103124D02*
X0025093D01*
Y0105156D01*
X0024829Y010287D02*
X0025083Y0102616D01*
X0024829Y010287D02*
X0025083Y0103124D01*
X0025093Y0105664D02*
Y010771D01*
X0024829Y010541D02*
X0025083Y0105156D01*
X0024829Y010541D02*
X0025083Y0105664D01*
Y0098044D02*
X0025093D01*
Y0100076D01*
X0024829Y009779D02*
X0025083Y0097536D01*
X0024829Y009779D02*
X0025083Y0098044D01*
X0025093Y0100584D02*
Y010263D01*
X0024829Y010033D02*
X0025083Y0100076D01*
X0024829Y010033D02*
X0025083Y0100584D01*
Y0092964D02*
X0025093D01*
Y0094996D01*
X0024829Y009271D02*
X0025083Y0092456D01*
X0024829Y009271D02*
X0025083Y0092964D01*
X0025093Y0095504D02*
Y009755D01*
X0024829Y009525D02*
X0025083Y0094996D01*
X0024829Y009525D02*
X0025083Y0095504D01*
X0025093Y0087884D02*
Y0089916D01*
Y0090424D02*
Y009247D01*
X0024829Y009017D02*
X0025083Y0089916D01*
X0024829Y009017D02*
X0025083Y0090424D01*
X0022542Y0102616D02*
X0022796Y010287D01*
X0022542Y0103124D02*
X0022796Y010287D01*
X0022532Y0103124D02*
X0022542D01*
X0022532D02*
Y0105156D01*
Y0105674D02*
X0022542Y0105664D01*
X0022532Y0105674D02*
Y010771D01*
Y0105156D02*
X0022787Y010541D01*
X0022796D01*
X0022542Y0105664D02*
X0022796Y010541D01*
X0022532Y0105664D02*
X0022542D01*
Y0097536D02*
X0022796Y009779D01*
X0022542Y0098044D02*
X0022796Y009779D01*
X0022532Y0098044D02*
X0022542D01*
X0022532D02*
Y0100076D01*
Y0100594D02*
X0022542Y0100584D01*
X0022532Y0100594D02*
Y010263D01*
Y0100076D02*
X0022787Y010033D01*
X0022796D01*
X0022542Y0100584D02*
X0022796Y010033D01*
X0022532Y0100584D02*
X0022542D01*
Y0092456D02*
X0022796Y009271D01*
X0022542Y0092964D02*
X0022796Y009271D01*
X0022532Y0092964D02*
X0022542D01*
X0022532D02*
Y0094996D01*
Y0095514D02*
X0022542Y0095504D01*
X0022532Y0095514D02*
Y009755D01*
Y0094996D02*
X0022787Y009525D01*
X0022796D01*
X0022542Y0095504D02*
X0022796Y009525D01*
X0022532Y0095504D02*
X0022542D01*
X0022532Y0087884D02*
Y0089916D01*
Y0090434D02*
X0022542Y0090424D01*
X0022532Y0090434D02*
Y009247D01*
Y0089916D02*
X0022787Y009017D01*
X0022796D01*
X0022542Y0090424D02*
X0022796Y009017D01*
X0022532Y0090424D02*
X0022542D01*
X0022812Y008763D02*
X0024812D01*
X0022812Y0059055D02*
X0024812D01*
X0022532Y0061849D02*
X0022542D01*
X0022796Y0061595D01*
X0022787D02*
X0022796D01*
X0022532Y0061341D02*
X0022787Y0061595D01*
X0022532Y0061859D02*
Y0063895D01*
Y0061859D02*
X0022542Y0061849D01*
X0022532Y0059309D02*
Y0061341D01*
Y0066929D02*
X0022542D01*
X0022796Y0066675D01*
X0022787D02*
X0022796D01*
X0022532Y0066421D02*
X0022787Y0066675D01*
X0022532Y0066939D02*
Y0068975D01*
Y0066939D02*
X0022542Y0066929D01*
X0022532Y0064389D02*
Y0066421D01*
Y0064389D02*
X0022542D01*
X0022796Y0064135D01*
X0022542Y0063881D02*
X0022796Y0064135D01*
X0022532Y0072009D02*
X0022542D01*
X0022796Y0071755D01*
X0022787D02*
X0022796D01*
X0022532Y0071501D02*
X0022787Y0071755D01*
X0022532Y0072019D02*
Y0074055D01*
Y0072019D02*
X0022542Y0072009D01*
X0022532Y0069469D02*
Y0071501D01*
Y0069469D02*
X0022542D01*
X0022796Y0069215D01*
X0022542Y0068961D02*
X0022796Y0069215D01*
X0022532Y0077089D02*
X0022542D01*
X0022796Y0076835D01*
X0022787D02*
X0022796D01*
X0022532Y0076581D02*
X0022787Y0076835D01*
X0022532Y0077099D02*
Y0079135D01*
Y0077099D02*
X0022542Y0077089D01*
X0022532Y0074549D02*
Y0076581D01*
Y0074549D02*
X0022542D01*
X0022796Y0074295D01*
X0022542Y0074041D02*
X0022796Y0074295D01*
X0024829Y0061595D02*
X0025083Y0061849D01*
X0024829Y0061595D02*
X0025083Y0061341D01*
X0025093Y0061849D02*
Y0063895D01*
Y0059309D02*
Y0061341D01*
X0024829Y0066675D02*
X0025083Y0066929D01*
X0024829Y0066675D02*
X0025083Y0066421D01*
X0025093Y0066929D02*
Y0068975D01*
X0024829Y0064135D02*
X0025083Y0064389D01*
X0024829Y0064135D02*
X0025083Y0063881D01*
X0025093Y0064389D02*
Y0066421D01*
X0025083Y0064389D02*
X0025093D01*
X0024829Y0071755D02*
X0025083Y0072009D01*
X0024829Y0071755D02*
X0025083Y0071501D01*
X0025093Y0072009D02*
Y0074055D01*
X0024829Y0069215D02*
X0025083Y0069469D01*
X0024829Y0069215D02*
X0025083Y0068961D01*
X0025093Y0069469D02*
Y0071501D01*
X0025083Y0069469D02*
X0025093D01*
X0024829Y0076835D02*
X0025083Y0077089D01*
X0024829Y0076835D02*
X0025083Y0076581D01*
X0025093Y0077089D02*
Y0079135D01*
X0024829Y0074295D02*
X0025083Y0074549D01*
X0024829Y0074295D02*
X0025083Y0074041D01*
X0025093Y0074549D02*
Y0076581D01*
X0025083Y0074549D02*
X0025093D01*
X0022542Y0079121D02*
X0022796Y0079375D01*
X0022542Y0079629D02*
X0022796Y0079375D01*
X0022532Y0079629D02*
X0022542D01*
X0022532D02*
Y0081661D01*
Y0082179D02*
X0022542Y0082169D01*
X0022532Y0082179D02*
Y0084215D01*
X0025083Y0079629D02*
X0025093D01*
Y0081661D01*
X0024829Y0079375D02*
X0025083Y0079121D01*
X0024829Y0079375D02*
X0025083Y0079629D01*
X0025093Y0082169D02*
Y0084215D01*
X0022532Y0081661D02*
X0022787Y0081915D01*
X0022796D01*
X0022542Y0082169D02*
X0022796Y0081915D01*
X0022532Y0082169D02*
X0022542D01*
X0024829Y0081915D02*
X0025083Y0081661D01*
X0024829Y0081915D02*
X0025083Y0082169D01*
X0022812Y0084455D02*
X0024812D01*
X0081232Y0059055D02*
X0083232D01*
X0080952Y0061849D02*
X0080963D01*
X0081216Y0061595D01*
X0081206D02*
X0081216D01*
X0080952Y0061341D02*
X0081206Y0061595D01*
X0080952Y0061859D02*
Y0063895D01*
Y0061859D02*
X0080963Y0061849D01*
X0080952Y0059309D02*
Y0061341D01*
Y0066929D02*
X0080963D01*
X0081216Y0066675D01*
X0081206D02*
X0081216D01*
X0080952Y0066421D02*
X0081206Y0066675D01*
X0080952Y0066939D02*
Y0068975D01*
Y0066939D02*
X0080963Y0066929D01*
X0080952Y0064389D02*
Y0066421D01*
Y0064389D02*
X0080963D01*
X0081216Y0064135D01*
X0080963Y0063881D02*
X0081216Y0064135D01*
X0080952Y0072009D02*
X0080963D01*
X0081216Y0071755D01*
X0081206D02*
X0081216D01*
X0080952Y0071501D02*
X0081206Y0071755D01*
X0080952Y0072019D02*
Y0074055D01*
Y0072019D02*
X0080963Y0072009D01*
X0080952Y0069469D02*
Y0071501D01*
Y0069469D02*
X0080963D01*
X0081216Y0069215D01*
X0080963Y0068961D02*
X0081216Y0069215D01*
X0080952Y0077089D02*
X0080963D01*
X0081216Y0076835D01*
X0081206D02*
X0081216D01*
X0080952Y0076581D02*
X0081206Y0076835D01*
X0080952Y0077099D02*
Y0079135D01*
Y0077099D02*
X0080963Y0077089D01*
X0080952Y0074549D02*
Y0076581D01*
Y0074549D02*
X0080963D01*
X0081216Y0074295D01*
X0080963Y0074041D02*
X0081216Y0074295D01*
X0083248Y0061595D02*
X0083503Y0061849D01*
X0083248Y0061595D02*
X0083503Y0061341D01*
X0083512Y0061849D02*
Y0063895D01*
Y0059309D02*
Y0061341D01*
X0083248Y0066675D02*
X0083503Y0066929D01*
X0083248Y0066675D02*
X0083503Y0066421D01*
X0083512Y0066929D02*
Y0068975D01*
X0083248Y0064135D02*
X0083503Y0064389D01*
X0083248Y0064135D02*
X0083503Y0063881D01*
X0083512Y0064389D02*
Y0066421D01*
X0083503Y0064389D02*
X0083512D01*
X0083248Y0071755D02*
X0083503Y0072009D01*
X0083248Y0071755D02*
X0083503Y0071501D01*
X0083512Y0072009D02*
Y0074055D01*
X0083248Y0069215D02*
X0083503Y0069469D01*
X0083248Y0069215D02*
X0083503Y0068961D01*
X0083512Y0069469D02*
Y0071501D01*
X0083503Y0069469D02*
X0083512D01*
X0083248Y0076835D02*
X0083503Y0077089D01*
X0083248Y0076835D02*
X0083503Y0076581D01*
X0083512Y0077089D02*
Y0079135D01*
X0083248Y0074295D02*
X0083503Y0074549D01*
X0083248Y0074295D02*
X0083503Y0074041D01*
X0083512Y0074549D02*
Y0076581D01*
X0083503Y0074549D02*
X0083512D01*
X0080963Y0079121D02*
X0081216Y0079375D01*
X0080963Y0079629D02*
X0081216Y0079375D01*
X0080952Y0079629D02*
X0080963D01*
X0080952D02*
Y0081661D01*
Y0082179D02*
X0080963Y0082169D01*
X0080952Y0082179D02*
Y0084215D01*
X0083503Y0079629D02*
X0083512D01*
Y0081661D01*
X0083248Y0079375D02*
X0083503Y0079121D01*
X0083248Y0079375D02*
X0083503Y0079629D01*
X0083512Y0082169D02*
Y0084215D01*
X0080952Y0081661D02*
X0081206Y0081915D01*
X0081216D01*
X0080963Y0082169D02*
X0081216Y0081915D01*
X0080952Y0082169D02*
X0080963D01*
X0083248Y0081915D02*
X0083503Y0081661D01*
X0083248Y0081915D02*
X0083503Y0082169D01*
X0081232Y0084455D02*
X0083232D01*
X0043932Y0136727D02*
Y0138217D01*
X0041787Y0136727D02*
Y0138217D01*
X0041463Y0136727D02*
Y0138227D01*
Y0136727D02*
X0044263D01*
X0041463Y0138227D02*
X0044263D01*
Y0136727D02*
Y0138227D01*
X0034861Y0119253D02*
X0035116Y0118999D01*
X0034861Y0119253D02*
X0034871D01*
X0035125Y0119507D01*
X0032576Y0118999D02*
X0032829Y0119253D01*
X0032576Y0119507D02*
X0032829Y0119253D01*
X0032565Y0119507D02*
Y0121539D01*
X0035125Y0119507D02*
Y0121539D01*
X0035116D02*
X0035125D01*
X0032565D02*
X0032576D01*
X0035125Y0116953D02*
Y0118989D01*
X0032565Y0116953D02*
Y0118999D01*
X0032846Y0116713D02*
X0034846D01*
X0032846Y0121793D02*
X0034846D01*
X0028765Y0119507D02*
X002902Y0119253D01*
X002901D02*
X002902D01*
X0028756Y0118999D02*
X002901Y0119253D01*
X0031052D02*
X0031306Y0119507D01*
X0031052Y0119253D02*
X0031306Y0118999D01*
X0031316Y0116967D02*
Y0118999D01*
X0028756Y0116967D02*
Y0118999D01*
Y0116967D02*
X0028765D01*
X0031306D02*
X0031316D01*
X0028756Y0119517D02*
Y0121553D01*
X0031316Y0119507D02*
Y0121553D01*
X0029035Y0121793D02*
X0031035D01*
X0029035Y0116713D02*
X0031035D01*
X0025083Y0118999D02*
X0025337Y0119253D01*
X0025083Y0118999D02*
Y0119009D01*
X0024829Y0119263D02*
X0025083Y0119009D01*
Y0116967D02*
X0025337Y0116713D01*
X0024829D02*
X0025083Y0116967D01*
X0022796Y0116703D02*
X0024829D01*
X0022796Y0119263D02*
X0024829D01*
X0022796Y0119253D02*
Y0119263D01*
Y0116703D02*
Y0116713D01*
X0025347Y0119263D02*
X0027382D01*
X0025337Y0116703D02*
X0027382D01*
X0027622Y0116983D02*
Y0118983D01*
X0022542Y0116983D02*
Y0118983D01*
X0081232Y011303D02*
X0083232D01*
X0083248Y011049D02*
X0083503Y0110744D01*
X0083248Y011049D02*
X0083503Y0110236D01*
X0080952Y0110744D02*
X0080963D01*
X0081216Y011049D01*
X0081206D02*
X0081216D01*
X0080952Y0110236D02*
X0081206Y011049D01*
X0083512Y0110744D02*
Y011279D01*
X0083248Y010795D02*
X0083503Y0108204D01*
X0083248Y010795D02*
X0083503Y0107696D01*
X0083512Y0108204D02*
Y0110236D01*
X0083503Y0108204D02*
X0083512D01*
X0080952Y0110754D02*
Y011279D01*
Y0110754D02*
X0080963Y0110744D01*
X0080952Y0108204D02*
Y0110236D01*
Y0108204D02*
X0080963D01*
X0081216Y010795D01*
X0080963Y0107696D02*
X0081216Y010795D01*
X0083503Y0103124D02*
X0083512D01*
Y0105156D01*
X0083248Y010287D02*
X0083503Y0102616D01*
X0083248Y010287D02*
X0083503Y0103124D01*
X0083512Y0105664D02*
Y010771D01*
X0083248Y010541D02*
X0083503Y0105156D01*
X0083248Y010541D02*
X0083503Y0105664D01*
Y0098044D02*
X0083512D01*
Y0100076D01*
X0083248Y009779D02*
X0083503Y0097536D01*
X0083248Y009779D02*
X0083503Y0098044D01*
X0083512Y0100584D02*
Y010263D01*
X0083248Y010033D02*
X0083503Y0100076D01*
X0083248Y010033D02*
X0083503Y0100584D01*
Y0092964D02*
X0083512D01*
Y0094996D01*
X0083248Y009271D02*
X0083503Y0092456D01*
X0083248Y009271D02*
X0083503Y0092964D01*
X0083512Y0095504D02*
Y009755D01*
X0083248Y009525D02*
X0083503Y0094996D01*
X0083248Y009525D02*
X0083503Y0095504D01*
X0083512Y0087884D02*
Y0089916D01*
Y0090424D02*
Y009247D01*
X0083248Y009017D02*
X0083503Y0089916D01*
X0083248Y009017D02*
X0083503Y0090424D01*
X0080963Y0102616D02*
X0081216Y010287D01*
X0080963Y0103124D02*
X0081216Y010287D01*
X0080952Y0103124D02*
X0080963D01*
X0080952D02*
Y0105156D01*
Y0105674D02*
X0080963Y0105664D01*
X0080952Y0105674D02*
Y010771D01*
Y0105156D02*
X0081206Y010541D01*
X0081216D01*
X0080963Y0105664D02*
X0081216Y010541D01*
X0080952Y0105664D02*
X0080963D01*
Y0097536D02*
X0081216Y009779D01*
X0080963Y0098044D02*
X0081216Y009779D01*
X0080952Y0098044D02*
X0080963D01*
X0080952D02*
Y0100076D01*
Y0100594D02*
X0080963Y0100584D01*
X0080952Y0100594D02*
Y010263D01*
Y0100076D02*
X0081206Y010033D01*
X0081216D01*
X0080963Y0100584D02*
X0081216Y010033D01*
X0080952Y0100584D02*
X0080963D01*
Y0092456D02*
X0081216Y009271D01*
X0080963Y0092964D02*
X0081216Y009271D01*
X0080952Y0092964D02*
X0080963D01*
X0080952D02*
Y0094996D01*
Y0095514D02*
X0080963Y0095504D01*
X0080952Y0095514D02*
Y009755D01*
Y0094996D02*
X0081206Y009525D01*
X0081216D01*
X0080963Y0095504D02*
X0081216Y009525D01*
X0080952Y0095504D02*
X0080963D01*
X0080952Y0087884D02*
Y0089916D01*
Y0090434D02*
X0080963Y0090424D01*
X0080952Y0090434D02*
Y009247D01*
Y0089916D02*
X0081206Y009017D01*
X0081216D01*
X0080963Y0090424D02*
X0081216Y009017D01*
X0080952Y0090424D02*
X0080963D01*
X0081232Y008763D02*
X0083232D01*
X0057417Y0111082D02*
X0057751D01*
X0057584D01*
Y0112082D01*
X0057417Y0111916D01*
X0057884Y0063083D02*
X0057217D01*
X0057884Y0063749D01*
Y0063916D01*
X0057717Y0064082D01*
X0057384D01*
X0057217Y0063916D01*
X0058217D02*
X0058384Y0064082D01*
X0058717D01*
X0058884Y0063916D01*
Y0063249D01*
X0058717Y0063083D01*
X0058384D01*
X0058217Y0063249D01*
Y0063916D01*
X0069784Y0063083D02*
X0069118D01*
X0069784Y0063749D01*
Y0063916D01*
X0069617Y0064082D01*
X0069284D01*
X0069118Y0063916D01*
X0070117Y0063083D02*
X007045D01*
X0070284D01*
Y0064082D01*
X0070117Y0063916D01*
X0069117Y0111082D02*
Y0112082D01*
X0068618Y0111582D01*
X0069284D01*
X0069617Y0111916D02*
X0069784Y0112082D01*
X0070117D01*
X0070284Y0111916D01*
Y0111249D01*
X0070117Y0111082D01*
X0069784D01*
X0069617Y0111249D01*
Y0111916D01*
X0032291Y013125D02*
X0032425Y0131117D01*
Y013085D01*
X0032291Y0130717D01*
X0032158D01*
X0032025Y013085D01*
X0031892Y0130717D01*
X0031758D01*
X0031625Y013085D01*
Y0131117D01*
X0031758Y013125D01*
X0031892D01*
X0032025Y0131117D01*
X0032158Y013125D01*
X0032291D01*
X0032025Y0131117D02*
Y013085D01*
X0032425Y0130183D02*
X0032558Y013005D01*
X0032825D01*
X0032958Y0130183D01*
Y0130716D01*
X0032825Y013085D01*
X0032558D01*
X0032425Y0130716D01*
Y0130583D01*
X0032558Y013045D01*
X0032958D01*
X0036525Y013005D02*
X0036792D01*
X0036658D01*
Y013085D01*
X0036525Y0130716D01*
X0037725Y013085D02*
X0037458Y0130716D01*
X0037191Y013045D01*
Y0130183D01*
X0037325Y013005D01*
X0037591D01*
X0037725Y0130183D01*
Y0130317D01*
X0037591Y013045D01*
X0037191D01*
X0037425Y013185D02*
Y0131583D01*
Y0131717D01*
X0038225D01*
X0038091Y013185D01*
X0038225Y0131184D02*
Y013065D01*
X0038091D01*
X0037558Y0131184D01*
X0037425D01*
Y0135317D02*
Y013585D01*
X0037958Y0135317D01*
X0038091D01*
X0038225Y013545D01*
Y0135717D01*
X0038091Y013585D01*
X0037425Y013465D02*
X0038225D01*
X0037825Y013505D01*
Y0134517D01*
X0037158Y013595D02*
X0036625D01*
X0037158Y0136483D01*
Y0136616D01*
X0037025Y013675D01*
X0036758D01*
X0036625Y0136616D01*
X0037958Y013675D02*
X0037425D01*
Y013635D01*
X0037691Y0136483D01*
X0037825D01*
X0037958Y013635D01*
Y0136083D01*
X0037825Y013595D01*
X0037558D01*
X0037425Y0136083D01*
X0033125Y0136516D02*
X0033258Y013665D01*
X0033525D01*
X0033658Y0136516D01*
Y0136383D01*
X0033525Y013625D01*
X0033392D01*
X0033525D01*
X0033658Y0136117D01*
Y0135983D01*
X0033525Y013585D01*
X0033258D01*
X0033125Y0135983D01*
X0034458Y013585D02*
X0033925D01*
X0034458Y0136383D01*
Y0136516D01*
X0034325Y013665D01*
X0034058D01*
X0033925Y0136516D01*
X0065278Y0138113D02*
X0064878D01*
X0065078D01*
Y0136913D01*
X0065278Y0137113D01*
X006143Y0136913D02*
X006223D01*
Y0137513D01*
X006183Y0137313D01*
X006163D01*
X006143Y0137513D01*
Y0137913D01*
X006163Y0138113D01*
X006203D01*
X006223Y0137913D01*
M02*
