%FSTAX43Y43*%
%MOMM*%
G71*
G01*
G75*
G04:AMPARAMS|DCode=10|XSize=1.3mm|YSize=1mm|CornerRadius=0.25mm|HoleSize=0mm|Usage=FLASHONLY|Rotation=270.000|XOffset=0mm|YOffset=0mm|HoleType=Round|Shape=RoundedRectangle|*
%AMROUNDEDRECTD10*
21,1,1.300,0.500,0,0,270.0*
21,1,0.800,1.000,0,0,270.0*
1,1,0.500,-0.250,-0.400*
1,1,0.500,-0.250,0.400*
1,1,0.500,0.250,0.400*
1,1,0.500,0.250,-0.400*
%
%ADD10ROUNDEDRECTD10*%
G04:AMPARAMS|DCode=11|XSize=1.5mm|YSize=1.3mm|CornerRadius=0.325mm|HoleSize=0mm|Usage=FLASHONLY|Rotation=270.000|XOffset=0mm|YOffset=0mm|HoleType=Round|Shape=RoundedRectangle|*
%AMROUNDEDRECTD11*
21,1,1.500,0.650,0,0,270.0*
21,1,0.850,1.300,0,0,270.0*
1,1,0.650,-0.325,-0.425*
1,1,0.650,-0.325,0.425*
1,1,0.650,0.325,0.425*
1,1,0.650,0.325,-0.425*
%
%ADD11ROUNDEDRECTD11*%
G04:AMPARAMS|DCode=12|XSize=1.9mm|YSize=0.5mm|CornerRadius=0.125mm|HoleSize=0mm|Usage=FLASHONLY|Rotation=0.000|XOffset=0mm|YOffset=0mm|HoleType=Round|Shape=RoundedRectangle|*
%AMROUNDEDRECTD12*
21,1,1.900,0.250,0,0,0.0*
21,1,1.650,0.500,0,0,0.0*
1,1,0.250,0.825,-0.125*
1,1,0.250,-0.825,-0.125*
1,1,0.250,-0.825,0.125*
1,1,0.250,0.825,0.125*
%
%ADD12ROUNDEDRECTD12*%
G04:AMPARAMS|DCode=13|XSize=1.9mm|YSize=0.5mm|CornerRadius=0.125mm|HoleSize=0mm|Usage=FLASHONLY|Rotation=90.000|XOffset=0mm|YOffset=0mm|HoleType=Round|Shape=RoundedRectangle|*
%AMROUNDEDRECTD13*
21,1,1.900,0.250,0,0,90.0*
21,1,1.650,0.500,0,0,90.0*
1,1,0.250,0.125,0.825*
1,1,0.250,0.125,-0.825*
1,1,0.250,-0.125,-0.825*
1,1,0.250,-0.125,0.825*
%
%ADD13ROUNDEDRECTD13*%
G04:AMPARAMS|DCode=14|XSize=1.3mm|YSize=1mm|CornerRadius=0.25mm|HoleSize=0mm|Usage=FLASHONLY|Rotation=180.000|XOffset=0mm|YOffset=0mm|HoleType=Round|Shape=RoundedRectangle|*
%AMROUNDEDRECTD14*
21,1,1.300,0.500,0,0,180.0*
21,1,0.800,1.000,0,0,180.0*
1,1,0.500,-0.400,0.250*
1,1,0.500,0.400,0.250*
1,1,0.500,0.400,-0.250*
1,1,0.500,-0.400,-0.250*
%
%ADD14ROUNDEDRECTD14*%
G04:AMPARAMS|DCode=15|XSize=1.5mm|YSize=1.3mm|CornerRadius=0.325mm|HoleSize=0mm|Usage=FLASHONLY|Rotation=0.000|XOffset=0mm|YOffset=0mm|HoleType=Round|Shape=RoundedRectangle|*
%AMROUNDEDRECTD15*
21,1,1.500,0.650,0,0,0.0*
21,1,0.850,1.300,0,0,0.0*
1,1,0.650,0.425,-0.325*
1,1,0.650,-0.425,-0.325*
1,1,0.650,-0.425,0.325*
1,1,0.650,0.425,0.325*
%
%ADD15ROUNDEDRECTD15*%
G04:AMPARAMS|DCode=16|XSize=2.65mm|YSize=1.75mm|CornerRadius=0.438mm|HoleSize=0mm|Usage=FLASHONLY|Rotation=270.000|XOffset=0mm|YOffset=0mm|HoleType=Round|Shape=RoundedRectangle|*
%AMROUNDEDRECTD16*
21,1,2.650,0.875,0,0,270.0*
21,1,1.775,1.750,0,0,270.0*
1,1,0.875,-0.438,-0.887*
1,1,0.875,-0.438,0.887*
1,1,0.875,0.438,0.887*
1,1,0.875,0.438,-0.887*
%
%ADD16ROUNDEDRECTD16*%
G04:AMPARAMS|DCode=17|XSize=0.9mm|YSize=2.7mm|CornerRadius=0.225mm|HoleSize=0mm|Usage=FLASHONLY|Rotation=270.000|XOffset=0mm|YOffset=0mm|HoleType=Round|Shape=RoundedRectangle|*
%AMROUNDEDRECTD17*
21,1,0.900,2.250,0,0,270.0*
21,1,0.450,2.700,0,0,270.0*
1,1,0.450,-1.125,-0.225*
1,1,0.450,-1.125,0.225*
1,1,0.450,1.125,0.225*
1,1,0.450,1.125,-0.225*
%
%ADD17ROUNDEDRECTD17*%
G04:AMPARAMS|DCode=18|XSize=1mm|YSize=2.8mm|CornerRadius=0.25mm|HoleSize=0mm|Usage=FLASHONLY|Rotation=270.000|XOffset=0mm|YOffset=0mm|HoleType=Round|Shape=RoundedRectangle|*
%AMROUNDEDRECTD18*
21,1,1.000,2.300,0,0,270.0*
21,1,0.500,2.800,0,0,270.0*
1,1,0.500,-1.150,-0.250*
1,1,0.500,-1.150,0.250*
1,1,0.500,1.150,0.250*
1,1,0.500,1.150,-0.250*
%
%ADD18ROUNDEDRECTD18*%
G04:AMPARAMS|DCode=19|XSize=1.5mm|YSize=1.25mm|CornerRadius=0.313mm|HoleSize=0mm|Usage=FLASHONLY|Rotation=0.000|XOffset=0mm|YOffset=0mm|HoleType=Round|Shape=RoundedRectangle|*
%AMROUNDEDRECTD19*
21,1,1.500,0.625,0,0,0.0*
21,1,0.875,1.250,0,0,0.0*
1,1,0.625,0.438,-0.313*
1,1,0.625,-0.438,-0.313*
1,1,0.625,-0.438,0.313*
1,1,0.625,0.438,0.313*
%
%ADD19ROUNDEDRECTD19*%
%ADD20O,0.500X2.250*%
G04:AMPARAMS|DCode=21|XSize=2.5mm|YSize=2mm|CornerRadius=0.5mm|HoleSize=0mm|Usage=FLASHONLY|Rotation=90.000|XOffset=0mm|YOffset=0mm|HoleType=Round|Shape=RoundedRectangle|*
%AMROUNDEDRECTD21*
21,1,2.500,1.000,0,0,90.0*
21,1,1.500,2.000,0,0,90.0*
1,1,1.000,0.500,0.750*
1,1,1.000,0.500,-0.750*
1,1,1.000,-0.500,-0.750*
1,1,1.000,-0.500,0.750*
%
%ADD21ROUNDEDRECTD21*%
%ADD22C,0.500*%
%ADD23C,1.000*%
%ADD24C,0.300*%
%ADD25C,1.600*%
%ADD26C,1.300*%
%ADD27C,1.000*%
%ADD28C,1.100*%
%ADD29C,0.700*%
G04:AMPARAMS|DCode=30|XSize=0.9mm|YSize=0.8mm|CornerRadius=0.2mm|HoleSize=0mm|Usage=FLASHONLY|Rotation=180.000|XOffset=0mm|YOffset=0mm|HoleType=Round|Shape=RoundedRectangle|*
%AMROUNDEDRECTD30*
21,1,0.900,0.400,0,0,180.0*
21,1,0.500,0.800,0,0,180.0*
1,1,0.400,-0.250,0.200*
1,1,0.400,0.250,0.200*
1,1,0.400,0.250,-0.200*
1,1,0.400,-0.250,-0.200*
%
%ADD30ROUNDEDRECTD30*%
G04:AMPARAMS|DCode=31|XSize=1.5mm|YSize=1.25mm|CornerRadius=0.313mm|HoleSize=0mm|Usage=FLASHONLY|Rotation=270.000|XOffset=0mm|YOffset=0mm|HoleType=Round|Shape=RoundedRectangle|*
%AMROUNDEDRECTD31*
21,1,1.500,0.625,0,0,270.0*
21,1,0.875,1.250,0,0,270.0*
1,1,0.625,-0.313,-0.438*
1,1,0.625,-0.313,0.438*
1,1,0.625,0.313,0.438*
1,1,0.625,0.313,-0.438*
%
%ADD31ROUNDEDRECTD31*%
%ADD32C,0.178*%
%ADD33C,0.005*%
%ADD34C,0.250*%
%ADD35C,0.254*%
%ADD36C,0.400*%
G36*
X0053707Y0111582D02*
X0052818Y0110693D01*
Y0112471D01*
X0053707Y0111582D01*
D02*
G37*
G36*
X0050203Y0082258D02*
X0048196D01*
Y0082842D01*
X0050203D01*
Y0082258D01*
D02*
G37*
G36*
X0063333Y0127818D02*
X0061762D01*
X0062548Y0128604D01*
X0063333Y0127818D01*
D02*
G37*
G36*
X0027368Y0130518D02*
X0025362D01*
Y0131102D01*
X0027368D01*
Y0130518D01*
D02*
G37*
G36*
X0065873Y0127818D02*
X0064301D01*
X0065088Y0128604D01*
X0065873Y0127818D01*
D02*
G37*
D24*
X0022783Y0121803D02*
G03*
X0022543Y0121523I000002J-000026D01*
G01*
X0022543Y0119523D02*
G03*
X0022783Y0119243I000026J-000002D01*
G01*
X0027623Y0121523D02*
G03*
X0027343Y0121803I-000028J0D01*
G01*
Y0119243D02*
G03*
X0027623Y0119523I0J000028D01*
G01*
X0036625Y0119263D02*
G03*
X0036386Y0118983I000002J-000026D01*
G01*
X0036386Y0116983D02*
G03*
X0036625Y0116703I000026J-000002D01*
G01*
X0049085Y0118983D02*
G03*
X0048806Y0119263I-000028J0D01*
G01*
Y0116703D02*
G03*
X0049085Y0116983I0J000028D01*
G01*
X0048806Y0119243D02*
G03*
X0049085Y0119523I0J000028D01*
G01*
X0049085Y0121523D02*
G03*
X0048806Y0121803I-000028J0D01*
G01*
X0036386Y0119523D02*
G03*
X0036625Y0119243I000026J-000002D01*
G01*
Y0121803D02*
G03*
X0036386Y0121523I000002J-000026D01*
G01*
X0061818Y0121582D02*
G03*
X0065817Y0121582I0002J0D01*
G01*
X0062574Y0112992D02*
G03*
X0065113Y0112982I0001269J-0000043D01*
G01*
X0029275Y013295D02*
G03*
X0029275Y013295I-00001J0D01*
G01*
X0033025Y01276D02*
G03*
X0033025Y01276I-00001J0D01*
G01*
X0037025D02*
G03*
X0037025Y01276I-00001J0D01*
G01*
X0040775Y013295D02*
G03*
X0040775Y013295I-00001J0D01*
G01*
X0037825Y01391D02*
G03*
X0037825Y01391I-00001J0D01*
G01*
X0033825D02*
G03*
X0033825Y01391I-00001J0D01*
G01*
X0024005Y0127077D02*
G03*
X00287Y0127077I0002348J0000558D01*
G01*
Y0134543D02*
G03*
X0024005Y0134543I-0002348J-0000558D01*
G01*
X0080952Y0139027D02*
G03*
X0081232Y0138747I000028J0D01*
G01*
X0083232Y0138747D02*
G03*
X0083512Y0139027I0J000028D01*
G01*
X0081232Y0143827D02*
G03*
X0080952Y0143587I-000002J-000026D01*
G01*
X0083512D02*
G03*
X0083232Y0143827I-000026J-000002D01*
G01*
X0046865Y0078817D02*
G03*
X005156Y0078817I0002348J0000558D01*
G01*
Y0086283D02*
G03*
X0046865Y0086283I-0002348J-0000558D01*
G01*
X0033645Y006755D02*
G03*
X0033925Y006731I000026J000002D01*
G01*
X0035925Y006731D02*
G03*
X0036205Y006755I000002J000026D01*
G01*
X0033925Y007239D02*
G03*
X0033645Y007211I0J-000028D01*
G01*
X0036205D02*
G03*
X0035925Y007239I-000028J0D01*
G01*
X003682Y006755D02*
G03*
X00371Y006731I000026J000002D01*
G01*
X00391Y006731D02*
G03*
X003938Y006755I000002J000026D01*
G01*
X00371Y007239D02*
G03*
X003682Y007211I0J-000028D01*
G01*
X003938D02*
G03*
X00391Y007239I-000028J0D01*
G01*
X0043283Y0058293D02*
G03*
X0043283Y0058293I-00015J0D01*
G01*
X003891Y0057431D02*
G03*
X0044642Y0057383I0002873J0000862D01*
G01*
X0044629Y0059242D02*
G03*
X0038922Y0059196I-0002846J-0000949D01*
G01*
X0033187Y0058293D02*
G03*
X0033187Y0058293I-00015J0D01*
G01*
X0028813Y0057431D02*
G03*
X0034545Y0057383I0002873J0000862D01*
G01*
X0034533Y0059242D02*
G03*
X0028826Y0059196I-0002846J-0000949D01*
G01*
X0025093Y011279D02*
G03*
X0024812Y011303I-000026J-000002D01*
G01*
X0022812Y011303D02*
G03*
X0022532Y011279I-000002J-000026D01*
G01*
Y008787D02*
G03*
X0022812Y008763I000026J000002D01*
G01*
X0024812Y008763D02*
G03*
X0025093Y008787I000002J000026D01*
G01*
X0024812Y0059055D02*
G03*
X0025093Y0059295I000002J000026D01*
G01*
X0022532D02*
G03*
X0022812Y0059055I000026J000002D01*
G01*
Y0084455D02*
G03*
X0022532Y0084215I-000002J-000026D01*
G01*
X0025093D02*
G03*
X0024812Y0084455I-000026J-000002D01*
G01*
X0083232Y0059055D02*
G03*
X0083512Y0059295I000002J000026D01*
G01*
X0080952D02*
G03*
X0081232Y0059055I000026J000002D01*
G01*
Y0084455D02*
G03*
X0080952Y0084215I-000002J-000026D01*
G01*
X0083512D02*
G03*
X0083232Y0084455I-000026J-000002D01*
G01*
X0035125Y0121513D02*
G03*
X0034846Y0121793I-000028J0D01*
G01*
X0032846Y0121793D02*
G03*
X0032565Y0121513I0J-000028D01*
G01*
X0034846Y0116713D02*
G03*
X0035125Y0116953I000002J000026D01*
G01*
X0032565D02*
G03*
X0032846Y0116713I000026J000002D01*
G01*
X0028756Y0116993D02*
G03*
X0029035Y0116713I000028J0D01*
G01*
X0031035Y0116713D02*
G03*
X0031316Y0116993I0J000028D01*
G01*
X0029035Y0121793D02*
G03*
X0028756Y0121553I-000002J-000026D01*
G01*
X0031316D02*
G03*
X0031035Y0121793I-000026J-000002D01*
G01*
X0022823Y0119263D02*
G03*
X0022542Y0118983I0J-000028D01*
G01*
X0022542Y0116983D02*
G03*
X0022823Y0116703I000028J0D01*
G01*
X0027622Y0118983D02*
G03*
X0027382Y0119263I-000026J000002D01*
G01*
Y0116703D02*
G03*
X0027622Y0116983I-000002J000026D01*
G01*
X0083512Y011279D02*
G03*
X0083232Y011303I-000026J-000002D01*
G01*
X0081232Y011303D02*
G03*
X0080952Y011279I-000002J-000026D01*
G01*
Y008787D02*
G03*
X0081232Y008763I000026J000002D01*
G01*
X0083232Y008763D02*
G03*
X0083512Y008787I000002J000026D01*
G01*
X0027369Y0119243D02*
Y0119253D01*
Y0121793D02*
Y0121803D01*
X0022783Y0119243D02*
X0024819D01*
X0022783Y0121803D02*
X0024829D01*
X0022543Y0119523D02*
Y0121523D01*
X0027623Y0119523D02*
Y0121523D01*
X0025337Y0119243D02*
X0027369D01*
X0025337Y0121803D02*
X0027369D01*
X0024829Y0119253D02*
X0025083Y0119507D01*
Y0119497D02*
Y0119507D01*
Y0119497D02*
X0025337Y0119243D01*
X0025083Y0121539D02*
X0025337Y0121793D01*
X0024829D02*
X0025083Y0121539D01*
X0038925Y0116967D02*
Y0118999D01*
X0048832Y0116703D02*
Y0116713D01*
X0043751Y0116703D02*
Y0116713D01*
X0044006Y0116967D01*
Y0116957D02*
Y0116967D01*
Y0116957D02*
X0044259Y0116703D01*
X0041706D02*
X0043742D01*
X0043751Y0116713D01*
X0044259Y0116703D02*
X0046292D01*
X0048832Y0119253D02*
Y0119263D01*
X0043751Y0119253D02*
X0044006Y0118999D01*
X0044259Y0119253D01*
X0041706Y0119263D02*
X0043751D01*
X0044259D02*
X0046292D01*
X0041465Y0116967D02*
X004172Y0116713D01*
X0041211D02*
X0041465Y0116967D01*
X0041211Y0116703D02*
Y0116713D01*
X003918Y0116703D02*
X0041211D01*
X0038661D02*
X0038672Y0116713D01*
X0036625Y0116703D02*
X0038661D01*
X0041211Y0119253D02*
Y0119263D01*
X003918D02*
X0041211D01*
X0041465Y0118999D02*
X004172Y0119253D01*
X0041211D02*
X0041465Y0118999D01*
X0036625Y0119263D02*
X0038672D01*
X0038925Y0116957D02*
X003918Y0116703D01*
X0038925Y0116957D02*
Y0116967D01*
X0038672Y0116713D02*
X0038925Y0116967D01*
X0038672Y0116703D02*
Y0116713D01*
X0038925Y0118999D02*
X003918Y0119253D01*
X0038672D02*
X0038925Y0118999D01*
X0036386Y0116983D02*
Y0118983D01*
X0049085Y0116983D02*
Y0118983D01*
X0046799Y0116703D02*
X0048832D01*
X0046799Y0119263D02*
X0048832D01*
X0046292Y0116713D02*
X0046546Y0116967D01*
Y0116957D02*
Y0116967D01*
Y0116957D02*
X0046799Y0116703D01*
X0046546Y0118999D02*
X0046799Y0119253D01*
X0046292D02*
X0046546Y0118999D01*
X0046292Y0121793D02*
X0046546Y0121539D01*
X0046799Y0121793D01*
X0046546Y0119497D02*
X0046799Y0119243D01*
X0046546Y0119497D02*
Y0119507D01*
X0046292Y0119253D02*
X0046546Y0119507D01*
X0046799Y0121803D02*
X0048832D01*
X0046799Y0119243D02*
X0048832D01*
X0049085Y0119523D02*
Y0121523D01*
X0036386Y0119523D02*
Y0121523D01*
X0038672Y0121793D02*
X0038925Y0121539D01*
X003918Y0121793D01*
X0038672Y0119243D02*
Y0119253D01*
X0038925Y0119507D01*
Y0119497D02*
Y0119507D01*
Y0119497D02*
X003918Y0119243D01*
X0036625Y0121803D02*
X0038672D01*
X0041211Y0121793D02*
X0041465Y0121539D01*
X004172Y0121793D01*
X003918Y0121803D02*
X0041211D01*
Y0121793D02*
Y0121803D01*
X0036625Y0119243D02*
X0038661D01*
X0038672Y0119253D01*
X003918Y0119243D02*
X0041211D01*
Y0119253D01*
X0041465Y0119507D01*
X004172Y0119253D01*
X0044259Y0121803D02*
X0046292D01*
X0041706D02*
X0043751D01*
X0044006Y0121539D02*
X0044259Y0121793D01*
X0043751D02*
X0044006Y0121539D01*
X0048832Y0121793D02*
Y0121803D01*
X0044259Y0119243D02*
X0046292D01*
X0043742D02*
X0043751Y0119253D01*
X0041706Y0119243D02*
X0043742D01*
X0044006Y0119497D02*
X0044259Y0119243D01*
X0044006Y0119497D02*
Y0119507D01*
X0043751Y0119253D02*
X0044006Y0119507D01*
X0043751Y0119243D02*
Y0119253D01*
X0048832Y0119243D02*
Y0119253D01*
X0038925Y0119507D02*
Y0121539D01*
X0052318Y0121582D02*
X0075317D01*
Y0055583D02*
Y0121582D01*
X0052318Y0055583D02*
X0075317D01*
X0052318D02*
Y0121582D01*
X0053818Y0113582D02*
X0073817D01*
Y0061583D02*
Y0113582D01*
X0053818Y0061583D02*
X0073817D01*
X0053818D02*
Y0113582D01*
X0052318Y0121582D02*
X0075317D01*
X0051818Y0136583D02*
X0054818D01*
X0052818Y0121582D02*
Y0133583D01*
X0053818Y0121582D02*
Y0133583D01*
X0054818D01*
Y0136583D01*
X0051818Y0133583D02*
X0052818D01*
X0051818D02*
Y0136583D01*
X0058737Y0110442D02*
X0068897D01*
Y0064723D02*
Y0110442D01*
X0058737Y0064723D02*
X0068897D01*
X0058737D02*
Y0110442D01*
X0054928Y0112982D02*
X0062573D01*
X0065138D02*
X0072777D01*
X0054868Y0062173D02*
Y0112973D01*
X0054928Y0062182D02*
X0072777D01*
Y0112982D01*
X0041263Y0133085D02*
Y0134885D01*
X0044463D01*
Y0133085D02*
Y0134885D01*
X0041263Y0133085D02*
X0044463D01*
X004953Y0132969D02*
Y0135001D01*
X0044958D02*
X004953D01*
X0045339Y0132969D02*
Y0135001D01*
X0044958Y0132969D02*
Y0135001D01*
Y0132969D02*
X004953D01*
X004572D02*
Y0135001D01*
X0036842Y0139753D02*
Y0141553D01*
X0033643Y0139753D02*
X0036842D01*
X0033643D02*
Y0141553D01*
X0036842D01*
X0031825Y013025D02*
Y013645D01*
X0038025D01*
Y013025D02*
Y013645D01*
X0031825Y013025D02*
X0038025D01*
X0031525Y013675D02*
X0031825Y013645D01*
X0029325Y013675D02*
X0031525D01*
X0029325Y013595D02*
Y013675D01*
X0024003Y0127077D02*
Y0134543D01*
X0028702Y0127077D02*
Y0134543D01*
X0064301Y0127818D02*
X0065088Y0128604D01*
X0065873Y0127818D01*
X0065088Y012539D02*
Y013116D01*
X0064301Y0127818D02*
X0065873D01*
X0064301Y0128643D02*
X0065873D01*
X0061762Y0127818D02*
X0062548Y0128604D01*
X0063333Y0127818D01*
X0062548Y012539D02*
Y013116D01*
X0061762Y0127818D02*
X0063333D01*
X0061762Y0128643D02*
X0063333D01*
X0066728Y0132727D02*
X0068527D01*
Y0129527D02*
Y0132727D01*
X0066728Y0129527D02*
X0068527D01*
X0066728D02*
Y0132727D01*
X0069268D02*
X0071067D01*
Y0129527D02*
Y0132727D01*
X0069268Y0129527D02*
X0071067D01*
X0069268D02*
Y0132727D01*
X0059107D02*
X0060908D01*
Y0129527D02*
Y0132727D01*
X0059107Y0129527D02*
X0060908D01*
X0059107D02*
Y0132727D01*
X0056568Y0129527D02*
X0058368D01*
X0056568D02*
Y0132727D01*
X0058368D01*
Y0129527D02*
Y0132727D01*
X0081216Y0129223D02*
X0083248D01*
X0081216Y012465D02*
Y0129223D01*
Y0125032D02*
X0083248D01*
X0081216Y012465D02*
X0083248D01*
Y0129223D01*
X0081216Y0125412D02*
X0083248D01*
X0081332Y0120955D02*
X0083132D01*
X0081332D02*
Y0124155D01*
X0083132D01*
Y0120955D02*
Y0124155D01*
X0080757Y0130553D02*
X0083707D01*
X0083707Y0129902D02*
Y0138053D01*
X0080757Y0129902D02*
X0083707D01*
X0080757Y0138053D02*
X0083707D01*
X0080757Y0130402D02*
X0083707D01*
X0080757Y0130102D02*
X0083707D01*
X0080757Y0129902D02*
Y0138053D01*
X0081033Y0130298D02*
X0083433D01*
X0083248Y0141288D02*
X0083503Y0141542D01*
X0083248Y0141288D02*
X0083503Y0141033D01*
X0080952D02*
X0081206Y0141288D01*
X0081216D01*
X0080963Y0141542D02*
X0081216Y0141288D01*
X0083512Y0139001D02*
Y0141033D01*
X0080952Y0139001D02*
Y0141033D01*
X0081232Y0138747D02*
X0083232D01*
X0081232Y0143827D02*
X0083232D01*
X0083512Y0141542D02*
Y0143587D01*
X0080952Y0141551D02*
Y0143587D01*
X0083503Y0139001D02*
X0083512D01*
X0080952D02*
X0080963D01*
X0070295Y013827D02*
X0073823D01*
X0070295Y013351D02*
Y013827D01*
Y013351D02*
X0073823D01*
Y013827D01*
X0071022Y014277D02*
X0073122D01*
X0071022Y013917D02*
Y014277D01*
Y013917D02*
X0073122D01*
Y014277D01*
X005965Y0137249D02*
Y0139637D01*
X0060376Y0134928D02*
X0061366D01*
X006735Y0137223D02*
Y0139637D01*
X0065634Y0134928D02*
X0066675D01*
X005965Y0142684D02*
Y0144128D01*
X006735Y0142684D02*
Y0144128D01*
X0046862Y0078817D02*
Y0086283D01*
X0051562Y0078817D02*
Y0086283D01*
X0036195Y0072136D02*
X0036205D01*
X0033645D02*
X0033655D01*
X0036205Y006755D02*
Y0069586D01*
X0033645Y006755D02*
Y0069596D01*
X0033925Y006731D02*
X0035925D01*
X0033925Y007239D02*
X0035925D01*
X0036205Y0070104D02*
Y0072136D01*
X0033645Y0070104D02*
Y0072136D01*
X0035941Y006985D02*
X0036195Y0069596D01*
X0035941Y006985D02*
X0035951D01*
X0036205Y0070104D01*
X0033655D02*
X0033909Y006985D01*
X0033655Y0069596D02*
X0033909Y006985D01*
X003937Y0072136D02*
X003938D01*
X003682D02*
X003683D01*
X003938Y006755D02*
Y0069586D01*
X003682Y006755D02*
Y0069596D01*
X00371Y006731D02*
X00391D01*
X00371Y007239D02*
X00391D01*
X003938Y0070104D02*
Y0072136D01*
X003682Y0070104D02*
Y0072136D01*
X0039116Y006985D02*
X003937Y0069596D01*
X0039116Y006985D02*
X0039126D01*
X003938Y0070104D01*
X003683D02*
X0037084Y006985D01*
X003683Y0069596D02*
X0037084Y006985D01*
X0031167Y0067298D02*
Y0070497D01*
Y0067298D02*
X0032967D01*
Y0070497D01*
X0031167D02*
X0032967D01*
X0040057Y0067298D02*
Y0070497D01*
Y0067298D02*
X0041857D01*
Y0070497D01*
X0040057D02*
X0041857D01*
X0032068Y0064706D02*
Y0066739D01*
X0031306Y0064706D02*
X0035877D01*
X0031306D02*
Y0066739D01*
X0031687Y0064706D02*
Y0066739D01*
X0031306D02*
X0035877D01*
Y0064706D02*
Y0066739D01*
X0040958Y0064706D02*
Y0066739D01*
X0037147D02*
X004172D01*
Y0064706D02*
Y0066739D01*
X0041339Y0064706D02*
Y0066739D01*
X0037147Y0064706D02*
X004172D01*
X0037147D02*
Y0066739D01*
X0022532Y0090424D02*
X0022542D01*
X0022796Y009017D01*
X0022787D02*
X0022796D01*
X0022532Y0089916D02*
X0022787Y009017D01*
X0022532Y0090434D02*
Y009247D01*
Y0090434D02*
X0022542Y0090424D01*
X0022532Y0087884D02*
Y0089916D01*
Y0095504D02*
X0022542D01*
X0022796Y009525D01*
X0022787D02*
X0022796D01*
X0022532Y0094996D02*
X0022787Y009525D01*
X0022532Y0095514D02*
Y009755D01*
Y0095514D02*
X0022542Y0095504D01*
X0022532Y0092964D02*
Y0094996D01*
Y0092964D02*
X0022542D01*
X0022796Y009271D01*
X0022542Y0092456D02*
X0022796Y009271D01*
X0022532Y0100584D02*
X0022542D01*
X0022796Y010033D01*
X0022787D02*
X0022796D01*
X0022532Y0100076D02*
X0022787Y010033D01*
X0022532Y0100594D02*
Y010263D01*
Y0100594D02*
X0022542Y0100584D01*
X0022532Y0098044D02*
Y0100076D01*
Y0098044D02*
X0022542D01*
X0022796Y009779D01*
X0022542Y0097536D02*
X0022796Y009779D01*
X0022532Y0105664D02*
X0022542D01*
X0022796Y010541D01*
X0022787D02*
X0022796D01*
X0022532Y0105156D02*
X0022787Y010541D01*
X0022532Y0105674D02*
Y010771D01*
Y0105674D02*
X0022542Y0105664D01*
X0022532Y0103124D02*
Y0105156D01*
Y0103124D02*
X0022542D01*
X0022796Y010287D01*
X0022542Y0102616D02*
X0022796Y010287D01*
X0024829Y009017D02*
X0025083Y0090424D01*
X0024829Y009017D02*
X0025083Y0089916D01*
X0025093Y0090424D02*
Y009247D01*
Y0087884D02*
Y0089916D01*
X0024829Y009525D02*
X0025083Y0095504D01*
X0024829Y009525D02*
X0025083Y0094996D01*
X0025093Y0095504D02*
Y009755D01*
X0024829Y009271D02*
X0025083Y0092964D01*
X0024829Y009271D02*
X0025083Y0092456D01*
X0025093Y0092964D02*
Y0094996D01*
X0025083Y0092964D02*
X0025093D01*
X0024829Y010033D02*
X0025083Y0100584D01*
X0024829Y010033D02*
X0025083Y0100076D01*
X0025093Y0100584D02*
Y010263D01*
X0024829Y009779D02*
X0025083Y0098044D01*
X0024829Y009779D02*
X0025083Y0097536D01*
X0025093Y0098044D02*
Y0100076D01*
X0025083Y0098044D02*
X0025093D01*
X0024829Y010541D02*
X0025083Y0105664D01*
X0024829Y010541D02*
X0025083Y0105156D01*
X0025093Y0105664D02*
Y010771D01*
X0024829Y010287D02*
X0025083Y0103124D01*
X0024829Y010287D02*
X0025083Y0102616D01*
X0025093Y0103124D02*
Y0105156D01*
X0025083Y0103124D02*
X0025093D01*
X0022542Y0107696D02*
X0022796Y010795D01*
X0022542Y0108204D02*
X0022796Y010795D01*
X0022532Y0108204D02*
X0022542D01*
X0022532D02*
Y0110236D01*
Y0110754D02*
X0022542Y0110744D01*
X0022532Y0110754D02*
Y011279D01*
X0025083Y0108204D02*
X0025093D01*
Y0110236D01*
X0024829Y010795D02*
X0025083Y0107696D01*
X0024829Y010795D02*
X0025083Y0108204D01*
X0025093Y0110744D02*
Y011279D01*
X0022532Y0110236D02*
X0022787Y011049D01*
X0022796D01*
X0022542Y0110744D02*
X0022796Y011049D01*
X0022532Y0110744D02*
X0022542D01*
X0024829Y011049D02*
X0025083Y0110236D01*
X0024829Y011049D02*
X0025083Y0110744D01*
X0022812Y011303D02*
X0024812D01*
X0022812Y008763D02*
X0024812D01*
X0022787Y011049D02*
X0024829D01*
X0022787Y0081915D02*
X0024829D01*
X0022812Y0059055D02*
X0024812D01*
X0022812Y0084455D02*
X0024812D01*
X0024829Y0081915D02*
X0025083Y0082169D01*
X0024829Y0081915D02*
X0025083Y0081661D01*
X0022532Y0082169D02*
X0022542D01*
X0022796Y0081915D01*
X0022787D02*
X0022796D01*
X0022532Y0081661D02*
X0022787Y0081915D01*
X0025093Y0082169D02*
Y0084215D01*
X0024829Y0079375D02*
X0025083Y0079629D01*
X0024829Y0079375D02*
X0025083Y0079121D01*
X0025093Y0079629D02*
Y0081661D01*
X0025083Y0079629D02*
X0025093D01*
X0022532Y0082179D02*
Y0084215D01*
Y0082179D02*
X0022542Y0082169D01*
X0022532Y0079629D02*
Y0081661D01*
Y0079629D02*
X0022542D01*
X0022796Y0079375D01*
X0022542Y0079121D02*
X0022796Y0079375D01*
X0025083Y0074549D02*
X0025093D01*
Y0076581D01*
X0024829Y0074295D02*
X0025083Y0074041D01*
X0024829Y0074295D02*
X0025083Y0074549D01*
X0025093Y0077089D02*
Y0079135D01*
X0024829Y0076835D02*
X0025083Y0076581D01*
X0024829Y0076835D02*
X0025083Y0077089D01*
Y0069469D02*
X0025093D01*
Y0071501D01*
X0024829Y0069215D02*
X0025083Y0068961D01*
X0024829Y0069215D02*
X0025083Y0069469D01*
X0025093Y0072009D02*
Y0074055D01*
X0024829Y0071755D02*
X0025083Y0071501D01*
X0024829Y0071755D02*
X0025083Y0072009D01*
Y0064389D02*
X0025093D01*
Y0066421D01*
X0024829Y0064135D02*
X0025083Y0063881D01*
X0024829Y0064135D02*
X0025083Y0064389D01*
X0025093Y0066929D02*
Y0068975D01*
X0024829Y0066675D02*
X0025083Y0066421D01*
X0024829Y0066675D02*
X0025083Y0066929D01*
X0025093Y0059309D02*
Y0061341D01*
Y0061849D02*
Y0063895D01*
X0024829Y0061595D02*
X0025083Y0061341D01*
X0024829Y0061595D02*
X0025083Y0061849D01*
X0022542Y0074041D02*
X0022796Y0074295D01*
X0022542Y0074549D02*
X0022796Y0074295D01*
X0022532Y0074549D02*
X0022542D01*
X0022532D02*
Y0076581D01*
Y0077099D02*
X0022542Y0077089D01*
X0022532Y0077099D02*
Y0079135D01*
Y0076581D02*
X0022787Y0076835D01*
X0022796D01*
X0022542Y0077089D02*
X0022796Y0076835D01*
X0022532Y0077089D02*
X0022542D01*
Y0068961D02*
X0022796Y0069215D01*
X0022542Y0069469D02*
X0022796Y0069215D01*
X0022532Y0069469D02*
X0022542D01*
X0022532D02*
Y0071501D01*
Y0072019D02*
X0022542Y0072009D01*
X0022532Y0072019D02*
Y0074055D01*
Y0071501D02*
X0022787Y0071755D01*
X0022796D01*
X0022542Y0072009D02*
X0022796Y0071755D01*
X0022532Y0072009D02*
X0022542D01*
Y0063881D02*
X0022796Y0064135D01*
X0022542Y0064389D02*
X0022796Y0064135D01*
X0022532Y0064389D02*
X0022542D01*
X0022532D02*
Y0066421D01*
Y0066939D02*
X0022542Y0066929D01*
X0022532Y0066939D02*
Y0068975D01*
Y0066421D02*
X0022787Y0066675D01*
X0022796D01*
X0022542Y0066929D02*
X0022796Y0066675D01*
X0022532Y0066929D02*
X0022542D01*
X0022532Y0059309D02*
Y0061341D01*
Y0061859D02*
X0022542Y0061849D01*
X0022532Y0061859D02*
Y0063895D01*
Y0061341D02*
X0022787Y0061595D01*
X0022796D01*
X0022542Y0061849D02*
X0022796Y0061595D01*
X0022532Y0061849D02*
X0022542D01*
X0081206Y0081915D02*
X0083248D01*
X0081232Y0059055D02*
X0083232D01*
X0081232Y0084455D02*
X0083232D01*
X0083248Y0081915D02*
X0083503Y0082169D01*
X0083248Y0081915D02*
X0083503Y0081661D01*
X0080952Y0082169D02*
X0080963D01*
X0081216Y0081915D01*
X0081206D02*
X0081216D01*
X0080952Y0081661D02*
X0081206Y0081915D01*
X0083512Y0082169D02*
Y0084215D01*
X0083248Y0079375D02*
X0083503Y0079629D01*
X0083248Y0079375D02*
X0083503Y0079121D01*
X0083512Y0079629D02*
Y0081661D01*
X0083503Y0079629D02*
X0083512D01*
X0080952Y0082179D02*
Y0084215D01*
Y0082179D02*
X0080963Y0082169D01*
X0080952Y0079629D02*
Y0081661D01*
Y0079629D02*
X0080963D01*
X0081216Y0079375D01*
X0080963Y0079121D02*
X0081216Y0079375D01*
X0083503Y0074549D02*
X0083512D01*
Y0076581D01*
X0083248Y0074295D02*
X0083503Y0074041D01*
X0083248Y0074295D02*
X0083503Y0074549D01*
X0083512Y0077089D02*
Y0079135D01*
X0083248Y0076835D02*
X0083503Y0076581D01*
X0083248Y0076835D02*
X0083503Y0077089D01*
Y0069469D02*
X0083512D01*
Y0071501D01*
X0083248Y0069215D02*
X0083503Y0068961D01*
X0083248Y0069215D02*
X0083503Y0069469D01*
X0083512Y0072009D02*
Y0074055D01*
X0083248Y0071755D02*
X0083503Y0071501D01*
X0083248Y0071755D02*
X0083503Y0072009D01*
Y0064389D02*
X0083512D01*
Y0066421D01*
X0083248Y0064135D02*
X0083503Y0063881D01*
X0083248Y0064135D02*
X0083503Y0064389D01*
X0083512Y0066929D02*
Y0068975D01*
X0083248Y0066675D02*
X0083503Y0066421D01*
X0083248Y0066675D02*
X0083503Y0066929D01*
X0083512Y0059309D02*
Y0061341D01*
Y0061849D02*
Y0063895D01*
X0083248Y0061595D02*
X0083503Y0061341D01*
X0083248Y0061595D02*
X0083503Y0061849D01*
X0080963Y0074041D02*
X0081216Y0074295D01*
X0080963Y0074549D02*
X0081216Y0074295D01*
X0080952Y0074549D02*
X0080963D01*
X0080952D02*
Y0076581D01*
Y0077099D02*
X0080963Y0077089D01*
X0080952Y0077099D02*
Y0079135D01*
Y0076581D02*
X0081206Y0076835D01*
X0081216D01*
X0080963Y0077089D02*
X0081216Y0076835D01*
X0080952Y0077089D02*
X0080963D01*
Y0068961D02*
X0081216Y0069215D01*
X0080963Y0069469D02*
X0081216Y0069215D01*
X0080952Y0069469D02*
X0080963D01*
X0080952D02*
Y0071501D01*
Y0072019D02*
X0080963Y0072009D01*
X0080952Y0072019D02*
Y0074055D01*
Y0071501D02*
X0081206Y0071755D01*
X0081216D01*
X0080963Y0072009D02*
X0081216Y0071755D01*
X0080952Y0072009D02*
X0080963D01*
Y0063881D02*
X0081216Y0064135D01*
X0080963Y0064389D02*
X0081216Y0064135D01*
X0080952Y0064389D02*
X0080963D01*
X0080952D02*
Y0066421D01*
Y0066939D02*
X0080963Y0066929D01*
X0080952Y0066939D02*
Y0068975D01*
Y0066421D02*
X0081206Y0066675D01*
X0081216D01*
X0080963Y0066929D02*
X0081216Y0066675D01*
X0080952Y0066929D02*
X0080963D01*
X0080952Y0059309D02*
Y0061341D01*
Y0061859D02*
X0080963Y0061849D01*
X0080952Y0061859D02*
Y0063895D01*
Y0061341D02*
X0081206Y0061595D01*
X0081216D01*
X0080963Y0061849D02*
X0081216Y0061595D01*
X0080952Y0061849D02*
X0080963D01*
X0041263Y0136577D02*
Y0138378D01*
X0044463D01*
Y0136577D02*
Y0138378D01*
X0041263Y0136577D02*
X0044463D01*
X004953Y0136462D02*
Y0138493D01*
X0044958D02*
X004953D01*
X0045339Y0136462D02*
Y0138493D01*
X0044958Y0136462D02*
Y0138493D01*
Y0136462D02*
X004953D01*
X004572D02*
Y0138493D01*
X0032576Y0118999D02*
X0032829Y0119253D01*
X0032576Y0119507D02*
X0032829Y0119253D01*
X0034871D02*
X0035125Y0119507D01*
X0034861Y0119253D02*
X0034871D01*
X0034861D02*
X0035116Y0118999D01*
X0032565Y0119507D02*
Y0121539D01*
X0035125Y0119507D02*
Y0121539D01*
X0032846Y0121793D02*
X0034846D01*
X0032846Y0116713D02*
X0034846D01*
X0032565Y0116953D02*
Y0118999D01*
X0035125Y0116953D02*
Y0118989D01*
X0032565Y0121539D02*
X0032576D01*
X0035116D02*
X0035125D01*
X0031052Y0119253D02*
X0031306Y0119507D01*
X0031052Y0119253D02*
X0031306Y0118999D01*
X0028756D02*
X002901Y0119253D01*
X002902D01*
X0028765Y0119507D02*
X002902Y0119253D01*
X0031316Y0116967D02*
Y0118999D01*
X0028756Y0116967D02*
Y0118999D01*
X0029035Y0116713D02*
X0031035D01*
X0029035Y0121793D02*
X0031035D01*
X0031316Y0119507D02*
Y0121553D01*
X0028756Y0119517D02*
Y0121553D01*
X0031306Y0116967D02*
X0031316D01*
X0028756D02*
X0028765D01*
X0025083Y0116967D02*
X0025337Y0116713D01*
X0024829D02*
X0025083Y0116967D01*
X0024829Y0119263D02*
X0025083Y0119009D01*
Y0118999D02*
Y0119009D01*
Y0118999D02*
X0025337Y0119253D01*
X0022796Y0116703D02*
X0024829D01*
X0022796Y0119263D02*
X0024829D01*
X0022542Y0116983D02*
Y0118983D01*
X0027622Y0116983D02*
Y0118983D01*
X0025337Y0116703D02*
X0027382D01*
X0025347Y0119263D02*
X0027382D01*
X0022796Y0116703D02*
Y0116713D01*
Y0119253D02*
Y0119263D01*
X0080952Y0090424D02*
X0080963D01*
X0081216Y009017D01*
X0081206D02*
X0081216D01*
X0080952Y0089916D02*
X0081206Y009017D01*
X0080952Y0090434D02*
Y009247D01*
Y0090434D02*
X0080963Y0090424D01*
X0080952Y0087884D02*
Y0089916D01*
Y0095504D02*
X0080963D01*
X0081216Y009525D01*
X0081206D02*
X0081216D01*
X0080952Y0094996D02*
X0081206Y009525D01*
X0080952Y0095514D02*
Y009755D01*
Y0095514D02*
X0080963Y0095504D01*
X0080952Y0092964D02*
Y0094996D01*
Y0092964D02*
X0080963D01*
X0081216Y009271D01*
X0080963Y0092456D02*
X0081216Y009271D01*
X0080952Y0100584D02*
X0080963D01*
X0081216Y010033D01*
X0081206D02*
X0081216D01*
X0080952Y0100076D02*
X0081206Y010033D01*
X0080952Y0100594D02*
Y010263D01*
Y0100594D02*
X0080963Y0100584D01*
X0080952Y0098044D02*
Y0100076D01*
Y0098044D02*
X0080963D01*
X0081216Y009779D01*
X0080963Y0097536D02*
X0081216Y009779D01*
X0080952Y0105664D02*
X0080963D01*
X0081216Y010541D01*
X0081206D02*
X0081216D01*
X0080952Y0105156D02*
X0081206Y010541D01*
X0080952Y0105674D02*
Y010771D01*
Y0105674D02*
X0080963Y0105664D01*
X0080952Y0103124D02*
Y0105156D01*
Y0103124D02*
X0080963D01*
X0081216Y010287D01*
X0080963Y0102616D02*
X0081216Y010287D01*
X0083248Y009017D02*
X0083503Y0090424D01*
X0083248Y009017D02*
X0083503Y0089916D01*
X0083512Y0090424D02*
Y009247D01*
Y0087884D02*
Y0089916D01*
X0083248Y009525D02*
X0083503Y0095504D01*
X0083248Y009525D02*
X0083503Y0094996D01*
X0083512Y0095504D02*
Y009755D01*
X0083248Y009271D02*
X0083503Y0092964D01*
X0083248Y009271D02*
X0083503Y0092456D01*
X0083512Y0092964D02*
Y0094996D01*
X0083503Y0092964D02*
X0083512D01*
X0083248Y010033D02*
X0083503Y0100584D01*
X0083248Y010033D02*
X0083503Y0100076D01*
X0083512Y0100584D02*
Y010263D01*
X0083248Y009779D02*
X0083503Y0098044D01*
X0083248Y009779D02*
X0083503Y0097536D01*
X0083512Y0098044D02*
Y0100076D01*
X0083503Y0098044D02*
X0083512D01*
X0083248Y010541D02*
X0083503Y0105664D01*
X0083248Y010541D02*
X0083503Y0105156D01*
X0083512Y0105664D02*
Y010771D01*
X0083248Y010287D02*
X0083503Y0103124D01*
X0083248Y010287D02*
X0083503Y0102616D01*
X0083512Y0103124D02*
Y0105156D01*
X0083503Y0103124D02*
X0083512D01*
X0080963Y0107696D02*
X0081216Y010795D01*
X0080963Y0108204D02*
X0081216Y010795D01*
X0080952Y0108204D02*
X0080963D01*
X0080952D02*
Y0110236D01*
Y0110754D02*
X0080963Y0110744D01*
X0080952Y0110754D02*
Y011279D01*
X0083503Y0108204D02*
X0083512D01*
Y0110236D01*
X0083248Y010795D02*
X0083503Y0107696D01*
X0083248Y010795D02*
X0083503Y0108204D01*
X0083512Y0110744D02*
Y011279D01*
X0080952Y0110236D02*
X0081206Y011049D01*
X0081216D01*
X0080963Y0110744D02*
X0081216Y011049D01*
X0080952Y0110744D02*
X0080963D01*
X0083248Y011049D02*
X0083503Y0110236D01*
X0083248Y011049D02*
X0083503Y0110744D01*
X0081232Y011303D02*
X0083232D01*
X0081232Y008763D02*
X0083232D01*
X0081206Y011049D02*
X0083248D01*
X0044838Y0081915D02*
X0046037Y0082715D01*
X0044838D02*
X0046037Y0081915D01*
Y0083115D02*
Y0083514D01*
Y0083315D01*
X0044838D01*
X0045038Y0083115D01*
X0050553Y0122238D02*
X0051553D01*
X0051752Y0122437D01*
Y0122837D01*
X0051553Y0123037D01*
X0050553D01*
X0051752Y0123437D02*
Y0123837D01*
Y0123637D01*
X0050553D01*
X0050753Y0123437D01*
X0041592Y007112D02*
X0040393D01*
Y007172D01*
X0040593Y007192D01*
X0040993D01*
X0041193Y007172D01*
Y007112D01*
Y007152D02*
X0041592Y007192D01*
Y0072919D02*
X0040393D01*
X0040993Y007232D01*
Y0073119D01*
X0032385Y007112D02*
X0031185D01*
Y007172D01*
X0031385Y007192D01*
X0031785D01*
X0031985Y007172D01*
Y007112D01*
Y007152D02*
X0032385Y007192D01*
X0031385Y007232D02*
X0031185Y007252D01*
Y0072919D01*
X0031385Y0073119D01*
X0031585D01*
X0031785Y0072919D01*
Y0072719D01*
Y0072919D01*
X0031985Y0073119D01*
X0032185D01*
X0032385Y0072919D01*
Y007252D01*
X0032185Y007232D01*
X0037147Y0064065D02*
Y0062865D01*
X0037947D01*
X0039147Y0064065D02*
X0038347D01*
Y0062865D01*
X0039147D01*
X0038347Y0063465D02*
X0038747D01*
X0039547Y0064065D02*
Y0062865D01*
X0040147D01*
X0040346Y0063065D01*
Y0063865D01*
X0040147Y0064065D01*
X0039547D01*
X0041546Y0062865D02*
X0040746D01*
X0041546Y0063665D01*
Y0063865D01*
X0041346Y0064065D01*
X0040946D01*
X0040746Y0063865D01*
X0031433Y0064065D02*
Y0062865D01*
X0032232D01*
X0033432Y0064065D02*
X0032632D01*
Y0062865D01*
X0033432D01*
X0032632Y0063465D02*
X0033032D01*
X0033832Y0064065D02*
Y0062865D01*
X0034432D01*
X0034631Y0063065D01*
Y0063865D01*
X0034432Y0064065D01*
X0033832D01*
X0035031Y0062865D02*
X0035431D01*
X0035231D01*
Y0064065D01*
X0035031Y0063865D01*
X0074565Y013542D02*
X0074365Y013522D01*
Y013482D01*
X0074565Y013462D01*
X0075365D01*
X0075565Y013482D01*
Y013522D01*
X0075365Y013542D01*
X0075565Y013582D02*
Y0136219D01*
Y013602D01*
X0074365D01*
X0074565Y013582D01*
X0075565Y0136819D02*
Y0137219D01*
Y0137019D01*
X0074365D01*
X0074565Y0136819D01*
X0074248Y0139547D02*
X0074048Y0139347D01*
Y0138947D01*
X0074248Y0138747D01*
X0075048D01*
X0075247Y0138947D01*
Y0139347D01*
X0075048Y0139547D01*
X0075247Y0139947D02*
Y0140347D01*
Y0140147D01*
X0074048D01*
X0074248Y0139947D01*
X0075247Y0141747D02*
Y0140947D01*
X0074448Y0141747D01*
X0074248D01*
X0074048Y0141547D01*
Y0141147D01*
X0074248Y0140947D01*
X0079128Y013335D02*
X0080327D01*
Y013395D01*
X0080128Y013415D01*
X0079328D01*
X0079128Y013395D01*
Y013335D01*
X0080327Y013455D02*
Y0134949D01*
Y013475D01*
X0079128D01*
X0079328Y013455D01*
X0067063Y0122238D02*
X0068262D01*
Y0122837D01*
X0068063Y0123037D01*
X0067263D01*
X0067063Y0122837D01*
Y0122238D01*
X0068262Y0124237D02*
Y0123437D01*
X0067463Y0124237D01*
X0067263D01*
X0067063Y0124037D01*
Y0123637D01*
X0067263Y0123437D01*
X0059443Y0122238D02*
X0060643D01*
Y0122837D01*
X0060443Y0123037D01*
X0059643D01*
X0059443Y0122837D01*
Y0122238D01*
X0059643Y0123437D02*
X0059443Y0123637D01*
Y0124037D01*
X0059643Y0124237D01*
X0059843D01*
X0060043Y0124037D01*
Y0123837D01*
Y0124037D01*
X0060243Y0124237D01*
X0060443D01*
X0060643Y0124037D01*
Y0123637D01*
X0060443Y0123437D01*
X004511Y0140646D02*
Y0139446D01*
X004591D01*
X004711Y0140646D02*
X004631D01*
Y0139446D01*
X004711D01*
X004631Y0140046D02*
X004671D01*
X004751Y0140646D02*
Y0139446D01*
X0048109D01*
X0048309Y0139646D01*
Y0140446D01*
X0048109Y0140646D01*
X004751D01*
X0048709Y0140446D02*
X0048909Y0140646D01*
X0049309D01*
X0049509Y0140446D01*
Y0140246D01*
X0049309Y0140046D01*
X0049109D01*
X0049309D01*
X0049509Y0139846D01*
Y0139646D01*
X0049309Y0139446D01*
X0048909D01*
X0048709Y0139646D01*
X0045403Y0132327D02*
Y0131128D01*
X0046202D01*
X0047402Y0132327D02*
X0046602D01*
Y0131128D01*
X0047402D01*
X0046602Y0131727D02*
X0047002D01*
X0047802Y0132327D02*
Y0131128D01*
X0048402D01*
X0048601Y0131327D01*
Y0132127D01*
X0048402Y0132327D01*
X0047802D01*
X0049601Y0131128D02*
Y0132327D01*
X0049001Y0131727D01*
X0049801D01*
X0079445Y012446D02*
X0080645D01*
Y012526D01*
X0079445Y0126459D02*
Y012566D01*
X0080645D01*
Y0126459D01*
X0080045Y012566D02*
Y0126059D01*
X0079445Y0126859D02*
X0080645D01*
Y0127459D01*
X0080445Y0127659D01*
X0079645D01*
X0079445Y0127459D01*
Y0126859D01*
Y0128859D02*
Y0128059D01*
X0080045D01*
X0079845Y0128459D01*
Y0128659D01*
X0080045Y0128859D01*
X0080445D01*
X0080645Y0128659D01*
Y0128259D01*
X0080445Y0128059D01*
X0031115Y0140018D02*
Y0141217D01*
X0031715D01*
X0031915Y0141017D01*
Y0140617D01*
X0031715Y0140417D01*
X0031115D01*
X0031515D02*
X0031915Y0140018D01*
X0033114Y0141217D02*
X0032315D01*
Y0140617D01*
X0032714Y0140817D01*
X0032914D01*
X0033114Y0140617D01*
Y0140217D01*
X0032914Y0140018D01*
X0032515D01*
X0032315Y0140217D01*
X0041402Y0139344D02*
Y0140544D01*
X0042002D01*
X0042202Y0140344D01*
Y0139944D01*
X0042002Y0139744D01*
X0041402D01*
X0041802D02*
X0042202Y0139344D01*
X0043401Y0140544D02*
X0043001Y0140344D01*
X0042602Y0139944D01*
Y0139544D01*
X0042802Y0139344D01*
X0043201D01*
X0043401Y0139544D01*
Y0139744D01*
X0043201Y0139944D01*
X0042602D01*
X0042228Y0131128D02*
Y0132327D01*
X0042827D01*
X0043027Y0132127D01*
Y0131727D01*
X0042827Y0131527D01*
X0042228D01*
X0042627D02*
X0043027Y0131128D01*
X0043427Y0132327D02*
X0044227D01*
Y0132127D01*
X0043427Y0131327D01*
Y0131128D01*
X0070802Y0126048D02*
X0069603D01*
Y0126647D01*
X0069803Y0126847D01*
X0070203D01*
X0070403Y0126647D01*
Y0126048D01*
Y0126447D02*
X0070802Y0126847D01*
Y0127247D02*
Y0127647D01*
Y0127447D01*
X0069603D01*
X0069803Y0127247D01*
Y0128247D02*
X0069603Y0128447D01*
Y0128847D01*
X0069803Y0129047D01*
X0070003D01*
X0070203Y0128847D01*
Y0128647D01*
Y0128847D01*
X0070403Y0129047D01*
X0070603D01*
X0070802Y0128847D01*
Y0128447D01*
X0070603Y0128247D01*
X0068262Y0126048D02*
X0067063D01*
Y0126647D01*
X0067263Y0126847D01*
X0067663D01*
X0067863Y0126647D01*
Y0126048D01*
Y0126447D02*
X0068262Y0126847D01*
Y0127247D02*
Y0127647D01*
Y0127447D01*
X0067063D01*
X0067263Y0127247D01*
X0068262Y0128847D02*
X0067063D01*
X0067663Y0128247D01*
Y0129047D01*
X0060643Y0126048D02*
X0059443D01*
Y0126647D01*
X0059643Y0126847D01*
X0060043D01*
X0060243Y0126647D01*
Y0126048D01*
Y0126447D02*
X0060643Y0126847D01*
Y0127247D02*
Y0127647D01*
Y0127447D01*
X0059443D01*
X0059643Y0127247D01*
X0059443Y0129047D02*
Y0128247D01*
X0060043D01*
X0059843Y0128647D01*
Y0128847D01*
X0060043Y0129047D01*
X0060443D01*
X0060643Y0128847D01*
Y0128447D01*
X0060443Y0128247D01*
X0082868Y0117475D02*
X0081668D01*
Y0118075D01*
X0081868Y0118275D01*
X0082268D01*
X0082468Y0118075D01*
Y0117475D01*
Y0117875D02*
X0082868Y0118275D01*
Y0118675D02*
Y0119074D01*
Y0118875D01*
X0081668D01*
X0081868Y0118675D01*
X0081668Y0120474D02*
X0081868Y0120074D01*
X0082268Y0119674D01*
X0082668D01*
X0082868Y0119874D01*
Y0120274D01*
X0082668Y0120474D01*
X0082468D01*
X0082268Y0120274D01*
Y0119674D01*
X0057785Y0126048D02*
X0056585D01*
Y0126647D01*
X0056785Y0126847D01*
X0057185D01*
X0057385Y0126647D01*
Y0126048D01*
Y0126447D02*
X0057785Y0126847D01*
Y0127247D02*
Y0127647D01*
Y0127447D01*
X0056585D01*
X0056785Y0127247D01*
X0056585Y0128247D02*
Y0129047D01*
X0056785D01*
X0057585Y0128247D01*
X0057785D01*
X00353Y01269D02*
Y01259D01*
X00355Y01257D01*
X00359D01*
X00361Y01259D01*
Y01269D01*
X0037299Y01257D02*
X00365D01*
X0037299Y01265D01*
Y01267D01*
X0037099Y01269D01*
X00367D01*
X00365Y01267D01*
X0056268Y013716D02*
X0057268D01*
X0057467Y013736D01*
Y013776D01*
X0057268Y013796D01*
X0056268D01*
X0056468Y0139159D02*
X0056268Y0138959D01*
Y013856D01*
X0056468Y013836D01*
X0056668D01*
X0056868Y013856D01*
Y0138959D01*
X0057068Y0139159D01*
X0057268D01*
X0057467Y0138959D01*
Y013856D01*
X0057268Y013836D01*
X0056268Y0139559D02*
X0057467D01*
Y0140159D01*
X0057268Y0140359D01*
X0057068D01*
X0056868Y0140159D01*
Y0139559D01*
Y0140159D01*
X0056668Y0140359D01*
X0056468D01*
X0056268Y0140159D01*
Y0139559D01*
X0057467Y0140759D02*
Y0141159D01*
Y0140959D01*
X0056268D01*
X0056468Y0140759D01*
X0025788Y013716D02*
X0026987Y013796D01*
X0025788D02*
X0026987Y013716D01*
Y0139159D02*
Y013836D01*
X0026188Y0139159D01*
X0025988D01*
X0025788Y0138959D01*
Y013856D01*
X0025988Y013836D01*
X00358Y0104D02*
Y01052D01*
X00364D01*
X00366Y0105D01*
Y01046D01*
X00364Y01044D01*
X00358D01*
X00362D02*
X00366Y0104D01*
X0037599D02*
X00372D01*
X0037Y01042D01*
Y01046D01*
X00372Y01048D01*
X0037599D01*
X0037799Y01046D01*
Y01044D01*
X0037D01*
X0038199Y01048D02*
X0038599Y0104D01*
X0038999Y01048D01*
X0040598Y0104D02*
X0040998D01*
X0040798D01*
Y01052D01*
X0040598Y0105D01*
X0041598Y0104D02*
Y01042D01*
X0041798D01*
Y0104D01*
X0041598D01*
X0042598Y0105D02*
X0042798Y01052D01*
X0043198D01*
X0043398Y0105D01*
Y01042D01*
X0043198Y0104D01*
X0042798D01*
X0042598Y01042D01*
Y0105D01*
X0033608Y0123037D02*
X0033408Y0122837D01*
Y0122437D01*
X0033608Y0122238D01*
X0033808D01*
X0034008Y0122437D01*
Y0122837D01*
X0034208Y0123037D01*
X0034408D01*
X0034607Y0122837D01*
Y0122437D01*
X0034408Y0122238D01*
X0033408Y0123437D02*
X0034607D01*
Y0124237D01*
X0033408Y0125237D02*
Y0124837D01*
X0033608Y0124637D01*
X0034408D01*
X0034607Y0124837D01*
Y0125237D01*
X0034408Y0125436D01*
X0033608D01*
X0033408Y0125237D01*
Y0125836D02*
X0034607D01*
X0034208Y0126236D01*
X0034607Y0126636D01*
X0033408D01*
X0030798Y0122238D02*
X0029598D01*
Y0122837D01*
X0029798Y0123037D01*
X0030198D01*
X0030398Y0122837D01*
Y0122238D01*
Y0122637D02*
X0030798Y0123037D01*
X0029798Y0124237D02*
X0029598Y0124037D01*
Y0123637D01*
X0029798Y0123437D01*
X0029998D01*
X0030198Y0123637D01*
Y0124037D01*
X0030398Y0124237D01*
X0030598D01*
X0030798Y0124037D01*
Y0123637D01*
X0030598Y0123437D01*
X0029598Y0124637D02*
Y0125436D01*
Y0125037D01*
X0030798D01*
X00232Y0114089D02*
Y0114889D01*
Y0114489D01*
X00244D01*
X00232Y0115288D02*
X00244Y0116088D01*
X00232D02*
X00244Y0115288D01*
X00271Y0114089D02*
X00259D01*
Y0114689D01*
X00261Y0114889D01*
X00265D01*
X00267Y0114689D01*
Y0114089D01*
Y0114489D02*
X00271Y0114889D01*
X00259Y0115288D02*
X00271Y0116088D01*
X00259D02*
X00271Y0115288D01*
X0047578Y0113689D02*
X0047378Y0113489D01*
Y0113089D01*
X0047578Y0112889D01*
X0047778D01*
X0047978Y0113089D01*
Y0113489D01*
X0048178Y0113689D01*
X0048378D01*
X0048577Y0113489D01*
Y0113089D01*
X0048378Y0112889D01*
X0047578Y0114889D02*
X0047378Y0114689D01*
Y0114289D01*
X0047578Y0114089D01*
X0048378D01*
X0048577Y0114289D01*
Y0114689D01*
X0048378Y0114889D01*
X0047378Y0115288D02*
X0048577D01*
X0048178D01*
X0047378Y0116088D01*
X0047978Y0115488D01*
X0048577Y0116088D01*
X0045958Y011189D02*
X0044759D01*
X0045158Y0112289D01*
X0044759Y0112689D01*
X0045958D01*
X0044759Y0113089D02*
Y0113489D01*
Y0113289D01*
X0045958D01*
Y0113089D01*
Y0113489D01*
X0044958Y0114889D02*
X0044759Y0114689D01*
Y0114289D01*
X0044958Y0114089D01*
X0045158D01*
X0045358Y0114289D01*
Y0114689D01*
X0045558Y0114889D01*
X0045758D01*
X0045958Y0114689D01*
Y0114289D01*
X0045758Y0114089D01*
X0044759Y0115888D02*
Y0115488D01*
X0044958Y0115288D01*
X0045758D01*
X0045958Y0115488D01*
Y0115888D01*
X0045758Y0116088D01*
X0044958D01*
X0044759Y0115888D01*
X0043339Y0112089D02*
X0042139D01*
X0042539Y0112489D01*
X0042139Y0112889D01*
X0043339D01*
X0042139Y0113889D02*
Y0113489D01*
X0042339Y0113289D01*
X0043139D01*
X0043339Y0113489D01*
Y0113889D01*
X0043139Y0114089D01*
X0042339D01*
X0042139Y0113889D01*
X0042339Y0115288D02*
X0042139Y0115089D01*
Y0114689D01*
X0042339Y0114489D01*
X0042539D01*
X0042739Y0114689D01*
Y0115089D01*
X0042939Y0115288D01*
X0043139D01*
X0043339Y0115089D01*
Y0114689D01*
X0043139Y0114489D01*
X0042139Y0115688D02*
Y0116088D01*
Y0115888D01*
X0043339D01*
Y0115688D01*
Y0116088D01*
X0040719Y011049D02*
X003952D01*
Y011109D01*
X003972Y011129D01*
X004012D01*
X004032Y011109D01*
Y011049D01*
Y011089D02*
X0040719Y011129D01*
X003952Y0112489D02*
Y011169D01*
X0040719D01*
Y0112489D01*
X004012Y011169D02*
Y0112089D01*
X003972Y0113689D02*
X003952Y0113489D01*
Y0113089D01*
X003972Y0112889D01*
X003992D01*
X004012Y0113089D01*
Y0113489D01*
X004032Y0113689D01*
X0040519D01*
X0040719Y0113489D01*
Y0113089D01*
X0040519Y0112889D01*
X003952Y0114889D02*
Y0114089D01*
X0040719D01*
Y0114889D01*
X004012Y0114089D02*
Y0114489D01*
X003952Y0115288D02*
Y0116088D01*
Y0115688D01*
X0040719D01*
X00369Y0114889D02*
Y0114089D01*
X00375D01*
X00373Y0114489D01*
Y0114689D01*
X00375Y0114889D01*
X00379D01*
X00381Y0114689D01*
Y0114289D01*
X00379Y0114089D01*
X00369Y0115288D02*
X00377D01*
X00381Y0115688D01*
X00377Y0116088D01*
X00369D01*
X0039053Y0073025D02*
X0037853D01*
Y0073625D01*
X0038053Y0073825D01*
X0038453D01*
X0038653Y0073625D01*
Y0073025D01*
X0037853Y0074225D02*
X0039053D01*
Y0074824D01*
X0038853Y0075024D01*
X0038653D01*
X0038453Y0074824D01*
Y0074225D01*
Y0074824D01*
X0038253Y0075024D01*
X0038053D01*
X0037853Y0074824D01*
Y0074225D01*
X0039053Y0075424D02*
Y0075824D01*
Y0075624D01*
X0037853D01*
X0038053Y0075424D01*
X0035877Y0073025D02*
X0034678D01*
Y0073625D01*
X0034878Y0073825D01*
X0035278D01*
X0035478Y0073625D01*
Y0073025D01*
X0034678Y0074225D02*
X0035877D01*
Y0074824D01*
X0035678Y0075024D01*
X0035478D01*
X0035278Y0074824D01*
Y0074225D01*
Y0074824D01*
X0035078Y0075024D01*
X0034878D01*
X0034678Y0074824D01*
Y0074225D01*
X0034878Y0075424D02*
X0034678Y0075624D01*
Y0076024D01*
X0034878Y0076224D01*
X0035678D01*
X0035877Y0076024D01*
Y0075624D01*
X0035678Y0075424D01*
X0034878D01*
X0077152Y007747D02*
Y007867D01*
X0077752D01*
X0077952Y007847D01*
Y007807D01*
X0077752Y007787D01*
X0077152D01*
X0079152Y007847D02*
X0078952Y007867D01*
X0078552D01*
X0078352Y007847D01*
Y007767D01*
X0078552Y007747D01*
X0078952D01*
X0079152Y007767D01*
X0079552Y007867D02*
X0080351D01*
Y007847D01*
X0079552Y007767D01*
Y007747D01*
X0077152Y007239D02*
Y007359D01*
X0077752D01*
X0077952Y007339D01*
Y007299D01*
X0077752Y007279D01*
X0077152D01*
X0079152Y007339D02*
X0078952Y007359D01*
X0078552D01*
X0078352Y007339D01*
Y007259D01*
X0078552Y007239D01*
X0078952D01*
X0079152Y007259D01*
X0080351Y007359D02*
X0079552D01*
Y007299D01*
X0079952Y007319D01*
X0080152D01*
X0080351Y007299D01*
Y007259D01*
X0080152Y007239D01*
X0079752D01*
X0079552Y007259D01*
X0077152Y007493D02*
Y007613D01*
X0077752D01*
X0077952Y007593D01*
Y007553D01*
X0077752Y007533D01*
X0077152D01*
X0079152Y007593D02*
X0078952Y007613D01*
X0078552D01*
X0078352Y007593D01*
Y007513D01*
X0078552Y007493D01*
X0078952D01*
X0079152Y007513D01*
X0080351Y007613D02*
X0079952Y007593D01*
X0079552Y007553D01*
Y007513D01*
X0079752Y007493D01*
X0080152D01*
X0080351Y007513D01*
Y007533D01*
X0080152Y007553D01*
X0079552D01*
X0077152Y006731D02*
Y006851D01*
X0077752D01*
X0077952Y006831D01*
Y006791D01*
X0077752Y006771D01*
X0077152D01*
X0079152Y006831D02*
X0078952Y006851D01*
X0078552D01*
X0078352Y006831D01*
Y006751D01*
X0078552Y006731D01*
X0078952D01*
X0079152Y006751D01*
X0079552Y006831D02*
X0079752Y006851D01*
X0080152D01*
X0080351Y006831D01*
Y006811D01*
X0080152Y006791D01*
X0079952D01*
X0080152D01*
X0080351Y006771D01*
Y006751D01*
X0080152Y006731D01*
X0079752D01*
X0079552Y006751D01*
X0077152Y006985D02*
Y007105D01*
X0077752D01*
X0077952Y007085D01*
Y007045D01*
X0077752Y007025D01*
X0077152D01*
X0079152Y007085D02*
X0078952Y007105D01*
X0078552D01*
X0078352Y007085D01*
Y007005D01*
X0078552Y006985D01*
X0078952D01*
X0079152Y007005D01*
X0080152Y006985D02*
Y007105D01*
X0079552Y007045D01*
X0080351D01*
X0077152Y006223D02*
Y006343D01*
X0077752D01*
X0077952Y006323D01*
Y006283D01*
X0077752Y006263D01*
X0077152D01*
X0079152Y006323D02*
X0078952Y006343D01*
X0078552D01*
X0078352Y006323D01*
Y006243D01*
X0078552Y006223D01*
X0078952D01*
X0079152Y006243D01*
X0079552Y006223D02*
X0079952D01*
X0079752D01*
Y006343D01*
X0079552Y006323D01*
X0077152Y005969D02*
Y006089D01*
X0077752D01*
X0077952Y006069D01*
Y006029D01*
X0077752Y006009D01*
X0077152D01*
X0079152Y006069D02*
X0078952Y006089D01*
X0078552D01*
X0078352Y006069D01*
Y005989D01*
X0078552Y005969D01*
X0078952D01*
X0079152Y005989D01*
X0079552Y006069D02*
X0079752Y006089D01*
X0080152D01*
X0080351Y006069D01*
Y005989D01*
X0080152Y005969D01*
X0079752D01*
X0079552Y005989D01*
Y006069D01*
X0077152Y006477D02*
Y006597D01*
X0077752D01*
X0077952Y006577D01*
Y006537D01*
X0077752Y006517D01*
X0077152D01*
X0079152Y006577D02*
X0078952Y006597D01*
X0078552D01*
X0078352Y006577D01*
Y006497D01*
X0078552Y006477D01*
X0078952D01*
X0079152Y006497D01*
X0080351Y006477D02*
X0079552D01*
X0080351Y006557D01*
Y006577D01*
X0080152Y006597D01*
X0079752D01*
X0079552Y006577D01*
X0077952Y008121D02*
X0077152D01*
Y008061D01*
X0077552Y008081D01*
X0077752D01*
X0077952Y008061D01*
Y008021D01*
X0077752Y008001D01*
X0077352D01*
X0077152Y008021D01*
X0078352Y008121D02*
Y008041D01*
X0078752Y008001D01*
X0079152Y008041D01*
Y008121D01*
X00762Y008255D02*
Y008335D01*
X00766Y008375D01*
X0077Y008335D01*
Y008255D01*
Y008315D01*
X00762D01*
X00774Y008255D02*
Y008375D01*
X0077999D01*
X0078199Y008355D01*
Y008315D01*
X0077999Y008295D01*
X00774D01*
X0077799D02*
X0078199Y008255D01*
X0079399Y008375D02*
X0078599D01*
Y008255D01*
X0079399D01*
X0078599Y008315D02*
X0078999D01*
X0080599Y008375D02*
X0079799D01*
Y008315D01*
X0080199D01*
X0079799D01*
Y008255D01*
X0077952Y0091805D02*
X0077752Y0092005D01*
X0077352D01*
X0077152Y0091805D01*
Y0091005D01*
X0077352Y0090805D01*
X0077752D01*
X0077952Y0091005D01*
Y0091405D01*
X0077552D01*
X0078352Y0090805D02*
Y0092005D01*
X0079152Y0090805D01*
Y0092005D01*
X0079552D02*
Y0090805D01*
X0080152D01*
X0080351Y0091005D01*
Y0091805D01*
X0080152Y0092005D01*
X0079552D01*
X0077952Y0089465D02*
X0077152D01*
Y0088865D01*
X0077552Y0089065D01*
X0077752D01*
X0077952Y0088865D01*
Y0088465D01*
X0077752Y0088265D01*
X0077352D01*
X0077152Y0088465D01*
X0078352Y0089465D02*
Y0088665D01*
X0078752Y0088265D01*
X0079152Y0088665D01*
Y0089465D01*
X0077152Y0095885D02*
Y0097085D01*
X0077752D01*
X0077952Y0096885D01*
Y0096485D01*
X0077752Y0096285D01*
X0077152D01*
X0078352Y0095885D02*
Y0096685D01*
X0078752Y0097085D01*
X0079152Y0096685D01*
Y0095885D01*
Y0096485D01*
X0078352D01*
X0080351Y0097085D02*
X0079952Y0096885D01*
X0079552Y0096485D01*
Y0096085D01*
X0079752Y0095885D01*
X0080152D01*
X0080351Y0096085D01*
Y0096285D01*
X0080152Y0096485D01*
X0079552D01*
X0077152Y0093345D02*
Y0094545D01*
X0077752D01*
X0077952Y0094345D01*
Y0093945D01*
X0077752Y0093745D01*
X0077152D01*
X0078352Y0093345D02*
Y0094145D01*
X0078752Y0094545D01*
X0079152Y0094145D01*
Y0093345D01*
Y0093945D01*
X0078352D01*
X0079552Y0094545D02*
X0080351D01*
Y0094345D01*
X0079552Y0093545D01*
Y0093345D01*
X0077152Y0100965D02*
Y0102165D01*
X0077752D01*
X0077952Y0101965D01*
Y0101565D01*
X0077752Y0101365D01*
X0077152D01*
X0078352Y0100965D02*
Y0101765D01*
X0078752Y0102165D01*
X0079152Y0101765D01*
Y0100965D01*
Y0101565D01*
X0078352D01*
X0080152Y0100965D02*
Y0102165D01*
X0079552Y0101565D01*
X0080351D01*
X0077152Y0098425D02*
Y0099625D01*
X0077752D01*
X0077952Y0099425D01*
Y0099025D01*
X0077752Y0098825D01*
X0077152D01*
X0078352Y0098425D02*
Y0099225D01*
X0078752Y0099625D01*
X0079152Y0099225D01*
Y0098425D01*
Y0099025D01*
X0078352D01*
X0080351Y0099625D02*
X0079552D01*
Y0099025D01*
X0079952Y0099225D01*
X0080152D01*
X0080351Y0099025D01*
Y0098625D01*
X0080152Y0098425D01*
X0079752D01*
X0079552Y0098625D01*
X0077152Y0106045D02*
Y0107245D01*
X0077752D01*
X0077952Y0107045D01*
Y0106645D01*
X0077752Y0106445D01*
X0077152D01*
X0078352Y0106045D02*
Y0106845D01*
X0078752Y0107245D01*
X0079152Y0106845D01*
Y0106045D01*
Y0106645D01*
X0078352D01*
X0080351Y0106045D02*
X0079552D01*
X0080351Y0106845D01*
Y0107045D01*
X0080152Y0107245D01*
X0079752D01*
X0079552Y0107045D01*
X0077152Y0103505D02*
Y0104705D01*
X0077752D01*
X0077952Y0104505D01*
Y0104105D01*
X0077752Y0103905D01*
X0077152D01*
X0078352Y0103505D02*
Y0104305D01*
X0078752Y0104705D01*
X0079152Y0104305D01*
Y0103505D01*
Y0104105D01*
X0078352D01*
X0079552Y0104505D02*
X0079752Y0104705D01*
X0080152D01*
X0080351Y0104505D01*
Y0104305D01*
X0080152Y0104105D01*
X0079952D01*
X0080152D01*
X0080351Y0103905D01*
Y0103705D01*
X0080152Y0103505D01*
X0079752D01*
X0079552Y0103705D01*
X0077152Y0108585D02*
Y0109785D01*
X0077752D01*
X0077952Y0109585D01*
Y0109185D01*
X0077752Y0108985D01*
X0077152D01*
X0078352Y0108585D02*
Y0109385D01*
X0078752Y0109785D01*
X0079152Y0109385D01*
Y0108585D01*
Y0109185D01*
X0078352D01*
X0079552Y0108585D02*
X0079952D01*
X0079752D01*
Y0109785D01*
X0079552Y0109585D01*
X0025718Y005969D02*
Y006089D01*
X0026317D01*
X0026517Y006069D01*
Y006029D01*
X0026317Y006009D01*
X0025718D01*
X0026917Y006089D02*
Y005969D01*
X0027517D01*
X0027717Y005989D01*
Y006069D01*
X0027517Y006089D01*
X0026917D01*
X0028117D02*
X0028916D01*
Y006069D01*
X0028117Y005989D01*
Y005969D01*
X0025718Y006477D02*
Y006597D01*
X0026317D01*
X0026517Y006577D01*
Y006537D01*
X0026317Y006517D01*
X0025718D01*
X0026917Y006597D02*
Y006477D01*
X0027517D01*
X0027717Y006497D01*
Y006577D01*
X0027517Y006597D01*
X0026917D01*
X0028916D02*
X0028117D01*
Y006537D01*
X0028517Y006557D01*
X0028717D01*
X0028916Y006537D01*
Y006497D01*
X0028717Y006477D01*
X0028317D01*
X0028117Y006497D01*
X0025718Y006223D02*
Y006343D01*
X0026317D01*
X0026517Y006323D01*
Y006283D01*
X0026317Y006263D01*
X0025718D01*
X0026917Y006343D02*
Y006223D01*
X0027517D01*
X0027717Y006243D01*
Y006323D01*
X0027517Y006343D01*
X0026917D01*
X0028916D02*
X0028517Y006323D01*
X0028117Y006283D01*
Y006243D01*
X0028317Y006223D01*
X0028717D01*
X0028916Y006243D01*
Y006263D01*
X0028717Y006283D01*
X0028117D01*
X0025718Y006731D02*
Y006851D01*
X0026317D01*
X0026517Y006831D01*
Y006791D01*
X0026317Y006771D01*
X0025718D01*
X0026917Y006851D02*
Y006731D01*
X0027517D01*
X0027717Y006751D01*
Y006831D01*
X0027517Y006851D01*
X0026917D01*
X0028717Y006731D02*
Y006851D01*
X0028117Y006791D01*
X0028916D01*
X0025718Y006985D02*
Y007105D01*
X0026317D01*
X0026517Y007085D01*
Y007045D01*
X0026317Y007025D01*
X0025718D01*
X0026917Y007105D02*
Y006985D01*
X0027517D01*
X0027717Y007005D01*
Y007085D01*
X0027517Y007105D01*
X0026917D01*
X0028117Y007085D02*
X0028317Y007105D01*
X0028717D01*
X0028916Y007085D01*
Y007065D01*
X0028717Y007045D01*
X0028517D01*
X0028717D01*
X0028916Y007025D01*
Y007005D01*
X0028717Y006985D01*
X0028317D01*
X0028117Y007005D01*
X0025718Y007239D02*
Y007359D01*
X0026317D01*
X0026517Y007339D01*
Y007299D01*
X0026317Y007279D01*
X0025718D01*
X0026917Y007359D02*
Y007239D01*
X0027517D01*
X0027717Y007259D01*
Y007339D01*
X0027517Y007359D01*
X0026917D01*
X0028916Y007239D02*
X0028117D01*
X0028916Y007319D01*
Y007339D01*
X0028717Y007359D01*
X0028317D01*
X0028117Y007339D01*
X0025718Y007493D02*
Y007613D01*
X0026317D01*
X0026517Y007593D01*
Y007553D01*
X0026317Y007533D01*
X0025718D01*
X0026917Y007613D02*
Y007493D01*
X0027517D01*
X0027717Y007513D01*
Y007593D01*
X0027517Y007613D01*
X0026917D01*
X0028117Y007493D02*
X0028517D01*
X0028317D01*
Y007613D01*
X0028117Y007593D01*
X0030716Y007493D02*
X0030316Y007533D01*
Y007573D01*
X0030716Y007613D01*
X0031316D02*
X0032115D01*
X0031716D01*
Y007493D01*
X0032515Y007613D02*
X0033315Y007493D01*
Y007613D02*
X0032515Y007493D01*
X0033715D02*
X0034115Y007533D01*
Y007573D01*
X0033715Y007613D01*
X0025718Y007747D02*
Y007867D01*
X0026317D01*
X0026517Y007847D01*
Y007807D01*
X0026317Y007787D01*
X0025718D01*
X0026917Y007867D02*
Y007747D01*
X0027517D01*
X0027717Y007767D01*
Y007847D01*
X0027517Y007867D01*
X0026917D01*
X0028117Y007847D02*
X0028317Y007867D01*
X0028717D01*
X0028916Y007847D01*
Y007767D01*
X0028717Y007747D01*
X0028317D01*
X0028117Y007767D01*
Y007847D01*
X0030916Y007747D02*
X0030516Y007787D01*
Y007827D01*
X0030916Y007867D01*
X0031516Y007747D02*
Y007867D01*
X0032115D01*
X0032315Y007847D01*
Y007807D01*
X0032115Y007787D01*
X0031516D01*
X0031915D02*
X0032315Y007747D01*
X0032715Y007867D02*
X0033515Y007747D01*
Y007867D02*
X0032715Y007747D01*
X0033915D02*
X0034315Y007787D01*
Y007827D01*
X0033915Y007867D01*
X0026517Y008375D02*
X0025718D01*
Y008315D01*
X0026117Y008335D01*
X0026317D01*
X0026517Y008315D01*
Y008275D01*
X0026317Y008255D01*
X0025917D01*
X0025718Y008275D01*
X0026917Y008375D02*
Y008295D01*
X0027317Y008255D01*
X0027717Y008295D01*
Y008375D01*
X0026517Y008101D02*
X0026317Y008121D01*
X0025917D01*
X0025718Y008101D01*
Y008021D01*
X0025917Y008001D01*
X0026317D01*
X0026517Y008021D01*
Y008061D01*
X0026117D01*
X0026917Y008001D02*
Y008121D01*
X0027717Y008001D01*
Y008121D01*
X0028117D02*
Y008001D01*
X0028717D01*
X0028916Y008021D01*
Y008101D01*
X0028717Y008121D01*
X0028117D01*
X0026517Y0091805D02*
X0026317Y0092005D01*
X0025917D01*
X0025718Y0091805D01*
Y0091005D01*
X0025917Y0090805D01*
X0026317D01*
X0026517Y0091005D01*
Y0091405D01*
X0026117D01*
X0026917Y0090805D02*
Y0092005D01*
X0027717Y0090805D01*
Y0092005D01*
X0028117D02*
Y0090805D01*
X0028717D01*
X0028916Y0091005D01*
Y0091805D01*
X0028717Y0092005D01*
X0028117D01*
X0026517Y0089465D02*
X0025718D01*
Y0088865D01*
X0026117Y0089065D01*
X0026317D01*
X0026517Y0088865D01*
Y0088465D01*
X0026317Y0088265D01*
X0025917D01*
X0025718Y0088465D01*
X0026917Y0089465D02*
Y0088665D01*
X0027317Y0088265D01*
X0027717Y0088665D01*
Y0089465D01*
X0025718Y0095885D02*
Y0097085D01*
X0026317D01*
X0026517Y0096885D01*
Y0096485D01*
X0026317Y0096285D01*
X0025718D01*
X0026917Y0097085D02*
Y0095885D01*
X0027517D01*
X0027717Y0096085D01*
Y0096285D01*
X0027517Y0096485D01*
X0026917D01*
X0027517D01*
X0027717Y0096685D01*
Y0096885D01*
X0027517Y0097085D01*
X0026917D01*
X0028916D02*
X0028517Y0096885D01*
X0028117Y0096485D01*
Y0096085D01*
X0028317Y0095885D01*
X0028717D01*
X0028916Y0096085D01*
Y0096285D01*
X0028717Y0096485D01*
X0028117D01*
X0030916Y0095885D02*
X0030516Y0096285D01*
Y0096685D01*
X0030916Y0097085D01*
X0031516Y0095885D02*
Y0097085D01*
X0031915Y0096685D01*
X0032315Y0097085D01*
Y0095885D01*
X0032715Y0097085D02*
X0033115D01*
X0032915D01*
Y0095885D01*
X0032715D01*
X0033115D01*
X0034515Y0096885D02*
X0034315Y0097085D01*
X0033915D01*
X0033715Y0096885D01*
Y0096685D01*
X0033915Y0096485D01*
X0034315D01*
X0034515Y0096285D01*
Y0096085D01*
X0034315Y0095885D01*
X0033915D01*
X0033715Y0096085D01*
X0035514Y0097085D02*
X0035114D01*
X0034915Y0096885D01*
Y0096085D01*
X0035114Y0095885D01*
X0035514D01*
X0035714Y0096085D01*
Y0096885D01*
X0035514Y0097085D01*
X0036114Y0095885D02*
X0036514Y0096285D01*
Y0096685D01*
X0036114Y0097085D01*
X0025718Y0093345D02*
Y0094545D01*
X0026317D01*
X0026517Y0094345D01*
Y0093945D01*
X0026317Y0093745D01*
X0025718D01*
X0026917Y0094545D02*
Y0093345D01*
X0027517D01*
X0027717Y0093545D01*
Y0093745D01*
X0027517Y0093945D01*
X0026917D01*
X0027517D01*
X0027717Y0094145D01*
Y0094345D01*
X0027517Y0094545D01*
X0026917D01*
X0028117D02*
X0028916D01*
Y0094345D01*
X0028117Y0093545D01*
Y0093345D01*
X0030916D02*
X0030516Y0093745D01*
Y0094145D01*
X0030916Y0094545D01*
X0032315Y0094345D02*
X0032115Y0094545D01*
X0031716D01*
X0031516Y0094345D01*
Y0094145D01*
X0031716Y0093945D01*
X0032115D01*
X0032315Y0093745D01*
Y0093545D01*
X0032115Y0093345D01*
X0031716D01*
X0031516Y0093545D01*
X0033515Y0094345D02*
X0033315Y0094545D01*
X0032915D01*
X0032715Y0094345D01*
Y0093545D01*
X0032915Y0093345D01*
X0033315D01*
X0033515Y0093545D01*
X0033915Y0094545D02*
Y0093345D01*
Y0093745D01*
X0034715Y0094545D01*
X0034115Y0093945D01*
X0034715Y0093345D01*
X0035114D02*
X0035514Y0093745D01*
Y0094145D01*
X0035114Y0094545D01*
X0025718Y0100965D02*
Y0102165D01*
X0026317D01*
X0026517Y0101965D01*
Y0101565D01*
X0026317Y0101365D01*
X0025718D01*
X0026917Y0102165D02*
Y0100965D01*
X0027517D01*
X0027717Y0101165D01*
Y0101365D01*
X0027517Y0101565D01*
X0026917D01*
X0027517D01*
X0027717Y0101765D01*
Y0101965D01*
X0027517Y0102165D01*
X0026917D01*
X0028717Y0100965D02*
Y0102165D01*
X0028117Y0101565D01*
X0028916D01*
X0025718Y0098425D02*
Y0099625D01*
X0026317D01*
X0026517Y0099425D01*
Y0099025D01*
X0026317Y0098825D01*
X0025718D01*
X0026917Y0099625D02*
Y0098425D01*
X0027517D01*
X0027717Y0098625D01*
Y0098825D01*
X0027517Y0099025D01*
X0026917D01*
X0027517D01*
X0027717Y0099225D01*
Y0099425D01*
X0027517Y0099625D01*
X0026917D01*
X0028916D02*
X0028117D01*
Y0099025D01*
X0028517Y0099225D01*
X0028717D01*
X0028916Y0099025D01*
Y0098625D01*
X0028717Y0098425D01*
X0028317D01*
X0028117Y0098625D01*
X0030916Y0098425D02*
X0030516Y0098825D01*
Y0099225D01*
X0030916Y0099625D01*
X0031516Y0098425D02*
Y0099625D01*
X0031915Y0099225D01*
X0032315Y0099625D01*
Y0098425D01*
X0033315Y0099625D02*
X0032915D01*
X0032715Y0099425D01*
Y0098625D01*
X0032915Y0098425D01*
X0033315D01*
X0033515Y0098625D01*
Y0099425D01*
X0033315Y0099625D01*
X0034715Y0099425D02*
X0034515Y0099625D01*
X0034115D01*
X0033915Y0099425D01*
Y0099225D01*
X0034115Y0099025D01*
X0034515D01*
X0034715Y0098825D01*
Y0098625D01*
X0034515Y0098425D01*
X0034115D01*
X0033915Y0098625D01*
X0035114Y0099625D02*
X0035514D01*
X0035314D01*
Y0098425D01*
X0035114D01*
X0035514D01*
X0036114D02*
X0036514Y0098825D01*
Y0099225D01*
X0036114Y0099625D01*
X0025718Y0106045D02*
Y0107245D01*
X0026317D01*
X0026517Y0107045D01*
Y0106645D01*
X0026317Y0106445D01*
X0025718D01*
X0026917Y0107245D02*
Y0106045D01*
X0027517D01*
X0027717Y0106245D01*
Y0106445D01*
X0027517Y0106645D01*
X0026917D01*
X0027517D01*
X0027717Y0106845D01*
Y0107045D01*
X0027517Y0107245D01*
X0026917D01*
X0028916Y0106045D02*
X0028117D01*
X0028916Y0106845D01*
Y0107045D01*
X0028717Y0107245D01*
X0028317D01*
X0028117Y0107045D01*
X0025718Y0103505D02*
Y0104705D01*
X0026317D01*
X0026517Y0104505D01*
Y0104105D01*
X0026317Y0103905D01*
X0025718D01*
X0026917Y0104705D02*
Y0103505D01*
X0027517D01*
X0027717Y0103705D01*
Y0103905D01*
X0027517Y0104105D01*
X0026917D01*
X0027517D01*
X0027717Y0104305D01*
Y0104505D01*
X0027517Y0104705D01*
X0026917D01*
X0028117Y0104505D02*
X0028317Y0104705D01*
X0028717D01*
X0028916Y0104505D01*
Y0104305D01*
X0028717Y0104105D01*
X0028517D01*
X0028717D01*
X0028916Y0103905D01*
Y0103705D01*
X0028717Y0103505D01*
X0028317D01*
X0028117Y0103705D01*
X0025718Y0108585D02*
Y0109785D01*
X0026317D01*
X0026517Y0109585D01*
Y0109185D01*
X0026317Y0108985D01*
X0025718D01*
X0026917Y0109785D02*
Y0108585D01*
X0027517D01*
X0027717Y0108785D01*
Y0108985D01*
X0027517Y0109185D01*
X0026917D01*
X0027517D01*
X0027717Y0109385D01*
Y0109585D01*
X0027517Y0109785D01*
X0026917D01*
X0028117Y0108585D02*
X0028517D01*
X0028317D01*
Y0109785D01*
X0028117Y0109585D01*
X0030716Y0108585D02*
X0030316Y0108985D01*
Y0109385D01*
X0030716Y0109785D01*
X0031316D02*
Y0108585D01*
X0032115D01*
X0033315Y0109785D02*
X0032515D01*
Y0108585D01*
X0033315D01*
X0032515Y0109185D02*
X0032915D01*
X0033715Y0109785D02*
Y0108585D01*
X0034315D01*
X0034515Y0108785D01*
Y0109585D01*
X0034315Y0109785D01*
X0033715D01*
X0035714Y0108585D02*
X0034915D01*
X0035714Y0109385D01*
Y0109585D01*
X0035514Y0109785D01*
X0035114D01*
X0034915Y0109585D01*
X0036114Y0108585D02*
X0036514Y0108985D01*
Y0109385D01*
X0036114Y0109785D01*
X0025718Y0111125D02*
Y0112325D01*
X0026317D01*
X0026517Y0112125D01*
Y0111725D01*
X0026317Y0111525D01*
X0025718D01*
X0026917Y0112325D02*
Y0111125D01*
X0027517D01*
X0027717Y0111325D01*
Y0111525D01*
X0027517Y0111725D01*
X0026917D01*
X0027517D01*
X0027717Y0111925D01*
Y0112125D01*
X0027517Y0112325D01*
X0026917D01*
X0028117Y0112125D02*
X0028317Y0112325D01*
X0028717D01*
X0028916Y0112125D01*
Y0111325D01*
X0028717Y0111125D01*
X0028317D01*
X0028117Y0111325D01*
Y0112125D01*
X0030916Y0111125D02*
X0030516Y0111525D01*
Y0111925D01*
X0030916Y0112325D01*
X0031516D02*
Y0111125D01*
X0032315D01*
X0033515Y0112325D02*
X0032715D01*
Y0111125D01*
X0033515D01*
X0032715Y0111725D02*
X0033115D01*
X0033915Y0112325D02*
Y0111125D01*
X0034515D01*
X0034715Y0111325D01*
Y0112125D01*
X0034515Y0112325D01*
X0033915D01*
X0035114Y0111125D02*
X0035514D01*
X0035314D01*
Y0112325D01*
X0035114Y0112125D01*
X0036114Y0111125D02*
X0036514Y0111525D01*
Y0111925D01*
X0036114Y0112325D01*
X0051118Y0090488D02*
X0050318D01*
X0049918Y0090887D01*
X0050318Y0091287D01*
X0051118D01*
X0050518D01*
Y0090488D01*
X0049918Y0091687D02*
Y0092487D01*
Y0092087D01*
X0051118D01*
Y0092887D02*
X0050318D01*
Y0093087D01*
X0050518Y0093287D01*
X0051118D01*
X0050518D01*
X0050318Y0093487D01*
X0050518Y0093686D01*
X0051118D01*
Y0094686D02*
Y0094286D01*
X0050918Y0094086D01*
X0050518D01*
X0050318Y0094286D01*
Y0094686D01*
X0050518Y0094886D01*
X0050718D01*
Y0094086D01*
X0051517Y0095686D02*
Y0095886D01*
X0051317Y0096086D01*
X0050318D01*
Y0095486D01*
X0050518Y0095286D01*
X0050918D01*
X0051118Y0095486D01*
Y0096086D01*
X0050318Y0096685D02*
Y0097085D01*
X0050518Y0097285D01*
X0051118D01*
Y0096685D01*
X0050918Y0096486D01*
X0050718Y0096685D01*
Y0097285D01*
X0051118Y0097685D02*
Y0098085D01*
Y0097885D01*
X0049918D01*
X0050118Y0097685D01*
X0049918Y0099485D02*
X0050118Y0099085D01*
X0050518Y0098685D01*
X0050918D01*
X0051118Y0098885D01*
Y0099285D01*
X0050918Y0099485D01*
X0050718D01*
X0050518Y0099285D01*
Y0098685D01*
X0051118Y0099884D02*
X0050318Y0100684D01*
X0050118Y0101084D02*
X0049918Y0101284D01*
Y0101684D01*
X0050118Y0101884D01*
X0050318D01*
X0050518Y0101684D01*
X0050718Y0101884D01*
X0050918D01*
X0051118Y0101684D01*
Y0101284D01*
X0050918Y0101084D01*
X0050718D01*
X0050518Y0101284D01*
X0050318Y0101084D01*
X0050118D01*
X0050518Y0101284D02*
Y0101684D01*
X0049918Y0103083D02*
Y0102284D01*
X0050518D01*
X0050318Y0102684D01*
Y0102883D01*
X0050518Y0103083D01*
X0050918D01*
X0051118Y0102883D01*
Y0102484D01*
X0050918Y0102284D01*
X0050118Y0103483D02*
X0049918Y0103683D01*
Y0104083D01*
X0050118Y0104283D01*
X0050318D01*
X0050518Y0104083D01*
Y0103883D01*
Y0104083D01*
X0050718Y0104283D01*
X0050918D01*
X0051118Y0104083D01*
Y0103683D01*
X0050918Y0103483D01*
X0049918Y0105483D02*
Y0104683D01*
X0050518D01*
X0050318Y0105083D01*
Y0105283D01*
X0050518Y0105483D01*
X0050918D01*
X0051118Y0105283D01*
Y0104883D01*
X0050918Y0104683D01*
X0051118Y0105883D02*
X0050318Y0106682D01*
X0050118Y0107082D02*
X0049918Y0107282D01*
Y0107682D01*
X0050118Y0107882D01*
X0050318D01*
X0050518Y0107682D01*
Y0107482D01*
Y0107682D01*
X0050718Y0107882D01*
X0050918D01*
X0051118Y0107682D01*
Y0107282D01*
X0050918Y0107082D01*
X0051118Y0109081D02*
Y0108282D01*
X0050318Y0109081D01*
X0050118D01*
X0049918Y0108882D01*
Y0108482D01*
X0050118Y0108282D01*
X0051118Y0109481D02*
X0050318D01*
X0049918Y0109881D01*
X0050318Y0110281D01*
X0051118D01*
X0050518D01*
Y0109481D01*
X00786Y01427D02*
X00788Y01429D01*
X00792D01*
X00794Y01427D01*
Y01419D01*
X00792Y01417D01*
X00788D01*
X00786Y01419D01*
Y01427D01*
X00798Y01429D02*
Y01421D01*
X0080199Y01417D01*
X0080599Y01421D01*
Y01429D01*
X00794Y01405D02*
X00786D01*
Y01399D01*
X0079Y01401D01*
X00792D01*
X00794Y01399D01*
Y01395D01*
X00792Y01393D01*
X00788D01*
X00786Y01395D01*
X00798Y01405D02*
Y01397D01*
X0080199Y01393D01*
X0080599Y01397D01*
Y01405D01*
X00451Y00553D02*
Y00565D01*
X00457D01*
X00459Y00563D01*
Y00559D01*
X00457Y00557D01*
X00451D01*
X00455D02*
X00459Y00553D01*
X0047099Y00565D02*
X00463D01*
Y00553D01*
X0047099D01*
X00463Y00559D02*
X0046699D01*
X0048299Y00563D02*
X0048099Y00565D01*
X0047699D01*
X0047499Y00563D01*
Y00561D01*
X0047699Y00559D01*
X0048099D01*
X0048299Y00557D01*
Y00555D01*
X0048099Y00553D01*
X0047699D01*
X0047499Y00555D01*
X0049499Y00565D02*
X0048699D01*
Y00553D01*
X0049499D01*
X0048699Y00559D02*
X0049099D01*
X0049898Y00565D02*
X0050698D01*
X0050298D01*
Y00553D01*
X00254D02*
Y00565D01*
X0026D01*
X00262Y00563D01*
Y00559D01*
X0026Y00557D01*
X00254D01*
X00266Y00565D02*
Y00553D01*
X0027199D01*
X0027399Y00555D01*
Y00563D01*
X0027199Y00565D01*
X00266D01*
X0028599Y00553D02*
X0027799D01*
X0028599Y00561D01*
Y00563D01*
X0028399Y00565D01*
X0027999D01*
X0027799Y00563D01*
X0077152Y0111125D02*
Y0112325D01*
X0077752D01*
X0077952Y0112125D01*
Y0111725D01*
X0077752Y0111525D01*
X0077152D01*
X0078352Y0111125D02*
Y0111925D01*
X0078752Y0112325D01*
X0079152Y0111925D01*
Y0111125D01*
Y0111725D01*
X0078352D01*
X0079552Y0112125D02*
X0079752Y0112325D01*
X0080152D01*
X0080351Y0112125D01*
Y0111325D01*
X0080152Y0111125D01*
X0079752D01*
X0079552Y0111325D01*
Y0112125D01*
D32*
X0028257Y0133579D02*
G03*
X0024448Y013356I-0001905J-0000013D01*
G01*
Y012815D02*
G03*
X0028257Y0128168I0001905J0000013D01*
G01*
X0051117Y008521D02*
G03*
X0047307Y0085192I-0001905J-0000013D01*
G01*
Y0079781D02*
G03*
X0051117Y00798I0001905J0000013D01*
G01*
X0024448Y0128193D02*
Y0133527D01*
X0028257Y0128168D02*
Y0133502D01*
X0025413Y0130302D02*
X0027318D01*
X0026327Y012954D02*
Y0130302D01*
X0025438Y0131343D02*
X0027318D01*
X0026327D02*
Y0132131D01*
X0049238Y0081229D02*
Y0082017D01*
X0048247D02*
X0050127D01*
X0049238Y0083058D02*
Y008382D01*
X0048247Y0083058D02*
X0050152D01*
X0047307Y0079858D02*
Y0085192D01*
X0051118Y0079833D02*
Y0085167D01*
D33*
X003496Y008774D02*
Y0087745D01*
Y0087755D02*
Y008776D01*
Y0087765D02*
Y008777D01*
X0034965Y0087689D02*
Y0087811D01*
X003497Y0087643D02*
Y0087821D01*
X0034975Y0087597D02*
Y0087836D01*
X003498Y0087552D02*
Y0087846D01*
X0034985Y0087506D02*
Y0087862D01*
X003499Y0087455D02*
Y0087877D01*
X0034995Y008741D02*
Y0087887D01*
X0035001Y0087364D02*
Y0087902D01*
X0035006Y0087318D02*
Y0087912D01*
X0035011Y0087272D02*
Y0087928D01*
X0035016Y0087227D02*
Y0087943D01*
X0035021Y0087176D02*
Y0087953D01*
X0035026Y008713D02*
Y0087968D01*
X0035031Y0087084D02*
Y0087984D01*
X0035036Y0087039D02*
Y0087994D01*
X0035041Y0086993D02*
Y0088009D01*
X0035046Y0086942D02*
Y0088019D01*
X0035051Y0086896D02*
Y0088034D01*
X0035056Y0086851D02*
Y0088034D01*
X0035062Y0086805D02*
Y0088034D01*
X0035067Y0086759D02*
Y0087857D01*
Y0087862D02*
Y0088034D01*
X0035072Y0086708D02*
Y0087857D01*
Y0087862D02*
Y0088034D01*
X0035077Y0086663D02*
Y0088034D01*
X0035082Y0086617D02*
Y0087907D01*
Y0087912D02*
Y0088034D01*
X0035087Y0086571D02*
Y0088034D01*
X0035092Y0086526D02*
Y0088034D01*
X0035097Y008648D02*
Y0087918D01*
Y0087928D02*
Y0088034D01*
X0035102Y0086429D02*
Y0087897D01*
Y0087907D02*
Y0087918D01*
Y0087928D02*
Y0088034D01*
X0035107Y0086383D02*
Y0087918D01*
Y0087928D02*
Y0088034D01*
X0035112Y0086338D02*
Y0087918D01*
Y0087928D02*
Y0088034D01*
X0035117Y0086292D02*
Y0088034D01*
X0035122Y0086246D02*
Y0088034D01*
X0035128Y0086195D02*
Y0088034D01*
X0035133Y008615D02*
Y0088034D01*
X0035138Y0086104D02*
Y0088034D01*
X0035143Y0086058D02*
Y0088034D01*
X0035148Y0086033D02*
Y0088034D01*
X0035153Y0086028D02*
Y0088034D01*
X0035158Y0086028D02*
Y0088034D01*
X0035163Y0086028D02*
Y0088034D01*
X0035168Y0086033D02*
Y0088034D01*
X0035173Y0086028D02*
Y0088034D01*
X0035178Y0086028D02*
Y0088034D01*
X0035183Y0086028D02*
Y0088034D01*
X0035189Y0086028D02*
Y0088034D01*
X0035194Y0086033D02*
Y0088034D01*
X0035199Y0086033D02*
Y0088034D01*
X0035204Y0086033D02*
Y0088034D01*
X0035209Y0086033D02*
Y0088029D01*
X0035214Y0086033D02*
Y0088029D01*
X0035219Y0086033D02*
Y0088029D01*
X0035224Y0086033D02*
Y0088029D01*
X0035229Y0086033D02*
Y0088029D01*
X0035234Y0086033D02*
Y0088029D01*
X0035239Y0086033D02*
Y0088029D01*
X0035244Y0086033D02*
Y0088029D01*
X0035249Y0086033D02*
Y0088029D01*
X0035255Y0086033D02*
Y0088029D01*
X003526Y0086033D02*
Y0088029D01*
X0035265Y0086033D02*
Y0088029D01*
X003527Y0086033D02*
Y0088029D01*
X0035275Y0086033D02*
Y0088029D01*
X003528Y0086033D02*
Y0088029D01*
X0035285Y0086033D02*
Y0088029D01*
X003529Y0086033D02*
Y0088029D01*
X0035295Y0086033D02*
Y0088029D01*
X00353Y0086033D02*
Y0088029D01*
X0035305Y0086033D02*
Y0088029D01*
X003531Y0086033D02*
Y0088029D01*
X0035316Y0086033D02*
Y0088029D01*
X0035321Y0086038D02*
Y0088029D01*
X0035326Y0086038D02*
Y0088029D01*
X0035331Y0086038D02*
Y0088029D01*
X0035336Y0086038D02*
Y0088029D01*
X0035341Y0086038D02*
Y0087811D01*
Y0087816D02*
Y0088029D01*
X0035346Y0086038D02*
Y0087811D01*
Y0087816D02*
Y0088029D01*
X0035351Y0086038D02*
Y0088029D01*
X0035356Y0086038D02*
Y0088029D01*
X0035361Y0086038D02*
Y0088029D01*
X0035366Y0086038D02*
Y0088029D01*
X0035371Y0086038D02*
Y0088029D01*
X0035376Y0086038D02*
Y0088029D01*
X0035382Y0086038D02*
Y0088029D01*
X0035387Y0086038D02*
Y0088029D01*
X0035392Y0086038D02*
Y0088029D01*
X0035397Y0086038D02*
Y0088029D01*
X0035402Y0086038D02*
Y0088029D01*
X0035407Y0086038D02*
Y0088029D01*
X0035412Y0086038D02*
Y0088029D01*
X0035417Y0086038D02*
Y0088029D01*
X0035422Y0086038D02*
Y0088029D01*
X0035427Y0086038D02*
Y0088029D01*
X0035432Y0086038D02*
Y0088029D01*
X0035437Y0086038D02*
Y0088029D01*
X0035443Y0086038D02*
Y0088029D01*
X0035448Y0086043D02*
Y0088029D01*
X0035453Y0086043D02*
Y0088029D01*
X0035458Y0086043D02*
Y0088029D01*
X0035463Y0086043D02*
Y0088029D01*
X0035468Y0086043D02*
Y0088029D01*
X0035473Y0086043D02*
Y0088029D01*
X0035478Y0086043D02*
Y0088029D01*
X0035483Y0086043D02*
Y0088029D01*
X0035488Y0086043D02*
Y0088029D01*
X0035493Y0086043D02*
Y0088029D01*
X0035498Y0086043D02*
Y0088029D01*
X0035503Y0086043D02*
Y0088029D01*
X0035509Y0086043D02*
Y0088029D01*
X0035514Y0086043D02*
Y0088029D01*
X0035519Y0086043D02*
Y0088029D01*
X0035524Y0086043D02*
Y0088029D01*
X0035529Y0086043D02*
Y0088029D01*
X0035534Y0086043D02*
Y0088029D01*
X0035539Y0086043D02*
Y0088029D01*
X0035544Y0086043D02*
Y0088029D01*
X0035549Y0086043D02*
Y0088024D01*
X0035554Y0086043D02*
Y0088024D01*
X0035559Y0086043D02*
Y0088024D01*
X0035564Y0086043D02*
Y0088024D01*
X003557Y0086043D02*
Y0088024D01*
X0035575Y0086048D02*
Y0088024D01*
X003558Y0086048D02*
Y0088024D01*
X0035585Y0086048D02*
Y0088024D01*
X003559Y0086048D02*
Y0088024D01*
X0035595Y0086048D02*
Y0088024D01*
X00356Y0086048D02*
Y0088024D01*
X0035605Y0086048D02*
Y0087851D01*
Y0087857D02*
Y0088024D01*
X003561Y0086048D02*
Y0087846D01*
Y0087851D02*
Y0088024D01*
X0035615Y0086048D02*
Y0087826D01*
Y0087836D02*
Y0088024D01*
X003562Y0086048D02*
Y0087826D01*
Y0087836D02*
Y0088024D01*
X0035625Y0086048D02*
Y0087877D01*
Y0087887D02*
Y0088024D01*
X003563Y0086048D02*
Y0087877D01*
Y0087887D02*
Y0088024D01*
X0035636Y0086048D02*
Y0088024D01*
X0035641Y0086048D02*
Y0088024D01*
X0035646Y0086048D02*
Y0087907D01*
Y0087918D02*
Y0088024D01*
X0035651Y0086048D02*
Y0087912D01*
Y0087918D02*
Y0088024D01*
X0035656Y0086048D02*
Y0088024D01*
X0035661Y0086048D02*
Y0088024D01*
X0035666Y0086048D02*
Y0088024D01*
X0035671Y0086048D02*
Y0088024D01*
X0035676Y0086048D02*
Y0088024D01*
X0035681Y0086048D02*
Y0088024D01*
X0035686Y0086048D02*
Y0088024D01*
X0035691Y0086048D02*
Y0088024D01*
X0035697Y0086048D02*
Y0088024D01*
X0035702Y0086053D02*
Y0088024D01*
X0035707Y0086053D02*
Y0088024D01*
X0035712Y0086053D02*
Y0088024D01*
X0035717Y0086053D02*
Y0088024D01*
X0035722Y0086053D02*
Y0088024D01*
X0035727Y0086053D02*
Y0088024D01*
X0035732Y0086053D02*
Y0088024D01*
X0035737Y0086053D02*
Y0088024D01*
X0035742Y0086053D02*
Y0088024D01*
X0035747Y0086053D02*
Y0088024D01*
X0035752Y0086053D02*
Y0088024D01*
X0035757Y0086053D02*
Y0088024D01*
X0035763Y0086053D02*
Y0087928D01*
Y0087994D02*
Y0087999D01*
X0035768Y0086053D02*
Y0087699D01*
X0035773Y0086053D02*
Y0087486D01*
X0035778Y0086053D02*
Y0087262D01*
X0035783Y0086053D02*
Y0087049D01*
X0035788Y0086053D02*
Y0086952D01*
X0035793Y0086053D02*
Y008683D01*
Y0086841D02*
Y0086866D01*
Y0086871D02*
Y0086952D01*
X0035798Y0086053D02*
Y0086871D01*
Y0086876D02*
Y0086952D01*
X0035803Y0086053D02*
Y0086871D01*
Y0086876D02*
Y0086952D01*
X0035808Y0086053D02*
Y0086952D01*
X0035813Y0086053D02*
Y0086952D01*
X0035818Y0086053D02*
Y0086952D01*
X0035824Y0086053D02*
Y0086952D01*
X0035829Y0086053D02*
Y0086861D01*
Y0086871D02*
Y0086952D01*
X0035834Y0086058D02*
Y0086861D01*
Y0086871D02*
Y0086952D01*
X0035839Y0086058D02*
Y0086952D01*
X0035844Y0086058D02*
Y0086952D01*
X0035849Y0086058D02*
Y0086952D01*
X0035854Y0086058D02*
Y0086952D01*
X0035859Y0086058D02*
Y0086952D01*
X0035864Y0086058D02*
Y0086952D01*
X0035869Y0086058D02*
Y0086952D01*
X0035874Y0086058D02*
Y0086952D01*
X0035879Y0086058D02*
Y0086952D01*
X0035884Y0086058D02*
Y0086952D01*
X003589Y0086058D02*
Y0086952D01*
X0035895Y0086058D02*
Y0086952D01*
X00359Y0086058D02*
Y0086952D01*
X0035905Y0086058D02*
Y0086952D01*
X003591Y0086058D02*
Y0086952D01*
X0035915Y0086058D02*
Y0086952D01*
X003592Y0086058D02*
Y0086952D01*
X0035925Y0086058D02*
Y0086952D01*
X003593Y0086058D02*
Y0086688D01*
Y0086698D02*
Y0086952D01*
X0035935Y0086058D02*
Y0086688D01*
Y0086698D02*
Y0086952D01*
X003594Y0086058D02*
Y0086759D01*
Y0086769D02*
Y0086952D01*
X0035945Y0086058D02*
Y0086759D01*
Y0086769D02*
Y0086952D01*
X0035951Y0086058D02*
Y0086952D01*
X0035956Y0086058D02*
Y0086952D01*
X0035961Y0086063D02*
Y0086952D01*
X0035966Y0086063D02*
Y0087237D01*
X0035971Y0086063D02*
Y0086769D01*
Y008678D02*
Y0087658D01*
X0035976Y0086063D02*
Y0086769D01*
Y0086775D02*
Y0087907D01*
X0035981Y0086063D02*
Y0087907D01*
X0035986Y0086063D02*
Y0087907D01*
X0035991Y0086063D02*
Y0087907D01*
X0035996Y0086063D02*
Y0087907D01*
X0036001Y0086063D02*
Y0087907D01*
X0036006Y0086063D02*
Y0087912D01*
X0036011Y0086063D02*
Y0087912D01*
X0036017Y0086063D02*
Y0087912D01*
X0036022Y0086063D02*
Y0087912D01*
X0036027Y0086063D02*
Y0087912D01*
X0036032Y0086063D02*
Y0087912D01*
X0036037Y0086063D02*
Y0087912D01*
X0036042Y0082462D02*
Y0082949D01*
Y0082954D02*
Y0082975D01*
Y008458D02*
Y0085037D01*
Y0085428D02*
Y0085921D01*
Y0086063D02*
Y0087912D01*
Y0089741D02*
Y0090945D01*
Y0091265D02*
Y0091743D01*
X0036047Y0082462D02*
Y008298D01*
Y0083752D02*
Y0084438D01*
Y008457D02*
Y0085047D01*
Y0085418D02*
Y0085931D01*
Y0086063D02*
Y0087912D01*
Y0088497D02*
Y0089D01*
Y0089731D02*
Y009095D01*
Y009126D02*
Y0091748D01*
Y0092119D02*
Y0092708D01*
X0036052Y0082462D02*
Y008298D01*
Y0083752D02*
Y0084438D01*
Y008457D02*
Y0085052D01*
Y0085418D02*
Y0085926D01*
Y0086063D02*
Y0087912D01*
Y0088492D02*
Y0089D01*
Y0089731D02*
Y009095D01*
Y0091255D02*
Y0091748D01*
Y0092114D02*
Y0092708D01*
X0036057Y0082462D02*
Y0082985D01*
Y0083747D02*
Y0084433D01*
Y008457D02*
Y0085057D01*
Y0085418D02*
Y0085926D01*
Y0086063D02*
Y0087912D01*
Y0088492D02*
Y0089D01*
Y0089726D02*
Y009095D01*
Y0091255D02*
Y0091748D01*
Y0092109D02*
Y0092703D01*
X0036062Y0082462D02*
Y0082985D01*
Y0083742D02*
Y0084428D01*
Y0084565D02*
Y0085063D01*
Y0085413D02*
Y0085926D01*
Y0086063D02*
Y0087912D01*
Y0088492D02*
Y0088994D01*
Y0089726D02*
Y0090945D01*
Y0091255D02*
Y0091748D01*
Y0092103D02*
Y0092698D01*
X0036067Y0082467D02*
Y0082985D01*
Y0083737D02*
Y0084428D01*
Y0084565D02*
Y0085068D01*
Y0085413D02*
Y0085921D01*
Y0086063D02*
Y0087826D01*
Y0087836D02*
Y0087912D01*
Y0088486D02*
Y0088994D01*
Y0089721D02*
Y0090945D01*
Y0091255D02*
Y0091743D01*
Y0092098D02*
Y0092693D01*
X0036072Y0082467D02*
Y0082985D01*
Y0083737D02*
Y0084422D01*
Y0084565D02*
Y0085073D01*
Y0085413D02*
Y0085921D01*
Y0086063D02*
Y0087912D01*
Y0088486D02*
Y0088994D01*
Y0089716D02*
Y0090945D01*
Y009125D02*
Y0091743D01*
Y0092093D02*
Y0092688D01*
X0036078Y0082467D02*
Y008299D01*
Y0083732D02*
Y0084417D01*
Y0084565D02*
Y0085078D01*
Y0085413D02*
Y0085921D01*
Y0086063D02*
Y0087912D01*
Y0088486D02*
Y0088994D01*
Y0089716D02*
Y009094D01*
Y009125D02*
Y0091743D01*
Y0092088D02*
Y0092683D01*
X0036083Y0082467D02*
Y008299D01*
Y0083727D02*
Y0084412D01*
Y008456D02*
Y0085083D01*
Y0085408D02*
Y0085916D01*
Y0086063D02*
Y0087912D01*
Y0088486D02*
Y0088989D01*
Y0089711D02*
Y009094D01*
Y009125D02*
Y0091738D01*
Y0092083D02*
Y0092677D01*
X0036088Y0082467D02*
Y008299D01*
Y0083727D02*
Y0084412D01*
Y008456D02*
Y0085088D01*
Y0085408D02*
Y0085916D01*
Y0086068D02*
Y0087912D01*
Y0088481D02*
Y0088989D01*
Y0089706D02*
Y009094D01*
Y0091245D02*
Y0091738D01*
Y0092078D02*
Y0092672D01*
X0036093Y0082472D02*
Y008299D01*
Y0083721D02*
Y0084407D01*
Y008456D02*
Y0085093D01*
Y0085408D02*
Y0085916D01*
Y0086068D02*
Y0087912D01*
Y0088481D02*
Y0088989D01*
Y0089706D02*
Y009094D01*
Y0091245D02*
Y0091738D01*
Y0092073D02*
Y0092667D01*
X0036098Y0082472D02*
Y008299D01*
Y0083716D02*
Y0084402D01*
Y0084555D02*
Y0085098D01*
Y0085408D02*
Y0085916D01*
Y0086068D02*
Y0087912D01*
Y0088481D02*
Y0088984D01*
Y0089701D02*
Y0090935D01*
Y0091245D02*
Y0091738D01*
Y0092068D02*
Y0092662D01*
X0036103Y0082472D02*
Y0082995D01*
Y0083711D02*
Y0084397D01*
Y0084555D02*
Y0085103D01*
Y0085403D02*
Y0085911D01*
Y0086068D02*
Y0087912D01*
Y0088481D02*
Y0088984D01*
Y0089696D02*
Y0090935D01*
Y0091245D02*
Y0091733D01*
Y0092063D02*
Y0092657D01*
X0036108Y0082472D02*
Y0082995D01*
Y0083711D02*
Y0084392D01*
Y0084555D02*
Y0085108D01*
Y0085403D02*
Y0085911D01*
Y0086068D02*
Y0087912D01*
Y0088476D02*
Y0088984D01*
Y0089696D02*
Y0090935D01*
Y009124D02*
Y0091733D01*
Y0092058D02*
Y0092652D01*
X0036113Y0082477D02*
Y0082995D01*
Y0083706D02*
Y0084392D01*
Y0084555D02*
Y0085118D01*
Y0085403D02*
Y0085911D01*
Y0086068D02*
Y0087912D01*
Y0088476D02*
Y0088984D01*
Y008969D02*
Y0090935D01*
Y009124D02*
Y0091733D01*
Y0092053D02*
Y0092647D01*
X0036118Y0082477D02*
Y0082995D01*
Y0083701D02*
Y0084387D01*
Y0084549D02*
Y0085124D01*
Y0085403D02*
Y0085906D01*
Y0086068D02*
Y0087912D01*
Y0088476D02*
Y0088979D01*
Y008969D02*
Y009093D01*
Y009124D02*
Y0091728D01*
Y0092048D02*
Y0092642D01*
X0036123Y0082477D02*
Y0083D01*
Y0083701D02*
Y0084382D01*
Y0084549D02*
Y0085129D01*
Y0085398D02*
Y0085906D01*
Y0086068D02*
Y0087912D01*
Y0088471D02*
Y0088979D01*
Y0089685D02*
Y009093D01*
Y009124D02*
Y0091728D01*
Y0092042D02*
Y0092637D01*
X0036128Y0082477D02*
Y0083D01*
Y0083696D02*
Y0084377D01*
Y0084549D02*
Y0085134D01*
Y0085398D02*
Y0085906D01*
Y0086068D02*
Y0087912D01*
Y0088471D02*
Y0088979D01*
Y008968D02*
Y009093D01*
Y0091235D02*
Y0091728D01*
Y0092037D02*
Y0092632D01*
X0036133Y0082477D02*
Y0083D01*
Y0083691D02*
Y0084377D01*
Y0084549D02*
Y0085139D01*
Y0085398D02*
Y0085906D01*
Y0086068D02*
Y0087912D01*
Y0088471D02*
Y0088974D01*
Y008968D02*
Y009093D01*
Y0091235D02*
Y0091728D01*
Y0092032D02*
Y0092627D01*
X0036138Y0082482D02*
Y0083D01*
Y0083691D02*
Y0084372D01*
Y0084544D02*
Y0085144D01*
Y0085398D02*
Y0085901D01*
Y0086068D02*
Y0087912D01*
Y0088471D02*
Y0088974D01*
Y0089675D02*
Y0090925D01*
Y0091235D02*
Y0091722D01*
Y0092027D02*
Y0092622D01*
X0036144Y0082482D02*
Y0083005D01*
Y0083686D02*
Y0084367D01*
Y0084544D02*
Y0085149D01*
Y0085393D02*
Y0085901D01*
Y0086068D02*
Y0087912D01*
Y0088466D02*
Y0088974D01*
Y008967D02*
Y0090925D01*
Y009123D02*
Y0091722D01*
Y0092027D02*
Y0092622D01*
X0036149Y0082482D02*
Y0083005D01*
Y0083681D02*
Y0084362D01*
Y0084544D02*
Y0085154D01*
Y0085393D02*
Y0085901D01*
Y0086068D02*
Y0087912D01*
Y0088466D02*
Y0088974D01*
Y008967D02*
Y0090925D01*
Y009123D02*
Y0091722D01*
Y0092022D02*
Y0092617D01*
X0036154Y0082482D02*
Y0083005D01*
Y0083676D02*
Y0084362D01*
Y0084539D02*
Y0085159D01*
Y0085393D02*
Y0085896D01*
Y0086068D02*
Y0087912D01*
Y0088466D02*
Y0088969D01*
Y0089665D02*
Y0090925D01*
Y009123D02*
Y0091717D01*
Y0092017D02*
Y0092611D01*
X0036159Y0082482D02*
Y0083005D01*
Y0083676D02*
Y0084356D01*
Y0084539D02*
Y0085164D01*
Y0085393D02*
Y0085896D01*
Y0086068D02*
Y0087912D01*
Y0088466D02*
Y0088969D01*
Y008966D02*
Y009092D01*
Y009123D02*
Y0091717D01*
Y0092012D02*
Y0092606D01*
X0036164Y0082487D02*
Y008301D01*
Y0083671D02*
Y0084351D01*
Y0084539D02*
Y0085169D01*
Y0085388D02*
Y0085896D01*
Y0086068D02*
Y0087912D01*
Y0088461D02*
Y0088969D01*
Y008966D02*
Y009092D01*
Y0091225D02*
Y0091717D01*
Y0092007D02*
Y0092601D01*
X0036169Y0082487D02*
Y008301D01*
Y0083666D02*
Y0084346D01*
Y0084539D02*
Y0085174D01*
Y0085388D02*
Y0085891D01*
Y0086068D02*
Y0087912D01*
Y0088461D02*
Y0088964D01*
Y0089655D02*
Y009092D01*
Y0091225D02*
Y0091717D01*
Y0092002D02*
Y0092596D01*
X0036174Y0082487D02*
Y008301D01*
Y0083666D02*
Y0084341D01*
Y0084534D02*
Y0085179D01*
Y0085388D02*
Y0085891D01*
Y0086068D02*
Y0087912D01*
Y0088461D02*
Y0088964D01*
Y008965D02*
Y0090915D01*
Y0091225D02*
Y0091712D01*
Y0091997D02*
Y0092591D01*
X0036179Y0082487D02*
Y008301D01*
Y008366D02*
Y0084341D01*
Y0084534D02*
Y0085184D01*
Y0085388D02*
Y0085891D01*
Y0086068D02*
Y0087912D01*
Y0088456D02*
Y0088964D01*
Y008965D02*
Y0090915D01*
Y009122D02*
Y0091712D01*
Y0091992D02*
Y0092586D01*
X0036184Y0082487D02*
Y0083015D01*
Y0083655D02*
Y0084336D01*
Y0084534D02*
Y008519D01*
Y0085383D02*
Y0085891D01*
Y0086068D02*
Y0087912D01*
Y0088456D02*
Y0088959D01*
Y0089645D02*
Y0090915D01*
Y009122D02*
Y0091712D01*
Y0091987D02*
Y0092581D01*
X0036189Y0082492D02*
Y0083015D01*
Y008365D02*
Y0084331D01*
Y0084529D02*
Y0085195D01*
Y0085383D02*
Y0085886D01*
Y0086068D02*
Y0087912D01*
Y0088456D02*
Y0088959D01*
Y0089645D02*
Y0090915D01*
Y009122D02*
Y0091707D01*
Y0091982D02*
Y0092576D01*
X0036194Y0082492D02*
Y0083015D01*
Y008365D02*
Y0084326D01*
Y0084529D02*
Y00852D01*
Y0085383D02*
Y0085886D01*
Y0086068D02*
Y0087912D01*
Y0088456D02*
Y0088959D01*
Y008964D02*
Y009091D01*
Y009122D02*
Y0091707D01*
Y0091976D02*
Y0092571D01*
X0036199Y0082492D02*
Y0083015D01*
Y0083645D02*
Y0084326D01*
Y0084529D02*
Y0085205D01*
Y0085383D02*
Y0085886D01*
Y0086068D02*
Y0087912D01*
Y0088451D02*
Y0088959D01*
Y0089635D02*
Y009091D01*
Y0091214D02*
Y0091707D01*
Y0091971D02*
Y0092566D01*
X0036205Y0082492D02*
Y0083015D01*
Y008364D02*
Y0084321D01*
Y0084529D02*
Y008521D01*
Y0085378D02*
Y008588D01*
Y0086068D02*
Y0087912D01*
Y0088451D02*
Y0088954D01*
Y0089635D02*
Y009091D01*
Y0091214D02*
Y0091707D01*
Y0091966D02*
Y0092561D01*
X003621Y0082492D02*
Y008302D01*
Y008364D02*
Y0084316D01*
Y0084524D02*
Y0085215D01*
Y0085378D02*
Y008588D01*
Y0086068D02*
Y0087912D01*
Y0088451D02*
Y0088954D01*
Y0089629D02*
Y009091D01*
Y0091214D02*
Y0091702D01*
Y0091961D02*
Y0092556D01*
X0036215Y0082497D02*
Y008302D01*
Y0083635D02*
Y0084311D01*
Y0084524D02*
Y008522D01*
Y0085378D02*
Y008588D01*
Y0086073D02*
Y0087912D01*
Y0088446D02*
Y0088954D01*
Y0089624D02*
Y0090905D01*
Y0091209D02*
Y0091702D01*
Y0091956D02*
Y009255D01*
X003622Y0082497D02*
Y008302D01*
Y008363D02*
Y0084306D01*
Y0084524D02*
Y0085225D01*
Y0085378D02*
Y008588D01*
Y0086073D02*
Y0087912D01*
Y0088446D02*
Y0088949D01*
Y0089624D02*
Y0090905D01*
Y0091209D02*
Y0091702D01*
Y0091951D02*
Y0092545D01*
X0036225Y0082497D02*
Y008302D01*
Y0083625D02*
Y0084306D01*
Y0084519D02*
Y008523D01*
Y0085372D02*
Y0085875D01*
Y0086073D02*
Y0087912D01*
Y0088446D02*
Y0088949D01*
Y0089619D02*
Y0090905D01*
Y0091209D02*
Y0091697D01*
Y0091946D02*
Y009254D01*
X003623Y0082497D02*
Y0083025D01*
Y0083625D02*
Y0084301D01*
Y0084519D02*
Y008524D01*
Y0085372D02*
Y0085875D01*
Y0086073D02*
Y0087912D01*
Y0088446D02*
Y0088949D01*
Y0089614D02*
Y0090905D01*
Y0091209D02*
Y0091697D01*
Y0091941D02*
Y0092535D01*
X0036235Y0082497D02*
Y0083025D01*
Y008362D02*
Y0084295D01*
Y0084519D02*
Y0085245D01*
Y0085372D02*
Y0085875D01*
Y0086073D02*
Y0087912D01*
Y0088441D02*
Y0088949D01*
Y0089614D02*
Y0090899D01*
Y0091204D02*
Y0091697D01*
Y0091936D02*
Y009253D01*
X003624Y0082502D02*
Y0083025D01*
Y0083615D02*
Y008429D01*
Y0084519D02*
Y0085251D01*
Y0085372D02*
Y008587D01*
Y0086073D02*
Y0087912D01*
Y0088441D02*
Y0088944D01*
Y0089609D02*
Y0090899D01*
Y0091204D02*
Y0091697D01*
Y0091931D02*
Y0092525D01*
X0036245Y0082502D02*
Y0083025D01*
Y0083615D02*
Y008429D01*
Y0084514D02*
Y0085256D01*
Y0085367D02*
Y008587D01*
Y0086073D02*
Y0087912D01*
Y0088441D02*
Y0088944D01*
Y0089609D02*
Y0090899D01*
Y0091204D02*
Y0091692D01*
Y0091926D02*
Y009252D01*
X003625Y0082502D02*
Y0083031D01*
Y008361D02*
Y0084285D01*
Y0084514D02*
Y0085261D01*
Y0085367D02*
Y008587D01*
Y0086073D02*
Y0087912D01*
Y0088441D02*
Y0088944D01*
Y0089604D02*
Y0090894D01*
Y0091199D02*
Y0091692D01*
Y0091921D02*
Y0092515D01*
X0036255Y0082502D02*
Y0083031D01*
Y0083605D02*
Y008428D01*
Y0084514D02*
Y0085266D01*
Y0085367D02*
Y0085865D01*
Y0086073D02*
Y0087912D01*
Y0088436D02*
Y0088939D01*
Y0089599D02*
Y0090894D01*
Y0091199D02*
Y0091692D01*
Y0091915D02*
Y009251D01*
X003626Y0082502D02*
Y0083031D01*
Y00836D02*
Y0084275D01*
Y0084509D02*
Y0085271D01*
Y0085367D02*
Y0085865D01*
Y0086073D02*
Y0087912D01*
Y0088436D02*
Y0088939D01*
Y0089599D02*
Y0090894D01*
Y0091199D02*
Y0091687D01*
Y009191D02*
Y0092505D01*
X0036265Y0082507D02*
Y0083031D01*
Y00836D02*
Y0084275D01*
Y0084509D02*
Y0085276D01*
Y0085362D02*
Y0085865D01*
Y0086073D02*
Y0087912D01*
Y0088436D02*
Y0088939D01*
Y0089594D02*
Y0090894D01*
Y0091199D02*
Y0091687D01*
Y0091905D02*
Y00925D01*
X0036271Y0082507D02*
Y0083036D01*
Y0083594D02*
Y008427D01*
Y0084509D02*
Y0085281D01*
Y0085362D02*
Y0085865D01*
Y0086073D02*
Y0087912D01*
Y0088431D02*
Y0088939D01*
Y0089589D02*
Y0090889D01*
Y0091194D02*
Y0091687D01*
Y00919D02*
Y00925D01*
X0036276Y0082507D02*
Y0083036D01*
Y0083589D02*
Y0084265D01*
Y0084509D02*
Y0085286D01*
Y0085362D02*
Y008586D01*
Y0086073D02*
Y0087912D01*
Y0088431D02*
Y0088934D01*
Y0089589D02*
Y0090889D01*
Y0091194D02*
Y0091687D01*
Y0091895D02*
Y0092495D01*
X0036281Y0082507D02*
Y0083036D01*
Y0083589D02*
Y008426D01*
Y0084504D02*
Y0085291D01*
Y0085362D02*
Y008586D01*
Y0086073D02*
Y0087912D01*
Y0088431D02*
Y0088934D01*
Y0089584D02*
Y0090889D01*
Y0091194D02*
Y0091682D01*
Y009189D02*
Y009249D01*
X0036286Y0082507D02*
Y0083036D01*
Y0083584D02*
Y0084255D01*
Y0084504D02*
Y0085296D01*
Y0085357D02*
Y008586D01*
Y0086073D02*
Y0087912D01*
Y0088431D02*
Y0088934D01*
Y0089579D02*
Y0090889D01*
Y0091189D02*
Y0091682D01*
Y0091885D02*
Y0092484D01*
X0036291Y0082512D02*
Y0083041D01*
Y0083579D02*
Y0084255D01*
Y0084504D02*
Y0085301D01*
Y0085357D02*
Y0085855D01*
Y0086073D02*
Y0087912D01*
Y0088426D02*
Y0088928D01*
Y0089579D02*
Y0090884D01*
Y0091189D02*
Y0091682D01*
Y009188D02*
Y0092479D01*
X0036296Y0082512D02*
Y0083041D01*
Y0083579D02*
Y008425D01*
Y0084499D02*
Y0085306D01*
Y0085357D02*
Y0085855D01*
Y0086073D02*
Y0087912D01*
Y0088426D02*
Y0088928D01*
Y0089574D02*
Y0090884D01*
Y0091189D02*
Y0091677D01*
Y0091875D02*
Y0092474D01*
X0036301Y0082512D02*
Y0083041D01*
Y0083574D02*
Y0084245D01*
Y0084499D02*
Y0085311D01*
Y0085357D02*
Y0085855D01*
Y0086073D02*
Y0087912D01*
Y0088426D02*
Y0088928D01*
Y0089574D02*
Y0090884D01*
Y0091189D02*
Y0091677D01*
Y009187D02*
Y0092469D01*
X0036306Y0082512D02*
Y0083041D01*
Y0083569D02*
Y008424D01*
Y0084499D02*
Y0085317D01*
Y0085352D02*
Y0085855D01*
Y0086073D02*
Y0087912D01*
Y0088426D02*
Y0088923D01*
Y0089569D02*
Y0090884D01*
Y0091184D02*
Y0091677D01*
Y0091865D02*
Y0092464D01*
X0036311Y0082512D02*
Y0083041D01*
Y0083564D02*
Y008424D01*
Y0084499D02*
Y0085322D01*
Y0085352D02*
Y008585D01*
Y0086073D02*
Y0087912D01*
Y008842D02*
Y0088923D01*
Y0089563D02*
Y0090879D01*
Y0091184D02*
Y0091677D01*
Y009186D02*
Y0092459D01*
X0036316Y0082517D02*
Y0083046D01*
Y0083564D02*
Y0084235D01*
Y0084494D02*
Y0085327D01*
Y0085352D02*
Y008585D01*
Y0086073D02*
Y0087912D01*
Y008842D02*
Y0088923D01*
Y0089563D02*
Y0090879D01*
Y0091184D02*
Y0091672D01*
Y0091855D02*
Y0092454D01*
X0036321Y0082517D02*
Y0083046D01*
Y0083559D02*
Y0084229D01*
Y0084494D02*
Y0085332D01*
Y0085352D02*
Y008585D01*
Y0086073D02*
Y0087912D01*
Y008842D02*
Y0088923D01*
Y0089558D02*
Y0090879D01*
Y0091179D02*
Y0091672D01*
Y0091849D02*
Y0092449D01*
X0036326Y0082517D02*
Y0083046D01*
Y0083554D02*
Y0084224D01*
Y0084494D02*
Y0085337D01*
Y0085347D02*
Y0085845D01*
Y0086073D02*
Y0087912D01*
Y0088415D02*
Y0088918D01*
Y0089553D02*
Y0090879D01*
Y0091179D02*
Y0091672D01*
Y0091844D02*
Y0092444D01*
X0036332Y0082517D02*
Y0083046D01*
Y0083554D02*
Y0084224D01*
Y0084494D02*
Y0085342D01*
Y0085347D02*
Y0085845D01*
Y0086073D02*
Y0087912D01*
Y0088415D02*
Y0088918D01*
Y0089553D02*
Y0090874D01*
Y0091179D02*
Y0091667D01*
Y0091839D02*
Y0092439D01*
X0036337Y0082517D02*
Y0083051D01*
Y0083549D02*
Y0084219D01*
Y0084489D02*
Y0085845D01*
Y0086073D02*
Y0087912D01*
Y0088415D02*
Y0088918D01*
Y0089548D02*
Y0090874D01*
Y0091179D02*
Y0091667D01*
Y0091834D02*
Y0092434D01*
X0036342Y0082523D02*
Y0083051D01*
Y0083544D02*
Y0084214D01*
Y0084489D02*
Y0085845D01*
Y0086079D02*
Y0087912D01*
Y0088415D02*
Y0088913D01*
Y0089543D02*
Y0090874D01*
Y0091174D02*
Y0091667D01*
Y0091829D02*
Y0092429D01*
X0036347Y0082523D02*
Y0083051D01*
Y0083539D02*
Y0084209D01*
Y0084489D02*
Y008584D01*
Y0086079D02*
Y0087912D01*
Y008841D02*
Y0088913D01*
Y0089543D02*
Y0090869D01*
Y0091174D02*
Y0091667D01*
Y0091824D02*
Y0092423D01*
X0036352Y0082523D02*
Y0083051D01*
Y0083539D02*
Y0084204D01*
Y0084483D02*
Y008584D01*
Y0086079D02*
Y0087912D01*
Y008841D02*
Y0088913D01*
Y0089538D02*
Y0090869D01*
Y0091174D02*
Y0091661D01*
Y0091819D02*
Y0092418D01*
X0036357Y0082523D02*
Y0083056D01*
Y0083533D02*
Y0084204D01*
Y0084483D02*
Y008584D01*
Y0086079D02*
Y0087912D01*
Y008841D02*
Y0088913D01*
Y0089533D02*
Y0090869D01*
Y0091169D02*
Y0091661D01*
Y0091814D02*
Y0092413D01*
X0036362Y0082523D02*
Y0083056D01*
Y0083528D02*
Y0084199D01*
Y0084483D02*
Y0085835D01*
Y0086079D02*
Y0087912D01*
Y008841D02*
Y0088908D01*
Y0089533D02*
Y0090869D01*
Y0091169D02*
Y0091661D01*
Y0091809D02*
Y0092408D01*
X0036367Y0082528D02*
Y0083056D01*
Y0083528D02*
Y0084194D01*
Y0084483D02*
Y0085835D01*
Y0086079D02*
Y0087912D01*
Y0088405D02*
Y0088908D01*
Y0089528D02*
Y0090864D01*
Y0091169D02*
Y0091656D01*
Y0091804D02*
Y0092403D01*
X0036372Y0082528D02*
Y0083056D01*
Y0083523D02*
Y0084189D01*
Y0084478D02*
Y0085835D01*
Y0086079D02*
Y0087912D01*
Y0088405D02*
Y0088908D01*
Y0089528D02*
Y0090864D01*
Y0091169D02*
Y0091656D01*
Y0091799D02*
Y0092398D01*
X0036377Y0082528D02*
Y0083061D01*
Y0083518D02*
Y0084189D01*
Y0084478D02*
Y008583D01*
Y0086079D02*
Y0087912D01*
Y0088405D02*
Y0088903D01*
Y0089523D02*
Y0090864D01*
Y0091164D02*
Y0091656D01*
Y0091794D02*
Y0092393D01*
X0036382Y0082528D02*
Y0083061D01*
Y0083513D02*
Y0084184D01*
Y0084478D02*
Y008583D01*
Y0086079D02*
Y0087912D01*
Y00884D02*
Y0088903D01*
Y0089518D02*
Y0090864D01*
Y0091164D02*
Y0091656D01*
Y0091788D02*
Y0092388D01*
X0036387Y0082528D02*
Y0083061D01*
Y0083513D02*
Y0084179D01*
Y0084473D02*
Y008583D01*
Y0086079D02*
Y0087912D01*
Y00884D02*
Y0088903D01*
Y0089518D02*
Y0090859D01*
Y0091164D02*
Y0091651D01*
Y0091788D02*
Y0092383D01*
X0036392Y0086079D02*
Y0087912D01*
X0036398Y0086079D02*
Y0087912D01*
X0036403Y0086079D02*
Y0087912D01*
X0036408Y0086079D02*
Y0087912D01*
X0036413Y0086079D02*
Y0087912D01*
X0036418Y0086079D02*
Y0087912D01*
X0036423Y0086079D02*
Y0087912D01*
X0036428Y0086079D02*
Y0087912D01*
X0036433Y0086079D02*
Y0087912D01*
X0036438Y0086079D02*
Y0087912D01*
X0036443Y0086079D02*
Y0087912D01*
X0036448Y0086079D02*
Y0087912D01*
X0036453Y0086079D02*
Y0087912D01*
X0036459Y0086079D02*
Y0087912D01*
X0036464Y0086079D02*
Y0087912D01*
X0036469Y0086084D02*
Y0087912D01*
X0036474Y0086084D02*
Y0087912D01*
X0036479Y0086084D02*
Y0087912D01*
X0036484Y0086084D02*
Y0087912D01*
X0036489Y0086084D02*
Y0087912D01*
X0036494Y0086084D02*
Y0087912D01*
X0036499Y0086084D02*
Y0087912D01*
X0036504Y0086084D02*
Y0087912D01*
X0036509Y0086084D02*
Y0087912D01*
X0036514Y0086084D02*
Y0087912D01*
X0036519Y0086084D02*
Y0087912D01*
X0036525Y0082558D02*
Y0083086D01*
Y008395D02*
Y0084057D01*
Y0086084D02*
Y0087912D01*
X003653Y0082558D02*
Y0083092D01*
Y0083391D02*
Y0084057D01*
Y0084433D02*
Y0085799D01*
Y0086084D02*
Y0087912D01*
Y0088365D02*
Y0088867D01*
Y0089599D02*
Y0090818D01*
Y0091123D02*
Y0092256D01*
X0036535Y0082558D02*
Y0083092D01*
Y0083386D02*
Y0084052D01*
Y0084433D02*
Y0085799D01*
Y0086084D02*
Y0087912D01*
Y0088365D02*
Y0088862D01*
Y0089599D02*
Y0090818D01*
Y0091123D02*
Y0092251D01*
X003654Y0082558D02*
Y0083092D01*
Y0083381D02*
Y0084047D01*
Y0084433D02*
Y0085799D01*
Y0086084D02*
Y0087912D01*
Y0088359D02*
Y0088862D01*
Y0089594D02*
Y0090813D01*
Y0091118D02*
Y0092246D01*
X0036545Y0082558D02*
Y0083097D01*
Y0083376D02*
Y0084041D01*
Y0084428D02*
Y0085794D01*
Y0086084D02*
Y0087912D01*
Y0088359D02*
Y0088862D01*
Y0089594D02*
Y0090813D01*
Y0091118D02*
Y0092241D01*
X003655Y0082563D02*
Y0083097D01*
Y0083376D02*
Y0084041D01*
Y0084428D02*
Y0085794D01*
Y0086084D02*
Y0087912D01*
Y0088359D02*
Y0088862D01*
Y0089594D02*
Y0090813D01*
Y0091118D02*
Y0092236D01*
X0036555Y0082563D02*
Y0083097D01*
Y0083371D02*
Y0084036D01*
Y0084428D02*
Y0085794D01*
Y0086084D02*
Y0087912D01*
Y0088354D02*
Y0088857D01*
Y0089594D02*
Y0090808D01*
Y0091113D02*
Y009223D01*
X003656Y0082563D02*
Y0083097D01*
Y0083366D02*
Y0084031D01*
Y0084422D02*
Y0085789D01*
Y0086084D02*
Y0087912D01*
Y0088354D02*
Y0088857D01*
Y0089589D02*
Y0090808D01*
Y0091113D02*
Y0092225D01*
X0036565Y0082563D02*
Y0083102D01*
Y0083366D02*
Y0084026D01*
Y0084422D02*
Y0085789D01*
Y0086084D02*
Y0087912D01*
Y0088354D02*
Y0088857D01*
Y0089589D02*
Y0090808D01*
Y0091113D02*
Y009222D01*
X003657Y0082563D02*
Y0083102D01*
Y0083361D02*
Y0084021D01*
Y0084422D02*
Y0085789D01*
Y0086084D02*
Y0087912D01*
Y0088354D02*
Y0088857D01*
Y0089589D02*
Y0090808D01*
Y0091113D02*
Y0092215D01*
X0036575Y0082568D02*
Y0083102D01*
Y0083356D02*
Y0084016D01*
Y0084422D02*
Y0085789D01*
Y0086084D02*
Y0087912D01*
Y0088349D02*
Y0088852D01*
Y0089589D02*
Y0090803D01*
Y0091108D02*
Y009221D01*
X003658Y0082568D02*
Y0083102D01*
Y0083351D02*
Y0084016D01*
Y0084417D02*
Y0085784D01*
Y0086084D02*
Y0087912D01*
Y0088349D02*
Y0088852D01*
Y0089584D02*
Y0090803D01*
Y0091108D02*
Y0092205D01*
X0036586Y0082568D02*
Y0083107D01*
Y0083351D02*
Y0084011D01*
Y0084417D02*
Y0085784D01*
Y0086084D02*
Y0087912D01*
Y0088349D02*
Y0088852D01*
Y0089584D02*
Y0090803D01*
Y0091108D02*
Y00922D01*
X0036591Y0082568D02*
Y0083107D01*
Y0083346D02*
Y0084006D01*
Y0084417D02*
Y0085784D01*
Y0086084D02*
Y0087745D01*
Y0087755D02*
Y0087912D01*
Y0088349D02*
Y0088847D01*
Y0089584D02*
Y0090803D01*
Y0091103D02*
Y0092195D01*
X0036596Y0082568D02*
Y0083107D01*
Y008334D02*
Y0084001D01*
Y0084417D02*
Y0085784D01*
Y0086089D02*
Y0087745D01*
Y0087755D02*
Y0087912D01*
Y0088344D02*
Y0088847D01*
Y0089579D02*
Y0090798D01*
Y0091103D02*
Y009219D01*
X0036601Y0082573D02*
Y0083107D01*
Y008334D02*
Y0083996D01*
Y0084412D02*
Y0085779D01*
Y0086089D02*
Y0087912D01*
Y0088344D02*
Y0088847D01*
Y0089579D02*
Y0090798D01*
Y0091103D02*
Y0092185D01*
X0036606Y0082573D02*
Y0083112D01*
Y0083335D02*
Y0083991D01*
Y0084412D02*
Y0085779D01*
Y0086089D02*
Y0087912D01*
Y0088344D02*
Y0088847D01*
Y0089579D02*
Y0090798D01*
Y0091103D02*
Y009218D01*
X0036611Y0082573D02*
Y0083112D01*
Y008333D02*
Y0083991D01*
Y0084412D02*
Y0085779D01*
Y0086089D02*
Y0087912D01*
Y0088339D02*
Y0088842D01*
Y0089579D02*
Y0090798D01*
Y0091098D02*
Y0092175D01*
X0036616Y0082573D02*
Y0083112D01*
Y0083325D02*
Y0083986D01*
Y0084407D02*
Y0085779D01*
Y0086089D02*
Y0087912D01*
Y0088339D02*
Y0088842D01*
Y0089574D02*
Y0090793D01*
Y0091098D02*
Y0092169D01*
X0036621Y0082573D02*
Y0083112D01*
Y0083325D02*
Y0083981D01*
Y0084407D02*
Y0085774D01*
Y0086089D02*
Y0087912D01*
Y0088339D02*
Y0088842D01*
Y0089574D02*
Y0090793D01*
Y0091098D02*
Y0092164D01*
X0036626Y0082578D02*
Y0083112D01*
Y008332D02*
Y0083975D01*
Y0084407D02*
Y0085774D01*
Y0086089D02*
Y0087912D01*
Y0088339D02*
Y0088837D01*
Y0089574D02*
Y0090793D01*
Y0091093D02*
Y0092159D01*
X0036631Y0082578D02*
Y0083117D01*
Y0083315D02*
Y008397D01*
Y0084407D02*
Y0084885D01*
Y0084895D02*
Y0085774D01*
Y0086089D02*
Y0087912D01*
Y0088334D02*
Y0088837D01*
Y0089574D02*
Y0090793D01*
Y0091093D02*
Y0092154D01*
X0036636Y0082578D02*
Y0083117D01*
Y0083315D02*
Y0083965D01*
Y0084402D02*
Y0084885D01*
Y00849D02*
Y0085769D01*
Y0086089D02*
Y0087912D01*
Y0088334D02*
Y0088837D01*
Y0089569D02*
Y0090788D01*
Y0091093D02*
Y0092149D01*
X0036641Y0082578D02*
Y0083117D01*
Y008331D02*
Y0083965D01*
Y0084402D02*
Y0084885D01*
Y0084905D02*
Y0085769D01*
Y0086089D02*
Y0087912D01*
Y0088334D02*
Y0088837D01*
Y0089569D02*
Y0090788D01*
Y0091093D02*
Y0092144D01*
X0036646Y0082578D02*
Y0083117D01*
Y0083305D02*
Y008396D01*
Y0084402D02*
Y008488D01*
Y008491D02*
Y0085769D01*
Y0086089D02*
Y0087912D01*
Y0088329D02*
Y0088832D01*
Y0089569D02*
Y0090788D01*
Y0091087D02*
Y0092139D01*
X0036652Y0082584D02*
Y0083122D01*
Y00833D02*
Y0083955D01*
Y0084402D02*
Y008488D01*
Y0084915D02*
Y0085769D01*
Y0086089D02*
Y0087912D01*
Y0088329D02*
Y0088832D01*
Y0089569D02*
Y0090783D01*
Y0091087D02*
Y0092134D01*
X0036657Y0082584D02*
Y0083122D01*
Y00833D02*
Y008395D01*
Y0084397D02*
Y008488D01*
Y0084925D02*
Y0085764D01*
Y0086089D02*
Y0087912D01*
Y0088329D02*
Y0088832D01*
Y0089563D02*
Y0090783D01*
Y0091087D02*
Y0092129D01*
X0036662Y0082584D02*
Y0083122D01*
Y0083295D02*
Y0083945D01*
Y0084397D02*
Y008488D01*
Y008493D02*
Y0085764D01*
Y0086089D02*
Y0087902D01*
Y0088329D02*
Y0088832D01*
Y0089563D02*
Y0090783D01*
Y0091082D02*
Y0092124D01*
X0036667Y0082584D02*
Y0083122D01*
Y008329D02*
Y008394D01*
Y0084397D02*
Y0084875D01*
Y0084936D02*
Y0085764D01*
Y0086089D02*
Y0087887D01*
Y0088324D02*
Y0088827D01*
Y0089563D02*
Y0090783D01*
Y0091082D02*
Y0092119D01*
X0036672Y0082584D02*
Y0083127D01*
Y008329D02*
Y008394D01*
Y0084392D02*
Y0084875D01*
Y0084941D02*
Y0085764D01*
Y0086089D02*
Y0086957D01*
Y0086983D02*
Y0087872D01*
Y0088324D02*
Y0088827D01*
Y0089563D02*
Y0090778D01*
Y0091082D02*
Y0092114D01*
X0036677Y0082589D02*
Y0083127D01*
Y0083285D02*
Y0083935D01*
Y0084392D02*
Y0084875D01*
Y0084946D02*
Y0085759D01*
Y0086089D02*
Y0086957D01*
Y0087029D02*
Y0087857D01*
Y0088324D02*
Y0088827D01*
Y0089558D02*
Y0090778D01*
Y0091082D02*
Y0092109D01*
X0036682Y0082589D02*
Y0083127D01*
Y0083279D02*
Y008393D01*
Y0084392D02*
Y008487D01*
Y0084951D02*
Y0085759D01*
Y0086089D02*
Y0086957D01*
Y0087079D02*
Y0087841D01*
Y0088319D02*
Y0088822D01*
Y0089558D02*
Y0090778D01*
Y0091077D02*
Y0092103D01*
X0036687Y0082589D02*
Y0083127D01*
Y0083274D02*
Y0083925D01*
Y0084392D02*
Y008487D01*
Y0084956D02*
Y0085759D01*
Y0086089D02*
Y0086957D01*
Y0087125D02*
Y0087826D01*
Y0088319D02*
Y0088822D01*
Y0089558D02*
Y0090778D01*
Y0091077D02*
Y0092098D01*
X0036692Y0082589D02*
Y0083132D01*
Y0083274D02*
Y008392D01*
Y0084387D02*
Y008487D01*
Y0084961D02*
Y0085759D01*
Y0086089D02*
Y0086957D01*
Y0087176D02*
Y0087811D01*
Y0088319D02*
Y0088822D01*
Y0089553D02*
Y0090772D01*
Y0091077D02*
Y0092093D01*
X0036697Y0082589D02*
Y0083132D01*
Y0083269D02*
Y0083914D01*
Y0084387D02*
Y008487D01*
Y0084966D02*
Y0085753D01*
Y0086089D02*
Y0086957D01*
Y0087222D02*
Y0087796D01*
Y0088319D02*
Y0088822D01*
Y0089553D02*
Y0090772D01*
Y0091072D02*
Y0092088D01*
X0036702Y0082594D02*
Y0083132D01*
Y0083264D02*
Y0083914D01*
Y0084387D02*
Y0084864D01*
Y0084971D02*
Y0085753D01*
Y0086089D02*
Y0086957D01*
Y0087272D02*
Y008778D01*
Y0088314D02*
Y0088817D01*
Y0089553D02*
Y0090772D01*
Y0091072D02*
Y0092083D01*
X0036707Y0082594D02*
Y0083132D01*
Y0083264D02*
Y0083909D01*
Y0084387D02*
Y0084864D01*
Y0084976D02*
Y0085753D01*
Y0086089D02*
Y0086957D01*
Y0087323D02*
Y0087765D01*
Y0088314D02*
Y0088817D01*
Y0089553D02*
Y0090772D01*
Y0091072D02*
Y0092078D01*
X0036713Y0082594D02*
Y0083137D01*
Y0083259D02*
Y0083904D01*
Y0084382D02*
Y0084864D01*
Y0084986D02*
Y0085753D01*
Y0086089D02*
Y0086957D01*
Y0087369D02*
Y008775D01*
Y0088314D02*
Y0088817D01*
Y0089548D02*
Y0090767D01*
Y0091072D02*
Y0092073D01*
X0036718Y0082594D02*
Y0083137D01*
Y0083254D02*
Y0083899D01*
Y0084382D02*
Y0084859D01*
Y0084991D02*
Y0085748D01*
Y0086089D02*
Y0086957D01*
Y008742D02*
Y0087735D01*
Y0088314D02*
Y0088812D01*
Y0089548D02*
Y0090767D01*
Y0091067D02*
Y0092068D01*
X0036723Y0082599D02*
Y0083137D01*
Y0083249D02*
Y0083894D01*
Y0084382D02*
Y0084859D01*
Y0084997D02*
Y0085748D01*
Y0086089D02*
Y0086957D01*
Y0087465D02*
Y0087719D01*
Y0088309D02*
Y0088812D01*
Y0089548D02*
Y0090767D01*
Y0091067D02*
Y0092068D01*
X0036728Y0082599D02*
Y0083137D01*
Y0083249D02*
Y0083889D01*
Y0084377D02*
Y0084859D01*
Y0085002D02*
Y0085748D01*
Y0086094D02*
Y0086957D01*
Y0087516D02*
Y0087704D01*
Y0088309D02*
Y0088812D01*
Y0089548D02*
Y0090767D01*
Y0091067D02*
Y0092063D01*
X0036733Y0082599D02*
Y0083142D01*
Y0083244D02*
Y0083889D01*
Y0084377D02*
Y0084859D01*
Y0085007D02*
Y0085743D01*
Y0086094D02*
Y0086957D01*
Y0087562D02*
Y0087689D01*
Y0088309D02*
Y0088812D01*
Y0089543D02*
Y0090762D01*
Y0091062D02*
Y0092058D01*
X0036738Y0082599D02*
Y0083142D01*
Y0083239D02*
Y0083884D01*
Y0084377D02*
Y0084854D01*
Y0085012D02*
Y0085743D01*
Y0086094D02*
Y0086957D01*
Y0087613D02*
Y0087684D01*
Y0088304D02*
Y0088807D01*
Y0089543D02*
Y0090762D01*
Y0091062D02*
Y0092053D01*
X0036743Y0082599D02*
Y0083142D01*
Y0083239D02*
Y0083879D01*
Y0084377D02*
Y0084854D01*
Y0085017D02*
Y0085743D01*
Y0086094D02*
Y0086957D01*
Y0088304D02*
Y0088807D01*
Y0089543D02*
Y0090762D01*
Y0091062D02*
Y0092048D01*
X0036748Y0082604D02*
Y0083142D01*
Y0083234D02*
Y0083874D01*
Y0084372D02*
Y0084854D01*
Y0085022D02*
Y0085743D01*
Y0086094D02*
Y0086957D01*
Y0088304D02*
Y0088807D01*
Y0089543D02*
Y0090757D01*
Y0091062D02*
Y0092042D01*
X0036753Y0082604D02*
Y0083142D01*
Y0083229D02*
Y0083869D01*
Y0084372D02*
Y0084854D01*
Y0085027D02*
Y0085738D01*
Y0086094D02*
Y0086957D01*
Y0088304D02*
Y0088807D01*
Y0089538D02*
Y0090757D01*
Y0091057D02*
Y0092037D01*
X0036758Y0082604D02*
Y0083147D01*
Y0083224D02*
Y0083864D01*
Y0084372D02*
Y0084849D01*
Y0085032D02*
Y0085738D01*
Y0086094D02*
Y0086957D01*
Y0088299D02*
Y0088801D01*
Y0089538D02*
Y0090757D01*
Y0091057D02*
Y0092032D01*
X0036763Y0082604D02*
Y0083147D01*
Y0083224D02*
Y0083864D01*
Y0084372D02*
Y0084849D01*
Y0085042D02*
Y0085738D01*
Y0086094D02*
Y0086957D01*
Y0088299D02*
Y0088801D01*
Y0089538D02*
Y0090757D01*
Y0091057D02*
Y0092027D01*
X0036768Y0082604D02*
Y0083147D01*
Y0083219D02*
Y0083859D01*
Y0084367D02*
Y0084849D01*
Y0085047D02*
Y0085738D01*
Y0086094D02*
Y0086957D01*
Y0088299D02*
Y0088801D01*
Y0089533D02*
Y0090752D01*
Y0091052D02*
Y0092022D01*
X0036773Y0082609D02*
Y0083147D01*
Y0083213D02*
Y0083854D01*
Y0084367D02*
Y0084844D01*
Y0085052D02*
Y0085733D01*
Y0086094D02*
Y0086957D01*
Y0088293D02*
Y0088796D01*
Y0089533D02*
Y0090752D01*
Y0091052D02*
Y0092017D01*
X0036779Y0082609D02*
Y0083152D01*
Y0083213D02*
Y0083848D01*
Y0084367D02*
Y0084844D01*
Y0085057D02*
Y0085733D01*
Y0086094D02*
Y0086957D01*
Y0088293D02*
Y0088796D01*
Y0089533D02*
Y0090752D01*
Y0091052D02*
Y0092012D01*
X0036784Y0082609D02*
Y0083152D01*
Y0083208D02*
Y0083843D01*
Y0084362D02*
Y0084844D01*
Y0085063D02*
Y0085733D01*
Y0086094D02*
Y0086957D01*
Y0088293D02*
Y0088796D01*
Y0089533D02*
Y0090752D01*
Y0091052D02*
Y0092007D01*
X0036789Y0082609D02*
Y0083152D01*
Y0083203D02*
Y0083843D01*
Y0084362D02*
Y0084844D01*
Y0085068D02*
Y0085733D01*
Y0086094D02*
Y0086957D01*
Y0088293D02*
Y0088796D01*
Y0089528D02*
Y0090747D01*
Y0091047D02*
Y0092002D01*
X0036794Y0082609D02*
Y0083152D01*
Y0083198D02*
Y0083838D01*
Y0084362D02*
Y0084839D01*
Y0085073D02*
Y0085728D01*
Y0086094D02*
Y0086957D01*
Y0088288D02*
Y0088791D01*
Y0089528D02*
Y0090747D01*
Y0091047D02*
Y0091997D01*
X0036799Y0082614D02*
Y0083158D01*
Y0083198D02*
Y0083833D01*
Y0084362D02*
Y0084839D01*
Y0085078D02*
Y0085728D01*
Y0086094D02*
Y0086957D01*
Y0088288D02*
Y0088791D01*
Y0089528D02*
Y0090747D01*
Y0091047D02*
Y0091992D01*
X0036804Y0082614D02*
Y0083158D01*
Y0083193D02*
Y0083828D01*
Y0084356D02*
Y0084839D01*
Y0085083D02*
Y0085728D01*
Y0086094D02*
Y0086957D01*
Y0088288D02*
Y0088791D01*
Y0089528D02*
Y0090747D01*
Y0091042D02*
Y0091987D01*
X0036809Y0082614D02*
Y0083158D01*
Y0083188D02*
Y0083823D01*
Y0084356D02*
Y0084834D01*
Y0085088D02*
Y0085723D01*
Y0086094D02*
Y0086957D01*
Y0088283D02*
Y0088786D01*
Y0089523D02*
Y0090742D01*
Y0091042D02*
Y0091982D01*
X0036814Y0082614D02*
Y0083158D01*
Y0083188D02*
Y0083818D01*
Y0084356D02*
Y0084834D01*
Y0085093D02*
Y0085723D01*
Y0086094D02*
Y0086957D01*
Y0088283D02*
Y0088786D01*
Y0089523D02*
Y0090742D01*
Y0091042D02*
Y0091987D01*
X0036819Y0082614D02*
Y0083163D01*
Y0083183D02*
Y0083818D01*
Y0084356D02*
Y0084834D01*
Y0085103D02*
Y0085723D01*
Y0086094D02*
Y0086957D01*
Y0088283D02*
Y0088786D01*
Y0089523D02*
Y0090742D01*
Y0091042D02*
Y0091987D01*
X0036824Y0082619D02*
Y0083163D01*
Y0083178D02*
Y0083813D01*
Y0084351D02*
Y0084834D01*
Y0085108D02*
Y0085723D01*
Y0086094D02*
Y0086851D01*
Y0086861D02*
Y0086957D01*
Y0088283D02*
Y0088786D01*
Y0089523D02*
Y0090742D01*
Y0091037D02*
Y0091992D01*
X0036829Y0082619D02*
Y0083163D01*
Y0083173D02*
Y0083808D01*
Y0084351D02*
Y0084829D01*
Y0085113D02*
Y0085718D01*
Y0086094D02*
Y0086851D01*
Y0086861D02*
Y0086957D01*
Y0088278D02*
Y0088781D01*
Y0089518D02*
Y0090737D01*
Y0091037D02*
Y0091992D01*
X0036834Y0082619D02*
Y0083163D01*
Y0083173D02*
Y0083803D01*
Y0084351D02*
Y0084829D01*
Y0085118D02*
Y0085718D01*
Y0086094D02*
Y0086871D01*
Y0086881D02*
Y0086957D01*
Y0088278D02*
Y0088781D01*
Y0089518D02*
Y0090737D01*
Y0091037D02*
Y0091997D01*
X003684Y0082619D02*
Y0083798D01*
Y0084346D02*
Y0084829D01*
Y0085124D02*
Y0085718D01*
Y0086094D02*
Y0086871D01*
Y0086881D02*
Y0086957D01*
Y0088278D02*
Y0088781D01*
Y0089518D02*
Y0090737D01*
Y0091032D02*
Y0091997D01*
X0036845Y0082619D02*
Y0083793D01*
Y0084346D02*
Y0084824D01*
Y0085129D02*
Y0085718D01*
Y0086094D02*
Y0086957D01*
Y0088278D02*
Y0088781D01*
Y0089513D02*
Y0090732D01*
Y0091032D02*
Y0092002D01*
X003685Y0082624D02*
Y0083793D01*
Y0084346D02*
Y0084824D01*
Y0085134D02*
Y0085713D01*
Y0086094D02*
Y0086968D01*
Y0088273D02*
Y0088776D01*
Y0089513D02*
Y0090732D01*
Y0091032D02*
Y0092002D01*
X0036855Y0082624D02*
Y0083787D01*
Y0084346D02*
Y0084824D01*
Y0085139D02*
Y0085713D01*
Y0086099D02*
Y0086835D01*
Y0086841D02*
Y0087008D01*
Y0088273D02*
Y0088776D01*
Y0089513D02*
Y0090732D01*
Y0091032D02*
Y0092007D01*
X003686Y0082624D02*
Y0083782D01*
Y0084341D02*
Y0084824D01*
Y0085144D02*
Y0085713D01*
Y0086099D02*
Y0086835D01*
Y0086841D02*
Y0087049D01*
Y0088273D02*
Y0088776D01*
Y0089513D02*
Y0090732D01*
Y0091026D02*
Y0092007D01*
X0036865Y0082624D02*
Y0083777D01*
Y0084341D02*
Y0084819D01*
Y0085149D02*
Y0085713D01*
Y0086099D02*
Y0087095D01*
Y0088268D02*
Y0088771D01*
Y0089508D02*
Y0090727D01*
Y0091026D02*
Y0092012D01*
X003687Y0082624D02*
Y0083772D01*
Y0084341D02*
Y0084819D01*
Y0085154D02*
Y0085708D01*
Y0086099D02*
Y0087135D01*
Y0088268D02*
Y0088771D01*
Y0089508D02*
Y0090727D01*
Y0091026D02*
Y0092012D01*
X0036875Y0082629D02*
Y0083767D01*
Y0084341D02*
Y0084819D01*
Y0085164D02*
Y0085708D01*
Y0086099D02*
Y0087176D01*
Y0088268D02*
Y0088771D01*
Y0089508D02*
Y0090727D01*
Y0091021D02*
Y0092017D01*
X003688Y0082629D02*
Y0083767D01*
Y0084336D02*
Y0084819D01*
Y0085169D02*
Y0085708D01*
Y0086099D02*
Y0087216D01*
Y0088268D02*
Y0088771D01*
Y0089508D02*
Y0090727D01*
Y0091021D02*
Y0092017D01*
X0036885Y0082629D02*
Y0083762D01*
Y0084336D02*
Y0084814D01*
Y0085174D02*
Y0085708D01*
Y0086099D02*
Y008678D01*
Y0086785D02*
Y0087262D01*
Y0088263D02*
Y0088766D01*
Y0089502D02*
Y0090722D01*
Y0091021D02*
Y0092022D01*
X003689Y0082629D02*
Y0083757D01*
Y0084336D02*
Y0084814D01*
Y0085179D02*
Y0085703D01*
Y0086099D02*
Y008678D01*
Y008679D02*
Y0087303D01*
Y0088263D02*
Y0088766D01*
Y0089502D02*
Y0090722D01*
Y0091021D02*
Y0092022D01*
X0036895Y0082634D02*
Y0083752D01*
Y0084331D02*
Y0084814D01*
Y0085184D02*
Y0085703D01*
Y0086099D02*
Y0087343D01*
Y0088263D02*
Y0088766D01*
Y0089502D02*
Y0090722D01*
Y0091016D02*
Y0092027D01*
X00369Y0082634D02*
Y0083747D01*
Y0084331D02*
Y0084809D01*
Y008519D02*
Y0085703D01*
Y0086099D02*
Y0087384D01*
Y0088258D02*
Y0088761D01*
Y0089502D02*
Y0090722D01*
Y0091016D02*
Y0092027D01*
X0036906Y0082634D02*
Y0083742D01*
Y0084331D02*
Y0084809D01*
Y008519D02*
Y0085698D01*
Y0086099D02*
Y0087425D01*
Y0088258D02*
Y0088761D01*
Y0089497D02*
Y0090717D01*
Y0091016D02*
Y0091514D01*
Y0091519D02*
Y0092032D01*
X0036911Y0082634D02*
Y0083742D01*
Y0084331D02*
Y0084809D01*
Y0085184D02*
Y0085698D01*
Y0086099D02*
Y0087465D01*
Y0088258D02*
Y0088761D01*
Y0089497D02*
Y0090046D01*
Y0091011D02*
Y0091514D01*
Y0091524D02*
Y0092032D01*
X0036916Y0082634D02*
Y0083737D01*
Y0084326D02*
Y0084809D01*
Y0085184D02*
Y0085698D01*
Y0086099D02*
Y0087511D01*
Y0088258D02*
Y0088761D01*
Y0089497D02*
Y0090046D01*
Y0091011D02*
Y0091509D01*
Y0091524D02*
Y0092037D01*
X0036921Y0082639D02*
Y0083732D01*
Y0084326D02*
Y0084803D01*
Y0085184D02*
Y0085698D01*
Y0086099D02*
Y0087552D01*
Y0088253D02*
Y0088756D01*
Y0089492D02*
Y0090046D01*
Y0091011D02*
Y0091509D01*
Y0091529D02*
Y0092037D01*
X0036926Y0082639D02*
Y0083727D01*
Y0084326D02*
Y0084803D01*
Y0085184D02*
Y0085692D01*
Y0086099D02*
Y0087592D01*
Y0088253D02*
Y0088756D01*
Y0089492D02*
Y0090041D01*
Y0091006D02*
Y0091509D01*
Y0091529D02*
Y0092042D01*
X0036931Y0082639D02*
Y0083721D01*
Y0084326D02*
Y0084803D01*
Y0085179D02*
Y0085692D01*
Y0086099D02*
Y0087018D01*
Y0087023D02*
Y0087633D01*
Y0088253D02*
Y0088756D01*
Y0089492D02*
Y0090041D01*
Y0091006D02*
Y0091509D01*
Y0091534D02*
Y0092042D01*
X0036936Y0082639D02*
Y0083716D01*
Y0084321D02*
Y0084798D01*
Y0085179D02*
Y0085692D01*
Y0086099D02*
Y0087674D01*
Y0088248D02*
Y0088756D01*
Y0089492D02*
Y0090041D01*
Y0091006D02*
Y0091504D01*
Y0091534D02*
Y0092048D01*
X0036941Y0082639D02*
Y0083716D01*
Y0084321D02*
Y0084798D01*
Y0085179D02*
Y0085692D01*
Y0086099D02*
Y0087084D01*
Y0087095D02*
Y0087115D01*
Y0087125D02*
Y0087714D01*
Y0088248D02*
Y0088751D01*
Y0089487D02*
Y0090041D01*
Y0091006D02*
Y0091504D01*
Y009154D02*
Y0092053D01*
X0036946Y0082644D02*
Y0083711D01*
Y0084321D02*
Y0084798D01*
Y0085174D02*
Y0085687D01*
Y0086099D02*
Y0086912D01*
Y0086922D02*
Y008776D01*
Y0088248D02*
Y0088751D01*
Y0089487D02*
Y0090036D01*
Y0091001D02*
Y0091504D01*
Y009154D02*
Y0092053D01*
X0036951Y0082644D02*
Y0083706D01*
Y0084321D02*
Y0084798D01*
Y0085174D02*
Y0085687D01*
Y0086099D02*
Y0086912D01*
Y0086922D02*
Y0087801D01*
Y0088248D02*
Y0088751D01*
Y0089487D02*
Y0090036D01*
Y0091001D02*
Y0091499D01*
Y0091545D02*
Y0092058D01*
X0036956Y0082644D02*
Y0083701D01*
Y0084316D02*
Y0084793D01*
Y0085174D02*
Y0085687D01*
Y0086099D02*
Y0087841D01*
Y0088243D02*
Y0088746D01*
Y0089487D02*
Y0090036D01*
Y0091001D02*
Y0091499D01*
Y0091545D02*
Y0092058D01*
X0036961Y0082644D02*
Y0083696D01*
Y0084316D02*
Y0084793D01*
Y0085174D02*
Y0085687D01*
Y0086099D02*
Y0087882D01*
Y0088243D02*
Y0088746D01*
Y0089482D02*
Y0090036D01*
Y0090996D02*
Y0091499D01*
Y009155D02*
Y0092063D01*
X0036967Y0082644D02*
Y0083691D01*
Y0084316D02*
Y0084793D01*
Y0085169D02*
Y0085682D01*
Y0086099D02*
Y0086952D01*
Y0086957D02*
Y0087923D01*
Y0088243D02*
Y0088746D01*
Y0089482D02*
Y0090031D01*
Y0090996D02*
Y0091499D01*
Y009155D02*
Y0092063D01*
X0036972Y008265D02*
Y0083691D01*
Y0084311D02*
Y0084788D01*
Y0085169D02*
Y0085682D01*
Y0086099D02*
Y0086841D01*
Y0086851D02*
Y0086952D01*
Y0086962D02*
Y0087963D01*
Y0088238D02*
Y0088746D01*
Y0089482D02*
Y0090031D01*
Y0090996D02*
Y0091494D01*
Y0091555D02*
Y0092068D01*
X0036977Y008265D02*
Y0083686D01*
Y0084311D02*
Y0084788D01*
Y0085169D02*
Y0085682D01*
Y0086099D02*
Y0086835D01*
Y0086851D02*
Y0086871D01*
Y0086881D02*
Y0087176D01*
Y0087186D02*
Y0088009D01*
Y0088238D02*
Y008874D01*
Y0089482D02*
Y0090031D01*
Y0090996D02*
Y0091494D01*
Y0091555D02*
Y0092068D01*
X0036982Y008265D02*
Y0083681D01*
Y0084311D02*
Y0084788D01*
Y0085164D02*
Y0085677D01*
Y0086104D02*
Y008683D01*
Y0086851D02*
Y0086871D01*
Y0086881D02*
Y0087176D01*
Y0087186D02*
Y008741D01*
Y008742D02*
Y0088045D01*
Y0088238D02*
Y008874D01*
Y0089477D02*
Y0090026D01*
Y0090991D02*
Y0091494D01*
Y009156D02*
Y0092073D01*
X0036987Y008265D02*
Y0083676D01*
Y0084311D02*
Y0084788D01*
Y0085164D02*
Y0085677D01*
Y0086104D02*
Y008805D01*
Y0088238D02*
Y008874D01*
Y0089477D02*
Y0090026D01*
Y0090991D02*
Y0091489D01*
Y009156D02*
Y0092073D01*
X0036992Y008265D02*
Y0083671D01*
Y0084306D02*
Y0084783D01*
Y0085164D02*
Y0085677D01*
Y0086104D02*
Y0088055D01*
Y0088232D02*
Y0088735D01*
Y0089477D02*
Y0090026D01*
Y0090991D02*
Y0091489D01*
Y0091565D02*
Y0092078D01*
X0036997Y0082655D02*
Y0083666D01*
Y0084306D02*
Y0084783D01*
Y0085164D02*
Y0085677D01*
Y0086104D02*
Y0088055D01*
Y0088232D02*
Y0088735D01*
Y0089477D02*
Y0090026D01*
Y0090986D02*
Y0091489D01*
Y0091565D02*
Y0092078D01*
X0037002Y0082655D02*
Y0083666D01*
Y0084306D02*
Y0084783D01*
Y0085159D02*
Y0085672D01*
Y0086104D02*
Y0086785D01*
Y008679D02*
Y0087603D01*
Y0087613D02*
Y0088055D01*
Y0088232D02*
Y0088735D01*
Y0089472D02*
Y0090021D01*
Y0090986D02*
Y0091489D01*
Y009157D02*
Y0092083D01*
X0037007Y0082655D02*
Y008366D01*
Y0084306D02*
Y0084778D01*
Y0085159D02*
Y0085672D01*
Y0086104D02*
Y0088055D01*
Y0088232D02*
Y0088735D01*
Y0089472D02*
Y0090021D01*
Y0090986D02*
Y0091484D01*
Y009157D02*
Y0092083D01*
X0037012Y0082655D02*
Y0083655D01*
Y0084301D02*
Y0084778D01*
Y0085159D02*
Y0085672D01*
Y0086104D02*
Y0087664D01*
Y0087674D02*
Y0087694D01*
Y0087704D02*
Y0088055D01*
Y0088227D02*
Y008873D01*
Y0089472D02*
Y0090021D01*
Y0090986D02*
Y0091484D01*
Y0091575D02*
Y0092088D01*
X0037017Y0082655D02*
Y008365D01*
Y0084301D02*
Y0084778D01*
Y0085159D02*
Y0085672D01*
Y0086104D02*
Y0086764D01*
Y0086769D02*
Y0086871D01*
Y0086881D02*
Y0087633D01*
Y0087643D02*
Y0088055D01*
Y0088227D02*
Y008873D01*
Y0089467D02*
Y0090016D01*
Y0090981D02*
Y0091484D01*
Y0091575D02*
Y0092088D01*
X0037022Y008266D02*
Y0083645D01*
Y0084301D02*
Y0084778D01*
Y0085154D02*
Y0085667D01*
Y0086104D02*
Y0086759D01*
Y0086764D02*
Y0086871D01*
Y0086881D02*
Y0087633D01*
Y0087643D02*
Y0088055D01*
Y0088227D02*
Y008873D01*
Y0089467D02*
Y0090016D01*
Y0090981D02*
Y0091479D01*
Y009158D02*
Y0092093D01*
X0037027Y008266D02*
Y008364D01*
Y0084295D02*
Y0084773D01*
Y0085154D02*
Y0085667D01*
Y0086104D02*
Y008683D01*
Y0086841D02*
Y0088055D01*
Y0088222D02*
Y008873D01*
Y0089467D02*
Y0090016D01*
Y0090981D02*
Y0091479D01*
Y009158D02*
Y0092093D01*
X0037033Y008266D02*
Y008364D01*
Y0084295D02*
Y0084773D01*
Y0085154D02*
Y0085667D01*
Y0086104D02*
Y008683D01*
Y0086841D02*
Y0088055D01*
Y0088222D02*
Y0088725D01*
Y0089467D02*
Y0090016D01*
Y0090976D02*
Y0091479D01*
Y0091585D02*
Y0092098D01*
X0037038Y008266D02*
Y0083635D01*
Y0084295D02*
Y0084773D01*
Y0085149D02*
Y0085667D01*
Y0086104D02*
Y0088055D01*
Y0088222D02*
Y0088725D01*
Y0089462D02*
Y009001D01*
Y0090976D02*
Y0091479D01*
Y0091585D02*
Y0092098D01*
X0037043Y008266D02*
Y008363D01*
Y0084295D02*
Y0084773D01*
Y0085149D02*
Y0085662D01*
Y0086104D02*
Y0088055D01*
Y0088222D02*
Y0088725D01*
Y0089462D02*
Y009001D01*
Y0090976D02*
Y0091474D01*
Y009159D02*
Y0092103D01*
X0037048Y0082665D02*
Y0083625D01*
Y008429D02*
Y0084768D01*
Y0085149D02*
Y0085662D01*
Y0086104D02*
Y0086861D01*
Y0086866D02*
Y0088055D01*
Y0088217D02*
Y008872D01*
Y0089462D02*
Y009001D01*
Y0090976D02*
Y0091474D01*
Y009159D02*
Y0092103D01*
X0037053Y0082665D02*
Y008362D01*
Y008429D02*
Y0084768D01*
Y0085149D02*
Y0085662D01*
Y0086104D02*
Y0088055D01*
Y0088217D02*
Y008872D01*
Y0089462D02*
Y0090005D01*
Y0090971D02*
Y0091474D01*
Y0091595D02*
Y0092109D01*
X0037058Y0082665D02*
Y0083615D01*
Y008429D02*
Y0084768D01*
Y0085144D02*
Y0085662D01*
Y0086104D02*
Y0087735D01*
Y0087755D02*
Y008778D01*
Y0087785D02*
Y0088055D01*
Y0088217D02*
Y008872D01*
Y0089457D02*
Y0090005D01*
Y0090971D02*
Y0091468D01*
Y0091595D02*
Y0092109D01*
X0037063Y0082665D02*
Y0083615D01*
Y008429D02*
Y0084763D01*
Y0085144D02*
Y0085657D01*
Y0086104D02*
Y0087735D01*
Y0087755D02*
Y0088055D01*
Y0088212D02*
Y008872D01*
Y0089457D02*
Y0090005D01*
Y0090971D02*
Y0091468D01*
Y0091601D02*
Y0092114D01*
X0037068Y008267D02*
Y008361D01*
Y0084285D02*
Y0084763D01*
Y0085144D02*
Y0085657D01*
Y0086104D02*
Y0087115D01*
Y0087125D02*
Y0087247D01*
Y0087267D02*
Y0088055D01*
Y0088212D02*
Y0088715D01*
Y0089457D02*
Y0090005D01*
Y0090966D02*
Y0091468D01*
Y0091601D02*
Y0092114D01*
X0037073Y008267D02*
Y0083605D01*
Y0084285D02*
Y0084763D01*
Y0085139D02*
Y0085657D01*
Y0086104D02*
Y0087115D01*
Y0087125D02*
Y0087247D01*
Y0087267D02*
Y0088055D01*
Y0088212D02*
Y0088715D01*
Y0089457D02*
Y009D01*
Y0090966D02*
Y0091468D01*
Y0091606D02*
Y0092119D01*
X0037078Y008267D02*
Y00836D01*
Y0084285D02*
Y0084763D01*
Y0085139D02*
Y0085652D01*
Y0086104D02*
Y0087166D01*
Y0087171D02*
Y008741D01*
Y008742D02*
Y0088055D01*
Y0088212D02*
Y0088715D01*
Y0089452D02*
Y009D01*
Y0090966D02*
Y0091463D01*
Y0091606D02*
Y0092119D01*
X0037083Y008267D02*
Y0083594D01*
Y008428D02*
Y0084758D01*
Y0085139D02*
Y0085652D01*
Y0086104D02*
Y0087166D01*
Y0087171D02*
Y008741D01*
Y008742D02*
Y0088055D01*
Y0088207D02*
Y008871D01*
Y0089452D02*
Y009D01*
Y0090966D02*
Y0091463D01*
Y0091611D02*
Y0092124D01*
X0037088Y008267D02*
Y0083589D01*
Y008428D02*
Y0084758D01*
Y0085139D02*
Y0085652D01*
Y0086104D02*
Y0088055D01*
Y0088207D02*
Y008871D01*
Y0089452D02*
Y0089995D01*
Y009096D02*
Y0091463D01*
Y0091611D02*
Y0092124D01*
X0037094Y0082675D02*
Y0083589D01*
Y008428D02*
Y0084758D01*
Y0085134D02*
Y0085652D01*
Y0086104D02*
Y0088055D01*
Y0088207D02*
Y008871D01*
Y0089447D02*
Y0089995D01*
Y009096D02*
Y0091458D01*
Y0091616D02*
Y0092129D01*
X0037099Y0082675D02*
Y0083584D01*
Y008428D02*
Y0084753D01*
Y0085134D02*
Y0085647D01*
Y0086104D02*
Y0087349D01*
Y0087359D02*
Y008741D01*
Y008742D02*
Y0088055D01*
Y0088202D02*
Y008871D01*
Y0089447D02*
Y0089995D01*
Y009096D02*
Y0091458D01*
Y0091616D02*
Y0092129D01*
X0037104Y0082675D02*
Y0083579D01*
Y0084275D02*
Y0084753D01*
Y0085134D02*
Y0085647D01*
Y0086104D02*
Y0087349D01*
Y0087359D02*
Y008741D01*
Y008742D02*
Y0088055D01*
Y0088202D02*
Y0088705D01*
Y0089447D02*
Y0090656D01*
Y0090955D02*
Y0091458D01*
Y0091621D02*
Y0092134D01*
X0037109Y0082675D02*
Y0083574D01*
Y0084275D02*
Y0084753D01*
Y0085134D02*
Y0085647D01*
Y0086109D02*
Y0087237D01*
Y0087242D02*
Y0088055D01*
Y0088202D02*
Y0088705D01*
Y0089447D02*
Y0090656D01*
Y0090955D02*
Y0091458D01*
Y0091621D02*
Y0092134D01*
X0037114Y0082675D02*
Y0083569D01*
Y0084275D02*
Y0084753D01*
Y0085129D02*
Y0085647D01*
Y0086109D02*
Y0088055D01*
Y0088202D02*
Y0088705D01*
Y0089442D02*
Y0090656D01*
Y0090955D02*
Y0091453D01*
Y0091626D02*
Y0092139D01*
X0037119Y008268D02*
Y0083564D01*
Y0084275D02*
Y0084748D01*
Y0085129D02*
Y0085642D01*
Y0086109D02*
Y0088055D01*
Y0088197D02*
Y0088705D01*
Y0089442D02*
Y0090656D01*
Y0090955D02*
Y0091453D01*
Y0091626D02*
Y0092139D01*
X0037124Y008268D02*
Y0083564D01*
Y008427D02*
Y0084748D01*
Y0085129D02*
Y0085642D01*
Y0086109D02*
Y0088055D01*
Y0088197D02*
Y0089391D01*
Y0089442D02*
Y0090656D01*
Y009095D02*
Y0091453D01*
Y0091631D02*
Y0092144D01*
X0037129Y008268D02*
Y0083559D01*
Y008427D02*
Y0084748D01*
Y0085124D02*
Y0085642D01*
Y0086109D02*
Y0088055D01*
Y0088197D02*
Y0089386D01*
Y0089442D02*
Y0090651D01*
Y009095D02*
Y0091448D01*
Y0091631D02*
Y0092144D01*
X0037134Y008268D02*
Y0083554D01*
Y008427D02*
Y0084743D01*
Y0085124D02*
Y0085642D01*
Y0086109D02*
Y0088055D01*
Y0088197D02*
Y0089381D01*
Y0089436D02*
Y0090651D01*
Y009095D02*
Y0091448D01*
Y0091636D02*
Y0092149D01*
X0037139Y008268D02*
Y0083549D01*
Y0084265D02*
Y0084743D01*
Y0085124D02*
Y0085637D01*
Y0086109D02*
Y0087831D01*
Y0087836D02*
Y008805D01*
Y0088192D02*
Y0089375D01*
Y0089436D02*
Y0090651D01*
Y0090945D02*
Y0091448D01*
Y0091636D02*
Y0092149D01*
X0037144Y0082685D02*
Y0083544D01*
Y0084265D02*
Y0084743D01*
Y0085124D02*
Y0085637D01*
Y0086109D02*
Y0087826D01*
Y0087836D02*
Y008805D01*
Y0088192D02*
Y0089375D01*
Y0089436D02*
Y0090651D01*
Y0090945D02*
Y0091448D01*
Y0091641D02*
Y0092154D01*
X0037149Y0082685D02*
Y0083539D01*
Y0084265D02*
Y0084743D01*
Y0085118D02*
Y0085637D01*
Y0086109D02*
Y0087628D01*
Y0087633D02*
Y008805D01*
Y0088192D02*
Y008937D01*
Y0089436D02*
Y0090645D01*
Y0090945D02*
Y0091443D01*
Y0091641D02*
Y0092154D01*
X0037154Y0082685D02*
Y0083539D01*
Y0084265D02*
Y0084737D01*
Y0085118D02*
Y0085632D01*
Y0086109D02*
Y0087623D01*
Y0087633D02*
Y008805D01*
Y0088187D02*
Y0089365D01*
Y0089431D02*
Y0090645D01*
Y0090945D02*
Y0091443D01*
Y0091646D02*
Y0092159D01*
X003716Y0082685D02*
Y0083533D01*
Y008426D02*
Y0084737D01*
Y0085118D02*
Y0085632D01*
Y0086109D02*
Y008805D01*
Y0088187D02*
Y008936D01*
Y0089431D02*
Y0090645D01*
Y009094D02*
Y0091443D01*
Y0091646D02*
Y0092159D01*
X0037165Y0082685D02*
Y0083528D01*
Y008426D02*
Y0084737D01*
Y0085113D02*
Y0085632D01*
Y0086109D02*
Y008805D01*
Y0088187D02*
Y0089355D01*
Y0089431D02*
Y0090645D01*
Y009094D02*
Y0091438D01*
Y0091651D02*
Y0092164D01*
X003717Y008269D02*
Y0083523D01*
Y008426D02*
Y0084737D01*
Y0085113D02*
Y0085632D01*
Y0086109D02*
Y008805D01*
Y0088187D02*
Y008935D01*
Y0089426D02*
Y009064D01*
Y009094D02*
Y0091438D01*
Y0091651D02*
Y0092164D01*
X0037175Y008269D02*
Y0083518D01*
Y008426D02*
Y0084732D01*
Y0085113D02*
Y0085626D01*
Y0086109D02*
Y008805D01*
Y0088182D02*
Y008935D01*
Y0089426D02*
Y009064D01*
Y0090935D02*
Y0091438D01*
Y0091656D02*
Y0092169D01*
X003718Y008269D02*
Y0083513D01*
Y0084255D02*
Y0084732D01*
Y0085113D02*
Y0085626D01*
Y0086109D02*
Y008805D01*
Y0088182D02*
Y0089345D01*
Y0089426D02*
Y009064D01*
Y0090935D02*
Y0091438D01*
Y0091656D02*
Y0092169D01*
X0037185Y008269D02*
Y0083513D01*
Y0084255D02*
Y0084732D01*
Y0085108D02*
Y0085626D01*
Y0086109D02*
Y008805D01*
Y0088182D02*
Y008934D01*
Y0089426D02*
Y0090635D01*
Y0090935D02*
Y0091433D01*
Y0091661D02*
Y0092175D01*
X003719Y008269D02*
Y0083508D01*
Y0084255D02*
Y0084727D01*
Y0085108D02*
Y0085626D01*
Y0086109D02*
Y008805D01*
Y0088177D02*
Y0089335D01*
Y0089421D02*
Y0090635D01*
Y0090935D02*
Y0091433D01*
Y0091661D02*
Y009218D01*
X0037195Y0082695D02*
Y0083503D01*
Y008425D02*
Y0084727D01*
Y0085108D02*
Y0085621D01*
Y0086109D02*
Y008805D01*
Y0088177D02*
Y008933D01*
Y0089421D02*
Y0090635D01*
Y009093D02*
Y0091433D01*
Y0091667D02*
Y009218D01*
X00372Y0082695D02*
Y0083498D01*
Y008425D02*
Y0084727D01*
Y0085108D02*
Y0085621D01*
Y0086109D02*
Y008805D01*
Y0088177D02*
Y008933D01*
Y0089421D02*
Y0090635D01*
Y009093D02*
Y0091428D01*
Y0091667D02*
Y0092185D01*
X0037205Y0082695D02*
Y0083493D01*
Y008425D02*
Y0084727D01*
Y0085103D02*
Y0085621D01*
Y0086109D02*
Y008805D01*
Y0088177D02*
Y0089325D01*
Y0089421D02*
Y009063D01*
Y009093D02*
Y0091428D01*
Y0091672D02*
Y0092185D01*
X003721Y0082695D02*
Y0083488D01*
Y008425D02*
Y0084722D01*
Y0085103D02*
Y0085621D01*
Y0086109D02*
Y008805D01*
Y0088172D02*
Y008932D01*
Y0089416D02*
Y009063D01*
Y0090925D02*
Y0091428D01*
Y0091672D02*
Y009219D01*
X0037215Y0082695D02*
Y0083488D01*
Y0084245D02*
Y0084722D01*
Y0085103D02*
Y0085616D01*
Y0086109D02*
Y008805D01*
Y0088172D02*
Y0089315D01*
Y0089416D02*
Y009063D01*
Y0090925D02*
Y0091428D01*
Y0091677D02*
Y009219D01*
X0037221Y00827D02*
Y0083483D01*
Y0084245D02*
Y0084722D01*
Y0085098D02*
Y0085616D01*
Y0086109D02*
Y008805D01*
Y0088172D02*
Y0089309D01*
Y0089416D02*
Y009063D01*
Y0090925D02*
Y0091423D01*
Y0091677D02*
Y0092195D01*
X0037226Y00827D02*
Y0083478D01*
Y0084245D02*
Y0084717D01*
Y0085098D02*
Y0085616D01*
Y0086109D02*
Y008805D01*
Y0088166D02*
Y0089304D01*
Y0089416D02*
Y0090625D01*
Y0090925D02*
Y0091423D01*
Y0091682D02*
Y0092195D01*
X0037231Y00827D02*
Y0083473D01*
Y0084245D02*
Y0084717D01*
Y0085098D02*
Y0085616D01*
Y0086109D02*
Y008805D01*
Y0088166D02*
Y0089304D01*
Y0089411D02*
Y0090625D01*
Y009092D02*
Y0091423D01*
Y0091682D02*
Y00922D01*
X0037236Y00827D02*
Y0083467D01*
Y008424D02*
Y0084717D01*
Y0085098D02*
Y0085611D01*
Y0086114D02*
Y008805D01*
Y0088166D02*
Y0089299D01*
Y0089411D02*
Y0090625D01*
Y009092D02*
Y0091418D01*
Y0091687D02*
Y00922D01*
X0037241Y0082705D02*
Y0083467D01*
Y008424D02*
Y0084717D01*
Y0085093D02*
Y0085611D01*
Y0086114D02*
Y008805D01*
Y0088166D02*
Y0089294D01*
Y0089411D02*
Y009062D01*
Y009092D02*
Y0091418D01*
Y0091687D02*
Y0092205D01*
X0037246Y0082705D02*
Y0083462D01*
Y008424D02*
Y0084712D01*
Y0085093D02*
Y0085611D01*
Y0086114D02*
Y008805D01*
Y0088161D02*
Y0089289D01*
Y0089406D02*
Y009062D01*
Y0090915D02*
Y0091418D01*
Y0091692D02*
Y0092205D01*
X0037251Y0082705D02*
Y0083457D01*
Y008424D02*
Y0084712D01*
Y0085093D02*
Y0085606D01*
Y0086114D02*
Y008805D01*
Y0088161D02*
Y0089284D01*
Y0089406D02*
Y009062D01*
Y0090915D02*
Y0091418D01*
Y0091692D02*
Y009221D01*
X0037256Y0082705D02*
Y0083452D01*
Y0084235D02*
Y0084712D01*
Y0085093D02*
Y0085606D01*
Y0086114D02*
Y0087851D01*
Y0087857D02*
Y008805D01*
Y0088161D02*
Y0089284D01*
Y0089406D02*
Y009062D01*
Y0090915D02*
Y0091413D01*
Y0091697D02*
Y009221D01*
X0037261Y0082705D02*
Y0083447D01*
Y0084235D02*
Y0084707D01*
Y0085088D02*
Y0085606D01*
Y0086114D02*
Y008805D01*
Y0088161D02*
Y0089279D01*
Y0089406D02*
Y0090615D01*
Y0090915D02*
Y0091413D01*
Y0091697D02*
Y0092215D01*
X0037266Y0082711D02*
Y0083442D01*
Y0084235D02*
Y0084707D01*
Y0085088D02*
Y0085606D01*
Y0086114D02*
Y008805D01*
Y0088156D02*
Y0089274D01*
Y0089401D02*
Y0090615D01*
Y009091D02*
Y0091413D01*
Y0091702D02*
Y0092215D01*
X0037271Y0082711D02*
Y0083442D01*
Y0084229D02*
Y0084707D01*
Y0085088D02*
Y0085601D01*
Y0086114D02*
Y008805D01*
Y0088156D02*
Y0089269D01*
Y0089401D02*
Y0090615D01*
Y009091D02*
Y0091407D01*
Y0091702D02*
Y009222D01*
X0037276Y0082711D02*
Y0083437D01*
Y0084229D02*
Y0084707D01*
Y0085083D02*
Y0085601D01*
Y0086114D02*
Y008805D01*
Y0088156D02*
Y0089264D01*
Y0089401D02*
Y0090615D01*
Y009091D02*
Y0091407D01*
Y0091707D02*
Y009222D01*
X0037281Y0082711D02*
Y0083432D01*
Y0084229D02*
Y0084702D01*
Y0085083D02*
Y0085601D01*
Y0086114D02*
Y008805D01*
Y0088151D02*
Y0089264D01*
Y0089401D02*
Y009061D01*
Y0090905D02*
Y0091407D01*
Y0091707D02*
Y0092225D01*
X0037287Y0082711D02*
Y0083427D01*
Y0084229D02*
Y0084702D01*
Y0085083D02*
Y0085601D01*
Y0086114D02*
Y008805D01*
Y0088151D02*
Y0089259D01*
Y0089396D02*
Y009061D01*
Y0090905D02*
Y0091407D01*
Y0091712D02*
Y0092225D01*
X0037292Y0082716D02*
Y0083422D01*
Y0084224D02*
Y0084702D01*
Y0085083D02*
Y0085596D01*
Y0086114D02*
Y008805D01*
Y0088151D02*
Y0089254D01*
Y0089396D02*
Y009061D01*
Y0090905D02*
Y0091402D01*
Y0091712D02*
Y009223D01*
X0037297Y0082716D02*
Y0083417D01*
Y0084224D02*
Y0084697D01*
Y0085078D02*
Y0085596D01*
Y0086114D02*
Y008805D01*
Y0088151D02*
Y0089248D01*
Y0089396D02*
Y009061D01*
Y0090905D02*
Y0091402D01*
Y0091717D02*
Y009223D01*
X0037302Y0082716D02*
Y0083417D01*
Y0084224D02*
Y0084697D01*
Y0085078D02*
Y0085596D01*
Y0086114D02*
Y008805D01*
Y0088146D02*
Y0089243D01*
Y0089396D02*
Y0090605D01*
Y0090899D02*
Y0091402D01*
Y0091717D02*
Y0092236D01*
X0037307Y0082716D02*
Y0083412D01*
Y0084224D02*
Y0084697D01*
Y0085078D02*
Y0085596D01*
Y0086114D02*
Y008805D01*
Y0088146D02*
Y0089238D01*
Y0089391D02*
Y0090605D01*
Y0090899D02*
Y0091397D01*
Y0091722D02*
Y0092236D01*
X0037312Y0082716D02*
Y0083406D01*
Y0084219D02*
Y0084697D01*
Y0085073D02*
Y0085591D01*
Y0086114D02*
Y008805D01*
Y0088146D02*
Y0089238D01*
Y0089391D02*
Y0090605D01*
Y0090899D02*
Y0091397D01*
Y0091722D02*
Y0092241D01*
X0037317Y0082721D02*
Y0083401D01*
Y0084219D02*
Y0084692D01*
Y0085073D02*
Y0085591D01*
Y0086114D02*
Y0088045D01*
Y0088141D02*
Y0089233D01*
Y0089391D02*
Y00906D01*
Y0090894D02*
Y0091397D01*
Y0091728D02*
Y0092241D01*
X0037322Y0082721D02*
Y0083396D01*
Y0084219D02*
Y0084692D01*
Y0085073D02*
Y0085591D01*
Y0086114D02*
Y0088045D01*
Y0088141D02*
Y0089228D01*
Y0089391D02*
Y00906D01*
Y0090894D02*
Y0091397D01*
Y0091728D02*
Y0092246D01*
X0037327Y0082721D02*
Y0083391D01*
Y0084214D02*
Y0084692D01*
Y0085073D02*
Y0085586D01*
Y0086114D02*
Y0088045D01*
Y0088141D02*
Y0089223D01*
Y0089386D02*
Y00906D01*
Y0090894D02*
Y0091392D01*
Y0091733D02*
Y0092246D01*
X0037332Y0082721D02*
Y0083391D01*
Y0084214D02*
Y0084692D01*
Y0085068D02*
Y0085586D01*
Y0086114D02*
Y0088045D01*
Y0088141D02*
Y0089218D01*
Y0089386D02*
Y00906D01*
Y0090894D02*
Y0091392D01*
Y0091733D02*
Y0092251D01*
X0037337Y0082721D02*
Y0083386D01*
Y0084214D02*
Y0084687D01*
Y0085068D02*
Y0085586D01*
Y0086114D02*
Y0088045D01*
Y0088136D02*
Y0089218D01*
Y0089386D02*
Y0090595D01*
Y0090889D02*
Y0091392D01*
Y0091738D02*
Y0092251D01*
X0037342Y0082726D02*
Y0083381D01*
Y0084214D02*
Y0084687D01*
Y0085068D02*
Y0085586D01*
Y0086114D02*
Y0088045D01*
Y0088136D02*
Y0089213D01*
Y0089381D02*
Y0090595D01*
Y0090889D02*
Y0091387D01*
Y0091738D02*
Y0092256D01*
X0037348Y0082726D02*
Y0083376D01*
Y0084209D02*
Y0084687D01*
Y0085068D02*
Y0085581D01*
Y0086114D02*
Y0088045D01*
Y0088136D02*
Y0089208D01*
Y0089381D02*
Y0090595D01*
Y0090889D02*
Y0091387D01*
Y0091743D02*
Y0092256D01*
X0037353Y0082726D02*
Y0083371D01*
Y0084209D02*
Y0084682D01*
Y0085063D02*
Y0085581D01*
Y0086114D02*
Y0088045D01*
Y0088131D02*
Y0089203D01*
Y0089381D02*
Y0090595D01*
Y0090884D02*
Y0091387D01*
Y0091743D02*
Y0092261D01*
X0037358Y0082726D02*
Y0083366D01*
Y0084209D02*
Y0084682D01*
Y0085063D02*
Y0085581D01*
Y0086114D02*
Y0088045D01*
Y0088131D02*
Y0089198D01*
Y0089381D02*
Y009059D01*
Y0090884D02*
Y0091387D01*
Y0091748D02*
Y0092261D01*
X0037363Y0082726D02*
Y0083366D01*
Y0084209D02*
Y0084682D01*
Y0085063D02*
Y0085581D01*
Y0086119D02*
Y0088045D01*
Y0088131D02*
Y0089193D01*
Y0089375D02*
Y009059D01*
Y0090884D02*
Y0091382D01*
Y0091748D02*
Y0092266D01*
X0037368Y0082731D02*
Y0083361D01*
Y0084204D02*
Y0084682D01*
Y0085057D02*
Y0085576D01*
Y0086119D02*
Y0088045D01*
Y0088131D02*
Y0089193D01*
Y0089375D02*
Y009059D01*
Y0090884D02*
Y0091382D01*
Y0091753D02*
Y0092266D01*
X0037373Y0082731D02*
Y0083356D01*
Y0084204D02*
Y0084676D01*
Y0085057D02*
Y0085576D01*
Y0086119D02*
Y0088045D01*
Y0088126D02*
Y0089188D01*
Y0089375D02*
Y009059D01*
Y0090879D02*
Y0091382D01*
Y0091753D02*
Y0092271D01*
X0037378Y0082731D02*
Y0083351D01*
Y0084204D02*
Y0084676D01*
Y0085057D02*
Y0085576D01*
Y0086119D02*
Y0088045D01*
Y0088126D02*
Y0089182D01*
Y0089375D02*
Y0090585D01*
Y0090879D02*
Y0091377D01*
Y0091758D02*
Y0092271D01*
X0037383Y0082731D02*
Y0083346D01*
Y0084199D02*
Y0084676D01*
Y0085057D02*
Y0085576D01*
Y0086119D02*
Y0088045D01*
Y0088126D02*
Y0089177D01*
Y008937D02*
Y0090585D01*
Y0090879D02*
Y0091377D01*
Y0091758D02*
Y0092276D01*
X0037388Y0082731D02*
Y008334D01*
Y0084199D02*
Y0084671D01*
Y0085052D02*
Y0085571D01*
Y0086119D02*
Y0088045D01*
Y0088126D02*
Y0089172D01*
Y008937D02*
Y0090585D01*
Y0090874D02*
Y0091377D01*
Y0091763D02*
Y0092276D01*
X0037393Y0082736D02*
Y008334D01*
Y0084199D02*
Y0084671D01*
Y0085052D02*
Y0085571D01*
Y0086119D02*
Y0088045D01*
Y0088121D02*
Y0089172D01*
Y008937D02*
Y0090579D01*
Y0090874D02*
Y0091377D01*
Y0091763D02*
Y0092281D01*
X0037398Y0082736D02*
Y0083335D01*
Y0084199D02*
Y0084671D01*
Y0085052D02*
Y0085571D01*
Y0086119D02*
Y0088045D01*
Y0088121D02*
Y0089167D01*
Y008937D02*
Y0090579D01*
Y0090874D02*
Y0091372D01*
Y0091768D02*
Y0092281D01*
X0037403Y0082736D02*
Y008333D01*
Y0084194D02*
Y0084671D01*
Y0085047D02*
Y0085571D01*
Y0086119D02*
Y0088045D01*
Y0088121D02*
Y0089162D01*
Y0089365D02*
Y0090579D01*
Y0090874D02*
Y0091372D01*
Y0091768D02*
Y0092286D01*
X0037408Y0082736D02*
Y0083325D01*
Y0084194D02*
Y0084666D01*
Y0085047D02*
Y0085565D01*
Y0086119D02*
Y0088045D01*
Y0088116D02*
Y0089157D01*
Y0089365D02*
Y0090579D01*
Y0090869D02*
Y0091372D01*
Y0091773D02*
Y0092286D01*
X0037414Y0082741D02*
Y008332D01*
Y0084194D02*
Y0084666D01*
Y0085047D02*
Y0085565D01*
Y0086119D02*
Y0088045D01*
Y0088116D02*
Y0089152D01*
Y0089365D02*
Y0090574D01*
Y0090869D02*
Y0091367D01*
Y0091773D02*
Y0092291D01*
X0037419Y0082741D02*
Y0083315D01*
Y0084194D02*
Y0084666D01*
Y0085047D02*
Y0085565D01*
Y0086119D02*
Y0088045D01*
Y0088116D02*
Y0089152D01*
Y008936D02*
Y0090574D01*
Y0090869D02*
Y0091367D01*
Y0091778D02*
Y0092291D01*
X0037424Y0082741D02*
Y0083315D01*
Y0084189D02*
Y0084661D01*
Y0085042D02*
Y008556D01*
Y0086119D02*
Y0088045D01*
Y0088116D02*
Y0089147D01*
Y008936D02*
Y0090574D01*
Y0090864D02*
Y0091367D01*
Y0091778D02*
Y0092296D01*
X0037429Y0082741D02*
Y008331D01*
Y0084189D02*
Y0084661D01*
Y0085042D02*
Y008556D01*
Y0086119D02*
Y0088045D01*
Y0088111D02*
Y0089142D01*
Y008936D02*
Y0090574D01*
Y0090864D02*
Y0091367D01*
Y0091783D02*
Y0092296D01*
X0037434Y0082741D02*
Y0083305D01*
Y0084189D02*
Y0084661D01*
Y0085042D02*
Y008556D01*
Y0086119D02*
Y0088045D01*
Y0088111D02*
Y0089137D01*
Y008936D02*
Y0090569D01*
Y0090864D02*
Y0091362D01*
Y0091783D02*
Y0092302D01*
X0037439Y0082746D02*
Y00833D01*
Y0084184D02*
Y0084661D01*
Y0085042D02*
Y008556D01*
Y0086119D02*
Y0088045D01*
Y0088111D02*
Y0089132D01*
Y0089355D02*
Y0090569D01*
Y0090864D02*
Y0091362D01*
Y0091788D02*
Y0092302D01*
X0037444Y0082746D02*
Y0083295D01*
Y0084184D02*
Y0084656D01*
Y0085037D02*
Y0085555D01*
Y0086119D02*
Y0088045D01*
Y0088105D02*
Y0089127D01*
Y0089355D02*
Y0090569D01*
Y0090859D02*
Y0091362D01*
Y0091788D02*
Y0092307D01*
X0037449Y0082746D02*
Y008329D01*
Y0084184D02*
Y0084656D01*
Y0085037D02*
Y0085555D01*
Y0086119D02*
Y0088045D01*
Y0088105D02*
Y0089127D01*
Y0089355D02*
Y0090569D01*
Y0090859D02*
Y0091357D01*
Y0091794D02*
Y0092312D01*
X0037454Y0082746D02*
Y008329D01*
Y0084184D02*
Y0084656D01*
Y0085037D02*
Y0085555D01*
Y0086119D02*
Y0088045D01*
Y0088105D02*
Y0089121D01*
Y0089355D02*
Y0090564D01*
Y0090859D02*
Y0091357D01*
Y0091794D02*
Y0092312D01*
X0037459Y0082746D02*
Y0083285D01*
Y0084179D02*
Y0084651D01*
Y0085032D02*
Y0085555D01*
Y0086119D02*
Y0088045D01*
Y0088105D02*
Y0089116D01*
Y008935D02*
Y0090564D01*
Y0090854D02*
Y0091357D01*
Y0091799D02*
Y0092317D01*
X0037464Y0082751D02*
Y0083279D01*
Y0084179D02*
Y0084651D01*
Y0085032D02*
Y008555D01*
Y0086124D02*
Y0088045D01*
Y00881D02*
Y0089111D01*
Y008935D02*
Y0090564D01*
Y0090854D02*
Y0091357D01*
Y0091799D02*
Y0092317D01*
X0037469Y0082751D02*
Y0083274D01*
Y0084179D02*
Y0084651D01*
Y0085032D02*
Y008555D01*
Y0086124D02*
Y0088045D01*
Y00881D02*
Y0089106D01*
Y008935D02*
Y0090559D01*
Y0090854D02*
Y0091352D01*
Y0091804D02*
Y0092322D01*
X0037475Y0082751D02*
Y0083269D01*
Y0084179D02*
Y0084651D01*
Y0085032D02*
Y008555D01*
Y008614D02*
Y0088045D01*
Y00881D02*
Y0089101D01*
Y008935D02*
Y0090559D01*
Y0090854D02*
Y0091352D01*
Y0091809D02*
Y0092322D01*
X003748Y008616D02*
Y0088045D01*
X0037485Y008618D02*
Y0088045D01*
X003749Y0086206D02*
Y0088039D01*
X0037495Y0086226D02*
Y0088039D01*
X00375Y0086251D02*
Y0088039D01*
X0037505Y0086272D02*
Y0088039D01*
X003751Y0086292D02*
Y0088039D01*
X0037515Y0086317D02*
Y0088039D01*
X003752Y0086338D02*
Y0088039D01*
X0037525Y0086358D02*
Y0088039D01*
X003753Y0086383D02*
Y0088039D01*
X0037535Y0086404D02*
Y0088039D01*
X0037541Y0086429D02*
Y0088039D01*
X0037546Y0086449D02*
Y0088039D01*
X0037551Y008647D02*
Y0088039D01*
X0037556Y0086495D02*
Y0088039D01*
X0037561Y0086515D02*
Y0088039D01*
X0037566Y0086536D02*
Y0088039D01*
X0037571Y0086561D02*
Y0088039D01*
X0037576Y0086581D02*
Y0088039D01*
X0037581Y0086602D02*
Y0088039D01*
X0037586Y0086627D02*
Y0088039D01*
X0037591Y0086648D02*
Y0088039D01*
X0037596Y0086673D02*
Y0088039D01*
X0037602Y0086693D02*
Y0088039D01*
X0037607Y0086714D02*
Y0088039D01*
X0037612Y0086739D02*
Y0088039D01*
X0037617Y0086759D02*
Y0088039D01*
X0037622Y008678D02*
Y0088039D01*
X0037627Y0086805D02*
Y0088034D01*
X0037632Y0086825D02*
Y0088029D01*
X0037637Y0086846D02*
Y0087877D01*
Y0087887D02*
Y0088024D01*
X0037642Y0086871D02*
Y0087877D01*
Y0087887D02*
Y0088019D01*
X0037647Y0086891D02*
Y0088014D01*
X0037652Y0086917D02*
Y0088009D01*
X0037657Y0086937D02*
Y0088009D01*
X0037662Y0086957D02*
Y0088004D01*
X0037668Y0086983D02*
Y0087999D01*
X0037673Y0087003D02*
Y0087994D01*
X0037678Y0087023D02*
Y0087867D01*
Y0087877D02*
Y0087989D01*
X0037683Y0087049D02*
Y0087867D01*
Y0087877D02*
Y0087984D01*
X0037688Y0087069D02*
Y0087978D01*
X0037693Y0087095D02*
Y0087973D01*
X0037698Y0087115D02*
Y0087968D01*
X0037703Y0087135D02*
Y0087963D01*
X0037708Y0087161D02*
Y0087958D01*
X0037713Y0087181D02*
Y0087953D01*
X0037718Y0087201D02*
Y0087953D01*
X0037723Y0087227D02*
Y0087948D01*
X0037729Y0087247D02*
Y0087943D01*
X0037734Y0087267D02*
Y0087938D01*
X0037739Y0087293D02*
Y0087933D01*
X0037744Y0087313D02*
Y0087928D01*
X0037749Y0087338D02*
Y0087923D01*
X0037754Y0087359D02*
Y0087918D01*
X0037759Y0087379D02*
Y0087912D01*
X0037764Y0087404D02*
Y0087907D01*
X0037769Y0087425D02*
Y0087902D01*
X0037774Y0087445D02*
Y0087897D01*
X0037779Y008747D02*
Y0087892D01*
X0037784Y0087491D02*
Y0087892D01*
X0037789Y0087516D02*
Y0087887D01*
X0037795Y0087537D02*
Y0087882D01*
X00378Y0087557D02*
Y0087877D01*
X0037805Y0087582D02*
Y0087872D01*
X003781Y0087603D02*
Y0087867D01*
X0037815Y0087623D02*
Y0087862D01*
X003782Y0087648D02*
Y0087857D01*
X0037825Y0087669D02*
Y0087851D01*
X003783Y0087689D02*
Y0087846D01*
X0037835Y0087714D02*
Y0087841D01*
X003784Y0087735D02*
Y0087841D01*
X0037845Y008776D02*
Y0087836D01*
D34*
X0071073Y013614D02*
X0073073D01*
X0071073Y013564D02*
X0073073D01*
D35*
X0072073Y0135128D02*
Y0135636D01*
Y013614D02*
Y0136652D01*
D36*
X00421Y00805D02*
X0041034D01*
X0040501Y0081033D01*
X0041034Y0081566D01*
X00421D01*
X00413D01*
Y00805D01*
X0040501Y0082099D02*
X0041567D01*
X00421Y0082633D01*
X0041567Y0083166D01*
X0040501D01*
X00421Y0083699D02*
X0040501D01*
Y0084499D01*
X0040767Y0084765D01*
X00413D01*
X0041567Y0084499D01*
Y0083699D01*
Y0084232D02*
X00421Y0084765D01*
X0040767Y0087964D02*
X0040501Y0087698D01*
Y0087164D01*
X0040767Y0086898D01*
X0041034D01*
X00413Y0087164D01*
Y0087698D01*
X0041567Y0087964D01*
X0041833D01*
X00421Y0087698D01*
Y0087164D01*
X0041833Y0086898D01*
X0040501Y0088497D02*
X0041833D01*
X00421Y0088764D01*
Y0089297D01*
X0041833Y0089564D01*
X0040501D01*
X00421Y0090097D02*
X0040501D01*
X0041034Y009063D01*
X0040501Y0091163D01*
X00421D01*
Y0091696D02*
X0040501D01*
X0041034Y009223D01*
X0040501Y0092763D01*
X00421D01*
X0040501Y0094362D02*
Y0093296D01*
X00421D01*
Y0094362D01*
X00413Y0093296D02*
Y0093829D01*
X00421Y0094895D02*
X0040501D01*
Y0095695D01*
X0040767Y0095962D01*
X00413D01*
X0041567Y0095695D01*
Y0094895D01*
Y0095428D02*
X00421Y0095962D01*
M02*
