%FSTAX43Y43*%
%MOMM*%
G71*
G01*
G75*
G04 Layer_Color=3394611*
G04:AMPARAMS|DCode=10|XSize=1.3mm|YSize=1mm|CornerRadius=0.25mm|HoleSize=0mm|Usage=FLASHONLY|Rotation=270.000|XOffset=0mm|YOffset=0mm|HoleType=Round|Shape=RoundedRectangle|*
%AMROUNDEDRECTD10*
21,1,1.300,0.500,0,0,270.0*
21,1,0.800,1.000,0,0,270.0*
1,1,0.500,-0.250,-0.400*
1,1,0.500,-0.250,0.400*
1,1,0.500,0.250,0.400*
1,1,0.500,0.250,-0.400*
%
%ADD10ROUNDEDRECTD10*%
G04:AMPARAMS|DCode=11|XSize=1.5mm|YSize=1.3mm|CornerRadius=0.325mm|HoleSize=0mm|Usage=FLASHONLY|Rotation=270.000|XOffset=0mm|YOffset=0mm|HoleType=Round|Shape=RoundedRectangle|*
%AMROUNDEDRECTD11*
21,1,1.500,0.650,0,0,270.0*
21,1,0.850,1.300,0,0,270.0*
1,1,0.650,-0.325,-0.425*
1,1,0.650,-0.325,0.425*
1,1,0.650,0.325,0.425*
1,1,0.650,0.325,-0.425*
%
%ADD11ROUNDEDRECTD11*%
G04:AMPARAMS|DCode=12|XSize=1.9mm|YSize=0.5mm|CornerRadius=0.125mm|HoleSize=0mm|Usage=FLASHONLY|Rotation=0.000|XOffset=0mm|YOffset=0mm|HoleType=Round|Shape=RoundedRectangle|*
%AMROUNDEDRECTD12*
21,1,1.900,0.250,0,0,0.0*
21,1,1.650,0.500,0,0,0.0*
1,1,0.250,0.825,-0.125*
1,1,0.250,-0.825,-0.125*
1,1,0.250,-0.825,0.125*
1,1,0.250,0.825,0.125*
%
%ADD12ROUNDEDRECTD12*%
G04:AMPARAMS|DCode=13|XSize=1.9mm|YSize=0.5mm|CornerRadius=0.125mm|HoleSize=0mm|Usage=FLASHONLY|Rotation=90.000|XOffset=0mm|YOffset=0mm|HoleType=Round|Shape=RoundedRectangle|*
%AMROUNDEDRECTD13*
21,1,1.900,0.250,0,0,90.0*
21,1,1.650,0.500,0,0,90.0*
1,1,0.250,0.125,0.825*
1,1,0.250,0.125,-0.825*
1,1,0.250,-0.125,-0.825*
1,1,0.250,-0.125,0.825*
%
%ADD13ROUNDEDRECTD13*%
G04:AMPARAMS|DCode=14|XSize=1.3mm|YSize=1mm|CornerRadius=0.25mm|HoleSize=0mm|Usage=FLASHONLY|Rotation=180.000|XOffset=0mm|YOffset=0mm|HoleType=Round|Shape=RoundedRectangle|*
%AMROUNDEDRECTD14*
21,1,1.300,0.500,0,0,180.0*
21,1,0.800,1.000,0,0,180.0*
1,1,0.500,-0.400,0.250*
1,1,0.500,0.400,0.250*
1,1,0.500,0.400,-0.250*
1,1,0.500,-0.400,-0.250*
%
%ADD14ROUNDEDRECTD14*%
G04:AMPARAMS|DCode=15|XSize=1.5mm|YSize=1.3mm|CornerRadius=0.325mm|HoleSize=0mm|Usage=FLASHONLY|Rotation=0.000|XOffset=0mm|YOffset=0mm|HoleType=Round|Shape=RoundedRectangle|*
%AMROUNDEDRECTD15*
21,1,1.500,0.650,0,0,0.0*
21,1,0.850,1.300,0,0,0.0*
1,1,0.650,0.425,-0.325*
1,1,0.650,-0.425,-0.325*
1,1,0.650,-0.425,0.325*
1,1,0.650,0.425,0.325*
%
%ADD15ROUNDEDRECTD15*%
G04:AMPARAMS|DCode=16|XSize=2.65mm|YSize=1.75mm|CornerRadius=0.438mm|HoleSize=0mm|Usage=FLASHONLY|Rotation=270.000|XOffset=0mm|YOffset=0mm|HoleType=Round|Shape=RoundedRectangle|*
%AMROUNDEDRECTD16*
21,1,2.650,0.875,0,0,270.0*
21,1,1.775,1.750,0,0,270.0*
1,1,0.875,-0.438,-0.887*
1,1,0.875,-0.438,0.887*
1,1,0.875,0.438,0.887*
1,1,0.875,0.438,-0.887*
%
%ADD16ROUNDEDRECTD16*%
G04:AMPARAMS|DCode=17|XSize=0.9mm|YSize=2.7mm|CornerRadius=0.225mm|HoleSize=0mm|Usage=FLASHONLY|Rotation=270.000|XOffset=0mm|YOffset=0mm|HoleType=Round|Shape=RoundedRectangle|*
%AMROUNDEDRECTD17*
21,1,0.900,2.250,0,0,270.0*
21,1,0.450,2.700,0,0,270.0*
1,1,0.450,-1.125,-0.225*
1,1,0.450,-1.125,0.225*
1,1,0.450,1.125,0.225*
1,1,0.450,1.125,-0.225*
%
%ADD17ROUNDEDRECTD17*%
G04:AMPARAMS|DCode=18|XSize=1mm|YSize=2.8mm|CornerRadius=0.25mm|HoleSize=0mm|Usage=FLASHONLY|Rotation=270.000|XOffset=0mm|YOffset=0mm|HoleType=Round|Shape=RoundedRectangle|*
%AMROUNDEDRECTD18*
21,1,1.000,2.300,0,0,270.0*
21,1,0.500,2.800,0,0,270.0*
1,1,0.500,-1.150,-0.250*
1,1,0.500,-1.150,0.250*
1,1,0.500,1.150,0.250*
1,1,0.500,1.150,-0.250*
%
%ADD18ROUNDEDRECTD18*%
G04:AMPARAMS|DCode=19|XSize=1.5mm|YSize=1.25mm|CornerRadius=0.313mm|HoleSize=0mm|Usage=FLASHONLY|Rotation=0.000|XOffset=0mm|YOffset=0mm|HoleType=Round|Shape=RoundedRectangle|*
%AMROUNDEDRECTD19*
21,1,1.500,0.625,0,0,0.0*
21,1,0.875,1.250,0,0,0.0*
1,1,0.625,0.438,-0.313*
1,1,0.625,-0.438,-0.313*
1,1,0.625,-0.438,0.313*
1,1,0.625,0.438,0.313*
%
%ADD19ROUNDEDRECTD19*%
%ADD20O,0.500X2.250*%
G04:AMPARAMS|DCode=21|XSize=2.5mm|YSize=2mm|CornerRadius=0.5mm|HoleSize=0mm|Usage=FLASHONLY|Rotation=90.000|XOffset=0mm|YOffset=0mm|HoleType=Round|Shape=RoundedRectangle|*
%AMROUNDEDRECTD21*
21,1,2.500,1.000,0,0,90.0*
21,1,1.500,2.000,0,0,90.0*
1,1,1.000,0.500,0.750*
1,1,1.000,0.500,-0.750*
1,1,1.000,-0.500,-0.750*
1,1,1.000,-0.500,0.750*
%
%ADD21ROUNDEDRECTD21*%
%ADD22C,0.500*%
%ADD23C,1.000*%
%ADD24C,0.300*%
%ADD25C,1.600*%
%ADD26C,1.300*%
%ADD27C,1.000*%
%ADD28C,1.100*%
%ADD29C,0.700*%
G04:AMPARAMS|DCode=30|XSize=0.9mm|YSize=0.8mm|CornerRadius=0.2mm|HoleSize=0mm|Usage=FLASHONLY|Rotation=180.000|XOffset=0mm|YOffset=0mm|HoleType=Round|Shape=RoundedRectangle|*
%AMROUNDEDRECTD30*
21,1,0.900,0.400,0,0,180.0*
21,1,0.500,0.800,0,0,180.0*
1,1,0.400,-0.250,0.200*
1,1,0.400,0.250,0.200*
1,1,0.400,0.250,-0.200*
1,1,0.400,-0.250,-0.200*
%
%ADD30ROUNDEDRECTD30*%
G04:AMPARAMS|DCode=31|XSize=1.5mm|YSize=1.25mm|CornerRadius=0.313mm|HoleSize=0mm|Usage=FLASHONLY|Rotation=270.000|XOffset=0mm|YOffset=0mm|HoleType=Round|Shape=RoundedRectangle|*
%AMROUNDEDRECTD31*
21,1,1.500,0.625,0,0,270.0*
21,1,0.875,1.250,0,0,270.0*
1,1,0.625,-0.313,-0.438*
1,1,0.625,-0.313,0.438*
1,1,0.625,0.313,0.438*
1,1,0.625,0.313,-0.438*
%
%ADD31ROUNDEDRECTD31*%
%ADD32C,0.178*%
%ADD33C,0.005*%
%ADD34C,0.250*%
%ADD35C,0.254*%
%ADD36C,0.400*%
G04:AMPARAMS|DCode=37|XSize=1.503mm|YSize=1.203mm|CornerRadius=0.352mm|HoleSize=0mm|Usage=FLASHONLY|Rotation=270.000|XOffset=0mm|YOffset=0mm|HoleType=Round|Shape=RoundedRectangle|*
%AMROUNDEDRECTD37*
21,1,1.503,0.500,0,0,270.0*
21,1,0.800,1.203,0,0,270.0*
1,1,0.703,-0.250,-0.400*
1,1,0.703,-0.250,0.400*
1,1,0.703,0.250,0.400*
1,1,0.703,0.250,-0.400*
%
%ADD37ROUNDEDRECTD37*%
G04:AMPARAMS|DCode=38|XSize=1.703mm|YSize=1.503mm|CornerRadius=0.427mm|HoleSize=0mm|Usage=FLASHONLY|Rotation=270.000|XOffset=0mm|YOffset=0mm|HoleType=Round|Shape=RoundedRectangle|*
%AMROUNDEDRECTD38*
21,1,1.703,0.650,0,0,270.0*
21,1,0.850,1.503,0,0,270.0*
1,1,0.853,-0.325,-0.425*
1,1,0.853,-0.325,0.425*
1,1,0.853,0.325,0.425*
1,1,0.853,0.325,-0.425*
%
%ADD38ROUNDEDRECTD38*%
G04:AMPARAMS|DCode=39|XSize=2.1mm|YSize=0.7mm|CornerRadius=0.225mm|HoleSize=0mm|Usage=FLASHONLY|Rotation=0.000|XOffset=0mm|YOffset=0mm|HoleType=Round|Shape=RoundedRectangle|*
%AMROUNDEDRECTD39*
21,1,2.100,0.250,0,0,0.0*
21,1,1.650,0.700,0,0,0.0*
1,1,0.450,0.825,-0.125*
1,1,0.450,-0.825,-0.125*
1,1,0.450,-0.825,0.125*
1,1,0.450,0.825,0.125*
%
%ADD39ROUNDEDRECTD39*%
G04:AMPARAMS|DCode=40|XSize=2.1mm|YSize=0.7mm|CornerRadius=0.225mm|HoleSize=0mm|Usage=FLASHONLY|Rotation=90.000|XOffset=0mm|YOffset=0mm|HoleType=Round|Shape=RoundedRectangle|*
%AMROUNDEDRECTD40*
21,1,2.100,0.250,0,0,90.0*
21,1,1.650,0.700,0,0,90.0*
1,1,0.450,0.125,0.825*
1,1,0.450,0.125,-0.825*
1,1,0.450,-0.125,-0.825*
1,1,0.450,-0.125,0.825*
%
%ADD40ROUNDEDRECTD40*%
G04:AMPARAMS|DCode=41|XSize=1.503mm|YSize=1.203mm|CornerRadius=0.352mm|HoleSize=0mm|Usage=FLASHONLY|Rotation=180.000|XOffset=0mm|YOffset=0mm|HoleType=Round|Shape=RoundedRectangle|*
%AMROUNDEDRECTD41*
21,1,1.503,0.500,0,0,180.0*
21,1,0.800,1.203,0,0,180.0*
1,1,0.703,-0.400,0.250*
1,1,0.703,0.400,0.250*
1,1,0.703,0.400,-0.250*
1,1,0.703,-0.400,-0.250*
%
%ADD41ROUNDEDRECTD41*%
G04:AMPARAMS|DCode=42|XSize=1.703mm|YSize=1.503mm|CornerRadius=0.427mm|HoleSize=0mm|Usage=FLASHONLY|Rotation=0.000|XOffset=0mm|YOffset=0mm|HoleType=Round|Shape=RoundedRectangle|*
%AMROUNDEDRECTD42*
21,1,1.703,0.650,0,0,0.0*
21,1,0.850,1.503,0,0,0.0*
1,1,0.853,0.425,-0.325*
1,1,0.853,-0.425,-0.325*
1,1,0.853,-0.425,0.325*
1,1,0.853,0.425,0.325*
%
%ADD42ROUNDEDRECTD42*%
G04:AMPARAMS|DCode=43|XSize=2.853mm|YSize=1.953mm|CornerRadius=0.539mm|HoleSize=0mm|Usage=FLASHONLY|Rotation=270.000|XOffset=0mm|YOffset=0mm|HoleType=Round|Shape=RoundedRectangle|*
%AMROUNDEDRECTD43*
21,1,2.853,0.875,0,0,270.0*
21,1,1.775,1.953,0,0,270.0*
1,1,1.078,-0.438,-0.887*
1,1,1.078,-0.438,0.887*
1,1,1.078,0.438,0.887*
1,1,1.078,0.438,-0.887*
%
%ADD43ROUNDEDRECTD43*%
G04:AMPARAMS|DCode=44|XSize=1.103mm|YSize=2.903mm|CornerRadius=0.327mm|HoleSize=0mm|Usage=FLASHONLY|Rotation=270.000|XOffset=0mm|YOffset=0mm|HoleType=Round|Shape=RoundedRectangle|*
%AMROUNDEDRECTD44*
21,1,1.103,2.250,0,0,270.0*
21,1,0.450,2.903,0,0,270.0*
1,1,0.653,-1.125,-0.225*
1,1,0.653,-1.125,0.225*
1,1,0.653,1.125,0.225*
1,1,0.653,1.125,-0.225*
%
%ADD44ROUNDEDRECTD44*%
G04:AMPARAMS|DCode=45|XSize=1.203mm|YSize=3.003mm|CornerRadius=0.352mm|HoleSize=0mm|Usage=FLASHONLY|Rotation=270.000|XOffset=0mm|YOffset=0mm|HoleType=Round|Shape=RoundedRectangle|*
%AMROUNDEDRECTD45*
21,1,1.203,2.300,0,0,270.0*
21,1,0.500,3.003,0,0,270.0*
1,1,0.703,-1.150,-0.250*
1,1,0.703,-1.150,0.250*
1,1,0.703,1.150,0.250*
1,1,0.703,1.150,-0.250*
%
%ADD45ROUNDEDRECTD45*%
G04:AMPARAMS|DCode=46|XSize=1.703mm|YSize=1.453mm|CornerRadius=0.414mm|HoleSize=0mm|Usage=FLASHONLY|Rotation=0.000|XOffset=0mm|YOffset=0mm|HoleType=Round|Shape=RoundedRectangle|*
%AMROUNDEDRECTD46*
21,1,1.703,0.625,0,0,0.0*
21,1,0.875,1.453,0,0,0.0*
1,1,0.828,0.438,-0.313*
1,1,0.828,-0.438,-0.313*
1,1,0.828,-0.438,0.313*
1,1,0.828,0.438,0.313*
%
%ADD46ROUNDEDRECTD46*%
%ADD47O,0.703X2.453*%
G04:AMPARAMS|DCode=48|XSize=2.703mm|YSize=2.203mm|CornerRadius=0.602mm|HoleSize=0mm|Usage=FLASHONLY|Rotation=90.000|XOffset=0mm|YOffset=0mm|HoleType=Round|Shape=RoundedRectangle|*
%AMROUNDEDRECTD48*
21,1,2.703,1.000,0,0,90.0*
21,1,1.500,2.203,0,0,90.0*
1,1,1.203,0.500,0.750*
1,1,1.203,0.500,-0.750*
1,1,1.203,-0.500,-0.750*
1,1,1.203,-0.500,0.750*
%
%ADD48ROUNDEDRECTD48*%
%ADD49C,1.800*%
%ADD50C,1.803*%
%ADD51C,1.500*%
%ADD52C,1.503*%
%ADD53C,1.200*%
%ADD54C,1.303*%
%ADD55C,0.903*%
D37*
X0042062Y0133985D02*
D03*
X0043662D02*
D03*
X0036042Y0140652D02*
D03*
X0034443D02*
D03*
X0042062Y0137477D02*
D03*
X0043662D02*
D03*
D38*
X0046675Y0133985D02*
D03*
X0048575D02*
D03*
X0034923Y0065723D02*
D03*
X0033022D02*
D03*
X0038103D02*
D03*
X0040002D02*
D03*
X0046675Y0137477D02*
D03*
X0048575D02*
D03*
D39*
X0039275Y013615D02*
D03*
Y013535D02*
D03*
Y013455D02*
D03*
Y013375D02*
D03*
Y013295D02*
D03*
Y013215D02*
D03*
Y013135D02*
D03*
Y013055D02*
D03*
X0030575Y013615D02*
D03*
Y013055D02*
D03*
Y013135D02*
D03*
Y013215D02*
D03*
Y013295D02*
D03*
Y013375D02*
D03*
Y013455D02*
D03*
Y013535D02*
D03*
D40*
X0032125Y01377D02*
D03*
X0032925D02*
D03*
X0033725D02*
D03*
X0034525D02*
D03*
X0035325D02*
D03*
X0036125D02*
D03*
X0036925D02*
D03*
X0037725D02*
D03*
Y0129D02*
D03*
X0036925D02*
D03*
X0036125D02*
D03*
X0035325D02*
D03*
X0034525D02*
D03*
X0033725D02*
D03*
X0032925D02*
D03*
X0032125D02*
D03*
D41*
X0067628Y0131928D02*
D03*
Y0130327D02*
D03*
X0070168Y0131928D02*
D03*
Y0130327D02*
D03*
X0060007Y0131928D02*
D03*
Y0130327D02*
D03*
X0057467Y0130327D02*
D03*
Y0131928D02*
D03*
X0082232Y0121755D02*
D03*
Y0123355D02*
D03*
X0032068Y0068098D02*
D03*
Y0069698D02*
D03*
X0040958Y0068098D02*
D03*
Y0069698D02*
D03*
D42*
X0082232Y0126368D02*
D03*
Y0128268D02*
D03*
D43*
Y0136452D02*
D03*
Y0132152D02*
D03*
D44*
X0072073Y013434D02*
D03*
D45*
Y013744D02*
D03*
D46*
Y0140095D02*
D03*
Y0141845D02*
D03*
D47*
X00619Y0135572D02*
D03*
X00627D02*
D03*
X00635D02*
D03*
X00643D02*
D03*
X00651D02*
D03*
D48*
X005905Y0135697D02*
D03*
Y0141148D02*
D03*
X006795Y0135697D02*
D03*
Y0141148D02*
D03*
D49*
X0023813Y0120523D02*
D03*
X0026353D02*
D03*
X0037655Y0117983D02*
D03*
X0040195D02*
D03*
X0042736D02*
D03*
X0045276D02*
D03*
X0047815D02*
D03*
Y0120523D02*
D03*
X0045276D02*
D03*
X0042736D02*
D03*
X0040195D02*
D03*
X0037655D02*
D03*
X0082232Y0140018D02*
D03*
Y0142557D02*
D03*
X0034925Y006858D02*
D03*
Y007112D02*
D03*
X00381Y006858D02*
D03*
Y007112D02*
D03*
X0023812Y011176D02*
D03*
Y010922D02*
D03*
Y010668D02*
D03*
Y010414D02*
D03*
Y01016D02*
D03*
Y009906D02*
D03*
Y009652D02*
D03*
Y009398D02*
D03*
Y009144D02*
D03*
Y00889D02*
D03*
Y0060325D02*
D03*
Y0062865D02*
D03*
Y0065405D02*
D03*
Y0067945D02*
D03*
Y0070485D02*
D03*
Y0073025D02*
D03*
Y0075565D02*
D03*
Y0078105D02*
D03*
Y0080645D02*
D03*
Y0083185D02*
D03*
X0082232Y0060325D02*
D03*
Y0062865D02*
D03*
Y0065405D02*
D03*
Y0067945D02*
D03*
Y0070485D02*
D03*
Y0073025D02*
D03*
Y0075565D02*
D03*
Y0078105D02*
D03*
Y0080645D02*
D03*
Y0083185D02*
D03*
X0033846Y0120523D02*
D03*
Y0117983D02*
D03*
X0030035D02*
D03*
Y0120523D02*
D03*
X0023812Y0117983D02*
D03*
X0026353D02*
D03*
X0082232Y011176D02*
D03*
Y010922D02*
D03*
Y010668D02*
D03*
Y010414D02*
D03*
Y01016D02*
D03*
Y009906D02*
D03*
Y009652D02*
D03*
Y009398D02*
D03*
Y009144D02*
D03*
Y00889D02*
D03*
D50*
X0056197Y0111713D02*
D03*
Y0109173D02*
D03*
Y0106632D02*
D03*
Y0104092D02*
D03*
Y0101552D02*
D03*
Y0099012D02*
D03*
Y0096473D02*
D03*
Y0093933D02*
D03*
Y0091393D02*
D03*
Y0088853D02*
D03*
Y0086312D02*
D03*
Y0083772D02*
D03*
Y0081232D02*
D03*
Y0078692D02*
D03*
Y0076152D02*
D03*
Y0073613D02*
D03*
Y0071073D02*
D03*
Y0068533D02*
D03*
Y0065993D02*
D03*
Y0063452D02*
D03*
X0071438Y0111713D02*
D03*
Y0109173D02*
D03*
Y0106632D02*
D03*
Y0104092D02*
D03*
Y0101552D02*
D03*
Y0099012D02*
D03*
Y0096473D02*
D03*
Y0093933D02*
D03*
Y0091393D02*
D03*
Y0088853D02*
D03*
Y0086312D02*
D03*
Y0083772D02*
D03*
Y0081232D02*
D03*
Y0078692D02*
D03*
Y0076152D02*
D03*
Y0073613D02*
D03*
Y0071073D02*
D03*
Y0068533D02*
D03*
Y0065993D02*
D03*
Y0063452D02*
D03*
D51*
X0026353Y012837D02*
D03*
Y013325D02*
D03*
X0065088Y012446D02*
D03*
X0062548D02*
D03*
X0049213Y008011D02*
D03*
Y008499D02*
D03*
D52*
X0065088Y013208D02*
D03*
X0062548D02*
D03*
X0044323Y0058293D02*
D03*
X0039243D02*
D03*
X0034227D02*
D03*
X0029146D02*
D03*
D53*
X00613Y0138143D02*
D03*
X00657D02*
D03*
D54*
X00302Y01378D02*
D03*
X00354Y01227D02*
D03*
X00262Y00583D02*
D03*
X00766Y00924D02*
D03*
X00413Y00861D02*
D03*
X00252D02*
D03*
X0072073Y0132398D02*
D03*
X0074613Y0142557D02*
D03*
X0032702Y00889D02*
D03*
Y0083185D02*
D03*
X0036042Y0142557D02*
D03*
X0041275Y0131445D02*
D03*
X0032385Y0133667D02*
D03*
Y013208D02*
D03*
X0048577Y0135572D02*
D03*
X0079692Y01143D02*
D03*
X00606Y01336D02*
D03*
D55*
X00358Y01345D02*
D03*
X0079378Y00583D02*
D03*
X0048D02*
D03*
X0059057D02*
D03*
X006832D02*
D03*
X0037783Y014D02*
D03*
X0078D02*
D03*
X0047943Y013D02*
D03*
X0078423D02*
D03*
X0059Y012D02*
D03*
X0068262D02*
D03*
X0078423D02*
D03*
X0059Y011D02*
D03*
X0068262D02*
D03*
X0059Y01D02*
D03*
X0068262D02*
D03*
X0059Y009D02*
D03*
Y008D02*
D03*
X0068262D02*
D03*
X0047943Y007D02*
D03*
X0059D02*
D03*
X0068262D02*
D03*
X0027622D02*
D03*
X0023812Y0140335D02*
D03*
X0024765Y0139383D02*
D03*
X0027305Y0075565D02*
D03*
X0029528Y0078105D02*
D03*
X0044132Y009144D02*
D03*
X00381Y010922D02*
D03*
X0042736Y009906D02*
D03*
X0045276Y009652D02*
D03*
X0047815Y009398D02*
D03*
X0034925Y011176D02*
D03*
X0034525Y0135572D02*
D03*
X0037147D02*
D03*
X0041275Y0129857D02*
D03*
Y0127952D02*
D03*
X0038735Y0127D02*
D03*
Y012573D02*
D03*
M02*
