%FSTAX43Y43*%
%MOMM*%
G71*
G01*
G75*
G04 Layer_Physical_Order=2*
G04 Layer_Color=255*
G04:AMPARAMS|DCode=10|XSize=1.3mm|YSize=1mm|CornerRadius=0.25mm|HoleSize=0mm|Usage=FLASHONLY|Rotation=270.000|XOffset=0mm|YOffset=0mm|HoleType=Round|Shape=RoundedRectangle|*
%AMROUNDEDRECTD10*
21,1,1.300,0.500,0,0,270.0*
21,1,0.800,1.000,0,0,270.0*
1,1,0.500,-0.250,-0.400*
1,1,0.500,-0.250,0.400*
1,1,0.500,0.250,0.400*
1,1,0.500,0.250,-0.400*
%
%ADD10ROUNDEDRECTD10*%
G04:AMPARAMS|DCode=11|XSize=1.5mm|YSize=1.3mm|CornerRadius=0.325mm|HoleSize=0mm|Usage=FLASHONLY|Rotation=270.000|XOffset=0mm|YOffset=0mm|HoleType=Round|Shape=RoundedRectangle|*
%AMROUNDEDRECTD11*
21,1,1.500,0.650,0,0,270.0*
21,1,0.850,1.300,0,0,270.0*
1,1,0.650,-0.325,-0.425*
1,1,0.650,-0.325,0.425*
1,1,0.650,0.325,0.425*
1,1,0.650,0.325,-0.425*
%
%ADD11ROUNDEDRECTD11*%
G04:AMPARAMS|DCode=12|XSize=1.9mm|YSize=0.5mm|CornerRadius=0.125mm|HoleSize=0mm|Usage=FLASHONLY|Rotation=0.000|XOffset=0mm|YOffset=0mm|HoleType=Round|Shape=RoundedRectangle|*
%AMROUNDEDRECTD12*
21,1,1.900,0.250,0,0,0.0*
21,1,1.650,0.500,0,0,0.0*
1,1,0.250,0.825,-0.125*
1,1,0.250,-0.825,-0.125*
1,1,0.250,-0.825,0.125*
1,1,0.250,0.825,0.125*
%
%ADD12ROUNDEDRECTD12*%
G04:AMPARAMS|DCode=13|XSize=1.9mm|YSize=0.5mm|CornerRadius=0.125mm|HoleSize=0mm|Usage=FLASHONLY|Rotation=90.000|XOffset=0mm|YOffset=0mm|HoleType=Round|Shape=RoundedRectangle|*
%AMROUNDEDRECTD13*
21,1,1.900,0.250,0,0,90.0*
21,1,1.650,0.500,0,0,90.0*
1,1,0.250,0.125,0.825*
1,1,0.250,0.125,-0.825*
1,1,0.250,-0.125,-0.825*
1,1,0.250,-0.125,0.825*
%
%ADD13ROUNDEDRECTD13*%
G04:AMPARAMS|DCode=14|XSize=1.3mm|YSize=1mm|CornerRadius=0.25mm|HoleSize=0mm|Usage=FLASHONLY|Rotation=180.000|XOffset=0mm|YOffset=0mm|HoleType=Round|Shape=RoundedRectangle|*
%AMROUNDEDRECTD14*
21,1,1.300,0.500,0,0,180.0*
21,1,0.800,1.000,0,0,180.0*
1,1,0.500,-0.400,0.250*
1,1,0.500,0.400,0.250*
1,1,0.500,0.400,-0.250*
1,1,0.500,-0.400,-0.250*
%
%ADD14ROUNDEDRECTD14*%
G04:AMPARAMS|DCode=15|XSize=1.5mm|YSize=1.3mm|CornerRadius=0.325mm|HoleSize=0mm|Usage=FLASHONLY|Rotation=0.000|XOffset=0mm|YOffset=0mm|HoleType=Round|Shape=RoundedRectangle|*
%AMROUNDEDRECTD15*
21,1,1.500,0.650,0,0,0.0*
21,1,0.850,1.300,0,0,0.0*
1,1,0.650,0.425,-0.325*
1,1,0.650,-0.425,-0.325*
1,1,0.650,-0.425,0.325*
1,1,0.650,0.425,0.325*
%
%ADD15ROUNDEDRECTD15*%
G04:AMPARAMS|DCode=16|XSize=2.65mm|YSize=1.75mm|CornerRadius=0.438mm|HoleSize=0mm|Usage=FLASHONLY|Rotation=270.000|XOffset=0mm|YOffset=0mm|HoleType=Round|Shape=RoundedRectangle|*
%AMROUNDEDRECTD16*
21,1,2.650,0.875,0,0,270.0*
21,1,1.775,1.750,0,0,270.0*
1,1,0.875,-0.438,-0.887*
1,1,0.875,-0.438,0.887*
1,1,0.875,0.438,0.887*
1,1,0.875,0.438,-0.887*
%
%ADD16ROUNDEDRECTD16*%
G04:AMPARAMS|DCode=17|XSize=0.9mm|YSize=2.7mm|CornerRadius=0.225mm|HoleSize=0mm|Usage=FLASHONLY|Rotation=270.000|XOffset=0mm|YOffset=0mm|HoleType=Round|Shape=RoundedRectangle|*
%AMROUNDEDRECTD17*
21,1,0.900,2.250,0,0,270.0*
21,1,0.450,2.700,0,0,270.0*
1,1,0.450,-1.125,-0.225*
1,1,0.450,-1.125,0.225*
1,1,0.450,1.125,0.225*
1,1,0.450,1.125,-0.225*
%
%ADD17ROUNDEDRECTD17*%
G04:AMPARAMS|DCode=18|XSize=1mm|YSize=2.8mm|CornerRadius=0.25mm|HoleSize=0mm|Usage=FLASHONLY|Rotation=270.000|XOffset=0mm|YOffset=0mm|HoleType=Round|Shape=RoundedRectangle|*
%AMROUNDEDRECTD18*
21,1,1.000,2.300,0,0,270.0*
21,1,0.500,2.800,0,0,270.0*
1,1,0.500,-1.150,-0.250*
1,1,0.500,-1.150,0.250*
1,1,0.500,1.150,0.250*
1,1,0.500,1.150,-0.250*
%
%ADD18ROUNDEDRECTD18*%
G04:AMPARAMS|DCode=19|XSize=1.5mm|YSize=1.25mm|CornerRadius=0.313mm|HoleSize=0mm|Usage=FLASHONLY|Rotation=0.000|XOffset=0mm|YOffset=0mm|HoleType=Round|Shape=RoundedRectangle|*
%AMROUNDEDRECTD19*
21,1,1.500,0.625,0,0,0.0*
21,1,0.875,1.250,0,0,0.0*
1,1,0.625,0.438,-0.313*
1,1,0.625,-0.438,-0.313*
1,1,0.625,-0.438,0.313*
1,1,0.625,0.438,0.313*
%
%ADD19ROUNDEDRECTD19*%
%ADD20O,0.500X2.250*%
G04:AMPARAMS|DCode=21|XSize=2.5mm|YSize=2mm|CornerRadius=0.5mm|HoleSize=0mm|Usage=FLASHONLY|Rotation=90.000|XOffset=0mm|YOffset=0mm|HoleType=Round|Shape=RoundedRectangle|*
%AMROUNDEDRECTD21*
21,1,2.500,1.000,0,0,90.0*
21,1,1.500,2.000,0,0,90.0*
1,1,1.000,0.500,0.750*
1,1,1.000,0.500,-0.750*
1,1,1.000,-0.500,-0.750*
1,1,1.000,-0.500,0.750*
%
%ADD21ROUNDEDRECTD21*%
%ADD22C,0.500*%
%ADD23C,1.000*%
%ADD24C,0.300*%
%ADD25C,1.600*%
%ADD26C,1.300*%
%ADD27C,1.000*%
%ADD28C,1.100*%
%ADD29C,0.700*%
G04:AMPARAMS|DCode=30|XSize=0.9mm|YSize=0.8mm|CornerRadius=0.2mm|HoleSize=0mm|Usage=FLASHONLY|Rotation=180.000|XOffset=0mm|YOffset=0mm|HoleType=Round|Shape=RoundedRectangle|*
%AMROUNDEDRECTD30*
21,1,0.900,0.400,0,0,180.0*
21,1,0.500,0.800,0,0,180.0*
1,1,0.400,-0.250,0.200*
1,1,0.400,0.250,0.200*
1,1,0.400,0.250,-0.200*
1,1,0.400,-0.250,-0.200*
%
%ADD30ROUNDEDRECTD30*%
G04:AMPARAMS|DCode=31|XSize=1.5mm|YSize=1.25mm|CornerRadius=0.313mm|HoleSize=0mm|Usage=FLASHONLY|Rotation=270.000|XOffset=0mm|YOffset=0mm|HoleType=Round|Shape=RoundedRectangle|*
%AMROUNDEDRECTD31*
21,1,1.500,0.625,0,0,270.0*
21,1,0.875,1.250,0,0,270.0*
1,1,0.625,-0.313,-0.438*
1,1,0.625,-0.313,0.438*
1,1,0.625,0.313,0.438*
1,1,0.625,0.313,-0.438*
%
%ADD31ROUNDEDRECTD31*%
G36*
X0023473Y0116716D02*
X0023812Y0116672D01*
X0024026Y01167D01*
X0026549Y0114177D01*
Y007596D01*
X0026477Y0075787D01*
X0026448Y0075565D01*
X0026477Y0075343D01*
X0026563Y0075136D01*
X0026699Y0074959D01*
X0026876Y0074823D01*
X0027083Y0074737D01*
X0027305Y0074708D01*
X0027527Y0074737D01*
X0027734Y0074823D01*
X0027911Y0074959D01*
X0028047Y0075136D01*
X0028133Y0075343D01*
X0028162Y0075565D01*
X0028133Y0075787D01*
X0028061Y007596D01*
Y011449D01*
X0028061Y0114491D01*
X0028039Y0114664D01*
X0028036Y0114686D01*
X002796Y0114869D01*
X0027916Y0114927D01*
X0028141Y0115124D01*
X0028771Y0114495D01*
Y00785D01*
X0028699Y0078327D01*
X002867Y0078105D01*
X0028699Y0077883D01*
X0028785Y0077676D01*
X0028921Y0077499D01*
X0029099Y0077363D01*
X0029306Y0077277D01*
X0029528Y0077248D01*
X0029749Y0077277D01*
X0029857Y0077321D01*
X0030106Y0077155D01*
Y0071451D01*
X0030035Y0071356D01*
X0029736Y0071334D01*
X002751Y007356D01*
X0027353Y007368D01*
X00273Y0073702D01*
X0027171Y0073756D01*
X0026975Y0073781D01*
X0024871D01*
X002474Y0073952D01*
X0024488Y0074145D01*
Y0074445D01*
X002474Y0074638D01*
X0024948Y0074909D01*
X0025079Y0075226D01*
X0025124Y0075565D01*
X0025079Y0075904D01*
X0024948Y0076221D01*
X002474Y0076492D01*
X0024488Y0076685D01*
Y0076985D01*
X002474Y0077178D01*
X0024948Y0077449D01*
X0025079Y0077766D01*
X0025124Y0078105D01*
X0025079Y0078444D01*
X0024948Y0078761D01*
X002474Y0079032D01*
X0024488Y0079225D01*
Y0079525D01*
X002474Y0079718D01*
X0024948Y0079989D01*
X0025079Y0080306D01*
X0025091Y0080395D01*
X0023812D01*
Y0080895D01*
X0025091D01*
X0025079Y0080984D01*
X0024948Y0081301D01*
X002474Y0081572D01*
X0024488Y0081765D01*
Y0082065D01*
X002474Y0082258D01*
X0024948Y0082529D01*
X0025079Y0082846D01*
X0025124Y0083185D01*
X0025079Y0083524D01*
X0024948Y0083841D01*
X002474Y0084112D01*
X0024468Y0084321D01*
X0024152Y0084452D01*
X0023812Y0084496D01*
X0023473Y0084452D01*
X0023166Y0084324D01*
X0022916Y0084491D01*
Y0087594D01*
X0023166Y0087761D01*
X0023473Y0087633D01*
X0023812Y0087589D01*
X0024152Y0087633D01*
X0024468Y0087764D01*
X002474Y0087973D01*
X0024948Y0088244D01*
X0025079Y0088561D01*
X0025124Y00889D01*
X0025079Y0089239D01*
X0024948Y0089556D01*
X002474Y0089827D01*
X0024488Y009002D01*
Y009032D01*
X002474Y0090513D01*
X0024948Y0090784D01*
X0025079Y0091101D01*
X0025091Y009119D01*
X0023812D01*
Y009169D01*
X0025091D01*
X0025079Y0091779D01*
X0024948Y0092096D01*
X002474Y0092367D01*
X0024488Y009256D01*
Y009286D01*
X002474Y0093053D01*
X0024948Y0093324D01*
X0025079Y0093641D01*
X0025124Y009398D01*
X0025079Y0094319D01*
X0024948Y0094636D01*
X002474Y0094907D01*
X0024488Y00951D01*
Y00954D01*
X002474Y0095593D01*
X0024948Y0095864D01*
X0025079Y0096181D01*
X0025124Y009652D01*
X0025079Y0096859D01*
X0024948Y0097176D01*
X002474Y0097447D01*
X0024488Y009764D01*
Y009794D01*
X002474Y0098133D01*
X0024948Y0098404D01*
X0025079Y0098721D01*
X0025124Y009906D01*
X0025079Y0099399D01*
X0024948Y0099716D01*
X002474Y0099987D01*
X0024488Y010018D01*
Y010048D01*
X002474Y0100673D01*
X0024948Y0100944D01*
X0025079Y0101261D01*
X0025124Y01016D01*
X0025079Y0101939D01*
X0024948Y0102256D01*
X002474Y0102527D01*
X0024488Y010272D01*
Y010302D01*
X002474Y0103213D01*
X0024948Y0103484D01*
X0025079Y0103801D01*
X0025124Y010414D01*
X0025079Y0104479D01*
X0024948Y0104796D01*
X002474Y0105067D01*
X0024488Y010526D01*
Y010556D01*
X002474Y0105753D01*
X0024948Y0106024D01*
X0025079Y0106341D01*
X0025124Y010668D01*
X0025079Y0107019D01*
X0024948Y0107336D01*
X002474Y0107607D01*
X0024488Y01078D01*
Y01081D01*
X002474Y0108293D01*
X0024948Y0108564D01*
X0025079Y0108881D01*
X0025124Y010922D01*
X0025079Y0109559D01*
X0024948Y0109876D01*
X002474Y0110147D01*
X0024488Y011034D01*
Y011064D01*
X002474Y0110833D01*
X0024948Y0111104D01*
X0025079Y0111421D01*
X0025124Y011176D01*
X0025079Y0112099D01*
X0024948Y0112416D01*
X002474Y0112687D01*
X0024468Y0112896D01*
X0024152Y0113027D01*
X0023812Y0113071D01*
X0023473Y0113027D01*
X0023166Y0112899D01*
X0022916Y0113066D01*
Y0116677D01*
X0023166Y0116844D01*
X0023473Y0116716D01*
D02*
G37*
G36*
X0033089Y012783D02*
Y0121581D01*
X0032918Y012145D01*
X003271Y0121179D01*
X0032579Y0120862D01*
X0032534Y0120523D01*
X0032579Y0120184D01*
X003271Y0119867D01*
X0032918Y0119596D01*
X003317Y0119403D01*
Y0119103D01*
X0032918Y011891D01*
X003271Y0118639D01*
X0032579Y0118322D01*
X0032567Y0118233D01*
X0033846D01*
Y0117733D01*
X0032567D01*
X0032579Y0117644D01*
X003271Y0117327D01*
X0032918Y0117056D01*
X0033085Y0116928D01*
X0032988Y0116644D01*
X0032444D01*
X0031319Y011777D01*
X0031347Y0117983D01*
X0031302Y0118322D01*
X0031171Y0118639D01*
X0030963Y011891D01*
X0030711Y0119103D01*
Y0119403D01*
X0030963Y0119596D01*
X0031171Y0119867D01*
X0031302Y0120184D01*
X0031347Y0120523D01*
X0031302Y0120862D01*
X0031171Y0121179D01*
X0030963Y012145D01*
X0030792Y0121581D01*
Y0125925D01*
X0032812Y0127945D01*
X0033089Y012783D01*
D02*
G37*
G36*
X0038113Y0131055D02*
X0038141Y0130843D01*
X0038223Y0130645D01*
X003834Y0130492D01*
X0038223Y013034D01*
X0038141Y0130142D01*
X0038113Y012993D01*
Y0129867D01*
X003937D01*
Y0129617D01*
X003962D01*
Y0128485D01*
X0039807D01*
X004002Y0128513D01*
X0040217Y0128595D01*
X0040387Y0128726D01*
X0040517Y0128895D01*
X0040599Y0129093D01*
X0040599Y0129093D01*
D01*
D01*
D01*
X004077Y0129108D01*
X0040991Y0128906D01*
Y0128873D01*
X0040966Y0128744D01*
X0040846Y0128695D01*
X0040669Y0128559D01*
X0040533Y0128381D01*
X0040447Y0128174D01*
X0040418Y0127952D01*
X0040246Y0127756D01*
X003913D01*
X0038957Y0127828D01*
X0038735Y0127857D01*
X0038513Y0127828D01*
X0038306Y0127742D01*
X0038129Y0127606D01*
X0037993Y0127429D01*
X0037907Y0127222D01*
X0037878Y0127D01*
X0037907Y0126778D01*
X0037993Y0126571D01*
X0038129Y0126394D01*
Y0126336D01*
X0037993Y0126159D01*
X0037907Y0125952D01*
X0037878Y012573D01*
X0037907Y0125508D01*
X0037993Y0125301D01*
X0038129Y0125124D01*
X0038306Y0124988D01*
X0038513Y0124902D01*
X0038735Y0124873D01*
X0038813Y0124883D01*
X0039039Y0124685D01*
Y0124248D01*
X0039065Y0124052D01*
X0039126Y0123904D01*
X0039065Y0123812D01*
X003886Y0123654D01*
X0037838D01*
X0037643Y0123629D01*
X003746Y0123553D01*
X0037392Y0123501D01*
X0037304Y0123433D01*
X0037304Y0123433D01*
X0035343Y0121472D01*
X0035222Y0121315D01*
X0035216Y0121299D01*
X0034918Y012126D01*
X0034773Y012145D01*
X0034602Y0121581D01*
Y012783D01*
X0037682Y013091D01*
X0037682Y013091D01*
X0037786Y0131045D01*
X0038084Y0131079D01*
X0038113Y0131055D01*
D02*
G37*
G36*
X0028606Y0070324D02*
Y0061282D01*
X0028578Y006126D01*
X0028457Y0061103D01*
X0028382Y0060921D01*
X0028356Y0060725D01*
Y0059925D01*
X0028382Y0059729D01*
X0028457Y0059547D01*
X0028578Y005939D01*
X0028606Y0059368D01*
X0028606Y0059368D01*
X0028567Y0059298D01*
X0028326Y0059113D01*
X0028142Y0058873D01*
X0028026Y0058593D01*
X0027987Y0058293D01*
X0028026Y0057993D01*
X0028142Y0057713D01*
X0028326Y0057473D01*
X0028531Y0057316D01*
Y0057001D01*
X0028396Y0056897D01*
X0028265Y0056727D01*
X0028183Y005653D01*
X0028155Y0056318D01*
Y0055443D01*
X0028183Y005523D01*
X0027588Y0054984D01*
X0022916D01*
Y0059019D01*
X0023166Y0059186D01*
X0023473Y0059058D01*
X0023812Y0059014D01*
X0024152Y0059058D01*
X0024468Y0059189D01*
X002474Y0059398D01*
X0024948Y0059669D01*
X0025079Y0059986D01*
X0025124Y0060325D01*
X0025079Y0060664D01*
X0024948Y0060981D01*
X002474Y0061252D01*
X0024488Y0061445D01*
Y0061745D01*
X002474Y0061938D01*
X0024948Y0062209D01*
X0025079Y0062526D01*
X0025124Y0062865D01*
X0025079Y0063204D01*
X0024948Y0063521D01*
X002474Y0063792D01*
X0024488Y0063985D01*
Y0064285D01*
X002474Y0064478D01*
X0024948Y0064749D01*
X0025079Y0065066D01*
X0025124Y0065405D01*
X0025079Y0065744D01*
X0024948Y0066061D01*
X002474Y0066332D01*
X0024488Y0066525D01*
Y0066825D01*
X002474Y0067018D01*
X0024948Y0067289D01*
X0025079Y0067606D01*
X0025124Y0067945D01*
X0025079Y0068284D01*
X0024948Y0068601D01*
X002474Y0068872D01*
X0024488Y0069065D01*
Y0069365D01*
X002474Y0069558D01*
X0024948Y0069829D01*
X0025079Y0070146D01*
X0025124Y0070485D01*
X0025079Y0070824D01*
X0024948Y0071141D01*
X002474Y0071412D01*
X0024488Y0071605D01*
Y0071905D01*
X002474Y0072098D01*
X0024871Y0072269D01*
X0026662D01*
X0028606Y0070324D01*
D02*
G37*
G36*
X0038245Y0060972D02*
X0038224Y0060921D01*
X0038199Y0060725D01*
Y0059925D01*
X0038224Y0059729D01*
X00383Y0059547D01*
X003842Y005939D01*
X0038449Y0059368D01*
X0038449Y0059368D01*
D01*
X0038423Y0059113D01*
X0038238Y0058873D01*
X0038123Y0058593D01*
X0038083Y0058293D01*
X0038123Y0057993D01*
X0038238Y0057713D01*
X0038423Y0057473D01*
X0038663Y0057288D01*
X0038691Y0057277D01*
Y0057001D01*
X0038556Y0056897D01*
X0038425Y0056727D01*
X0038343Y005653D01*
X0038315Y0056318D01*
Y0055443D01*
X0038343Y005523D01*
X0037748Y0054984D01*
X0032737D01*
X0032142Y005523D01*
X003217Y0055443D01*
Y005563D01*
X0031038D01*
Y005588D01*
X0030788D01*
Y0057137D01*
X0030725D01*
X0030513Y0057109D01*
X0030315Y0057027D01*
X0030313Y0057026D01*
X0030044Y0057158D01*
Y0057574D01*
X0030151Y0057713D01*
X0030267Y0057993D01*
X0030306Y0058293D01*
X0030267Y0058593D01*
X0030151Y0058873D01*
X0030119Y0058915D01*
Y0058989D01*
X0030276Y0059194D01*
X0030368Y0059256D01*
X0030517Y0059194D01*
X0030712Y0059169D01*
X0031212D01*
X0031408Y0059194D01*
X0031591Y005927D01*
X0031747Y005939D01*
X0031868Y0059547D01*
X0031943Y0059729D01*
X0031969Y0059925D01*
Y0060725D01*
X0031943Y0060921D01*
X0031922Y0060972D01*
X0032089Y0061221D01*
X0038079D01*
X0038245Y0060972D01*
D02*
G37*
G36*
X0039268Y0117056D02*
X0039439Y0116925D01*
Y0095377D01*
X0039465Y0095181D01*
X003954Y0094999D01*
X0039661Y0094842D01*
X0043318Y0091184D01*
X0043376Y0091045D01*
Y0061273D01*
X0042089Y0059986D01*
X0041811Y0060101D01*
Y0060725D01*
X0041786Y0060921D01*
X004171Y0061103D01*
X004159Y006126D01*
X0041561Y0061423D01*
X0041561Y0061423D01*
Y0061423D01*
X0041683Y0061517D01*
X0041843Y0061726D01*
X0041944Y0061969D01*
X0041979Y006223D01*
X0041944Y0062491D01*
X0041843Y0062734D01*
X0041683Y0062943D01*
X0041474Y0063104D01*
X0041231Y0063204D01*
X004097Y0063239D01*
X0032124D01*
Y008118D01*
X0033197Y0082253D01*
X0033232Y0082268D01*
X0033451Y0082436D01*
X003362Y0082655D01*
X0033725Y0082911D01*
X0033762Y0083185D01*
X0033725Y0083459D01*
X0033711Y0083494D01*
Y0088591D01*
X0033725Y0088626D01*
X0033762Y00889D01*
X0033725Y0089174D01*
X0033711Y0089209D01*
Y011101D01*
X0033961Y0111176D01*
X0034169Y011109D01*
Y0072178D01*
X0033998Y0072047D01*
X0033789Y0071776D01*
X0033658Y0071459D01*
X0033614Y007112D01*
X0033658Y0070781D01*
X0033789Y0070464D01*
X0033998Y0070193D01*
X0034249Y007D01*
Y00697D01*
X0033998Y0069507D01*
X0033789Y0069236D01*
X0033658Y0068919D01*
X0033614Y006858D01*
X0033658Y0068241D01*
X0033789Y0067924D01*
X0033998Y0067653D01*
X0034269Y0067444D01*
X0034586Y0067313D01*
X0034925Y0067269D01*
X0035264Y0067313D01*
X0035581Y0067444D01*
X0035852Y0067653D01*
X0036061Y0067924D01*
X0036192Y0068241D01*
X0036236Y006858D01*
X0036192Y0068919D01*
X0036061Y0069236D01*
X0035852Y0069507D01*
X0035601Y00697D01*
Y007D01*
X0035852Y0070193D01*
X0036061Y0070464D01*
X0036192Y0070781D01*
X0036236Y007112D01*
X0036192Y0071459D01*
X0036061Y0071776D01*
X0035852Y0072047D01*
X0035681Y0072178D01*
Y0111365D01*
X0035753Y0111538D01*
X0035782Y011176D01*
X0035753Y0111982D01*
X0035667Y0112189D01*
X0035531Y0112366D01*
X0035441Y0112436D01*
X0035421Y0112735D01*
X0038369Y0115682D01*
X0038529Y0115891D01*
X0038588Y0116034D01*
X003863Y0116134D01*
X0038664Y0116396D01*
Y0117162D01*
X0038776Y0117307D01*
X0039076D01*
X0039268Y0117056D01*
D02*
G37*
G36*
X0040266Y0133067D02*
X004002Y0132472D01*
X0039807Y01325D01*
X0038932D01*
X003872Y0132472D01*
X0038523Y013239D01*
X0038353Y0132259D01*
X0038223Y013209D01*
X0038198Y013203D01*
X0037904Y0132089D01*
Y0135178D01*
X0037976Y0135351D01*
X0038005Y0135572D01*
X0037976Y0135794D01*
X003789Y0136001D01*
X0037754Y0136179D01*
X0037576Y0136315D01*
X0037369Y0136401D01*
X0037147Y013643D01*
X0036926Y0136401D01*
X0036719Y0136315D01*
X0036541Y0136179D01*
X0036405Y0136001D01*
X0036319Y0135794D01*
X003629Y0135572D01*
X0036319Y0135351D01*
X0036391Y0135178D01*
Y0131758D01*
X0035559Y0130926D01*
X0035281Y0131041D01*
Y0135178D01*
X0035353Y0135351D01*
X0035382Y0135572D01*
X0035353Y0135794D01*
X0035267Y0136001D01*
X0035131Y0136179D01*
X0034954Y0136315D01*
X0034747Y0136401D01*
X0034525Y013643D01*
X0034303Y0136401D01*
X0034096Y0136315D01*
X0033919Y0136179D01*
X0033783Y0136001D01*
X0033697Y0135794D01*
X0033693Y0135765D01*
X0033394Y0135784D01*
Y0141549D01*
X0035734D01*
X0035768Y0141535D01*
X0036042Y0141498D01*
X0036317Y0141535D01*
X0036351Y0141549D01*
X0040266D01*
Y0133067D01*
D02*
G37*
G36*
X0081822Y0143795D02*
X0081577Y0143693D01*
X0081305Y0143485D01*
X0081097Y0143213D01*
X0080966Y0142897D01*
X0080954Y0142807D01*
X0082232D01*
Y0142307D01*
X0080954D01*
X0080966Y0142218D01*
X0081097Y0141902D01*
X0081305Y014163D01*
X0081557Y0141438D01*
Y0141137D01*
X0081305Y0140945D01*
X0081097Y0140673D01*
X0080966Y0140357D01*
X0080921Y0140018D01*
X0080966Y0139678D01*
X0081097Y0139362D01*
X0081305Y013909D01*
X0081577Y0138882D01*
X0081893Y0138751D01*
X0082232Y0138706D01*
X0082572Y0138751D01*
X0082879Y0138878D01*
X0083129Y0138712D01*
Y0113066D01*
X0082879Y0112899D01*
X0082572Y0113027D01*
X0082232Y0113071D01*
X0081893Y0113027D01*
X0081577Y0112896D01*
X0081305Y0112687D01*
X0081097Y0112416D01*
X0080995Y011217D01*
X0080701Y0112229D01*
Y0113991D01*
X0080715Y0114026D01*
X0080752Y01143D01*
X0080715Y0114574D01*
X008061Y011483D01*
X0080441Y0115049D01*
X0080222Y0115217D01*
X0079967Y0115323D01*
X0079692Y0115359D01*
X0079418Y0115323D01*
X0079163Y0115217D01*
X0078944Y0115049D01*
X0078775Y011483D01*
X007867Y0114574D01*
X0078633Y01143D01*
X007867Y0114026D01*
X0078684Y0113991D01*
Y00889D01*
X0078684Y00889D01*
X0078684D01*
Y0087321D01*
X0072259D01*
X0072113Y0087433D01*
Y0087732D01*
X0072365Y0087925D01*
X0072573Y0088197D01*
X0072704Y0088513D01*
X0072716Y0088603D01*
X0071438D01*
Y0089103D01*
X0072716D01*
X0072704Y0089192D01*
X0072573Y0089508D01*
X0072365Y008978D01*
X0072113Y0089973D01*
Y0090272D01*
X0072365Y0090465D01*
X0072573Y0090737D01*
X0072704Y0091053D01*
X0072749Y0091393D01*
X0072704Y0091732D01*
X0072573Y0092048D01*
X0072365Y009232D01*
X0072113Y0092512D01*
Y0092812D01*
X0072365Y0093005D01*
X0072573Y0093277D01*
X0072704Y0093593D01*
X0072749Y0093933D01*
X0072704Y0094272D01*
X0072573Y0094588D01*
X0072365Y009486D01*
X0072113Y0095052D01*
Y0095353D01*
X0072365Y0095545D01*
X0072573Y0095817D01*
X0072704Y0096133D01*
X0072749Y0096473D01*
X0072704Y0096812D01*
X0072573Y0097128D01*
X0072365Y00974D01*
X0072113Y0097592D01*
Y0097893D01*
X0072365Y0098085D01*
X0072573Y0098357D01*
X0072704Y0098673D01*
X0072749Y0099012D01*
X0072704Y0099352D01*
X0072573Y0099668D01*
X0072365Y009994D01*
X0072113Y0100132D01*
Y0100433D01*
X0072365Y0100625D01*
X0072573Y0100897D01*
X0072704Y0101213D01*
X0072749Y0101552D01*
X0072704Y0101892D01*
X0072573Y0102208D01*
X0072365Y010248D01*
X0072113Y0102673D01*
Y0102973D01*
X0072365Y0103165D01*
X0072573Y0103437D01*
X0072704Y0103753D01*
X0072749Y0104092D01*
X0072704Y0104432D01*
X0072573Y0104748D01*
X0072365Y010502D01*
X0072113Y0105213D01*
Y0105512D01*
X0072365Y0105705D01*
X0072573Y0105977D01*
X0072704Y0106293D01*
X0072749Y0106632D01*
X0072704Y0106972D01*
X0072573Y0107288D01*
X0072365Y010756D01*
X0072113Y0107753D01*
Y0108052D01*
X0072365Y0108245D01*
X0072573Y0108517D01*
X0072704Y0108833D01*
X0072749Y0109173D01*
X0072704Y0109512D01*
X0072573Y0109828D01*
X0072365Y01101D01*
X0072113Y0110293D01*
Y0110592D01*
X0072365Y0110785D01*
X0072573Y0111057D01*
X0072704Y0111373D01*
X0072749Y0111713D01*
X0072704Y0112052D01*
X0072573Y0112368D01*
X0072365Y011264D01*
X0072093Y0112848D01*
X0071777Y0112979D01*
X0071438Y0113024D01*
X0071098Y0112979D01*
X0070782Y0112848D01*
X007051Y011264D01*
X0070302Y0112368D01*
X0070171Y0112052D01*
X0070126Y0111713D01*
X0070171Y0111373D01*
X0070302Y0111057D01*
X007051Y0110785D01*
X0070762Y0110592D01*
Y0110293D01*
X007051Y01101D01*
X0070302Y0109828D01*
X0070171Y0109512D01*
X0070126Y0109173D01*
X0070171Y0108833D01*
X0070302Y0108517D01*
X007051Y0108245D01*
X0070762Y0108052D01*
Y0107753D01*
X007051Y010756D01*
X0070302Y0107288D01*
X0070171Y0106972D01*
X0070126Y0106632D01*
X0070171Y0106293D01*
X0070302Y0105977D01*
X007051Y0105705D01*
X0070762Y0105512D01*
Y0105213D01*
X007051Y010502D01*
X0070302Y0104748D01*
X0070171Y0104432D01*
X0070126Y0104092D01*
X0070171Y0103753D01*
X0070302Y0103437D01*
X007051Y0103165D01*
X0070762Y0102973D01*
Y0102673D01*
X007051Y010248D01*
X0070302Y0102208D01*
X0070171Y0101892D01*
X0070126Y0101552D01*
X0070171Y0101213D01*
X0070302Y0100897D01*
X007051Y0100625D01*
X0070762Y0100433D01*
Y0100132D01*
X007051Y009994D01*
X0070302Y0099668D01*
X0070171Y0099352D01*
X0070126Y0099012D01*
X0070171Y0098673D01*
X0070302Y0098357D01*
X007051Y0098085D01*
X0070762Y0097893D01*
Y0097592D01*
X007051Y00974D01*
X0070302Y0097128D01*
X0070171Y0096812D01*
X0070126Y0096473D01*
X0070171Y0096133D01*
X0070302Y0095817D01*
X007051Y0095545D01*
X0070762Y0095353D01*
Y0095052D01*
X007051Y009486D01*
X0070302Y0094588D01*
X0070171Y0094272D01*
X0070126Y0093933D01*
X0070171Y0093593D01*
X0070302Y0093277D01*
X007051Y0093005D01*
X0070762Y0092812D01*
Y0092512D01*
X007051Y009232D01*
X0070379Y0092149D01*
X0069995D01*
X0069914Y0092254D01*
X0069745Y0092385D01*
X0069547Y0092467D01*
X0069335Y0092495D01*
X006846D01*
X0068248Y0092467D01*
X006805Y0092385D01*
X0067881Y0092254D01*
X006775Y0092085D01*
X0067668Y0091887D01*
X006764Y0091675D01*
Y009105D01*
X0067668Y0090838D01*
X006775Y009064D01*
X0067867Y0090488D01*
X006775Y0090335D01*
X0067668Y0090137D01*
X006764Y0089925D01*
Y0089863D01*
X0068897D01*
Y0089613D01*
X0069147D01*
Y008848D01*
X0069335D01*
X0069547Y0088508D01*
X0069745Y008859D01*
X0069885Y0088698D01*
X0070014Y0088644D01*
X0070169Y0088525D01*
X0070171Y0088513D01*
X0070302Y0088197D01*
X007051Y0087925D01*
X0070762Y0087732D01*
Y0087433D01*
X007051Y008724D01*
X0070302Y0086968D01*
X0070171Y0086652D01*
X0070126Y0086312D01*
X0070171Y0085973D01*
X0070302Y0085657D01*
X007051Y0085385D01*
X0070762Y0085192D01*
Y0084893D01*
X007051Y00847D01*
X0070302Y0084428D01*
X0070171Y0084112D01*
X0070126Y0083772D01*
X0070171Y0083433D01*
X0070302Y0083117D01*
X007051Y0082845D01*
X0070762Y0082652D01*
Y0082353D01*
X007051Y008216D01*
X0070302Y0081888D01*
X0070171Y0081572D01*
X0070126Y0081232D01*
X0070171Y0080893D01*
X0070302Y0080577D01*
X007051Y0080305D01*
X0070762Y0080113D01*
Y0079812D01*
X007051Y007962D01*
X0070302Y0079348D01*
X0070171Y0079032D01*
X0070126Y0078692D01*
X0070171Y0078353D01*
X0070302Y0078037D01*
X007051Y0077765D01*
X0070762Y0077573D01*
Y0077272D01*
X007051Y007708D01*
X0070302Y0076808D01*
X0070171Y0076492D01*
X0070126Y0076152D01*
X0070171Y0075813D01*
X0070302Y0075497D01*
X007051Y0075225D01*
X0070762Y0075033D01*
Y0074732D01*
X007051Y007454D01*
X0070302Y0074268D01*
X0070171Y0073952D01*
X0070126Y0073613D01*
X0070171Y0073273D01*
X0070302Y0072957D01*
X007051Y0072685D01*
X0070762Y0072493D01*
Y0072192D01*
X007051Y0072D01*
X0070302Y0071728D01*
X0070171Y0071412D01*
X0070126Y0071073D01*
X0070171Y0070733D01*
X0070302Y0070417D01*
X007051Y0070145D01*
X0070762Y0069952D01*
Y0069652D01*
X007051Y006946D01*
X0070302Y0069188D01*
X0070171Y0068872D01*
X0070126Y0068533D01*
X0070171Y0068193D01*
X0070302Y0067877D01*
X007051Y0067605D01*
X0070762Y0067412D01*
Y0067113D01*
X007051Y006692D01*
X0070302Y0066648D01*
X0070171Y0066332D01*
X0070126Y0065993D01*
X0070171Y0065653D01*
X0070302Y0065337D01*
X007051Y0065065D01*
X0070762Y0064872D01*
Y0064573D01*
X007051Y006438D01*
X0070302Y0064108D01*
X0070171Y0063792D01*
X0070126Y0063452D01*
X0070171Y0063113D01*
X0070302Y0062797D01*
X007051Y0062525D01*
X0070782Y0062317D01*
X0071098Y0062186D01*
X0071438Y0062141D01*
X0071777Y0062186D01*
X0072093Y0062317D01*
X0072365Y0062525D01*
X0072573Y0062797D01*
X0072704Y0063113D01*
X0072749Y0063452D01*
X0072704Y0063792D01*
X0072573Y0064108D01*
X0072365Y006438D01*
X0072113Y0064573D01*
Y0064872D01*
X0072365Y0065065D01*
X0072573Y0065337D01*
X0072704Y0065653D01*
X0072749Y0065993D01*
X0072704Y0066332D01*
X0072573Y0066648D01*
X0072365Y006692D01*
X0072113Y0067113D01*
Y0067412D01*
X0072365Y0067605D01*
X0072573Y0067877D01*
X0072704Y0068193D01*
X0072749Y0068533D01*
X0072704Y0068872D01*
X0072573Y0069188D01*
X0072365Y006946D01*
X0072113Y0069652D01*
Y0069952D01*
X0072365Y0070145D01*
X0072573Y0070417D01*
X0072704Y0070733D01*
X0072749Y0071073D01*
X0072704Y0071412D01*
X0072573Y0071728D01*
X0072365Y0072D01*
X0072113Y0072192D01*
Y0072493D01*
X0072365Y0072685D01*
X0072573Y0072957D01*
X0072704Y0073273D01*
X0072749Y0073613D01*
X0072704Y0073952D01*
X0072573Y0074268D01*
X0072365Y007454D01*
X0072113Y0074732D01*
Y0075033D01*
X0072365Y0075225D01*
X0072573Y0075497D01*
X0072704Y0075813D01*
X0072749Y0076152D01*
X0072704Y0076492D01*
X0072573Y0076808D01*
X0072365Y007708D01*
X0072113Y0077272D01*
Y0077573D01*
X0072365Y0077765D01*
X0072573Y0078037D01*
X0072704Y0078353D01*
X0072749Y0078692D01*
X0072704Y0079032D01*
X0072573Y0079348D01*
X0072365Y007962D01*
X0072113Y0079812D01*
Y0080113D01*
X0072365Y0080305D01*
X0072573Y0080577D01*
X0072704Y0080893D01*
X0072749Y0081232D01*
X0072704Y0081572D01*
X0072573Y0081888D01*
X0072365Y008216D01*
X0072113Y0082353D01*
Y0082652D01*
X0072365Y0082845D01*
X0072573Y0083117D01*
X0072704Y0083433D01*
X0072749Y0083772D01*
X0072704Y0084112D01*
X0072573Y0084428D01*
X0072365Y00847D01*
X0072113Y0084893D01*
Y0085192D01*
X0072259Y0085304D01*
X0078684D01*
Y0081598D01*
X0078718Y0081336D01*
X0078819Y0081093D01*
X0078979Y0080884D01*
X0079932Y0079932D01*
X0080141Y0079771D01*
X0080384Y0079671D01*
X0080645Y0079636D01*
X0081411D01*
X0081557Y0079525D01*
Y0079225D01*
X0081305Y0079032D01*
X0081097Y0078761D01*
X0080966Y0078444D01*
X0080921Y0078105D01*
X0080966Y0077766D01*
X0081097Y0077449D01*
X0081305Y0077178D01*
X0081557Y0076985D01*
Y0076685D01*
X0081305Y0076492D01*
X0081097Y0076221D01*
X0080966Y0075904D01*
X0080921Y0075565D01*
X0080966Y0075226D01*
X0081097Y0074909D01*
X0081305Y0074638D01*
X0081557Y0074445D01*
Y0074145D01*
X0081305Y0073952D01*
X0081097Y0073681D01*
X0080966Y0073364D01*
X0080921Y0073025D01*
X0080966Y0072686D01*
X0081097Y0072369D01*
X0081305Y0072098D01*
X0081557Y0071905D01*
Y0071605D01*
X0081305Y0071412D01*
X0081097Y0071141D01*
X0080966Y0070824D01*
X0080921Y0070485D01*
X0080966Y0070146D01*
X0081097Y0069829D01*
X0081305Y0069558D01*
X0081557Y0069365D01*
Y0069065D01*
X0081305Y0068872D01*
X0081097Y0068601D01*
X0080966Y0068284D01*
X0080921Y0067945D01*
X0080966Y0067606D01*
X0081097Y0067289D01*
X0081305Y0067018D01*
X0081557Y0066825D01*
Y0066525D01*
X0081305Y0066332D01*
X0081097Y0066061D01*
X0080966Y0065744D01*
X0080921Y0065405D01*
X0080966Y0065066D01*
X0081097Y0064749D01*
X0081305Y0064478D01*
X0081557Y0064285D01*
Y0063985D01*
X0081305Y0063792D01*
X0081097Y0063521D01*
X0080966Y0063204D01*
X0080921Y0062865D01*
X0080966Y0062526D01*
X0081097Y0062209D01*
X0081305Y0061938D01*
X0081557Y0061745D01*
Y0061445D01*
X0081305Y0061252D01*
X0081097Y0060981D01*
X0080966Y0060664D01*
X0080921Y0060325D01*
X0080966Y0059986D01*
X0081097Y0059669D01*
X0081305Y0059398D01*
X0081577Y0059189D01*
X0081893Y0059058D01*
X0082232Y0059014D01*
X0082572Y0059058D01*
X0082879Y0059186D01*
X0083129Y0059019D01*
Y0054984D01*
X0042897D01*
X0042302Y005523D01*
X004233Y0055443D01*
Y005563D01*
X0041197D01*
Y005588D01*
X0040947D01*
Y0057137D01*
X0040885D01*
X0040673Y0057109D01*
X0040475Y0057027D01*
X0040473Y0057026D01*
X0040204Y0057158D01*
Y0057537D01*
X0041465D01*
X0041661Y0057562D01*
X0041844Y0057638D01*
X0042Y0057758D01*
X0042928Y0058686D01*
X0043197Y0058553D01*
X0043196Y0058543D01*
X0044073D01*
Y005942D01*
X0044063Y0059419D01*
X004393Y0059688D01*
X0044667Y0060425D01*
X0044667Y0060425D01*
X0044788Y0060582D01*
X0044863Y0060764D01*
X0044889Y006096D01*
Y0091045D01*
X0044961Y0091218D01*
X004499Y009144D01*
X0044961Y0091662D01*
X0044875Y0091869D01*
X0044739Y0092046D01*
X0044561Y0092182D01*
X0044388Y0092254D01*
X0040952Y009569D01*
Y0116925D01*
X0041123Y0117056D01*
X0041315Y0117307D01*
X0041616D01*
X0041808Y0117056D01*
X0041979Y0116925D01*
Y0099455D01*
X0041907Y0099282D01*
X0041878Y009906D01*
X0041907Y0098838D01*
X0041993Y0098631D01*
X0042129Y0098454D01*
X0042307Y0098318D01*
X0042514Y0098232D01*
X0042736Y0098203D01*
X0042957Y0098232D01*
X0043164Y0098318D01*
X0043342Y0098454D01*
X0043478Y0098631D01*
X0043564Y0098838D01*
X0043593Y009906D01*
X0043564Y0099282D01*
X0043492Y0099455D01*
Y0116925D01*
X0043663Y0117056D01*
X0043855Y0117307D01*
X0044155D01*
X0044348Y0117056D01*
X0044519Y0116925D01*
Y0096915D01*
X0044447Y0096742D01*
X0044418Y009652D01*
X0044447Y0096298D01*
X0044533Y0096091D01*
X0044669Y0095914D01*
X0044847Y0095778D01*
X0045054Y0095692D01*
X0045276Y0095663D01*
X0045497Y0095692D01*
X0045704Y0095778D01*
X0045882Y0095914D01*
X0046018Y0096091D01*
X0046104Y0096298D01*
X0046133Y009652D01*
X0046104Y0096742D01*
X0046032Y0096915D01*
Y0116925D01*
X0046203Y0117056D01*
X0046396Y0117307D01*
X0046695D01*
X0046888Y0117056D01*
X0047059Y0116925D01*
Y0094375D01*
X0046987Y0094202D01*
X0046958Y009398D01*
X0046987Y0093758D01*
X0047073Y0093551D01*
X0047209Y0093374D01*
X0047387Y0093238D01*
X0047594Y0093152D01*
X0047815Y0093123D01*
X0048037Y0093152D01*
X0048244Y0093238D01*
X0048422Y0093374D01*
X0048558Y0093551D01*
X0048644Y0093758D01*
X0048673Y009398D01*
X0048644Y0094202D01*
X0048572Y0094375D01*
Y0116925D01*
X0048743Y0117056D01*
X0048951Y0117327D01*
X0049082Y0117644D01*
X0049127Y0117983D01*
X0049082Y0118322D01*
X0048951Y0118639D01*
X0048743Y011891D01*
X0048491Y0119103D01*
Y0119403D01*
X0048743Y0119596D01*
X0048951Y0119867D01*
X0049082Y0120184D01*
X0049127Y0120523D01*
X0049082Y0120862D01*
X0048951Y0121179D01*
X0048743Y012145D01*
X0048572Y0121581D01*
Y0121984D01*
X0048594Y0121993D01*
X004875Y0122113D01*
X0048871Y012227D01*
X0048946Y0122452D01*
X0048972Y0122648D01*
Y0123148D01*
X0048946Y0123344D01*
X0048871Y0123526D01*
X004875Y0123683D01*
Y0123713D01*
X0048871Y012387D01*
X0048946Y0124052D01*
X0048972Y0124248D01*
Y0124748D01*
X0048946Y0124944D01*
X0048871Y0125126D01*
X004875Y0125283D01*
X0048594Y0125403D01*
X0048411Y0125479D01*
X0048215Y0125504D01*
X0047416D01*
X004722Y0125479D01*
X0047037Y0125403D01*
X0046903Y01253D01*
X0042089Y0130113D01*
X0042017Y0130286D01*
X0041951Y0130373D01*
X004199Y013067D01*
X0042024Y0130696D01*
X0042192Y0130915D01*
X0042298Y0131171D01*
X0042334Y0131445D01*
X0042298Y0131719D01*
X0042284Y0131754D01*
Y0141549D01*
X0047569D01*
Y0135881D01*
X0047555Y0135847D01*
X0047518Y0135572D01*
X0047555Y0135298D01*
X004766Y0135043D01*
X0047829Y0134824D01*
X0048048Y0134655D01*
X0048303Y013455D01*
X0048577Y0134513D01*
X0048852Y013455D01*
X0049107Y0134655D01*
X0049326Y0134824D01*
X0049495Y0135043D01*
X00496Y0135298D01*
X0049637Y0135572D01*
X00496Y0135847D01*
X0049586Y0135881D01*
Y0141549D01*
X0074304D01*
X0074338Y0141535D01*
X0074613Y0141498D01*
X0074887Y0141535D01*
X0075142Y014164D01*
X0075361Y0141809D01*
X007553Y0142028D01*
X0075635Y0142283D01*
X0075672Y0142557D01*
X0075635Y0142832D01*
X007553Y0143087D01*
X0075361Y0143306D01*
X0075142Y0143475D01*
X0074887Y014358D01*
X0074613Y0143617D01*
X0074338Y014358D01*
X0074304Y0143566D01*
X0036351D01*
X0036317Y014358D01*
X0036042Y0143617D01*
X0035768Y014358D01*
X0035734Y0143566D01*
X0032702D01*
X0032441Y0143532D01*
X0032198Y0143431D01*
X0031989Y0143271D01*
X0031672Y0142953D01*
X0031511Y0142744D01*
X0031411Y0142501D01*
X0031376Y014224D01*
X0031376Y014224D01*
X0031376D01*
X0031376Y014224D01*
X0031376D01*
Y0137512D01*
X003113Y0136917D01*
X0030917Y0136945D01*
X003073D01*
Y0135812D01*
X003048D01*
Y0135562D01*
X0029223D01*
Y01355D01*
X0029251Y0135288D01*
X0029333Y013509D01*
X002945Y0134938D01*
X0029333Y0134785D01*
X0029251Y0134587D01*
X0029223Y0134375D01*
Y013375D01*
X0029251Y0133538D01*
X0029333Y013334D01*
X0029463Y0133171D01*
X0029633Y013304D01*
X0029673Y0133024D01*
Y0132724D01*
X0029633Y0132707D01*
X0029463Y0132577D01*
X0029333Y0132407D01*
X0029251Y013221D01*
X0029223Y0131997D01*
Y0131372D01*
X0029251Y013116D01*
X0029333Y0130963D01*
X002945Y013081D01*
X0029333Y0130657D01*
X0029251Y013046D01*
X0029223Y0130247D01*
Y0130185D01*
X0031737D01*
Y0130247D01*
X0031709Y013046D01*
X0031627Y0130657D01*
X0031626Y0130659D01*
X0031758Y0130929D01*
X003199D01*
X0032186Y0130954D01*
X0032356Y0131025D01*
X0032385Y0131021D01*
X0032659Y0131057D01*
X0032915Y0131163D01*
X0033134Y0131331D01*
X0033302Y013155D01*
X0033408Y0131806D01*
X0033444Y013208D01*
X0033408Y0132354D01*
X0033394Y0132389D01*
Y0133359D01*
X0033408Y0133393D01*
X0033444Y0133667D01*
X0033408Y0133942D01*
X0033394Y0133976D01*
Y0135361D01*
X003355Y0135371D01*
X0033769Y0135166D01*
Y0131041D01*
X0031949Y0129222D01*
X00317Y0129388D01*
X0031709Y012941D01*
X0031737Y0129622D01*
Y0129685D01*
X003073D01*
Y0128803D01*
X0030917D01*
X003113Y0128831D01*
X0031152Y012884D01*
X0031318Y0128591D01*
X0029501Y0126773D01*
X002938Y0126616D01*
X0029305Y0126434D01*
X0029279Y0126238D01*
Y0121581D01*
X0029108Y012145D01*
X00289Y0121179D01*
X0028769Y0120862D01*
X0028724Y0120523D01*
X0028769Y0120184D01*
X00289Y0119867D01*
X0029108Y0119596D01*
X002936Y0119403D01*
Y0119103D01*
X0029108Y011891D01*
X00289Y0118639D01*
X0028769Y0118322D01*
X0028724Y0117983D01*
X0028769Y0117644D01*
X00289Y0117327D01*
X0029108Y0117056D01*
X002938Y0116847D01*
X0029696Y0116716D01*
X0030035Y0116672D01*
X0030249Y01167D01*
X0031596Y0115353D01*
X0031753Y0115232D01*
X0031935Y0115157D01*
X0032131Y0115131D01*
X0034573D01*
X0034624Y0115008D01*
X0034649Y0114815D01*
X0031989Y0112156D01*
X0031829Y0111947D01*
X0031728Y0111704D01*
X0031694Y0111442D01*
Y0089209D01*
X003168Y0089174D01*
X0031643Y00889D01*
X003168Y0088626D01*
X0031694Y0088591D01*
Y0083603D01*
X0030561Y008247D01*
X0030284Y0082585D01*
Y0114808D01*
X0030284Y0114808D01*
X0030271Y0114906D01*
X0030258Y0115004D01*
X0030205Y0115133D01*
X0030183Y0115186D01*
X0030062Y0115343D01*
X0027636Y011777D01*
X0027664Y0117983D01*
X0027619Y0118322D01*
X0027488Y0118639D01*
X002728Y011891D01*
X0027029Y0119103D01*
Y0119403D01*
X002728Y0119596D01*
X0027489Y0119867D01*
X002762Y0120184D01*
X0027664Y0120523D01*
X002762Y0120862D01*
X0027489Y0121179D01*
X002728Y012145D01*
X0027109Y0121582D01*
Y0121964D01*
X0027178Y0121993D01*
X0027335Y0122113D01*
X0027455Y012227D01*
X0027531Y0122452D01*
X0027556Y0122648D01*
Y0123148D01*
X0027531Y0123344D01*
X0027455Y0123526D01*
X0027335Y0123683D01*
Y0123713D01*
X0027455Y012387D01*
X0027531Y0124052D01*
X0027556Y0124248D01*
Y0124748D01*
X0027531Y0124944D01*
X0027455Y0125126D01*
X0027335Y0125283D01*
X0027178Y0125403D01*
X0027106Y0125433D01*
X0027083Y0125608D01*
X0027008Y0125791D01*
X0026887Y0125947D01*
X0026887Y0125947D01*
X0025799Y0127036D01*
X0025965Y0127286D01*
X0026052Y012725D01*
X0026353Y012721D01*
X0026653Y012725D01*
X0026735Y0127283D01*
X0026882Y0127185D01*
X0028889D01*
X0028872Y0127318D01*
X0028801Y0127488D01*
X0028689Y0127634D01*
X0028801Y0127782D01*
D01*
X0028801Y0127782D01*
X0028801D01*
X0028872Y0127952D01*
X0028896Y0128135D01*
Y0128535D01*
X0028872Y0128718D01*
X0028801Y0128888D01*
X0028689Y0129034D01*
X0028543Y0129146D01*
X0028373Y0129217D01*
X002819Y0129241D01*
X002769D01*
X0027507Y0129217D01*
X0027337Y0129146D01*
X0027311Y0129126D01*
X0027222D01*
X0027173Y012919D01*
X0026932Y0129375D01*
X0026653Y012949D01*
X0026353Y012953D01*
X0026052Y012949D01*
X0025773Y0129375D01*
X0025521Y0129702D01*
Y0131918D01*
X0025773Y0132245D01*
X0026052Y013213D01*
X0026353Y013209D01*
X0026653Y013213D01*
X0026932Y0132245D01*
X0027173Y013243D01*
X0027222Y0132494D01*
X0027311D01*
X0027337Y0132474D01*
X0027507Y0132403D01*
X002769Y0132379D01*
X002819D01*
X0028373Y0132403D01*
X0028543Y0132474D01*
X0028689Y0132586D01*
X0028801Y0132732D01*
X0028872Y0132902D01*
X0028896Y0133085D01*
Y0133485D01*
X0028872Y0133668D01*
X0028801Y0133838D01*
X0028801D01*
X0028801Y0133838D01*
D01*
X0028689Y0133986D01*
X0028689D01*
X0028689Y0133986D01*
X0028801Y0134132D01*
X0028872Y0134302D01*
X0028889Y0134435D01*
X0026882D01*
X0026735Y0134337D01*
X0026653Y013437D01*
X0026353Y013441D01*
X0026052Y013437D01*
X0025773Y0134255D01*
X0025521Y0134582D01*
Y0138988D01*
X0025593Y0139161D01*
X0025622Y0139383D01*
X0025593Y0139604D01*
X0025507Y0139811D01*
X0025371Y0139989D01*
X0025194Y0140125D01*
X0024987Y0140211D01*
X0024765Y014024D01*
X002467Y0140335D01*
X0024641Y0140557D01*
X0024555Y0140764D01*
X0024419Y0140941D01*
X0024241Y0141077D01*
X0024034Y0141163D01*
X0023812Y0141192D01*
X0023591Y0141163D01*
X0023384Y0141077D01*
X0023206Y0140941D01*
X00232Y0140933D01*
X0022916Y014103D01*
Y0144089D01*
X0081764D01*
X0081822Y0143795D01*
D02*
G37*
%LPC*%
G36*
X00657Y0139151D02*
X0065439Y0139117D01*
X0065196Y0139016D01*
X0064987Y0138856D01*
X0064826Y0138647D01*
X0064726Y0138404D01*
X0064691Y0138143D01*
X0064726Y0137881D01*
X0064826Y0137638D01*
X0064987Y0137429D01*
X0065196Y0137269D01*
X0065439Y0137168D01*
X00657Y0137134D01*
X0065961Y0137168D01*
X0066204Y0137269D01*
X0066413Y0137429D01*
X0066574Y0137638D01*
X0066674Y0137881D01*
X0066709Y0138143D01*
X0066674Y0138404D01*
X0066574Y0138647D01*
X0066413Y0138856D01*
X0066204Y0139016D01*
X0065961Y0139117D01*
X00657Y0139151D01*
D02*
G37*
G36*
X0057476Y0086062D02*
X0054919D01*
X0054931Y0085973D01*
X0055062Y0085657D01*
X005527Y0085385D01*
X0055522Y0085192D01*
Y0084893D01*
X005527Y00847D01*
X0055062Y0084428D01*
X0054931Y0084112D01*
X0054886Y0083772D01*
X0054931Y0083433D01*
X0055062Y0083117D01*
X005527Y0082845D01*
X0055522Y0082652D01*
Y0082353D01*
X005527Y008216D01*
X0055062Y0081888D01*
X0054931Y0081572D01*
X0054886Y0081232D01*
X0054931Y0080893D01*
X0055062Y0080577D01*
X005527Y0080305D01*
X0055522Y0080113D01*
Y0079812D01*
X005527Y007962D01*
X0055062Y0079348D01*
X0054931Y0079032D01*
X0054886Y0078692D01*
X0054931Y0078353D01*
X0055062Y0078037D01*
X005527Y0077765D01*
X0055522Y0077573D01*
Y0077272D01*
X005527Y007708D01*
X0055062Y0076808D01*
X0054931Y0076492D01*
X0054886Y0076152D01*
X0054931Y0075813D01*
X0055062Y0075497D01*
X005527Y0075225D01*
X0055522Y0075033D01*
Y0074732D01*
X005527Y007454D01*
X0055062Y0074268D01*
X0054931Y0073952D01*
X0054886Y0073613D01*
X0054931Y0073273D01*
X0055062Y0072957D01*
X005527Y0072685D01*
X0055522Y0072493D01*
Y0072192D01*
X005527Y0072D01*
X0055062Y0071728D01*
X0054931Y0071412D01*
X0054886Y0071073D01*
X0054931Y0070733D01*
X0055062Y0070417D01*
X005527Y0070145D01*
X0055522Y0069952D01*
Y0069652D01*
X005527Y006946D01*
X0055062Y0069188D01*
X0054931Y0068872D01*
X0054886Y0068533D01*
X0054931Y0068193D01*
X0055062Y0067877D01*
X005527Y0067605D01*
X0055522Y0067412D01*
Y0067113D01*
X005527Y006692D01*
X0055062Y0066648D01*
X0054931Y0066332D01*
X0054886Y0065993D01*
X0054931Y0065653D01*
X0055062Y0065337D01*
X005527Y0065065D01*
X0055522Y0064872D01*
Y0064573D01*
X005527Y006438D01*
X0055062Y0064108D01*
X0054931Y0063792D01*
X0054886Y0063452D01*
X0054931Y0063113D01*
X0055062Y0062797D01*
X005527Y0062525D01*
X0055542Y0062317D01*
X0055858Y0062186D01*
X0056197Y0062141D01*
X0056537Y0062186D01*
X0056853Y0062317D01*
X0057125Y0062525D01*
X0057333Y0062797D01*
X0057464Y0063113D01*
X0057509Y0063452D01*
X0057464Y0063792D01*
X0057333Y0064108D01*
X0057125Y006438D01*
X0056873Y0064573D01*
Y0064872D01*
X0057125Y0065065D01*
X0057333Y0065337D01*
X0057464Y0065653D01*
X0057509Y0065993D01*
X0057464Y0066332D01*
X0057333Y0066648D01*
X0057125Y006692D01*
X0056873Y0067113D01*
Y0067412D01*
X0057125Y0067605D01*
X0057333Y0067877D01*
X0057464Y0068193D01*
X0057509Y0068533D01*
X0057464Y0068872D01*
X0057333Y0069188D01*
X0057125Y006946D01*
X0056873Y0069652D01*
Y0069952D01*
X0057125Y0070145D01*
X0057333Y0070417D01*
X0057464Y0070733D01*
X0057509Y0071073D01*
X0057464Y0071412D01*
X0057333Y0071728D01*
X0057125Y0072D01*
X0056873Y0072192D01*
Y0072493D01*
X0057125Y0072685D01*
X0057333Y0072957D01*
X0057464Y0073273D01*
X0057509Y0073613D01*
X0057464Y0073952D01*
X0057333Y0074268D01*
X0057125Y007454D01*
X0056873Y0074732D01*
Y0075033D01*
X0057125Y0075225D01*
X0057333Y0075497D01*
X0057464Y0075813D01*
X0057509Y0076152D01*
X0057464Y0076492D01*
X0057333Y0076808D01*
X0057125Y007708D01*
X0056873Y0077272D01*
Y0077573D01*
X0057125Y0077765D01*
X0057333Y0078037D01*
X0057464Y0078353D01*
X0057509Y0078692D01*
X0057464Y0079032D01*
X0057333Y0079348D01*
X0057125Y007962D01*
X0056873Y0079812D01*
Y0080113D01*
X0057125Y0080305D01*
X0057333Y0080577D01*
X0057464Y0080893D01*
X0057509Y0081232D01*
X0057464Y0081572D01*
X0057333Y0081888D01*
X0057125Y008216D01*
X0056873Y0082353D01*
Y0082652D01*
X0057125Y0082845D01*
X0057333Y0083117D01*
X0057464Y0083433D01*
X0057509Y0083772D01*
X0057464Y0084112D01*
X0057333Y0084428D01*
X0057125Y00847D01*
X0056873Y0084893D01*
Y0085192D01*
X0057125Y0085385D01*
X0057333Y0085657D01*
X0057464Y0085973D01*
X0057476Y0086062D01*
D02*
G37*
G36*
X00381Y0110077D02*
X0037878Y0110048D01*
X0037671Y0109962D01*
X0037494Y0109826D01*
X0037358Y0109649D01*
X0037272Y0109442D01*
X0037243Y010922D01*
X0037272Y0108998D01*
X0037344Y0108825D01*
Y0072178D01*
X0037173Y0072047D01*
X0036964Y0071776D01*
X0036833Y0071459D01*
X0036789Y007112D01*
X0036833Y0070781D01*
X0036964Y0070464D01*
X0037173Y0070193D01*
X0037424Y007D01*
Y00697D01*
X0037173Y0069507D01*
X0036964Y0069236D01*
X0036833Y0068919D01*
X0036789Y006858D01*
X0036833Y0068241D01*
X0036964Y0067924D01*
X0037173Y0067653D01*
X0037444Y0067444D01*
X0037761Y0067313D01*
X00381Y0067269D01*
X0038439Y0067313D01*
X0038756Y0067444D01*
X0039027Y0067653D01*
X0039236Y0067924D01*
X0039367Y0068241D01*
X0039411Y006858D01*
X0039367Y0068919D01*
X0039236Y0069236D01*
X0039027Y0069507D01*
X0038776Y00697D01*
Y007D01*
X0039027Y0070193D01*
X0039236Y0070464D01*
X0039367Y0070781D01*
X0039411Y007112D01*
X0039367Y0071459D01*
X0039236Y0071776D01*
X0039027Y0072047D01*
X0038856Y0072178D01*
Y0108825D01*
X0038928Y0108998D01*
X0038957Y010922D01*
X0038928Y0109442D01*
X0038842Y0109649D01*
X0038706Y0109826D01*
X0038529Y0109962D01*
X0038322Y0110048D01*
X00381Y0110077D01*
D02*
G37*
G36*
X0049213Y008127D02*
X0048912Y008123D01*
X0048633Y0081115D01*
X0048392Y008093D01*
X0048343Y0080866D01*
X0048254D01*
X0048228Y0080886D01*
X0048058Y0080957D01*
X0047875Y0080981D01*
X0047375D01*
X0047192Y0080957D01*
X0047022Y0080886D01*
X0046876Y0080774D01*
X0046764Y0080628D01*
X0046693Y0080458D01*
X0046669Y0080275D01*
Y0079875D01*
X0046693Y0079692D01*
X0046764Y0079522D01*
X0046764D01*
X0046764Y0079522D01*
D01*
X0046876Y0079374D01*
X0046764Y0079228D01*
X0046693Y0079058D01*
X0046676Y0078925D01*
X0048683D01*
X004883Y0079023D01*
X0048912Y007899D01*
X0049213Y007895D01*
X0049513Y007899D01*
X0049792Y0079105D01*
X0050033Y007929D01*
X0050217Y007953D01*
X0050333Y007981D01*
X0050372Y008011D01*
X0050333Y008041D01*
X0050217Y008069D01*
X0050033Y008093D01*
X0049792Y0081115D01*
X0049513Y008123D01*
X0049213Y008127D01*
D02*
G37*
G36*
X0048683Y0086175D02*
X0046676D01*
X0046693Y0086042D01*
X0046764Y0085872D01*
X0046876Y0085726D01*
X0046876Y0085726D01*
X0046764Y0085578D01*
D01*
X0046764Y0085578D01*
X0046764D01*
X0046693Y0085408D01*
X0046669Y0085225D01*
Y0084825D01*
X0046693Y0084642D01*
X0046764Y0084472D01*
X0046876Y0084326D01*
X0047022Y0084214D01*
X0047192Y0084143D01*
X0047375Y0084119D01*
X0047875D01*
X0048058Y0084143D01*
X0048228Y0084214D01*
X0048254Y0084234D01*
X0048343D01*
X0048392Y008417D01*
X0048633Y0083985D01*
X0048912Y008387D01*
X0049213Y008383D01*
X0049513Y008387D01*
X0049792Y0083985D01*
X0050033Y008417D01*
X0050217Y008441D01*
X0050333Y008469D01*
X0050372Y008499D01*
X0050333Y008529D01*
X0050217Y008557D01*
X0050033Y008581D01*
X0049792Y0085995D01*
X0049513Y008611D01*
X0049213Y008615D01*
X0048912Y008611D01*
X004883Y0086077D01*
X0048683Y0086175D01*
D02*
G37*
G36*
X0047375Y0078425D02*
X0046676D01*
X0046693Y0078292D01*
X0046764Y0078122D01*
X0046876Y0077976D01*
X0047022Y0077864D01*
X0047192Y0077793D01*
X0047375Y0077769D01*
Y0078425D01*
D02*
G37*
G36*
X0048574D02*
X0047875D01*
Y0077769D01*
X0048058Y0077793D01*
X0048228Y0077864D01*
X0048374Y0077976D01*
X0048486Y0078122D01*
X0048557Y0078292D01*
X0048574Y0078425D01*
D02*
G37*
G36*
X0033977Y0058043D02*
X0033099D01*
X0033106Y0057993D01*
X0033222Y0057713D01*
X0033406Y0057473D01*
X0033647Y0057288D01*
X0033926Y0057173D01*
X0033977Y0057166D01*
Y0058043D01*
D02*
G37*
G36*
X0035354D02*
X0034477D01*
Y0057166D01*
X0034527Y0057173D01*
X0034806Y0057288D01*
X0035047Y0057473D01*
X0035231Y0057713D01*
X0035347Y0057993D01*
X0035354Y0058043D01*
D02*
G37*
G36*
X003135Y0057137D02*
X0031288D01*
Y005613D01*
X003217D01*
Y0056318D01*
X0032142Y005653D01*
X003206Y0056727D01*
X0031929Y0056897D01*
X003176Y0057027D01*
X0031562Y0057109D01*
X003135Y0057137D01*
D02*
G37*
G36*
X004151D02*
X0041447D01*
Y005613D01*
X004233D01*
Y0056318D01*
X0042302Y005653D01*
X004222Y0056727D01*
X0042089Y0056897D01*
X004192Y0057027D01*
X0041722Y0057109D01*
X004151Y0057137D01*
D02*
G37*
G36*
X0044073Y0058043D02*
X0043196D01*
X0043203Y0057993D01*
X0043318Y0057713D01*
X0043503Y0057473D01*
X0043743Y0057288D01*
X0044023Y0057173D01*
X0044073Y0057166D01*
Y0058043D01*
D02*
G37*
G36*
X0034477Y005942D02*
Y0058543D01*
X0035354D01*
X0035347Y0058593D01*
X0035231Y0058873D01*
X0035047Y0059113D01*
X0034806Y0059298D01*
X0034527Y0059413D01*
X0034477Y005942D01*
D02*
G37*
G36*
X0044573D02*
Y0058543D01*
X004545D01*
X0045443Y0058593D01*
X0045328Y0058873D01*
X0045143Y0059113D01*
X0044903Y0059298D01*
X0044623Y0059413D01*
X0044573Y005942D01*
D02*
G37*
G36*
X004545Y0058043D02*
X0044573D01*
Y0057166D01*
X0044623Y0057173D01*
X0044903Y0057288D01*
X0045143Y0057473D01*
X0045328Y0057713D01*
X0045443Y0057993D01*
X004545Y0058043D01*
D02*
G37*
G36*
X0033977Y005942D02*
X0033926Y0059413D01*
X0033647Y0059298D01*
X0033406Y0059113D01*
X0033222Y0058873D01*
X0033106Y0058593D01*
X0033099Y0058543D01*
X0033977D01*
Y005942D01*
D02*
G37*
G36*
X002769Y0126685D02*
X0026991D01*
X0027008Y0126552D01*
X0027079Y0126382D01*
X0027191Y0126236D01*
X0027337Y0126124D01*
X0027507Y0126053D01*
X002769Y0126029D01*
Y0126685D01*
D02*
G37*
G36*
X0028889D02*
X002819D01*
Y0126029D01*
X0028373Y0126053D01*
X0028543Y0126124D01*
X0028689Y0126236D01*
X0028801Y0126382D01*
X0028872Y0126552D01*
X0028889Y0126685D01*
D02*
G37*
G36*
X0065338Y0125587D02*
Y012471D01*
X0066215D01*
X0066208Y012476D01*
X0066092Y012504D01*
X0065908Y012528D01*
X0065667Y0125465D01*
X0065388Y012558D01*
X0065338Y0125587D01*
D02*
G37*
G36*
X0064838D02*
X0064787Y012558D01*
X0064508Y0125465D01*
X0064267Y012528D01*
X0064083Y012504D01*
X0063967Y0124761D01*
X0063667D01*
X0063552Y012504D01*
X0063368Y012528D01*
X0063127Y0125465D01*
X0062848Y012558D01*
X0062798Y0125587D01*
Y012446D01*
Y0123333D01*
X0062848Y012334D01*
X0063127Y0123455D01*
X0063368Y012364D01*
X0063552Y012388D01*
X0063667Y0124159D01*
X0063967D01*
X0064083Y012388D01*
X0064267Y012364D01*
X0064508Y0123455D01*
X0064787Y012334D01*
X0064838Y0123333D01*
Y012446D01*
Y0125587D01*
D02*
G37*
G36*
X002819Y0135591D02*
Y0134935D01*
X0028889D01*
X0028872Y0135068D01*
X0028801Y0135238D01*
X0028689Y0135384D01*
X0028543Y0135496D01*
X0028373Y0135567D01*
X002819Y0135591D01*
D02*
G37*
G36*
X0065088Y013324D02*
X0064787Y01332D01*
X0064508Y0133085D01*
X0064267Y01329D01*
X0064083Y013266D01*
X0063967Y0132381D01*
X0063667D01*
X0063552Y013266D01*
X0063368Y01329D01*
X0063127Y0133085D01*
X0062848Y01332D01*
X0062548Y013324D01*
X0062247Y01332D01*
X0061968Y0133085D01*
X0061727Y01329D01*
X0061543Y013266D01*
X0061427Y013238D01*
X0061388Y013208D01*
X0061427Y013178D01*
X0061543Y01315D01*
X0061727Y013126D01*
X0061968Y0131075D01*
X0062247Y013096D01*
X0062548Y013092D01*
X0062848Y013096D01*
X0063127Y0131075D01*
X0063368Y013126D01*
X0063552Y01315D01*
X0063667Y0131779D01*
X0063967D01*
X0064083Y01315D01*
X0064267Y013126D01*
X0064508Y0131075D01*
X0064787Y013096D01*
X0065088Y013092D01*
X0065388Y013096D01*
X0065667Y0131075D01*
X0065908Y013126D01*
X0066092Y01315D01*
X0066208Y013178D01*
X0066247Y013208D01*
X0066208Y013238D01*
X0066092Y013266D01*
X0065908Y01329D01*
X0065667Y0133085D01*
X0065388Y01332D01*
X0065088Y013324D01*
D02*
G37*
G36*
X002769Y0135591D02*
X0027507Y0135567D01*
X0027337Y0135496D01*
X0027191Y0135384D01*
X0027079Y0135238D01*
X0027008Y0135068D01*
X0026991Y0134935D01*
X002769D01*
Y0135591D01*
D02*
G37*
G36*
X003912Y0129367D02*
X0038113D01*
Y0129305D01*
X0038141Y0129093D01*
X0038223Y0128895D01*
X0038353Y0128726D01*
X0038523Y0128595D01*
X003872Y0128513D01*
X0038932Y0128485D01*
X003912D01*
Y0129367D01*
D02*
G37*
G36*
X003023Y0129685D02*
X0029223D01*
Y0129622D01*
X0029251Y012941D01*
X0029333Y0129213D01*
X0029463Y0129043D01*
X0029633Y0128913D01*
X002983Y0128831D01*
X0030042Y0128803D01*
X003023D01*
Y0129685D01*
D02*
G37*
G36*
X0047875Y0087331D02*
Y0086675D01*
X0048574D01*
X0048557Y0086808D01*
X0048486Y0086978D01*
X0048374Y0087124D01*
X0048228Y0087236D01*
X0048058Y0087307D01*
X0047875Y0087331D01*
D02*
G37*
G36*
X00613Y0139151D02*
X0061039Y0139117D01*
X0060796Y0139016D01*
X0060587Y0138856D01*
X0060426Y0138647D01*
X0060326Y0138404D01*
X0060291Y0138143D01*
X0060326Y0137881D01*
X0060426Y0137638D01*
X0060587Y0137429D01*
X0060796Y0137269D01*
X0061039Y0137168D01*
X00613Y0137134D01*
X0061561Y0137168D01*
X0061804Y0137269D01*
X0062013Y0137429D01*
X0062174Y0137638D01*
X0062274Y0137881D01*
X0062309Y0138143D01*
X0062274Y0138404D01*
X0062174Y0138647D01*
X0062013Y0138856D01*
X0061804Y0139016D01*
X0061561Y0139117D01*
X00613Y0139151D01*
D02*
G37*
G36*
X0056197Y0113024D02*
X0055858Y0112979D01*
X0055542Y0112848D01*
X005527Y011264D01*
X0055062Y0112368D01*
X0054931Y0112052D01*
X0054886Y0111713D01*
X0054931Y0111373D01*
X0055062Y0111057D01*
X005527Y0110785D01*
X0055522Y0110592D01*
Y0110293D01*
X005527Y01101D01*
X0055062Y0109828D01*
X0054931Y0109512D01*
X0054886Y0109173D01*
X0054931Y0108833D01*
X0055062Y0108517D01*
X005527Y0108245D01*
X0055522Y0108052D01*
Y0107753D01*
X005527Y010756D01*
X0055062Y0107288D01*
X0054931Y0106972D01*
X0054886Y0106632D01*
X0054931Y0106293D01*
X0055062Y0105977D01*
X005527Y0105705D01*
X0055522Y0105512D01*
Y0105213D01*
X005527Y010502D01*
X0055062Y0104748D01*
X0054931Y0104432D01*
X0054886Y0104092D01*
X0054931Y0103753D01*
X0055062Y0103437D01*
X005527Y0103165D01*
X0055522Y0102973D01*
Y0102673D01*
X005527Y010248D01*
X0055062Y0102208D01*
X0054931Y0101892D01*
X0054886Y0101552D01*
X0054931Y0101213D01*
X0055062Y0100897D01*
X005527Y0100625D01*
X0055522Y0100433D01*
Y0100132D01*
X005527Y009994D01*
X0055062Y0099668D01*
X0054931Y0099352D01*
X0054886Y0099012D01*
X0054931Y0098673D01*
X0055062Y0098357D01*
X005527Y0098085D01*
X0055522Y0097893D01*
Y0097592D01*
X005527Y00974D01*
X0055062Y0097128D01*
X0054931Y0096812D01*
X0054886Y0096473D01*
X0054931Y0096133D01*
X0055062Y0095817D01*
X005527Y0095545D01*
X0055522Y0095353D01*
Y0095052D01*
X005527Y009486D01*
X0055062Y0094588D01*
X0054931Y0094272D01*
X0054886Y0093933D01*
X0054931Y0093593D01*
X0055062Y0093277D01*
X005527Y0093005D01*
X0055522Y0092812D01*
Y0092512D01*
X005527Y009232D01*
X0055062Y0092048D01*
X0054931Y0091732D01*
X0054886Y0091393D01*
X0054931Y0091053D01*
X0055062Y0090737D01*
X005527Y0090465D01*
X0055522Y0090272D01*
Y0089973D01*
X005527Y008978D01*
X0055062Y0089508D01*
X0054931Y0089192D01*
X0054886Y0088853D01*
X0054931Y0088513D01*
X0055062Y0088197D01*
X005527Y0087925D01*
X0055522Y0087732D01*
Y0087433D01*
X005527Y008724D01*
X0055062Y0086968D01*
X0054931Y0086652D01*
X0054919Y0086562D01*
X0057476D01*
X0057464Y0086652D01*
X0057333Y0086968D01*
X0057125Y008724D01*
X0056873Y0087433D01*
Y0087732D01*
X0057125Y0087925D01*
X0057333Y0088197D01*
X0057464Y0088513D01*
X0057509Y0088853D01*
X0057464Y0089192D01*
X0057333Y0089508D01*
X0057125Y008978D01*
X0056873Y0089973D01*
Y0090272D01*
X0057125Y0090465D01*
X0057333Y0090737D01*
X0057464Y0091053D01*
X0057509Y0091393D01*
X0057464Y0091732D01*
X0057333Y0092048D01*
X0057125Y009232D01*
X0056873Y0092512D01*
Y0092812D01*
X0057125Y0093005D01*
X0057333Y0093277D01*
X0057464Y0093593D01*
X0057509Y0093933D01*
X0057464Y0094272D01*
X0057333Y0094588D01*
X0057125Y009486D01*
X0056873Y0095052D01*
Y0095353D01*
X0057125Y0095545D01*
X0057333Y0095817D01*
X0057464Y0096133D01*
X0057509Y0096473D01*
X0057464Y0096812D01*
X0057333Y0097128D01*
X0057125Y00974D01*
X0056873Y0097592D01*
Y0097893D01*
X0057125Y0098085D01*
X0057333Y0098357D01*
X0057464Y0098673D01*
X0057509Y0099012D01*
X0057464Y0099352D01*
X0057333Y0099668D01*
X0057125Y009994D01*
X0056873Y0100132D01*
Y0100433D01*
X0057125Y0100625D01*
X0057333Y0100897D01*
X0057464Y0101213D01*
X0057509Y0101552D01*
X0057464Y0101892D01*
X0057333Y0102208D01*
X0057125Y010248D01*
X0056873Y0102673D01*
Y0102973D01*
X0057125Y0103165D01*
X0057333Y0103437D01*
X0057464Y0103753D01*
X0057509Y0104092D01*
X0057464Y0104432D01*
X0057333Y0104748D01*
X0057125Y010502D01*
X0056873Y0105213D01*
Y0105512D01*
X0057125Y0105705D01*
X0057333Y0105977D01*
X0057464Y0106293D01*
X0057509Y0106632D01*
X0057464Y0106972D01*
X0057333Y0107288D01*
X0057125Y010756D01*
X0056873Y0107753D01*
Y0108052D01*
X0057125Y0108245D01*
X0057333Y0108517D01*
X0057464Y0108833D01*
X0057509Y0109173D01*
X0057464Y0109512D01*
X0057333Y0109828D01*
X0057125Y01101D01*
X0056873Y0110293D01*
Y0110592D01*
X0057125Y0110785D01*
X0057333Y0111057D01*
X0057464Y0111373D01*
X0057509Y0111713D01*
X0057464Y0112052D01*
X0057333Y0112368D01*
X0057125Y011264D01*
X0056853Y0112848D01*
X0056537Y0112979D01*
X0056197Y0113024D01*
D02*
G37*
G36*
X0047375Y0087331D02*
X0047192Y0087307D01*
X0047022Y0087236D01*
X0046876Y0087124D01*
X0046764Y0086978D01*
X0046693Y0086808D01*
X0046676Y0086675D01*
X0047375D01*
Y0087331D01*
D02*
G37*
G36*
X0068647Y0089363D02*
X006764D01*
Y00893D01*
X0067668Y0089088D01*
X006775Y008889D01*
X0067881Y0088721D01*
X006805Y008859D01*
X0068248Y0088508D01*
X006846Y008848D01*
X0068647D01*
Y0089363D01*
D02*
G37*
G36*
X0066215Y012421D02*
X0065338D01*
Y0123333D01*
X0065388Y012334D01*
X0065667Y0123455D01*
X0065908Y012364D01*
X0066092Y012388D01*
X0066208Y012416D01*
X0066215Y012421D01*
D02*
G37*
G36*
X0062298Y0125587D02*
X0062247Y012558D01*
X0061968Y0125465D01*
X0061727Y012528D01*
X0061543Y012504D01*
X0061427Y012476D01*
X006142Y012471D01*
X0062298D01*
Y0125587D01*
D02*
G37*
G36*
X003023Y0136945D02*
X0030042D01*
X002983Y0136917D01*
X0029633Y0136835D01*
X0029463Y0136704D01*
X0029333Y0136535D01*
X0029251Y0136337D01*
X0029223Y0136125D01*
Y0136062D01*
X003023D01*
Y0136945D01*
D02*
G37*
G36*
X0062298Y012421D02*
X006142D01*
X0061427Y012416D01*
X0061543Y012388D01*
X0061727Y012364D01*
X0061968Y0123455D01*
X0062247Y012334D01*
X0062298Y0123333D01*
Y012421D01*
D02*
G37*
%LPD*%
D10*
X0029362Y0060325D02*
D03*
X0030962D02*
D03*
X0039205D02*
D03*
X0040805D02*
D03*
D14*
X00238Y0124498D02*
D03*
Y0122898D02*
D03*
X00264Y0124498D02*
D03*
Y0122898D02*
D03*
X0040195D02*
D03*
Y0124498D02*
D03*
X0042736Y0122898D02*
D03*
Y0124498D02*
D03*
X0047815Y0122898D02*
D03*
Y0124498D02*
D03*
D19*
X003048Y0131685D02*
D03*
Y0129935D02*
D03*
Y0134062D02*
D03*
Y0135812D02*
D03*
X003937Y0131367D02*
D03*
Y0129617D02*
D03*
X0068897Y0089613D02*
D03*
Y0091363D02*
D03*
D22*
X0037838Y0122898D02*
X0040195D01*
X0035877Y0117158D02*
Y0120937D01*
X0037838Y0122898D01*
X0029362Y0060325D02*
Y0070637D01*
X0026975Y0073025D02*
X0029362Y0070637D01*
X0023812Y0073025D02*
X0026975D01*
X0024765Y0127D02*
Y0139383D01*
Y0127D02*
X0026353Y0125412D01*
X0034525Y0130727D02*
Y0135572D01*
X0030035Y0126238D02*
X0034525Y0130727D01*
X0030035Y0120523D02*
Y0126238D01*
X0037147Y0131445D02*
Y0135572D01*
X0033846Y0128143D02*
X0037147Y0131445D01*
X0033846Y0120523D02*
Y0128143D01*
X0027305Y0075565D02*
Y0114491D01*
X0029528Y0078105D02*
Y0114808D01*
X0023812Y0117983D02*
X0027305Y0114491D01*
X0026353Y0117983D02*
X0029528Y0114808D01*
X0040195Y0095377D02*
X0044132Y009144D01*
X0040195Y0095377D02*
Y0117983D01*
X0044132Y006096D02*
Y009144D01*
X00381Y007112D02*
Y010922D01*
X0042736Y009906D02*
Y0117983D01*
X0045276Y009652D02*
Y0117983D01*
X0047815Y009398D02*
Y0117983D01*
X0034925Y007112D02*
Y011176D01*
X0034607Y0115887D02*
X0035877Y0117158D01*
X0032131Y0115887D02*
X0034607D01*
X0040805Y0062395D02*
X004097Y006223D01*
X0040805Y0060325D02*
Y0062395D01*
X0030962Y0060325D02*
Y0062065D01*
X0041465Y0058293D02*
X0044132Y006096D01*
X0039243Y0058293D02*
X0041465D01*
X0039205Y0058331D02*
X0039243Y0058293D01*
X0039205Y0058331D02*
Y0060325D01*
X0039243Y0058293D02*
X0039447Y0058089D01*
Y005588D02*
Y0058089D01*
X0029146Y0058293D02*
X0029288Y0058152D01*
Y005588D02*
Y0058152D01*
X0029146Y0058293D02*
X0029362Y0058509D01*
Y0060325D01*
X00238Y0124498D02*
X0023812Y0140335D01*
X0027905Y013325D02*
X002794Y0133285D01*
X0026353Y013325D02*
X0027905D01*
X0027905Y012837D02*
X002794Y0128335D01*
X0026353Y012837D02*
X0027905D01*
X0026353Y0124498D02*
Y0125412D01*
Y0120523D02*
Y0122898D01*
X0023812Y0120523D02*
Y0122898D01*
X0041197Y0131367D02*
X0041275Y0131445D01*
X003937Y0131367D02*
X0041197D01*
X003199Y0134062D02*
X0032385Y0133667D01*
X003048Y0134062D02*
X003199D01*
Y0131685D02*
X0032385Y013208D01*
X003048Y0131685D02*
X003199D01*
X0040195Y0120523D02*
Y0122898D01*
X0042736Y0120523D02*
Y0122898D01*
X0047815Y0120523D02*
Y0122898D01*
X0068897Y0091363D02*
X0068927Y0091393D01*
X0071438D01*
X0047625Y0080075D02*
X004766Y008011D01*
X0049213D01*
X0047625Y0085025D02*
X004766Y008499D01*
X0049213D01*
X0030035Y0117983D02*
X0032131Y0115887D01*
X0041275Y0127952D02*
X0045276Y0123952D01*
Y0120523D02*
Y0123952D01*
X0038735Y0127D02*
X0040958D01*
X0042736Y0125222D01*
Y0124498D02*
Y0125222D01*
X0041275Y0129857D02*
X0046634Y0124498D01*
X0047815D01*
X0040195D02*
X0040322Y0124625D01*
X0038735Y012573D02*
X0040005D01*
X0040322Y0125412D01*
Y0124625D02*
Y0125412D01*
D23*
X0032702Y0142557D02*
X0041275D01*
X0032385Y014224D02*
X0032702Y0142557D01*
X0032385Y0133667D02*
Y014224D01*
X0048577Y0142557D02*
X0074613D01*
X0032702Y0083185D02*
Y00889D01*
Y0111442D01*
X0031115Y0081598D02*
X0032702Y0083185D01*
X0031115Y006223D02*
Y0081598D01*
X0032702Y0111442D02*
X0037655Y0116396D01*
Y0117983D01*
X0031115Y006223D02*
X004097D01*
X0041275Y0142557D02*
X0048577D01*
Y0135572D02*
Y0142557D01*
X0041275Y0131445D02*
Y0142557D01*
X0032385Y013208D02*
Y0133667D01*
X0079692Y00889D02*
Y01143D01*
Y00889D02*
X0082232D01*
X0079692Y0081598D02*
X0080645Y0080645D01*
X0082232D01*
X0071438Y0086312D02*
X0079423D01*
X0079692Y0086043D01*
Y0081598D02*
Y0086043D01*
Y00889D01*
D25*
X0023813Y0120523D02*
D03*
X0026353D02*
D03*
X0037655Y0117983D02*
D03*
X0040195D02*
D03*
X0042736D02*
D03*
X0045276D02*
D03*
X0047815D02*
D03*
Y0120523D02*
D03*
X0045276D02*
D03*
X0042736D02*
D03*
X0040195D02*
D03*
X0037655D02*
D03*
X0056197Y0111713D02*
D03*
Y0109173D02*
D03*
Y0106632D02*
D03*
Y0104092D02*
D03*
Y0101552D02*
D03*
Y0099012D02*
D03*
Y0096473D02*
D03*
Y0093933D02*
D03*
Y0091393D02*
D03*
Y0088853D02*
D03*
Y0086312D02*
D03*
Y0083772D02*
D03*
Y0081232D02*
D03*
Y0078692D02*
D03*
Y0076152D02*
D03*
Y0073613D02*
D03*
Y0071073D02*
D03*
Y0068533D02*
D03*
Y0065993D02*
D03*
Y0063452D02*
D03*
X0071438Y0111713D02*
D03*
Y0109173D02*
D03*
Y0106632D02*
D03*
Y0104092D02*
D03*
Y0101552D02*
D03*
Y0099012D02*
D03*
Y0096473D02*
D03*
Y0093933D02*
D03*
Y0091393D02*
D03*
Y0088853D02*
D03*
Y0086312D02*
D03*
Y0083772D02*
D03*
Y0081232D02*
D03*
Y0078692D02*
D03*
Y0076152D02*
D03*
Y0073613D02*
D03*
Y0071073D02*
D03*
Y0068533D02*
D03*
Y0065993D02*
D03*
Y0063452D02*
D03*
X0082232Y0140018D02*
D03*
Y0142557D02*
D03*
X0034925Y006858D02*
D03*
Y007112D02*
D03*
X00381Y006858D02*
D03*
Y007112D02*
D03*
X0023812Y011176D02*
D03*
Y010922D02*
D03*
Y010668D02*
D03*
Y010414D02*
D03*
Y01016D02*
D03*
Y009906D02*
D03*
Y009652D02*
D03*
Y009398D02*
D03*
Y009144D02*
D03*
Y00889D02*
D03*
Y0060325D02*
D03*
Y0062865D02*
D03*
Y0065405D02*
D03*
Y0067945D02*
D03*
Y0070485D02*
D03*
Y0073025D02*
D03*
Y0075565D02*
D03*
Y0078105D02*
D03*
Y0080645D02*
D03*
Y0083185D02*
D03*
X0082232Y0060325D02*
D03*
Y0062865D02*
D03*
Y0065405D02*
D03*
Y0067945D02*
D03*
Y0070485D02*
D03*
Y0073025D02*
D03*
Y0075565D02*
D03*
Y0078105D02*
D03*
Y0080645D02*
D03*
Y0083185D02*
D03*
X0033846Y0120523D02*
D03*
Y0117983D02*
D03*
X0030035D02*
D03*
Y0120523D02*
D03*
X0023812Y0117983D02*
D03*
X0026353D02*
D03*
X0082232Y011176D02*
D03*
Y010922D02*
D03*
Y010668D02*
D03*
Y010414D02*
D03*
Y01016D02*
D03*
Y009906D02*
D03*
Y009652D02*
D03*
Y009398D02*
D03*
Y009144D02*
D03*
Y00889D02*
D03*
D26*
X0026353Y012837D02*
D03*
Y013325D02*
D03*
X0065088Y013208D02*
D03*
Y012446D02*
D03*
X0062548Y013208D02*
D03*
Y012446D02*
D03*
X0049213Y008011D02*
D03*
Y008499D02*
D03*
X0044323Y0058293D02*
D03*
X0039243D02*
D03*
X0034227D02*
D03*
X0029146D02*
D03*
D27*
X00613Y0138143D02*
D03*
X00657D02*
D03*
D28*
X00302Y01378D02*
D03*
X00354Y01227D02*
D03*
X00262Y00583D02*
D03*
X00766Y00924D02*
D03*
X00413Y00861D02*
D03*
X00252D02*
D03*
X0072073Y0132398D02*
D03*
X0074613Y0142557D02*
D03*
X0032702Y00889D02*
D03*
Y0083185D02*
D03*
X0036042Y0142557D02*
D03*
X0041275Y0131445D02*
D03*
X0032385Y0133667D02*
D03*
Y013208D02*
D03*
X0048577Y0135572D02*
D03*
X0079692Y01143D02*
D03*
X00606Y01336D02*
D03*
D29*
X00358Y01345D02*
D03*
X0079378Y00583D02*
D03*
X0048D02*
D03*
X0059057D02*
D03*
X006832D02*
D03*
X0037783Y014D02*
D03*
X0078D02*
D03*
X0047943Y013D02*
D03*
X0078423D02*
D03*
X0059Y012D02*
D03*
X0068262D02*
D03*
X0078423D02*
D03*
X0059Y011D02*
D03*
X0068262D02*
D03*
X0059Y01D02*
D03*
X0068262D02*
D03*
X0059Y009D02*
D03*
Y008D02*
D03*
X0068262D02*
D03*
X0047943Y007D02*
D03*
X0059D02*
D03*
X0068262D02*
D03*
X0027622D02*
D03*
X0023812Y0140335D02*
D03*
X0024765Y0139383D02*
D03*
X0027305Y0075565D02*
D03*
X0029528Y0078105D02*
D03*
X0044132Y009144D02*
D03*
X00381Y010922D02*
D03*
X0042736Y009906D02*
D03*
X0045276Y009652D02*
D03*
X0047815Y009398D02*
D03*
X0034925Y011176D02*
D03*
X0034525Y0135572D02*
D03*
X0037147D02*
D03*
X0041275Y0129857D02*
D03*
Y0127952D02*
D03*
X0038735Y0127D02*
D03*
Y012573D02*
D03*
D30*
X002794Y0133285D02*
D03*
Y0134685D02*
D03*
X002794Y0128335D02*
D03*
Y0126935D02*
D03*
X0047625Y0086425D02*
D03*
Y0085025D02*
D03*
X0047625Y0078675D02*
D03*
Y0080075D02*
D03*
D31*
X0029288Y005588D02*
D03*
X0031038D02*
D03*
X0039447D02*
D03*
X0041197D02*
D03*
M02*
