%FSTAX43Y43*%
%MOMM*%
G71*
G01*
G75*
G04 Layer_Color=65535*
G04:AMPARAMS|DCode=10|XSize=1.3mm|YSize=1mm|CornerRadius=0.25mm|HoleSize=0mm|Usage=FLASHONLY|Rotation=270.000|XOffset=0mm|YOffset=0mm|HoleType=Round|Shape=RoundedRectangle|*
%AMROUNDEDRECTD10*
21,1,1.300,0.500,0,0,270.0*
21,1,0.800,1.000,0,0,270.0*
1,1,0.500,-0.250,-0.400*
1,1,0.500,-0.250,0.400*
1,1,0.500,0.250,0.400*
1,1,0.500,0.250,-0.400*
%
%ADD10ROUNDEDRECTD10*%
G04:AMPARAMS|DCode=11|XSize=1.5mm|YSize=1.3mm|CornerRadius=0.325mm|HoleSize=0mm|Usage=FLASHONLY|Rotation=270.000|XOffset=0mm|YOffset=0mm|HoleType=Round|Shape=RoundedRectangle|*
%AMROUNDEDRECTD11*
21,1,1.500,0.650,0,0,270.0*
21,1,0.850,1.300,0,0,270.0*
1,1,0.650,-0.325,-0.425*
1,1,0.650,-0.325,0.425*
1,1,0.650,0.325,0.425*
1,1,0.650,0.325,-0.425*
%
%ADD11ROUNDEDRECTD11*%
G04:AMPARAMS|DCode=12|XSize=1.9mm|YSize=0.5mm|CornerRadius=0.125mm|HoleSize=0mm|Usage=FLASHONLY|Rotation=0.000|XOffset=0mm|YOffset=0mm|HoleType=Round|Shape=RoundedRectangle|*
%AMROUNDEDRECTD12*
21,1,1.900,0.250,0,0,0.0*
21,1,1.650,0.500,0,0,0.0*
1,1,0.250,0.825,-0.125*
1,1,0.250,-0.825,-0.125*
1,1,0.250,-0.825,0.125*
1,1,0.250,0.825,0.125*
%
%ADD12ROUNDEDRECTD12*%
G04:AMPARAMS|DCode=13|XSize=1.9mm|YSize=0.5mm|CornerRadius=0.125mm|HoleSize=0mm|Usage=FLASHONLY|Rotation=90.000|XOffset=0mm|YOffset=0mm|HoleType=Round|Shape=RoundedRectangle|*
%AMROUNDEDRECTD13*
21,1,1.900,0.250,0,0,90.0*
21,1,1.650,0.500,0,0,90.0*
1,1,0.250,0.125,0.825*
1,1,0.250,0.125,-0.825*
1,1,0.250,-0.125,-0.825*
1,1,0.250,-0.125,0.825*
%
%ADD13ROUNDEDRECTD13*%
G04:AMPARAMS|DCode=14|XSize=1.3mm|YSize=1mm|CornerRadius=0.25mm|HoleSize=0mm|Usage=FLASHONLY|Rotation=180.000|XOffset=0mm|YOffset=0mm|HoleType=Round|Shape=RoundedRectangle|*
%AMROUNDEDRECTD14*
21,1,1.300,0.500,0,0,180.0*
21,1,0.800,1.000,0,0,180.0*
1,1,0.500,-0.400,0.250*
1,1,0.500,0.400,0.250*
1,1,0.500,0.400,-0.250*
1,1,0.500,-0.400,-0.250*
%
%ADD14ROUNDEDRECTD14*%
G04:AMPARAMS|DCode=15|XSize=1.5mm|YSize=1.3mm|CornerRadius=0.325mm|HoleSize=0mm|Usage=FLASHONLY|Rotation=0.000|XOffset=0mm|YOffset=0mm|HoleType=Round|Shape=RoundedRectangle|*
%AMROUNDEDRECTD15*
21,1,1.500,0.650,0,0,0.0*
21,1,0.850,1.300,0,0,0.0*
1,1,0.650,0.425,-0.325*
1,1,0.650,-0.425,-0.325*
1,1,0.650,-0.425,0.325*
1,1,0.650,0.425,0.325*
%
%ADD15ROUNDEDRECTD15*%
G04:AMPARAMS|DCode=16|XSize=2.65mm|YSize=1.75mm|CornerRadius=0.438mm|HoleSize=0mm|Usage=FLASHONLY|Rotation=270.000|XOffset=0mm|YOffset=0mm|HoleType=Round|Shape=RoundedRectangle|*
%AMROUNDEDRECTD16*
21,1,2.650,0.875,0,0,270.0*
21,1,1.775,1.750,0,0,270.0*
1,1,0.875,-0.438,-0.887*
1,1,0.875,-0.438,0.887*
1,1,0.875,0.438,0.887*
1,1,0.875,0.438,-0.887*
%
%ADD16ROUNDEDRECTD16*%
G04:AMPARAMS|DCode=17|XSize=0.9mm|YSize=2.7mm|CornerRadius=0.225mm|HoleSize=0mm|Usage=FLASHONLY|Rotation=270.000|XOffset=0mm|YOffset=0mm|HoleType=Round|Shape=RoundedRectangle|*
%AMROUNDEDRECTD17*
21,1,0.900,2.250,0,0,270.0*
21,1,0.450,2.700,0,0,270.0*
1,1,0.450,-1.125,-0.225*
1,1,0.450,-1.125,0.225*
1,1,0.450,1.125,0.225*
1,1,0.450,1.125,-0.225*
%
%ADD17ROUNDEDRECTD17*%
G04:AMPARAMS|DCode=18|XSize=1mm|YSize=2.8mm|CornerRadius=0.25mm|HoleSize=0mm|Usage=FLASHONLY|Rotation=270.000|XOffset=0mm|YOffset=0mm|HoleType=Round|Shape=RoundedRectangle|*
%AMROUNDEDRECTD18*
21,1,1.000,2.300,0,0,270.0*
21,1,0.500,2.800,0,0,270.0*
1,1,0.500,-1.150,-0.250*
1,1,0.500,-1.150,0.250*
1,1,0.500,1.150,0.250*
1,1,0.500,1.150,-0.250*
%
%ADD18ROUNDEDRECTD18*%
G04:AMPARAMS|DCode=19|XSize=1.5mm|YSize=1.25mm|CornerRadius=0.313mm|HoleSize=0mm|Usage=FLASHONLY|Rotation=0.000|XOffset=0mm|YOffset=0mm|HoleType=Round|Shape=RoundedRectangle|*
%AMROUNDEDRECTD19*
21,1,1.500,0.625,0,0,0.0*
21,1,0.875,1.250,0,0,0.0*
1,1,0.625,0.438,-0.313*
1,1,0.625,-0.438,-0.313*
1,1,0.625,-0.438,0.313*
1,1,0.625,0.438,0.313*
%
%ADD19ROUNDEDRECTD19*%
%ADD20O,0.500X2.250*%
G04:AMPARAMS|DCode=21|XSize=2.5mm|YSize=2mm|CornerRadius=0.5mm|HoleSize=0mm|Usage=FLASHONLY|Rotation=90.000|XOffset=0mm|YOffset=0mm|HoleType=Round|Shape=RoundedRectangle|*
%AMROUNDEDRECTD21*
21,1,2.500,1.000,0,0,90.0*
21,1,1.500,2.000,0,0,90.0*
1,1,1.000,0.500,0.750*
1,1,1.000,0.500,-0.750*
1,1,1.000,-0.500,-0.750*
1,1,1.000,-0.500,0.750*
%
%ADD21ROUNDEDRECTD21*%
%ADD22C,0.500*%
%ADD23C,1.000*%
%ADD24C,0.300*%
%ADD25C,1.600*%
%ADD26C,1.300*%
%ADD27C,1.000*%
%ADD28C,1.100*%
%ADD29C,0.700*%
G04:AMPARAMS|DCode=30|XSize=0.9mm|YSize=0.8mm|CornerRadius=0.2mm|HoleSize=0mm|Usage=FLASHONLY|Rotation=180.000|XOffset=0mm|YOffset=0mm|HoleType=Round|Shape=RoundedRectangle|*
%AMROUNDEDRECTD30*
21,1,0.900,0.400,0,0,180.0*
21,1,0.500,0.800,0,0,180.0*
1,1,0.400,-0.250,0.200*
1,1,0.400,0.250,0.200*
1,1,0.400,0.250,-0.200*
1,1,0.400,-0.250,-0.200*
%
%ADD30ROUNDEDRECTD30*%
G04:AMPARAMS|DCode=31|XSize=1.5mm|YSize=1.25mm|CornerRadius=0.313mm|HoleSize=0mm|Usage=FLASHONLY|Rotation=270.000|XOffset=0mm|YOffset=0mm|HoleType=Round|Shape=RoundedRectangle|*
%AMROUNDEDRECTD31*
21,1,1.500,0.625,0,0,270.0*
21,1,0.875,1.250,0,0,270.0*
1,1,0.625,-0.313,-0.438*
1,1,0.625,-0.313,0.438*
1,1,0.625,0.313,0.438*
1,1,0.625,0.313,-0.438*
%
%ADD31ROUNDEDRECTD31*%
%ADD32C,0.178*%
%ADD33C,0.005*%
%ADD34C,0.250*%
%ADD35C,0.254*%
%ADD36C,0.400*%
G04:AMPARAMS|DCode=37|XSize=1.503mm|YSize=1.203mm|CornerRadius=0.352mm|HoleSize=0mm|Usage=FLASHONLY|Rotation=270.000|XOffset=0mm|YOffset=0mm|HoleType=Round|Shape=RoundedRectangle|*
%AMROUNDEDRECTD37*
21,1,1.503,0.500,0,0,270.0*
21,1,0.800,1.203,0,0,270.0*
1,1,0.703,-0.250,-0.400*
1,1,0.703,-0.250,0.400*
1,1,0.703,0.250,0.400*
1,1,0.703,0.250,-0.400*
%
%ADD37ROUNDEDRECTD37*%
G04:AMPARAMS|DCode=38|XSize=1.703mm|YSize=1.503mm|CornerRadius=0.427mm|HoleSize=0mm|Usage=FLASHONLY|Rotation=270.000|XOffset=0mm|YOffset=0mm|HoleType=Round|Shape=RoundedRectangle|*
%AMROUNDEDRECTD38*
21,1,1.703,0.650,0,0,270.0*
21,1,0.850,1.503,0,0,270.0*
1,1,0.853,-0.325,-0.425*
1,1,0.853,-0.325,0.425*
1,1,0.853,0.325,0.425*
1,1,0.853,0.325,-0.425*
%
%ADD38ROUNDEDRECTD38*%
G04:AMPARAMS|DCode=39|XSize=2.1mm|YSize=0.7mm|CornerRadius=0.225mm|HoleSize=0mm|Usage=FLASHONLY|Rotation=0.000|XOffset=0mm|YOffset=0mm|HoleType=Round|Shape=RoundedRectangle|*
%AMROUNDEDRECTD39*
21,1,2.100,0.250,0,0,0.0*
21,1,1.650,0.700,0,0,0.0*
1,1,0.450,0.825,-0.125*
1,1,0.450,-0.825,-0.125*
1,1,0.450,-0.825,0.125*
1,1,0.450,0.825,0.125*
%
%ADD39ROUNDEDRECTD39*%
G04:AMPARAMS|DCode=40|XSize=2.1mm|YSize=0.7mm|CornerRadius=0.225mm|HoleSize=0mm|Usage=FLASHONLY|Rotation=90.000|XOffset=0mm|YOffset=0mm|HoleType=Round|Shape=RoundedRectangle|*
%AMROUNDEDRECTD40*
21,1,2.100,0.250,0,0,90.0*
21,1,1.650,0.700,0,0,90.0*
1,1,0.450,0.125,0.825*
1,1,0.450,0.125,-0.825*
1,1,0.450,-0.125,-0.825*
1,1,0.450,-0.125,0.825*
%
%ADD40ROUNDEDRECTD40*%
G04:AMPARAMS|DCode=41|XSize=1.503mm|YSize=1.203mm|CornerRadius=0.352mm|HoleSize=0mm|Usage=FLASHONLY|Rotation=180.000|XOffset=0mm|YOffset=0mm|HoleType=Round|Shape=RoundedRectangle|*
%AMROUNDEDRECTD41*
21,1,1.503,0.500,0,0,180.0*
21,1,0.800,1.203,0,0,180.0*
1,1,0.703,-0.400,0.250*
1,1,0.703,0.400,0.250*
1,1,0.703,0.400,-0.250*
1,1,0.703,-0.400,-0.250*
%
%ADD41ROUNDEDRECTD41*%
G04:AMPARAMS|DCode=42|XSize=1.703mm|YSize=1.503mm|CornerRadius=0.427mm|HoleSize=0mm|Usage=FLASHONLY|Rotation=0.000|XOffset=0mm|YOffset=0mm|HoleType=Round|Shape=RoundedRectangle|*
%AMROUNDEDRECTD42*
21,1,1.703,0.650,0,0,0.0*
21,1,0.850,1.503,0,0,0.0*
1,1,0.853,0.425,-0.325*
1,1,0.853,-0.425,-0.325*
1,1,0.853,-0.425,0.325*
1,1,0.853,0.425,0.325*
%
%ADD42ROUNDEDRECTD42*%
G04:AMPARAMS|DCode=43|XSize=2.853mm|YSize=1.953mm|CornerRadius=0.539mm|HoleSize=0mm|Usage=FLASHONLY|Rotation=270.000|XOffset=0mm|YOffset=0mm|HoleType=Round|Shape=RoundedRectangle|*
%AMROUNDEDRECTD43*
21,1,2.853,0.875,0,0,270.0*
21,1,1.775,1.953,0,0,270.0*
1,1,1.078,-0.438,-0.887*
1,1,1.078,-0.438,0.887*
1,1,1.078,0.438,0.887*
1,1,1.078,0.438,-0.887*
%
%ADD43ROUNDEDRECTD43*%
G04:AMPARAMS|DCode=44|XSize=1.103mm|YSize=2.903mm|CornerRadius=0.327mm|HoleSize=0mm|Usage=FLASHONLY|Rotation=270.000|XOffset=0mm|YOffset=0mm|HoleType=Round|Shape=RoundedRectangle|*
%AMROUNDEDRECTD44*
21,1,1.103,2.250,0,0,270.0*
21,1,0.450,2.903,0,0,270.0*
1,1,0.653,-1.125,-0.225*
1,1,0.653,-1.125,0.225*
1,1,0.653,1.125,0.225*
1,1,0.653,1.125,-0.225*
%
%ADD44ROUNDEDRECTD44*%
G04:AMPARAMS|DCode=45|XSize=1.203mm|YSize=3.003mm|CornerRadius=0.352mm|HoleSize=0mm|Usage=FLASHONLY|Rotation=270.000|XOffset=0mm|YOffset=0mm|HoleType=Round|Shape=RoundedRectangle|*
%AMROUNDEDRECTD45*
21,1,1.203,2.300,0,0,270.0*
21,1,0.500,3.003,0,0,270.0*
1,1,0.703,-1.150,-0.250*
1,1,0.703,-1.150,0.250*
1,1,0.703,1.150,0.250*
1,1,0.703,1.150,-0.250*
%
%ADD45ROUNDEDRECTD45*%
G04:AMPARAMS|DCode=46|XSize=1.703mm|YSize=1.453mm|CornerRadius=0.414mm|HoleSize=0mm|Usage=FLASHONLY|Rotation=0.000|XOffset=0mm|YOffset=0mm|HoleType=Round|Shape=RoundedRectangle|*
%AMROUNDEDRECTD46*
21,1,1.703,0.625,0,0,0.0*
21,1,0.875,1.453,0,0,0.0*
1,1,0.828,0.438,-0.313*
1,1,0.828,-0.438,-0.313*
1,1,0.828,-0.438,0.313*
1,1,0.828,0.438,0.313*
%
%ADD46ROUNDEDRECTD46*%
%ADD47O,0.703X2.453*%
G04:AMPARAMS|DCode=48|XSize=2.703mm|YSize=2.203mm|CornerRadius=0.602mm|HoleSize=0mm|Usage=FLASHONLY|Rotation=90.000|XOffset=0mm|YOffset=0mm|HoleType=Round|Shape=RoundedRectangle|*
%AMROUNDEDRECTD48*
21,1,2.703,1.000,0,0,90.0*
21,1,1.500,2.203,0,0,90.0*
1,1,1.203,0.500,0.750*
1,1,1.203,0.500,-0.750*
1,1,1.203,-0.500,-0.750*
1,1,1.203,-0.500,0.750*
%
%ADD48ROUNDEDRECTD48*%
%ADD49C,1.800*%
%ADD50C,1.803*%
%ADD51C,1.500*%
%ADD52C,1.503*%
%ADD53C,1.200*%
%ADD54C,1.303*%
%ADD55C,0.903*%
G04:AMPARAMS|DCode=56|XSize=1.103mm|YSize=1.003mm|CornerRadius=0.302mm|HoleSize=0mm|Usage=FLASHONLY|Rotation=180.000|XOffset=0mm|YOffset=0mm|HoleType=Round|Shape=RoundedRectangle|*
%AMROUNDEDRECTD56*
21,1,1.103,0.400,0,0,180.0*
21,1,0.500,1.003,0,0,180.0*
1,1,0.603,-0.250,0.200*
1,1,0.603,0.250,0.200*
1,1,0.603,0.250,-0.200*
1,1,0.603,-0.250,-0.200*
%
%ADD56ROUNDEDRECTD56*%
G04:AMPARAMS|DCode=57|XSize=1.703mm|YSize=1.453mm|CornerRadius=0.414mm|HoleSize=0mm|Usage=FLASHONLY|Rotation=270.000|XOffset=0mm|YOffset=0mm|HoleType=Round|Shape=RoundedRectangle|*
%AMROUNDEDRECTD57*
21,1,1.703,0.625,0,0,270.0*
21,1,0.875,1.453,0,0,270.0*
1,1,0.828,-0.313,-0.438*
1,1,0.828,-0.313,0.438*
1,1,0.828,0.313,0.438*
1,1,0.828,0.313,-0.438*
%
%ADD57ROUNDEDRECTD57*%
%ADD58C,0.200*%
D24*
X0028Y00572D02*
G03*
X0028Y00572I-00025J0D01*
G01*
Y01418D02*
G03*
X0028Y01418I-00025J0D01*
G01*
X0081D02*
G03*
X0081Y01418I-00025J0D01*
G01*
Y00572D02*
G03*
X0081Y00572I-00025J0D01*
G01*
X00229Y0122098D02*
Y0125298D01*
X00247D01*
Y0122098D02*
Y0125298D01*
X00229Y0122098D02*
X00247D01*
X00255D02*
Y0125298D01*
X00273D01*
Y0122098D02*
Y0125298D01*
X00255Y0122098D02*
X00273D01*
X002943Y012901D02*
X003153D01*
X002943D02*
Y013261D01*
X003153D01*
Y012901D02*
Y013261D01*
X002943Y0136738D02*
X003153D01*
Y0133137D02*
Y0136738D01*
X002943Y0133137D02*
X003153D01*
X002943D02*
Y0136738D01*
X002754Y0133985D02*
X002834D01*
X002754Y0127635D02*
X002834D01*
X003832Y0128693D02*
X004042D01*
X003832D02*
Y0132292D01*
X004042D01*
Y0128693D02*
Y0132292D01*
X0039296Y0122098D02*
X0041096D01*
Y0125298D01*
X0039296D02*
X0041096D01*
X0039296Y0122098D02*
Y0125298D01*
X0041835Y0122098D02*
X0043636D01*
Y0125298D01*
X0041835D02*
X0043636D01*
X0041835Y0122098D02*
Y0125298D01*
X0046916Y0122098D02*
X0048715D01*
Y0125298D01*
X0046916D02*
X0048715D01*
X0046916Y0122098D02*
Y0125298D01*
X0069948Y0088688D02*
Y0092287D01*
X0067848D02*
X0069948D01*
X0067848Y0088688D02*
Y0092287D01*
Y0088688D02*
X0069948D01*
X0047225Y0085725D02*
X0048025D01*
X0047225Y0079375D02*
X0048025D01*
X0028362Y005483D02*
X0031962D01*
Y005693D01*
X0028362D02*
X0031962D01*
X0028362Y005483D02*
Y005693D01*
X0028562Y0059425D02*
X0031763D01*
X0028562D02*
Y0061225D01*
X0031763D01*
Y0059425D02*
Y0061225D01*
X0038522Y005483D02*
X0042123D01*
Y005693D01*
X0038522D02*
X0042123D01*
X0038522Y005483D02*
Y005693D01*
X0038405Y0059425D02*
X0041605D01*
X0038405D02*
Y0061225D01*
X0041605D01*
Y0059425D02*
Y0061225D01*
X0028Y01222D02*
X00292D01*
Y01228D01*
X0029Y0123D01*
X00286D01*
X00284Y01228D01*
Y01222D01*
Y01226D02*
X0028Y0123D01*
Y01234D02*
Y0123799D01*
Y01236D01*
X00292D01*
X0029Y01234D01*
X0028Y0125199D02*
Y0124399D01*
X00288Y0125199D01*
X0029D01*
X00292Y0124999D01*
Y0124599D01*
X0029Y0124399D01*
X00232Y01259D02*
X00244D01*
Y01265D01*
X00242Y01267D01*
X00238D01*
X00236Y01265D01*
Y01259D01*
Y01263D02*
X00232Y01267D01*
Y01271D02*
Y0127499D01*
Y01273D01*
X00244D01*
X00242Y01271D01*
X00232Y0128099D02*
Y0128499D01*
Y0128299D01*
X00244D01*
X00242Y0128099D01*
X00344Y00598D02*
Y0061D01*
X00338D01*
X00336Y00608D01*
Y00604D01*
X00338Y00602D01*
X00344D01*
X0034D02*
X00336Y00598D01*
X0032401D02*
X00332D01*
X0032401Y00606D01*
Y00608D01*
X0032601Y0061D01*
X0033D01*
X00332Y00608D01*
X0043815Y005969D02*
Y006089D01*
X0043215D01*
X0043015Y006069D01*
Y006029D01*
X0043215Y006009D01*
X0043815D01*
X0043415D02*
X0043015Y005969D01*
X0042615D02*
X0042216D01*
X0042415D01*
Y006089D01*
X0042615Y006069D01*
X00337Y00563D02*
X00339Y00565D01*
X00343D01*
X00345Y00563D01*
Y00555D01*
X00343Y00553D01*
X00339D01*
X00337Y00555D01*
X0032501Y00565D02*
X00333D01*
Y00559D01*
X0032901Y00561D01*
X0032701D01*
X0032501Y00559D01*
Y00555D01*
X0032701Y00553D01*
X00331D01*
X00333Y00555D01*
X0046402Y0085572D02*
X0046602Y0085372D01*
Y0084972D01*
X0046402Y0084772D01*
X0045602D01*
X0045403Y0084972D01*
Y0085372D01*
X0045602Y0085572D01*
X0045403Y0086572D02*
X0046602D01*
X0046002Y0085972D01*
Y0086772D01*
X0046402Y0079222D02*
X0046602Y0079022D01*
Y0078622D01*
X0046402Y0078423D01*
X0045602D01*
X0045403Y0078622D01*
Y0079022D01*
X0045602Y0079222D01*
X0046402Y0079622D02*
X0046602Y0079822D01*
Y0080222D01*
X0046402Y0080422D01*
X0046202D01*
X0046002Y0080222D01*
Y0080022D01*
Y0080222D01*
X0045802Y0080422D01*
X0045602D01*
X0045403Y0080222D01*
Y0079822D01*
X0045602Y0079622D01*
X0043968Y0056245D02*
X0044168Y0056445D01*
X0044568D01*
X0044768Y0056245D01*
Y0055445D01*
X0044568Y0055245D01*
X0044168D01*
X0043968Y0055445D01*
X0042768Y0055245D02*
X0043568D01*
X0042768Y0056045D01*
Y0056245D01*
X0042968Y0056445D01*
X0043368D01*
X0043568Y0056245D01*
X0069262Y0093827D02*
X0069462Y0093627D01*
Y0093227D01*
X0069262Y0093027D01*
X0068462D01*
X0068262Y0093227D01*
Y0093627D01*
X0068462Y0093827D01*
X0068262Y0094227D02*
Y0094627D01*
Y0094427D01*
X0069462D01*
X0069262Y0094227D01*
X0037512Y013034D02*
X0037712Y013014D01*
Y012974D01*
X0037512Y012954D01*
X0036712D01*
X0036513Y012974D01*
Y013014D01*
X0036712Y013034D01*
X0037712Y0131539D02*
X0037512Y0131139D01*
X0037112Y013074D01*
X0036712D01*
X0036513Y013094D01*
Y0131339D01*
X0036712Y0131539D01*
X0036912D01*
X0037112Y0131339D01*
Y013074D01*
X0033067Y0135737D02*
X0033267Y0135537D01*
Y0135137D01*
X0033067Y0134938D01*
X0032267D01*
X0032068Y0135137D01*
Y0135537D01*
X0032267Y0135737D01*
X0033267Y0136137D02*
Y0136937D01*
X0033067D01*
X0032267Y0136137D01*
X0032068D01*
X0033067Y0129705D02*
X0033267Y0129505D01*
Y0129105D01*
X0033067Y0128905D01*
X0032267D01*
X0032068Y0129105D01*
Y0129505D01*
X0032267Y0129705D01*
X0033067Y0130105D02*
X0033267Y0130305D01*
Y0130704D01*
X0033067Y0130904D01*
X0032867D01*
X0032667Y0130704D01*
X0032467Y0130904D01*
X0032267D01*
X0032068Y0130704D01*
Y0130305D01*
X0032267Y0130105D01*
X0032467D01*
X0032667Y0130305D01*
X0032867Y0130105D01*
X0033067D01*
X0032667Y0130305D02*
Y0130704D01*
X0028305Y0136372D02*
X0028505Y0136172D01*
Y0135772D01*
X0028305Y0135572D01*
X0027505D01*
X0027305Y0135772D01*
Y0136172D01*
X0027505Y0136372D01*
Y0136772D02*
X0027305Y0136972D01*
Y0137372D01*
X0027505Y0137572D01*
X0028305D01*
X0028505Y0137372D01*
Y0136972D01*
X0028305Y0136772D01*
X0028105D01*
X0027905Y0136972D01*
Y0137572D01*
X0028305Y0130022D02*
X0028505Y0129822D01*
Y0129422D01*
X0028305Y0129223D01*
X0027505D01*
X0027305Y0129422D01*
Y0129822D01*
X0027505Y0130022D01*
X0027305Y0130422D02*
Y0130822D01*
Y0130622D01*
X0028505D01*
X0028305Y0130422D01*
Y0131422D02*
X0028505Y0131622D01*
Y0132022D01*
X0028305Y0132222D01*
X0027505D01*
X0027305Y0132022D01*
Y0131622D01*
X0027505Y0131422D01*
X0028305D01*
X0037465Y0122872D02*
X0038665D01*
Y0123472D01*
X0038465Y0123672D01*
X0038065D01*
X0037865Y0123472D01*
Y0122872D01*
Y0123272D02*
X0037465Y0123672D01*
X0038465Y0124072D02*
X0038665Y0124272D01*
Y0124672D01*
X0038465Y0124872D01*
X0038265D01*
X0038065Y0124672D01*
X0037865Y0124872D01*
X0037665D01*
X0037465Y0124672D01*
Y0124272D01*
X0037665Y0124072D01*
X0037865D01*
X0038065Y0124272D01*
X0038265Y0124072D01*
X0038465D01*
X0038065Y0124272D02*
Y0124672D01*
X0044132Y0122872D02*
X0045332D01*
Y0123472D01*
X0045132Y0123672D01*
X0044732D01*
X0044532Y0123472D01*
Y0122872D01*
Y0123272D02*
X0044132Y0123672D01*
X0044332Y0124072D02*
X0044132Y0124272D01*
Y0124672D01*
X0044332Y0124872D01*
X0045132D01*
X0045332Y0124672D01*
Y0124272D01*
X0045132Y0124072D01*
X0044932D01*
X0044732Y0124272D01*
Y0124872D01*
X0049213Y0122238D02*
X0050412D01*
Y0122837D01*
X0050212Y0123037D01*
X0049812D01*
X0049612Y0122837D01*
Y0122238D01*
Y0122637D02*
X0049213Y0123037D01*
Y0123437D02*
Y0123837D01*
Y0123637D01*
X0050412D01*
X0050212Y0123437D01*
Y0124437D02*
X0050412Y0124637D01*
Y0125037D01*
X0050212Y0125237D01*
X0049412D01*
X0049213Y0125037D01*
Y0124637D01*
X0049412Y0124437D01*
X0050212D01*
D58*
X00282Y00869D02*
Y01141D01*
X00437Y00869D02*
Y01141D01*
X00308Y0086973D02*
X00296D01*
X00302D01*
X00304Y0087173D01*
Y0087573D01*
X00302Y0087773D01*
X00296D01*
X00306Y0088373D02*
X00304D01*
Y0088173D01*
Y0088572D01*
Y0088373D01*
X00298D01*
X00296Y0088572D01*
X00306Y0089372D02*
X00304D01*
Y0089172D01*
Y0089572D01*
Y0089372D01*
X00298D01*
X00296Y0089572D01*
X00292Y0090172D02*
X00304D01*
Y0090772D01*
X00302Y0090972D01*
X00298D01*
X00296Y0090772D01*
Y0090172D01*
X00304Y0091372D02*
Y0091572D01*
X00302D01*
Y0091372D01*
X00304D01*
X00298D02*
Y0091572D01*
X00296D01*
Y0091372D01*
X00298D01*
X00296Y0092371D02*
X00304Y0093171D01*
X00296Y0093571D02*
X00304Y0094371D01*
Y009477D02*
X00296Y009517D01*
X00304Y009557D01*
X00296Y009597D02*
X00304D01*
Y009657D01*
X00302Y009677D01*
X00296D01*
Y009777D02*
Y009737D01*
X00298Y009717D01*
X00302D01*
X00304Y009737D01*
Y009777D01*
X00302Y0097969D01*
X003D01*
Y009717D01*
X00296Y0098369D02*
Y0098769D01*
Y0098569D01*
X00308D01*
Y0098369D01*
X00296Y0099969D02*
Y0099569D01*
X00298Y0099369D01*
X00302D01*
X00304Y0099569D01*
Y0099969D01*
X00302Y0100169D01*
X003D01*
Y0099369D01*
X00296Y0100569D02*
X00308D01*
X003D02*
X00304Y0101168D01*
X003Y0100569D02*
X00296Y0101168D01*
Y0101768D02*
X00298D01*
Y0101968D01*
X00296D01*
Y0101768D01*
X00304Y0102768D02*
X00296Y0103168D01*
X00304Y0103568D01*
X00296Y0103967D02*
X00304D01*
Y0104567D01*
X00302Y0104767D01*
X00296D01*
Y0105167D02*
X00304Y0105967D01*
Y0106567D02*
Y0106967D01*
X00302Y0107166D01*
X00296D01*
Y0106567D01*
X00298Y0106367D01*
X003Y0106567D01*
Y0107166D01*
X00304Y0107566D02*
X00296Y0107966D01*
X00304Y0108366D01*
Y0108766D02*
X00296D01*
X003D01*
X00302Y0108966D01*
X00304Y0109166D01*
Y0109366D01*
X00296Y0109966D02*
Y0110565D01*
X00298Y0110765D01*
X003Y0110565D01*
Y0110165D01*
X00302Y0109966D01*
X00304Y0110165D01*
Y0110765D01*
Y0111165D02*
X00298D01*
X00296Y0111365D01*
Y0111965D01*
X00304D01*
X00296Y0112365D02*
X00304D01*
Y0112565D01*
X00302Y0112765D01*
X00296D01*
X00302D01*
X00304Y0112965D01*
X00302Y0113165D01*
X00296D01*
Y0113564D02*
X00304D01*
Y0113764D01*
X00302Y0113964D01*
X00296D01*
X00302D01*
X00304Y0114164D01*
X00302Y0114364D01*
X00296D01*
Y0115364D02*
Y0114964D01*
X00298Y0114764D01*
X00302D01*
X00304Y0114964D01*
Y0115364D01*
X00302Y0115564D01*
X003D01*
Y0114764D01*
X00304Y0115964D02*
X00296D01*
X003D01*
X00302Y0116164D01*
X00304Y0116363D01*
Y0116563D01*
X00423Y0087773D02*
X00425Y0087573D01*
Y0087173D01*
X00423Y0086973D01*
X00421D01*
X00419Y0087173D01*
Y0087573D01*
X00417Y0087773D01*
X00415D01*
X00413Y0087573D01*
Y0087173D01*
X00415Y0086973D01*
X00413Y0088373D02*
Y0088772D01*
X00415Y0088972D01*
X00419D01*
X00421Y0088772D01*
Y0088373D01*
X00419Y0088173D01*
X00415D01*
X00413Y0088373D01*
X00421Y0090172D02*
Y0089572D01*
X00419Y0089372D01*
X00415D01*
X00413Y0089572D01*
Y0090172D01*
Y0090572D02*
X00425D01*
X00417D02*
X00421Y0091172D01*
X00417Y0090572D02*
X00413Y0091172D01*
Y0092371D02*
Y0091971D01*
X00415Y0091771D01*
X00419D01*
X00421Y0091971D01*
Y0092371D01*
X00419Y0092571D01*
X00417D01*
Y0091771D01*
X00423Y0093171D02*
X00421D01*
Y0092971D01*
Y0093371D01*
Y0093171D01*
X00415D01*
X00413Y0093371D01*
X00421Y009597D02*
Y009537D01*
X00419Y009517D01*
X00415D01*
X00413Y009537D01*
Y009597D01*
Y009657D02*
Y009697D01*
X00415Y009717D01*
X00419D01*
X00421Y009697D01*
Y009657D01*
X00419Y009637D01*
X00415D01*
X00413Y009657D01*
Y009757D02*
X00421D01*
Y009777D01*
X00419Y0097969D01*
X00413D01*
X00419D01*
X00421Y0098169D01*
X00419Y0098369D01*
X00413D01*
X00409Y0098769D02*
X00421D01*
Y0099369D01*
X00419Y0099569D01*
X00415D01*
X00413Y0099369D01*
Y0098769D01*
X00421Y0100169D02*
Y0100569D01*
X00419Y0100769D01*
X00413D01*
Y0100169D01*
X00415Y0099969D01*
X00417Y0100169D01*
Y0100769D01*
X00423Y0101368D02*
X00421D01*
Y0101168D01*
Y0101568D01*
Y0101368D01*
X00415D01*
X00413Y0101568D01*
Y0102168D02*
Y0102568D01*
Y0102368D01*
X00421D01*
Y0102168D01*
X00425Y0103168D02*
X00413D01*
Y0103768D01*
X00415Y0103967D01*
X00417D01*
X00419D01*
X00421Y0103768D01*
Y0103168D01*
X00413Y0104367D02*
Y0104767D01*
Y0104567D01*
X00425D01*
Y0104367D01*
X00413Y0105967D02*
Y0105567D01*
X00415Y0105367D01*
X00419D01*
X00421Y0105567D01*
Y0105967D01*
X00419Y0106167D01*
X00417D01*
Y0105367D01*
X00421Y0107766D02*
X00415D01*
X00413Y0107966D01*
X00415Y0108166D01*
X00413Y0108366D01*
X00415Y0108566D01*
X00421D01*
X00413Y0108966D02*
Y0109366D01*
Y0109166D01*
X00421D01*
Y0108966D01*
X00423Y0110165D02*
X00421D01*
Y0109966D01*
Y0110365D01*
Y0110165D01*
X00415D01*
X00413Y0110365D01*
X00425Y0110965D02*
X00413D01*
X00419D01*
X00421Y0111165D01*
Y0111565D01*
X00419Y0111765D01*
X00413D01*
X00421Y0112165D02*
Y0112365D01*
X00419D01*
Y0112165D01*
X00421D01*
X00415D02*
Y0112365D01*
X00413D01*
Y0112165D01*
X00415D01*
X0038975Y0086973D02*
Y0087773D01*
X0038375Y0089372D02*
X0039175D01*
X0039575Y0089772D01*
X0039175Y0090172D01*
X0038375D01*
X0038975D01*
Y0089372D01*
X0039575Y0090572D02*
Y0091372D01*
Y0090972D01*
X0038375D01*
Y0091771D02*
X0039175D01*
Y0091971D01*
X0038975Y0092171D01*
X0038375D01*
X0038975D01*
X0039175Y0092371D01*
X0038975Y0092571D01*
X0038375D01*
Y0093571D02*
Y0093171D01*
X0038575Y0092971D01*
X0038975D01*
X0039175Y0093171D01*
Y0093571D01*
X0038975Y0093771D01*
X0038775D01*
Y0092971D01*
X0037975Y0094571D02*
Y009477D01*
X0038175Y009497D01*
X0039175D01*
Y0094371D01*
X0038975Y0094171D01*
X0038575D01*
X0038375Y0094371D01*
Y009497D01*
X0039175Y009557D02*
Y009597D01*
X0038975Y009617D01*
X0038375D01*
Y009557D01*
X0038575Y009537D01*
X0038775Y009557D01*
Y009617D01*
X0038375Y009657D02*
Y009697D01*
Y009677D01*
X0039575D01*
X0039375Y009657D01*
X0039575Y0098369D02*
X0039375Y0097969D01*
X0038975Y009757D01*
X0038575D01*
X0038375Y009777D01*
Y0098169D01*
X0038575Y0098369D01*
X0038775D01*
X0038975Y0098169D01*
Y009757D01*
X003605Y0086973D02*
Y0087773D01*
X003545Y0089372D02*
X003625D01*
X003665Y0089772D01*
X003625Y0090172D01*
X003545D01*
X003605D01*
Y0089372D01*
X003665Y0090572D02*
Y0091372D01*
Y0090972D01*
X003545D01*
Y0091771D02*
X003625D01*
Y0091971D01*
X003605Y0092171D01*
X003545D01*
X003605D01*
X003625Y0092371D01*
X003605Y0092571D01*
X003545D01*
Y0093571D02*
Y0093171D01*
X003565Y0092971D01*
X003605D01*
X003625Y0093171D01*
Y0093571D01*
X003605Y0093771D01*
X003585D01*
Y0092971D01*
X003505Y0094571D02*
Y009477D01*
X003525Y009497D01*
X003625D01*
Y0094371D01*
X003605Y0094171D01*
X003565D01*
X003545Y0094371D01*
Y009497D01*
X003625Y009557D02*
Y009597D01*
X003605Y009617D01*
X003545D01*
Y009557D01*
X003565Y009537D01*
X003585Y009557D01*
Y009617D01*
X003645Y009657D02*
X003665Y009677D01*
Y009717D01*
X003645Y009737D01*
X003625D01*
X003605Y009717D01*
X003585Y009737D01*
X003565D01*
X003545Y009717D01*
Y009677D01*
X003565Y009657D01*
X003585D01*
X003605Y009677D01*
X003625Y009657D01*
X003645D01*
X003605Y009677D02*
Y009717D01*
X003665Y0098569D02*
Y009777D01*
X003605D01*
X003625Y0098169D01*
Y0098369D01*
X003605Y0098569D01*
X003565D01*
X003545Y0098369D01*
Y0097969D01*
X003565Y009777D01*
X003645Y0098969D02*
X003665Y0099169D01*
Y0099569D01*
X003645Y0099769D01*
X003625D01*
X003605Y0099569D01*
Y0099369D01*
Y0099569D01*
X003585Y0099769D01*
X003565D01*
X003545Y0099569D01*
Y0099169D01*
X003565Y0098969D01*
X003665Y0100968D02*
Y0100169D01*
X003605D01*
X003625Y0100569D01*
Y0100769D01*
X003605Y0100968D01*
X003565D01*
X003545Y0100769D01*
Y0100369D01*
X003565Y0100169D01*
X0033125Y0086973D02*
Y0087773D01*
X0032525Y0089372D02*
X0033325D01*
X0033725Y0089772D01*
X0033325Y0090172D01*
X0032525D01*
X0033125D01*
Y0089372D01*
X0033725Y0090572D02*
Y0091372D01*
Y0090972D01*
X0032525D01*
Y0091771D02*
X0033325D01*
Y0091971D01*
X0033125Y0092171D01*
X0032525D01*
X0033125D01*
X0033325Y0092371D01*
X0033125Y0092571D01*
X0032525D01*
Y0093571D02*
Y0093171D01*
X0032725Y0092971D01*
X0033125D01*
X0033325Y0093171D01*
Y0093571D01*
X0033125Y0093771D01*
X0032925D01*
Y0092971D01*
X0032125Y0094571D02*
Y009477D01*
X0032325Y009497D01*
X0033325D01*
Y0094371D01*
X0033125Y0094171D01*
X0032725D01*
X0032525Y0094371D01*
Y009497D01*
X0033325Y009557D02*
Y009597D01*
X0033125Y009617D01*
X0032525D01*
Y009557D01*
X0032725Y009537D01*
X0032925Y009557D01*
Y009617D01*
X0033525Y009657D02*
X0033725Y009677D01*
Y009717D01*
X0033525Y009737D01*
X0033325D01*
X0033125Y009717D01*
Y009697D01*
Y009717D01*
X0032925Y009737D01*
X0032725D01*
X0032525Y009717D01*
Y009677D01*
X0032725Y009657D01*
X0032525Y0098569D02*
Y009777D01*
X0033325Y0098569D01*
X0033525D01*
X0033725Y0098369D01*
Y0097969D01*
X0033525Y009777D01*
X0032525Y0098969D02*
X0033325D01*
X0033725Y0099369D01*
X0033325Y0099769D01*
X0032525D01*
X0033125D01*
Y0098969D01*
M02*
