%FSTAX43Y43*%
%MOMM*%
G71*
G01*
G75*
G04 Layer_Physical_Order=1*
G04 Layer_Color=16776960*
G04:AMPARAMS|DCode=10|XSize=1.3mm|YSize=1mm|CornerRadius=0.25mm|HoleSize=0mm|Usage=FLASHONLY|Rotation=270.000|XOffset=0mm|YOffset=0mm|HoleType=Round|Shape=RoundedRectangle|*
%AMROUNDEDRECTD10*
21,1,1.300,0.500,0,0,270.0*
21,1,0.800,1.000,0,0,270.0*
1,1,0.500,-0.250,-0.400*
1,1,0.500,-0.250,0.400*
1,1,0.500,0.250,0.400*
1,1,0.500,0.250,-0.400*
%
%ADD10ROUNDEDRECTD10*%
G04:AMPARAMS|DCode=11|XSize=1.5mm|YSize=1.3mm|CornerRadius=0.325mm|HoleSize=0mm|Usage=FLASHONLY|Rotation=270.000|XOffset=0mm|YOffset=0mm|HoleType=Round|Shape=RoundedRectangle|*
%AMROUNDEDRECTD11*
21,1,1.500,0.650,0,0,270.0*
21,1,0.850,1.300,0,0,270.0*
1,1,0.650,-0.325,-0.425*
1,1,0.650,-0.325,0.425*
1,1,0.650,0.325,0.425*
1,1,0.650,0.325,-0.425*
%
%ADD11ROUNDEDRECTD11*%
G04:AMPARAMS|DCode=12|XSize=1.9mm|YSize=0.5mm|CornerRadius=0.125mm|HoleSize=0mm|Usage=FLASHONLY|Rotation=0.000|XOffset=0mm|YOffset=0mm|HoleType=Round|Shape=RoundedRectangle|*
%AMROUNDEDRECTD12*
21,1,1.900,0.250,0,0,0.0*
21,1,1.650,0.500,0,0,0.0*
1,1,0.250,0.825,-0.125*
1,1,0.250,-0.825,-0.125*
1,1,0.250,-0.825,0.125*
1,1,0.250,0.825,0.125*
%
%ADD12ROUNDEDRECTD12*%
G04:AMPARAMS|DCode=13|XSize=1.9mm|YSize=0.5mm|CornerRadius=0.125mm|HoleSize=0mm|Usage=FLASHONLY|Rotation=90.000|XOffset=0mm|YOffset=0mm|HoleType=Round|Shape=RoundedRectangle|*
%AMROUNDEDRECTD13*
21,1,1.900,0.250,0,0,90.0*
21,1,1.650,0.500,0,0,90.0*
1,1,0.250,0.125,0.825*
1,1,0.250,0.125,-0.825*
1,1,0.250,-0.125,-0.825*
1,1,0.250,-0.125,0.825*
%
%ADD13ROUNDEDRECTD13*%
G04:AMPARAMS|DCode=14|XSize=1.3mm|YSize=1mm|CornerRadius=0.25mm|HoleSize=0mm|Usage=FLASHONLY|Rotation=180.000|XOffset=0mm|YOffset=0mm|HoleType=Round|Shape=RoundedRectangle|*
%AMROUNDEDRECTD14*
21,1,1.300,0.500,0,0,180.0*
21,1,0.800,1.000,0,0,180.0*
1,1,0.500,-0.400,0.250*
1,1,0.500,0.400,0.250*
1,1,0.500,0.400,-0.250*
1,1,0.500,-0.400,-0.250*
%
%ADD14ROUNDEDRECTD14*%
G04:AMPARAMS|DCode=15|XSize=1.5mm|YSize=1.3mm|CornerRadius=0.325mm|HoleSize=0mm|Usage=FLASHONLY|Rotation=0.000|XOffset=0mm|YOffset=0mm|HoleType=Round|Shape=RoundedRectangle|*
%AMROUNDEDRECTD15*
21,1,1.500,0.650,0,0,0.0*
21,1,0.850,1.300,0,0,0.0*
1,1,0.650,0.425,-0.325*
1,1,0.650,-0.425,-0.325*
1,1,0.650,-0.425,0.325*
1,1,0.650,0.425,0.325*
%
%ADD15ROUNDEDRECTD15*%
G04:AMPARAMS|DCode=16|XSize=2.65mm|YSize=1.75mm|CornerRadius=0.438mm|HoleSize=0mm|Usage=FLASHONLY|Rotation=270.000|XOffset=0mm|YOffset=0mm|HoleType=Round|Shape=RoundedRectangle|*
%AMROUNDEDRECTD16*
21,1,2.650,0.875,0,0,270.0*
21,1,1.775,1.750,0,0,270.0*
1,1,0.875,-0.438,-0.887*
1,1,0.875,-0.438,0.887*
1,1,0.875,0.438,0.887*
1,1,0.875,0.438,-0.887*
%
%ADD16ROUNDEDRECTD16*%
G04:AMPARAMS|DCode=17|XSize=0.9mm|YSize=2.7mm|CornerRadius=0.225mm|HoleSize=0mm|Usage=FLASHONLY|Rotation=270.000|XOffset=0mm|YOffset=0mm|HoleType=Round|Shape=RoundedRectangle|*
%AMROUNDEDRECTD17*
21,1,0.900,2.250,0,0,270.0*
21,1,0.450,2.700,0,0,270.0*
1,1,0.450,-1.125,-0.225*
1,1,0.450,-1.125,0.225*
1,1,0.450,1.125,0.225*
1,1,0.450,1.125,-0.225*
%
%ADD17ROUNDEDRECTD17*%
G04:AMPARAMS|DCode=18|XSize=1mm|YSize=2.8mm|CornerRadius=0.25mm|HoleSize=0mm|Usage=FLASHONLY|Rotation=270.000|XOffset=0mm|YOffset=0mm|HoleType=Round|Shape=RoundedRectangle|*
%AMROUNDEDRECTD18*
21,1,1.000,2.300,0,0,270.0*
21,1,0.500,2.800,0,0,270.0*
1,1,0.500,-1.150,-0.250*
1,1,0.500,-1.150,0.250*
1,1,0.500,1.150,0.250*
1,1,0.500,1.150,-0.250*
%
%ADD18ROUNDEDRECTD18*%
G04:AMPARAMS|DCode=19|XSize=1.5mm|YSize=1.25mm|CornerRadius=0.313mm|HoleSize=0mm|Usage=FLASHONLY|Rotation=0.000|XOffset=0mm|YOffset=0mm|HoleType=Round|Shape=RoundedRectangle|*
%AMROUNDEDRECTD19*
21,1,1.500,0.625,0,0,0.0*
21,1,0.875,1.250,0,0,0.0*
1,1,0.625,0.438,-0.313*
1,1,0.625,-0.438,-0.313*
1,1,0.625,-0.438,0.313*
1,1,0.625,0.438,0.313*
%
%ADD19ROUNDEDRECTD19*%
%ADD20O,0.500X2.250*%
G04:AMPARAMS|DCode=21|XSize=2.5mm|YSize=2mm|CornerRadius=0.5mm|HoleSize=0mm|Usage=FLASHONLY|Rotation=90.000|XOffset=0mm|YOffset=0mm|HoleType=Round|Shape=RoundedRectangle|*
%AMROUNDEDRECTD21*
21,1,2.500,1.000,0,0,90.0*
21,1,1.500,2.000,0,0,90.0*
1,1,1.000,0.500,0.750*
1,1,1.000,0.500,-0.750*
1,1,1.000,-0.500,-0.750*
1,1,1.000,-0.500,0.750*
%
%ADD21ROUNDEDRECTD21*%
%ADD22C,0.500*%
%ADD23C,1.000*%
%ADD24C,0.300*%
%ADD25C,1.600*%
%ADD26C,1.300*%
%ADD27C,1.000*%
%ADD28C,1.100*%
%ADD29C,0.700*%
G36*
X0081305Y0093053D02*
X0081557Y009286D01*
Y009256D01*
X0081305Y0092367D01*
X0081097Y0092096D01*
X0080966Y0091779D01*
X0080954Y009169D01*
X0082232D01*
Y009119D01*
X0080954D01*
X0080966Y0091101D01*
X0081097Y0090784D01*
X0081305Y0090513D01*
X0081557Y009032D01*
Y009002D01*
X0081305Y0089827D01*
X0081097Y0089556D01*
X0080966Y0089239D01*
X0080921Y00889D01*
X0080966Y0088561D01*
X0081097Y0088244D01*
X0081305Y0087973D01*
X0081577Y0087764D01*
X0081893Y0087633D01*
X0082232Y0087589D01*
X0082572Y0087633D01*
X0082879Y0087761D01*
X0083129Y0087594D01*
Y0084491D01*
X0082879Y0084324D01*
X0082572Y0084452D01*
X0082232Y0084496D01*
X0081893Y0084452D01*
X0081577Y0084321D01*
X0081305Y0084112D01*
X0081174Y0083941D01*
X0079688D01*
X0078226Y0085403D01*
Y0089217D01*
X0078226Y0089217D01*
X0078201Y0089413D01*
X0078125Y0089596D01*
X0078005Y0089752D01*
X0078005Y0089752D01*
X007583Y0091927D01*
X0075673Y0092048D01*
X007562Y009207D01*
X0075491Y0092123D01*
X0075295Y0092149D01*
X0072496D01*
X0072365Y009232D01*
X0072113Y0092512D01*
Y0092812D01*
X0072365Y0093005D01*
X0072532Y0093224D01*
X0081174D01*
X0081305Y0093053D01*
D02*
G37*
G36*
X005527Y0093005D02*
X0055522Y0092812D01*
Y0092512D01*
X005527Y009232D01*
X0055139Y0092149D01*
X0044605D01*
X0044561Y0092182D01*
X0044354Y0092268D01*
X0044132Y0092297D01*
X0043911Y0092268D01*
X0043704Y0092182D01*
X0043526Y0092046D01*
X004339Y0091869D01*
X0043304Y0091662D01*
X0043275Y009144D01*
X0043304Y0091218D01*
X004339Y0091011D01*
X0043526Y0090834D01*
X0043704Y0090698D01*
X0043911Y0090612D01*
X0044132Y0090583D01*
X0044354Y0090612D01*
X0044413Y0090636D01*
X0055139D01*
X005527Y0090465D01*
X0055522Y0090272D01*
Y0089973D01*
X0055438Y0089909D01*
X0033011D01*
X0032977Y0089923D01*
X0032702Y0089959D01*
X0032428Y0089923D01*
X0032394Y0089909D01*
X0024634D01*
X0024488Y009002D01*
Y009032D01*
X002474Y0090513D01*
X0024948Y0090784D01*
X0025079Y0091101D01*
X0025091Y009119D01*
X0023812D01*
Y009169D01*
X0025091D01*
X0025079Y0091779D01*
X0024948Y0092096D01*
X002474Y0092367D01*
X0024488Y009256D01*
Y009286D01*
X002474Y0093053D01*
X0024834Y0093176D01*
X0047535D01*
X0047594Y0093152D01*
X0047815Y0093123D01*
X0048037Y0093152D01*
X0048096Y0093176D01*
X0055139D01*
X005527Y0093005D01*
D02*
G37*
G36*
X0080882Y013102D02*
X0080976Y0130792D01*
X0081126Y0130596D01*
X0081224Y0130522D01*
Y0129185D01*
X0081219Y0129181D01*
X0081087Y0129009D01*
X0081004Y0128808D01*
X0080975Y0128592D01*
Y0127942D01*
X0081004Y0127727D01*
X0081087Y0127526D01*
X0081219Y0127354D01*
Y0127281D01*
X0081087Y0127109D01*
X0081004Y0126908D01*
X0080975Y0126692D01*
Y0126043D01*
X0081004Y0125827D01*
X0081087Y0125626D01*
X0081219Y0125454D01*
X0081391Y0125322D01*
X0081476Y0125287D01*
Y0124269D01*
X0081454Y012426D01*
X0081298Y012414D01*
X0081177Y0123983D01*
X0081102Y0123801D01*
X0081076Y0123605D01*
Y0123105D01*
X0081102Y0122909D01*
X0081177Y0122727D01*
X0081298Y012257D01*
Y012254D01*
X0081177Y0122383D01*
X0081102Y0122201D01*
X0081076Y0122005D01*
X0082232D01*
Y0121755D01*
X0082482D01*
Y0120749D01*
X0082632D01*
X0082828Y0120774D01*
X0082879Y0120795D01*
X0083129Y0120629D01*
Y0113066D01*
X0082879Y0112899D01*
X0082572Y0113027D01*
X0082232Y0113071D01*
X0081893Y0113027D01*
X0081577Y0112896D01*
X0081305Y0112687D01*
X0081174Y0112516D01*
X0072459D01*
X0072365Y011264D01*
X0072093Y0112848D01*
X0071777Y0112979D01*
X0071678Y0112992D01*
X0071698Y0113291D01*
X0079384D01*
X0079418Y0113277D01*
X0079692Y0113241D01*
X0079967Y0113277D01*
X0080222Y0113383D01*
X0080441Y0113551D01*
X008061Y011377D01*
X0080715Y0114026D01*
X0080752Y01143D01*
X0080715Y0114574D01*
X008061Y011483D01*
X0080441Y0115049D01*
X0080222Y0115217D01*
X0079967Y0115323D01*
X0079692Y0115359D01*
X0079418Y0115323D01*
X0079384Y0115309D01*
X0039788D01*
X0038664Y0116432D01*
Y0117162D01*
X0038776Y0117307D01*
X0039076D01*
X0039268Y0117056D01*
X003954Y0116847D01*
X0039856Y0116716D01*
X0040195Y0116672D01*
X0040535Y0116716D01*
X0040851Y0116847D01*
X0041123Y0117056D01*
X0041315Y0117307D01*
X0041616D01*
X0041808Y0117056D01*
X004208Y0116847D01*
X0042396Y0116716D01*
X0042736Y0116672D01*
X0043075Y0116716D01*
X0043391Y0116847D01*
X0043663Y0117056D01*
X0043855Y0117307D01*
X0044155D01*
X0044348Y0117056D01*
X004462Y0116847D01*
X0044936Y0116716D01*
X0045276Y0116672D01*
X0045615Y0116716D01*
X0045931Y0116847D01*
X0046203Y0117056D01*
X0046396Y0117307D01*
X0046695D01*
X0046888Y0117056D01*
X004716Y0116847D01*
X0047476Y0116716D01*
X0047815Y0116672D01*
X0048155Y0116716D01*
X0048471Y0116847D01*
X0048743Y0117056D01*
X0048951Y0117327D01*
X0049082Y0117644D01*
X0049127Y0117983D01*
X0049082Y0118322D01*
X0048951Y0118639D01*
X0048743Y011891D01*
X0048491Y0119103D01*
Y0119403D01*
X0048743Y0119596D01*
X0048951Y0119867D01*
X0049082Y0120184D01*
X0049127Y0120523D01*
X0049082Y0120862D01*
X0048951Y0121179D01*
X0048875Y0121277D01*
X0049008Y0121546D01*
X0073342D01*
X0073604Y0121581D01*
X0073847Y0121682D01*
X0074056Y0121842D01*
X0075326Y0123112D01*
X0075486Y0123321D01*
X0075587Y0123564D01*
X0075621Y0123825D01*
X0075621Y0123825D01*
X0075621Y0123825D01*
Y0123825D01*
Y0131144D01*
X0080865D01*
X0080882Y013102D01*
D02*
G37*
G36*
X0071197Y0112992D02*
X0071098Y0112979D01*
X0070782Y0112848D01*
X007051Y011264D01*
X0070302Y0112368D01*
X0070171Y0112052D01*
X0070126Y0111713D01*
X0070171Y0111373D01*
X0070302Y0111057D01*
X007051Y0110785D01*
X0070762Y0110592D01*
Y0110293D01*
X007051Y01101D01*
X0070302Y0109828D01*
X0070171Y0109512D01*
X0070126Y0109173D01*
X0070171Y0108833D01*
X0070302Y0108517D01*
X007051Y0108245D01*
X0070762Y0108052D01*
Y0107753D01*
X007051Y010756D01*
X0070302Y0107288D01*
X0070171Y0106972D01*
X0070126Y0106632D01*
X0070171Y0106293D01*
X0070302Y0105977D01*
X007051Y0105705D01*
X0070762Y0105512D01*
Y0105213D01*
X007051Y010502D01*
X0070302Y0104748D01*
X0070171Y0104432D01*
X0070126Y0104092D01*
X0070171Y0103753D01*
X0070302Y0103437D01*
X007051Y0103165D01*
X0070762Y0102973D01*
Y0102673D01*
X007051Y010248D01*
X0070302Y0102208D01*
X0070171Y0101892D01*
X0070126Y0101552D01*
X0070171Y0101213D01*
X0070302Y0100897D01*
X007051Y0100625D01*
X0070762Y0100433D01*
Y0100132D01*
X007051Y009994D01*
X0070302Y0099668D01*
X0070171Y0099352D01*
X0070126Y0099012D01*
X0070171Y0098673D01*
X0070302Y0098357D01*
X007051Y0098085D01*
X0070762Y0097893D01*
Y0097592D01*
X007051Y00974D01*
X0070302Y0097128D01*
X0070171Y0096812D01*
X0070126Y0096473D01*
X0070171Y0096133D01*
X0070302Y0095817D01*
X007051Y0095545D01*
X0070762Y0095353D01*
Y0095052D01*
X007051Y009486D01*
X0070302Y0094588D01*
X0070171Y0094272D01*
X0070126Y0093933D01*
X0070171Y0093593D01*
X0070302Y0093277D01*
X007051Y0093005D01*
X0070762Y0092812D01*
Y0092512D01*
X007051Y009232D01*
X0070302Y0092048D01*
X0070171Y0091732D01*
X0070126Y0091393D01*
X0070171Y0091053D01*
X0070302Y0090737D01*
X007051Y0090465D01*
X0070762Y0090272D01*
Y0089973D01*
X007051Y008978D01*
X0070302Y0089508D01*
X0070171Y0089192D01*
X0070159Y0089103D01*
X0072716D01*
X0072704Y0089192D01*
X0072573Y0089508D01*
X0072365Y008978D01*
X0072113Y0089973D01*
Y0090272D01*
X0072365Y0090465D01*
X0072496Y0090636D01*
X0074982D01*
X0076714Y0088904D01*
Y008509D01*
X0076714Y008509D01*
X0076714D01*
X0076739Y0084894D01*
X0076815Y0084712D01*
X0076935Y0084555D01*
X007884Y008265D01*
X0078997Y008253D01*
X0079179Y0082454D01*
X0079375Y0082429D01*
X0081174D01*
X0081305Y0082258D01*
X0081557Y0082065D01*
Y0081765D01*
X0081305Y0081572D01*
X0081097Y0081301D01*
X0080966Y0080984D01*
X0080921Y0080645D01*
X0080966Y0080306D01*
X0081097Y0079989D01*
X0081305Y0079718D01*
X0081557Y0079525D01*
Y0079225D01*
X0081305Y0079032D01*
X0081174Y0078861D01*
X0080006D01*
X007456Y0084307D01*
X0074403Y0084428D01*
X007435Y008445D01*
X0074221Y0084503D01*
X0074025Y0084529D01*
X0072496D01*
X0072365Y00847D01*
X0072113Y0084893D01*
Y0085192D01*
X0072365Y0085385D01*
X0072573Y0085657D01*
X0072704Y0085973D01*
X0072749Y0086312D01*
X0072704Y0086652D01*
X0072573Y0086968D01*
X0072365Y008724D01*
X0072113Y0087433D01*
Y0087732D01*
X0072365Y0087925D01*
X0072573Y0088197D01*
X0072704Y0088513D01*
X0072716Y0088603D01*
X0070159D01*
X0070171Y0088513D01*
X0070302Y0088197D01*
X007051Y0087925D01*
X0070762Y0087732D01*
Y0087433D01*
X007051Y008724D01*
X0070302Y0086968D01*
X0070171Y0086652D01*
X0070126Y0086312D01*
X0070171Y0085973D01*
X0070302Y0085657D01*
X007051Y0085385D01*
X0070762Y0085192D01*
Y0084893D01*
X007051Y00847D01*
X0070302Y0084428D01*
X0070171Y0084112D01*
X0070126Y0083772D01*
X0070171Y0083433D01*
X0070302Y0083117D01*
X007051Y0082845D01*
X0070762Y0082652D01*
Y0082353D01*
X007051Y008216D01*
X0070302Y0081888D01*
X0070171Y0081572D01*
X0070126Y0081232D01*
X0070171Y0080893D01*
X0070302Y0080577D01*
X007051Y0080305D01*
X0070762Y0080113D01*
Y0079812D01*
X007051Y007962D01*
X0070302Y0079348D01*
X0070171Y0079032D01*
X0070126Y0078692D01*
X0070171Y0078353D01*
X0070302Y0078037D01*
X007051Y0077765D01*
X0070762Y0077573D01*
Y0077272D01*
X007051Y007708D01*
X0070302Y0076808D01*
X0070171Y0076492D01*
X0070126Y0076152D01*
X0070171Y0075813D01*
X0070302Y0075497D01*
X007051Y0075225D01*
X0070762Y0075033D01*
Y0074732D01*
X007051Y007454D01*
X0070302Y0074268D01*
X0070171Y0073952D01*
X0070126Y0073613D01*
X0070171Y0073273D01*
X0070302Y0072957D01*
X007051Y0072685D01*
X0070762Y0072493D01*
Y0072192D01*
X007051Y0072D01*
X0070302Y0071728D01*
X0070171Y0071412D01*
X0070126Y0071073D01*
X0070171Y0070733D01*
X0070302Y0070417D01*
X007051Y0070145D01*
X0070762Y0069952D01*
Y0069652D01*
X007051Y006946D01*
X0070302Y0069188D01*
X0070171Y0068872D01*
X0070126Y0068533D01*
X0070171Y0068193D01*
X0070302Y0067877D01*
X007051Y0067605D01*
X0070762Y0067412D01*
Y0067113D01*
X007051Y006692D01*
X0070302Y0066648D01*
X0070171Y0066332D01*
X0070126Y0065993D01*
X0070171Y0065653D01*
X0070302Y0065337D01*
X007051Y0065065D01*
X0070762Y0064872D01*
Y0064573D01*
X007051Y006438D01*
X0070302Y0064108D01*
X0070171Y0063792D01*
X0070126Y0063452D01*
X0070154Y0063239D01*
X0067997Y0061081D01*
X0052686D01*
X0052589Y0061366D01*
X0052605Y0061378D01*
X0052605Y0061378D01*
X0052605Y0061378D01*
X0053923Y0062696D01*
X0055139D01*
X005527Y0062525D01*
X0055542Y0062317D01*
X0055858Y0062186D01*
X0056197Y0062141D01*
X0056537Y0062186D01*
X0056853Y0062317D01*
X0057125Y0062525D01*
X0057333Y0062797D01*
X0057464Y0063113D01*
X0057509Y0063452D01*
X0057464Y0063792D01*
X0057333Y0064108D01*
X0057125Y006438D01*
X0056873Y0064573D01*
Y0064872D01*
X0057125Y0065065D01*
X0057333Y0065337D01*
X0057464Y0065653D01*
X0057509Y0065993D01*
X0057464Y0066332D01*
X0057333Y0066648D01*
X0057125Y006692D01*
X0056873Y0067113D01*
Y0067412D01*
X0057125Y0067605D01*
X0057333Y0067877D01*
X0057464Y0068193D01*
X0057509Y0068533D01*
X0057464Y0068872D01*
X0057333Y0069188D01*
X0057125Y006946D01*
X0056873Y0069652D01*
Y0069952D01*
X0057125Y0070145D01*
X0057333Y0070417D01*
X0057464Y0070733D01*
X0057509Y0071073D01*
X0057464Y0071412D01*
X0057333Y0071728D01*
X0057125Y0072D01*
X0056873Y0072192D01*
Y0072493D01*
X0057125Y0072685D01*
X0057333Y0072957D01*
X0057464Y0073273D01*
X0057509Y0073613D01*
X0057464Y0073952D01*
X0057333Y0074268D01*
X0057125Y007454D01*
X0056873Y0074732D01*
Y0075033D01*
X0057125Y0075225D01*
X0057333Y0075497D01*
X0057464Y0075813D01*
X0057509Y0076152D01*
X0057464Y0076492D01*
X0057333Y0076808D01*
X0057125Y007708D01*
X0056873Y0077272D01*
Y0077573D01*
X0057125Y0077765D01*
X0057333Y0078037D01*
X0057464Y0078353D01*
X0057509Y0078692D01*
X0057464Y0079032D01*
X0057333Y0079348D01*
X0057125Y007962D01*
X0056873Y0079812D01*
Y0080113D01*
X0057125Y0080305D01*
X0057333Y0080577D01*
X0057464Y0080893D01*
X0057509Y0081232D01*
X0057464Y0081572D01*
X0057333Y0081888D01*
X0057125Y008216D01*
X0056873Y0082353D01*
Y0082652D01*
X0057125Y0082845D01*
X0057333Y0083117D01*
X0057464Y0083433D01*
X0057509Y0083772D01*
X0057464Y0084112D01*
X0057333Y0084428D01*
X0057125Y00847D01*
X0056873Y0084893D01*
Y0085192D01*
X0057125Y0085385D01*
X0057333Y0085657D01*
X0057464Y0085973D01*
X0057476Y0086062D01*
X0054919D01*
X0054931Y0085973D01*
X0055062Y0085657D01*
X005527Y0085385D01*
X0055522Y0085192D01*
Y0084893D01*
X005527Y00847D01*
X0055139Y0084529D01*
X0050743D01*
X0050362Y008491D01*
X0050372Y008499D01*
X0050333Y008529D01*
X0050217Y008557D01*
X0050033Y008581D01*
X0049792Y0085995D01*
X0049513Y008611D01*
X0049213Y008615D01*
X0048912Y008611D01*
X0048633Y0085995D01*
X0048392Y008581D01*
X0048208Y008557D01*
X0048092Y008529D01*
X0048053Y008499D01*
X0048092Y008469D01*
X0048208Y008441D01*
X0048392Y008417D01*
X0048633Y0083985D01*
X0048912Y008387D01*
X0049213Y008383D01*
X0049292Y0083841D01*
X0049895Y0083238D01*
X0049895Y0083238D01*
X0049984Y008317D01*
X0050052Y0083117D01*
X0050234Y0083042D01*
X005043Y0083016D01*
X0055139D01*
X005527Y0082845D01*
X0055522Y0082652D01*
Y0082353D01*
X005527Y008216D01*
X0055139Y0081989D01*
X0050335D01*
X0050139Y0081963D01*
X0049957Y0081888D01*
X00498Y0081767D01*
X0049292Y0081259D01*
X0049213Y008127D01*
X0048912Y008123D01*
X0048633Y0081115D01*
X0048392Y008093D01*
X0048208Y008069D01*
X0048092Y008041D01*
X0048053Y008011D01*
X0048092Y007981D01*
X0048208Y007953D01*
X0048392Y007929D01*
X004858Y0079146D01*
X0048484Y0078861D01*
X0029922D01*
X0029749Y0078933D01*
X0029528Y0078962D01*
X0029306Y0078933D01*
X0029133Y0078861D01*
X0024871D01*
X002474Y0079032D01*
X0024488Y0079225D01*
Y0079525D01*
X002474Y0079718D01*
X0024948Y0079989D01*
X0025079Y0080306D01*
X0025091Y0080395D01*
X0023812D01*
Y0080895D01*
X0025091D01*
X0025079Y0080984D01*
X0024948Y0081301D01*
X002474Y0081572D01*
X0024488Y0081765D01*
Y0082065D01*
X0024634Y0082176D01*
X0032394D01*
X0032428Y0082162D01*
X0032702Y0082126D01*
X0032977Y0082162D01*
X0033232Y0082268D01*
X0033451Y0082436D01*
X003362Y0082655D01*
X0033725Y0082911D01*
X0033762Y0083185D01*
X0033725Y0083459D01*
X003362Y0083715D01*
X0033451Y0083934D01*
X0033232Y0084102D01*
X0032977Y0084208D01*
X0032702Y0084244D01*
X0032428Y0084208D01*
X0032394Y0084194D01*
X0024634D01*
X0024468Y0084321D01*
X0024152Y0084452D01*
X0023812Y0084496D01*
X0023473Y0084452D01*
X0023166Y0084324D01*
X0022916Y0084491D01*
Y0087594D01*
X0023166Y0087761D01*
X0023473Y0087633D01*
X0023812Y0087589D01*
X0024152Y0087633D01*
X0024468Y0087764D01*
X0024634Y0087891D01*
X0032394D01*
X0032428Y0087877D01*
X0032702Y0087841D01*
X0032977Y0087877D01*
X0033011Y0087891D01*
X0055315D01*
X0055522Y0087732D01*
Y0087433D01*
X005527Y008724D01*
X0055062Y0086968D01*
X0054931Y0086652D01*
X0054919Y0086562D01*
X0057476D01*
X0057464Y0086652D01*
X0057333Y0086968D01*
X0057125Y008724D01*
X0056873Y0087433D01*
Y0087732D01*
X0057125Y0087925D01*
X0057333Y0088197D01*
X0057464Y0088513D01*
X0057509Y0088853D01*
X0057464Y0089192D01*
X0057333Y0089508D01*
X0057125Y008978D01*
X0056873Y0089973D01*
Y0090272D01*
X0057125Y0090465D01*
X0057333Y0090737D01*
X0057464Y0091053D01*
X0057509Y0091393D01*
X0057464Y0091732D01*
X0057333Y0092048D01*
X0057125Y009232D01*
X0056873Y0092512D01*
Y0092812D01*
X0057125Y0093005D01*
X0057333Y0093277D01*
X0057464Y0093593D01*
X0057509Y0093933D01*
X0057464Y0094272D01*
X0057333Y0094588D01*
X0057125Y009486D01*
X0056873Y0095052D01*
Y0095353D01*
X0057125Y0095545D01*
X0057333Y0095817D01*
X0057464Y0096133D01*
X0057509Y0096473D01*
X0057464Y0096812D01*
X0057333Y0097128D01*
X0057125Y00974D01*
X0056873Y0097592D01*
Y0097893D01*
X0057125Y0098085D01*
X0057333Y0098357D01*
X0057464Y0098673D01*
X0057509Y0099012D01*
X0057464Y0099352D01*
X0057333Y0099668D01*
X0057125Y009994D01*
X0056873Y0100132D01*
Y0100433D01*
X0057125Y0100625D01*
X0057333Y0100897D01*
X0057464Y0101213D01*
X0057509Y0101552D01*
X0057464Y0101892D01*
X0057333Y0102208D01*
X0057125Y010248D01*
X0056873Y0102673D01*
Y0102973D01*
X0057125Y0103165D01*
X0057333Y0103437D01*
X0057464Y0103753D01*
X0057509Y0104092D01*
X0057464Y0104432D01*
X0057333Y0104748D01*
X0057125Y010502D01*
X0056873Y0105213D01*
Y0105512D01*
X0057125Y0105705D01*
X0057333Y0105977D01*
X0057464Y0106293D01*
X0057509Y0106632D01*
X0057464Y0106972D01*
X0057333Y0107288D01*
X0057125Y010756D01*
X0056873Y0107753D01*
Y0108052D01*
X0057125Y0108245D01*
X0057333Y0108517D01*
X0057464Y0108833D01*
X0057509Y0109173D01*
X0057464Y0109512D01*
X0057333Y0109828D01*
X0057125Y01101D01*
X0056873Y0110293D01*
Y0110592D01*
X0057125Y0110785D01*
X0057333Y0111057D01*
X0057464Y0111373D01*
X0057509Y0111713D01*
X0057464Y0112052D01*
X0057333Y0112368D01*
X0057125Y011264D01*
X0056853Y0112848D01*
X0056537Y0112979D01*
X0056438Y0112992D01*
X0056458Y0113291D01*
X0071177D01*
X0071197Y0112992D01*
D02*
G37*
G36*
X007884Y005979D02*
X007884Y005979D01*
X0078997Y005967D01*
X0079179Y0059594D01*
X0079375Y0059569D01*
X0081174D01*
X0081305Y0059398D01*
X0081577Y0059189D01*
X0081893Y0059058D01*
X0082232Y0059014D01*
X0082572Y0059058D01*
X0082879Y0059186D01*
X0083129Y0059019D01*
Y0054984D01*
X0022916D01*
Y0059019D01*
X0023166Y0059186D01*
X0023473Y0059058D01*
X0023812Y0059014D01*
X0024152Y0059058D01*
X0024468Y0059189D01*
X002474Y0059398D01*
X0024871Y0059569D01*
X0028453D01*
X0028549Y0059284D01*
X0028326Y0059113D01*
X0028142Y0058873D01*
X0028026Y0058593D01*
X0027987Y0058293D01*
X0028026Y0057993D01*
X0028142Y0057713D01*
X0028326Y0057473D01*
X0028567Y0057288D01*
X0028846Y0057173D01*
X0029146Y0057133D01*
X0029447Y0057173D01*
X0029726Y0057288D01*
X0029967Y0057473D01*
X0030151Y0057713D01*
X0030267Y0057993D01*
X0030306Y0058293D01*
X0030267Y0058593D01*
X0030151Y0058873D01*
X0029967Y0059113D01*
X0029743Y0059284D01*
X002984Y0059569D01*
X0033533D01*
X003363Y0059284D01*
X0033406Y0059113D01*
X0033222Y0058873D01*
X0033106Y0058593D01*
X0033099Y0058543D01*
X0035354D01*
X0035347Y0058593D01*
X0035231Y0058873D01*
X0035047Y0059113D01*
X0034824Y0059284D01*
X003492Y0059569D01*
X003855D01*
X0038646Y0059284D01*
X0038423Y0059113D01*
X0038238Y0058873D01*
X0038123Y0058593D01*
X0038083Y0058293D01*
X0038123Y0057993D01*
X0038238Y0057713D01*
X0038423Y0057473D01*
X0038663Y0057288D01*
X0038943Y0057173D01*
X0039243Y0057133D01*
X0039543Y0057173D01*
X0039823Y0057288D01*
X0040063Y0057473D01*
X0040248Y0057713D01*
X0040363Y0057993D01*
X0040403Y0058293D01*
X0040363Y0058593D01*
X0040248Y0058873D01*
X0040063Y0059113D01*
X003984Y0059284D01*
X0039936Y0059569D01*
X004363D01*
X0043726Y0059284D01*
X0043503Y0059113D01*
X0043318Y0058873D01*
X0043203Y0058593D01*
X0043196Y0058543D01*
X004545D01*
X0045443Y0058593D01*
X0045328Y0058873D01*
X0045143Y0059113D01*
X004492Y0059284D01*
X0045016Y0059569D01*
X006831D01*
X0068506Y0059594D01*
X0068635Y0059648D01*
X0068688Y005967D01*
X0068845Y005979D01*
X0071224Y0062169D01*
X0071438Y0062141D01*
X0071777Y0062186D01*
X0072093Y0062317D01*
X0072365Y0062525D01*
X0072573Y0062797D01*
X0072704Y0063113D01*
X0072749Y0063452D01*
X0072704Y0063792D01*
X0072573Y0064108D01*
X0072365Y006438D01*
X0072113Y0064573D01*
Y0064872D01*
X0072365Y0065065D01*
X0072496Y0065236D01*
X0073394D01*
X007884Y005979D01*
D02*
G37*
G36*
X0053488Y0070538D02*
X0053488Y0070538D01*
X0053576Y007047D01*
X0053644Y0070417D01*
X005372Y0070386D01*
X0053827Y0070342D01*
X0054022Y0070316D01*
X0055139D01*
X005527Y0070145D01*
X0055522Y0069952D01*
Y0069652D01*
X005527Y006946D01*
X0055139Y0069289D01*
X0054126D01*
X005393Y0069263D01*
X0053823Y0069219D01*
X0053748Y0069188D01*
X0053591Y0069067D01*
X0049098Y0064574D01*
X0041151D01*
X0041019Y0064843D01*
X0041048Y0064881D01*
X0041131Y0065082D01*
X004116Y0065298D01*
Y006581D01*
X0041492Y0066143D01*
X0041492Y0066143D01*
X0041613Y0066299D01*
X0041688Y0066482D01*
X0041691Y0066504D01*
X0041714Y0066677D01*
X0041714Y0066678D01*
Y0067183D01*
X0041736Y0067192D01*
X0041892Y0067313D01*
X0042013Y0067469D01*
X0042088Y0067652D01*
X0042114Y0067848D01*
Y0068348D01*
X0042088Y0068543D01*
X0042013Y0068726D01*
X0041892Y0068882D01*
Y0068913D01*
X0042013Y0069069D01*
X0042088Y0069252D01*
X0042114Y0069448D01*
X0039801D01*
X0039827Y0069252D01*
X0039902Y0069069D01*
X0040023Y0068913D01*
Y0068882D01*
X0039902Y0068726D01*
X0039827Y0068543D01*
X0039801Y0068348D01*
Y0067848D01*
X0039827Y0067652D01*
X0039902Y0067469D01*
X0040023Y0067313D01*
X0040086Y0067264D01*
X003999Y006698D01*
X0039678D01*
X0039462Y0066951D01*
X0039261Y0066868D01*
X0039128Y0066766D01*
X0038859Y0066898D01*
Y0067524D01*
X0039027Y0067653D01*
X0039236Y0067924D01*
X0039367Y0068241D01*
X0039411Y006858D01*
X0039367Y0068919D01*
X0039236Y0069236D01*
X0039027Y0069507D01*
X0038776Y00697D01*
Y007D01*
X0039027Y0070193D01*
X0039236Y0070464D01*
X0039367Y0070781D01*
X0039411Y007112D01*
X0039367Y0071459D01*
X0039236Y0071776D01*
X0039064Y0071999D01*
X0039195Y0072266D01*
X0039197Y0072269D01*
X0051757D01*
X0053488Y0070538D01*
D02*
G37*
G36*
X003383Y0072266D02*
X0033961Y0071999D01*
X0033789Y0071776D01*
X0033658Y0071459D01*
X0033614Y007112D01*
X0033658Y0070781D01*
X0033789Y0070464D01*
X0033998Y0070193D01*
X0034249Y007D01*
Y00697D01*
X0033998Y0069507D01*
X0033789Y0069236D01*
X0033658Y0068919D01*
X0033614Y006858D01*
X0033658Y0068241D01*
X0033789Y0067924D01*
X0033998Y0067653D01*
X0034166Y0067524D01*
Y0066898D01*
X0033897Y0066766D01*
X0033764Y0066868D01*
X0033563Y0066951D01*
X0033347Y006698D01*
X0033035D01*
X0032939Y0067264D01*
X0033002Y0067313D01*
X0033123Y0067469D01*
X0033198Y0067652D01*
X0033224Y0067848D01*
Y0068348D01*
X0033198Y0068543D01*
X0033123Y0068726D01*
X0033002Y0068882D01*
Y0068913D01*
X0033123Y0069069D01*
X0033198Y0069252D01*
X0033224Y0069448D01*
X0030911D01*
X0030937Y0069252D01*
X0031012Y0069069D01*
X0031133Y0068913D01*
Y0068882D01*
X0031012Y0068726D01*
X0030937Y0068543D01*
X0030911Y0068348D01*
Y0067848D01*
X0030937Y0067652D01*
X0031012Y0067469D01*
X0031133Y0067313D01*
X0031289Y0067192D01*
X0031311Y0067183D01*
Y0066677D01*
X0031311Y0066677D01*
X0031311D01*
X0031337Y0066482D01*
X0031412Y0066299D01*
X0031533Y0066143D01*
X0031865Y006581D01*
Y0065298D01*
X0031894Y0065082D01*
X0031977Y0064881D01*
X0032006Y0064843D01*
X0031874Y0064574D01*
X0029523D01*
X0025617Y006848D01*
X0025461Y00686D01*
X0025278Y0068676D01*
X0025083Y0068701D01*
X0024871D01*
X002474Y0068872D01*
X0024488Y0069065D01*
Y0069365D01*
X002474Y0069558D01*
X0024871Y0069729D01*
X0025083D01*
X0025278Y0069754D01*
X0025461Y006983D01*
X0025617Y006995D01*
X0027936Y0072269D01*
X0033828D01*
X003383Y0072266D01*
D02*
G37*
G36*
X0069625Y0139768D02*
X0070012Y0139382D01*
X0070221Y0139221D01*
X0070464Y0139121D01*
X0070725Y0139086D01*
X0071064D01*
Y0138747D01*
Y0138446D01*
X0070923D01*
X0070727Y0138421D01*
X0070544Y0138345D01*
X0070388Y0138225D01*
X0070267Y0138068D01*
X0070192Y0137886D01*
X0070166Y013769D01*
Y013719D01*
X0070192Y0136994D01*
X0070267Y0136812D01*
X0070388Y0136655D01*
X0070544Y0136535D01*
X0070727Y0136459D01*
X0070923Y0136434D01*
X0072056D01*
X0072073Y0136431D01*
X0072089Y0136434D01*
X0073223D01*
X0073378Y0136454D01*
X0073445Y0136396D01*
X0073604Y0136011D01*
Y0135795D01*
X0073392Y0135285D01*
X0073378Y0135272D01*
X0073198Y0135296D01*
X0072377D01*
X0072334Y0135314D01*
X0072323Y0135316D01*
Y013434D01*
X0072073D01*
Y013409D01*
X007022D01*
X0070241Y0133926D01*
X0070314Y0133749D01*
X007043Y0133598D01*
X0070582Y0133482D01*
X0070758Y0133409D01*
X0070948Y0133384D01*
X0071064D01*
Y0133054D01*
X0070814Y0132887D01*
X0070763Y0132908D01*
X0070567Y0132934D01*
X0069768D01*
X0069572Y0132908D01*
X0069389Y0132833D01*
X0069233Y0132712D01*
X0069211Y0132684D01*
X0068584D01*
X0068562Y0132712D01*
X0068406Y0132833D01*
X0068223Y0132908D01*
X0068027Y0132934D01*
X0067228D01*
X0067032Y0132908D01*
X0066849Y0132833D01*
X0066693Y0132712D01*
X0066671Y0132684D01*
X0066074D01*
X0065908Y01329D01*
X0065667Y0133085D01*
X0065388Y01332D01*
X0065088Y013324D01*
X0065056Y0133267D01*
Y0133903D01*
X00651Y0133941D01*
X0065296Y0133967D01*
X0065478Y0134042D01*
X0065635Y0134163D01*
X0065755Y0134319D01*
X0065831Y0134502D01*
X0065856Y0134697D01*
Y0135572D01*
X0065856Y0135572D01*
X0065856Y0135573D01*
Y0136447D01*
X0065844Y0136542D01*
Y0136842D01*
X0065818Y0137038D01*
X0065888Y0137159D01*
X0065961Y0137168D01*
X0066204Y0137269D01*
X0066413Y0137429D01*
X0066574Y0137638D01*
X0066647Y0137816D01*
X0066941Y0137757D01*
Y0137318D01*
X0066737Y0137161D01*
X0066576Y0136952D01*
X0066476Y0136709D01*
X0066441Y0136447D01*
Y0134947D01*
X0066476Y0134686D01*
X0066576Y0134443D01*
X0066737Y0134234D01*
X0066946Y0134074D01*
X0067189Y0133973D01*
X006745Y0133939D01*
X006845D01*
X0068711Y0133973D01*
X0068954Y0134074D01*
X0069163Y0134234D01*
X0069324Y0134443D01*
X0069424Y0134686D01*
X0069459Y0134947D01*
Y0136447D01*
X0069424Y0136709D01*
X0069324Y0136952D01*
X0069163Y0137161D01*
X0068959Y0137318D01*
Y0139527D01*
X0069163Y0139684D01*
X0069262Y0139813D01*
X0069483Y0139827D01*
X0069625Y0139768D01*
D02*
G37*
G36*
X0023206Y0139729D02*
X0023384Y0139593D01*
X0023591Y0139507D01*
X0023812Y0139478D01*
X0023908Y0139383D01*
X0023937Y0139161D01*
X0024023Y0138954D01*
X0024159Y0138776D01*
X0024336Y013864D01*
X0024543Y0138554D01*
X0024765Y0138525D01*
X0024987Y0138554D01*
X002516Y0138626D01*
X003128D01*
X0031363Y0138525D01*
Y0136912D01*
X002975D01*
X0029506Y0136864D01*
X0029299Y0136726D01*
X0029161Y0136519D01*
X0029113Y0136275D01*
Y0136025D01*
X0029161Y0135781D01*
X0029182Y013575D01*
X0029161Y0135719D01*
X0029113Y0135475D01*
Y0135225D01*
X0029161Y0134981D01*
X0029182Y013495D01*
X0029161Y0134919D01*
X0029138Y01348D01*
X0029282D01*
X0029299Y0134774D01*
X0029506Y0134636D01*
X002975Y0134588D01*
X0030575D01*
Y0134512D01*
X002975D01*
X0029506Y0134464D01*
X0029299Y0134326D01*
X0029282Y01343D01*
X0029138D01*
X0029161Y0134181D01*
X0029182Y013415D01*
X0029161Y0134119D01*
X0029113Y0133875D01*
Y0133625D01*
X0029161Y0133381D01*
X0029182Y013335D01*
X0029161Y0133319D01*
X0029138Y01332D01*
X0029282D01*
X0029299Y0133174D01*
X0029506Y0133036D01*
X002975Y0132988D01*
X0030575D01*
Y0132912D01*
X002975D01*
X0029506Y0132864D01*
X0029299Y0132726D01*
X0029282Y01327D01*
X0029138D01*
X0029161Y0132581D01*
X0029182Y013255D01*
X0029161Y0132519D01*
X0029113Y0132275D01*
Y0132106D01*
X0028566D01*
X0027502Y013317D01*
X0027512Y013325D01*
X0027473Y013355D01*
X0027357Y013383D01*
X0027173Y013407D01*
X0026932Y0134255D01*
X0026653Y013437D01*
X0026353Y013441D01*
X0026052Y013437D01*
X0025773Y0134255D01*
X0025532Y013407D01*
X0025348Y013383D01*
X0025232Y013355D01*
X0025193Y013325D01*
X0025232Y013295D01*
X0025348Y013267D01*
X0025532Y013243D01*
X0025773Y0132245D01*
X0026052Y013213D01*
X0026353Y013209D01*
X0026432Y0132101D01*
X0027573Y013096D01*
Y013066D01*
X0026432Y0129519D01*
X0026353Y012953D01*
X0026052Y012949D01*
X0025773Y0129375D01*
X0025532Y012919D01*
X0025348Y012895D01*
X0025232Y012867D01*
X0025193Y012837D01*
X0025232Y012807D01*
X0025348Y012779D01*
X0025532Y012755D01*
X0025773Y0127365D01*
X0026052Y012725D01*
X0026353Y012721D01*
X0026653Y012725D01*
X0026932Y0127365D01*
X0027173Y012755D01*
X0027357Y012779D01*
X0027473Y012807D01*
X0027512Y012837D01*
X0027502Y012845D01*
X0028846Y0129794D01*
X0029721D01*
X002975Y0129788D01*
X0031363D01*
Y0128175D01*
X0031411Y0127931D01*
X0031549Y0127724D01*
X0031756Y0127586D01*
X0032Y0127538D01*
X003225D01*
X0032494Y0127586D01*
X0032525Y0127607D01*
X0032556Y0127586D01*
X00328Y0127538D01*
X003305D01*
X0033294Y0127586D01*
X0033325Y0127607D01*
X0033356Y0127586D01*
X00336Y0127538D01*
X0033815D01*
Y0125653D01*
X0033815Y0125653D01*
X0033815D01*
X003384Y0125457D01*
X0033916Y0125274D01*
X0034036Y0125118D01*
X0035864Y012329D01*
X003602Y012317D01*
X0036074Y0123148D01*
X0036203Y0123094D01*
X0036301Y0123081D01*
X0036399Y0123069D01*
X0036399Y0123069D01*
X0036791D01*
X0036924Y0122799D01*
X0036782Y0122615D01*
X0036681Y0122372D01*
X0036647Y012211D01*
Y0121344D01*
X003652Y0121179D01*
X0036389Y0120862D01*
X0036344Y0120523D01*
X0036389Y0120184D01*
X003652Y0119867D01*
X0036728Y0119596D01*
X003698Y0119403D01*
Y0119103D01*
X0036728Y011891D01*
X003652Y0118639D01*
X0036389Y0118322D01*
X0036344Y0117983D01*
X0036389Y0117644D01*
X003652Y0117327D01*
X0036647Y0117162D01*
Y0116015D01*
X0036647Y0116015D01*
X0036647D01*
X0036681Y0115753D01*
X0036782Y011551D01*
X0036942Y0115301D01*
X0038657Y0113587D01*
X0038866Y0113426D01*
X0039109Y0113326D01*
X003937Y0113291D01*
X0055937D01*
X0055957Y0112992D01*
X0055858Y0112979D01*
X0055542Y0112848D01*
X005527Y011264D01*
X0055176Y0112516D01*
X003532D01*
X0035147Y0112588D01*
X0034925Y0112617D01*
X0034703Y0112588D01*
X003453Y0112516D01*
X0024871D01*
X002474Y0112687D01*
X0024468Y0112896D01*
X0024152Y0113027D01*
X0023812Y0113071D01*
X0023473Y0113027D01*
X0023166Y0112899D01*
X0022916Y0113066D01*
Y0116677D01*
X0023166Y0116844D01*
X0023473Y0116716D01*
X0023812Y0116672D01*
X0024152Y0116716D01*
X0024468Y0116847D01*
X002474Y0117056D01*
X0024933Y0117307D01*
X0025233D01*
X0025425Y0117056D01*
X0025697Y0116847D01*
X0026013Y0116716D01*
X0026353Y0116672D01*
X0026692Y0116716D01*
X0027008Y0116847D01*
X002728Y0117056D01*
X0027488Y0117327D01*
X0027619Y0117644D01*
X0027664Y0117983D01*
X0027619Y0118322D01*
X0027488Y0118639D01*
X002728Y011891D01*
X0027029Y0119103D01*
Y0119403D01*
X002728Y0119596D01*
X0027489Y0119867D01*
X002762Y0120184D01*
X0027664Y0120523D01*
X002762Y0120862D01*
X0027489Y0121179D01*
X002728Y012145D01*
X0027009Y0121659D01*
X0026693Y012179D01*
X0026353Y0121834D01*
X0026014Y012179D01*
X0025698Y0121659D01*
X0025426Y012145D01*
X0025233Y0121199D01*
X0024933D01*
X002474Y012145D01*
X0024469Y0121659D01*
X0024153Y012179D01*
X0023813Y0121834D01*
X0023474Y012179D01*
X0023166Y0121662D01*
X0022916Y0121828D01*
Y013964D01*
X00232Y0139737D01*
X0023206Y0139729D01*
D02*
G37*
G36*
X0069112Y0129699D02*
X0069233Y0129543D01*
X0069389Y0129422D01*
X0069572Y0129347D01*
X0069768Y0129321D01*
X0070151D01*
X0070168Y0129319D01*
X0073604D01*
Y0124243D01*
X0072925Y0123564D01*
X0066188D01*
X0066056Y0123833D01*
X0066092Y012388D01*
X0066208Y012416D01*
X0066215Y012421D01*
X0065088D01*
Y012446D01*
X0064838D01*
Y0125587D01*
X0064787Y012558D01*
X0064508Y0125465D01*
X0064267Y012528D01*
X0064083Y012504D01*
X0063967Y0124761D01*
X0063667D01*
X0063552Y012504D01*
X0063368Y012528D01*
X0063127Y0125465D01*
X0062848Y012558D01*
X0062798Y0125587D01*
Y012446D01*
X0062548D01*
Y012421D01*
X006142D01*
X0061427Y012416D01*
X0061543Y012388D01*
X0061579Y0123833D01*
X0061447Y0123564D01*
X0059938D01*
X0059823Y0123841D01*
X0065553Y0129571D01*
X0066671D01*
X0066693Y0129543D01*
X0066849Y0129422D01*
X0067032Y0129347D01*
X0067228Y0129321D01*
X0068027D01*
X0068223Y0129347D01*
X0068406Y0129422D01*
X0068562Y0129543D01*
X0068683Y0129699D01*
X0068747Y0129856D01*
X0069048D01*
X0069112Y0129699D01*
D02*
G37*
G36*
X006428Y0143812D02*
X0063733Y0143264D01*
X0063572Y0143055D01*
X0063472Y0142812D01*
X0063437Y0142551D01*
X0063437Y0142551D01*
X0063437D01*
X0063437Y0142551D01*
X0063437D01*
Y0137484D01*
X0063472Y0137223D01*
X0063472D01*
X0063304Y0137178D01*
X0063304D01*
X0063304Y0137178D01*
X0063122Y0137103D01*
X00631Y0137086D01*
X0063078Y0137103D01*
X0062896Y0137178D01*
X00627Y0137204D01*
X0062504Y0137178D01*
X0062362Y0137119D01*
X0062093Y0137252D01*
X0062037Y013746D01*
X0062174Y0137638D01*
X0062274Y0137881D01*
X0062309Y0138143D01*
X0062274Y0138404D01*
X0062174Y0138647D01*
X0062013Y0138856D01*
X0061804Y0139016D01*
X0061561Y0139117D01*
X00613Y0139151D01*
X0061039Y0139117D01*
X0060796Y0139016D01*
X0060587Y0138856D01*
X0060426Y0138647D01*
X0060353Y0138469D01*
X0060059Y0138528D01*
Y0139527D01*
X0060263Y0139684D01*
X0060424Y0139893D01*
X0060524Y0140136D01*
X0060559Y0140398D01*
Y0141898D01*
X0060524Y0142159D01*
X0060424Y0142402D01*
X0060263Y0142611D01*
X0060054Y0142771D01*
X0059811Y0142872D01*
X005955Y0142906D01*
X005855D01*
X0058289Y0142872D01*
X0058046Y0142771D01*
X0057837Y0142611D01*
X0057676Y0142402D01*
X0057576Y0142159D01*
X0057541Y0141898D01*
Y0140398D01*
X0057576Y0140136D01*
X0057676Y0139893D01*
X0057837Y0139684D01*
X0058041Y0139527D01*
Y0137318D01*
X0057837Y0137161D01*
X0057676Y0136952D01*
X0057576Y0136709D01*
X0057541Y0136447D01*
Y0134947D01*
X0057576Y0134686D01*
X0057676Y0134443D01*
X0057837Y0134234D01*
X0057842Y0134159D01*
X0056933Y013325D01*
X0056812Y0133093D01*
X0056737Y0132911D01*
X0056731Y0132869D01*
X0056729Y0132849D01*
X0056689Y0132833D01*
X0056533Y0132712D01*
X0056412Y0132556D01*
X0056337Y0132373D01*
X0056311Y0132178D01*
Y0131678D01*
X0056337Y0131482D01*
X0056412Y0131299D01*
X0056533Y0131143D01*
Y0131112D01*
X0056412Y0130956D01*
X0056337Y0130773D01*
X0056311Y0130577D01*
X0057467D01*
Y0130327D01*
X0057717D01*
Y0129321D01*
X0057868D01*
X0058063Y0129347D01*
X0058246Y0129422D01*
X0058402Y0129543D01*
X0058523Y0129699D01*
X0058588Y0129856D01*
X0058888D01*
X0058952Y0129699D01*
X0059073Y0129543D01*
X0059229Y0129422D01*
X0059251Y0129413D01*
Y0126678D01*
X0058107Y0125534D01*
X0039764D01*
X0039592Y012573D01*
X0039563Y0125952D01*
X0039477Y0126159D01*
X0039341Y0126336D01*
Y0126394D01*
X0039477Y0126571D01*
X0039563Y0126778D01*
X0039592Y0127D01*
X0039563Y0127222D01*
X0039561Y0127226D01*
X0039799Y0127408D01*
X0039944Y0127297D01*
X0040127Y0127222D01*
X0040322Y0127196D01*
X004088D01*
X0041053Y0127124D01*
X0041275Y0127095D01*
X0041497Y0127124D01*
X0041704Y012721D01*
X0041881Y0127346D01*
X0042017Y0127524D01*
X0042103Y0127731D01*
X0042132Y0127952D01*
X0042103Y0128174D01*
X0042017Y0128381D01*
X0041881Y0128559D01*
X0041704Y0128695D01*
X0041559Y0128755D01*
Y0129055D01*
X0041704Y0129115D01*
X0041881Y0129251D01*
X0042017Y0129429D01*
X0042103Y0129636D01*
X0042132Y0129857D01*
X0042103Y0130079D01*
X0042017Y0130286D01*
X0041951Y0130373D01*
X004199Y013067D01*
X0042024Y0130696D01*
X0042192Y0130915D01*
X0042298Y0131171D01*
X0042334Y0131445D01*
X0042298Y0131719D01*
X0042192Y0131975D01*
X0042024Y0132194D01*
X0041805Y0132362D01*
X0041549Y0132468D01*
X0041275Y0132504D01*
X0041001Y0132468D01*
X004093Y0132439D01*
X0040698Y0132629D01*
X0040737Y0132825D01*
Y0133075D01*
X0040689Y0133319D01*
X0040668Y013335D01*
X0040689Y0133381D01*
X0040712Y01335D01*
X0040568D01*
X0040551Y0133526D01*
X0040344Y0133664D01*
X00401Y0133712D01*
X003845D01*
X0038206Y0133664D01*
X0037999Y0133526D01*
X0037982Y01335D01*
X0037838D01*
X0037861Y0133381D01*
X0037882Y013335D01*
X0037861Y0133319D01*
X0037813Y0133075D01*
Y0132825D01*
X0037861Y0132581D01*
X0037882Y013255D01*
X0037861Y0132519D01*
X0037813Y0132275D01*
Y0132025D01*
X0037861Y0131781D01*
X0037882Y013175D01*
X0037861Y0131719D01*
X0037813Y0131475D01*
Y0131225D01*
X0037861Y0130981D01*
X0037882Y013095D01*
X0037861Y0130919D01*
X0037813Y0130675D01*
Y0130462D01*
X00376D01*
X0037356Y0130414D01*
X0037325Y0130393D01*
X0037294Y0130414D01*
X003705Y0130462D01*
X00368D01*
X0036556Y0130414D01*
X0036525Y0130393D01*
X0036494Y0130414D01*
X003625Y0130462D01*
X0036081D01*
Y013295D01*
X0036081Y013295D01*
X0036059Y0133123D01*
X0036056Y0133146D01*
X003598Y0133328D01*
X003586Y0133485D01*
X003586Y0133485D01*
X0034834Y0134511D01*
X0034893Y0134805D01*
X0034954Y013483D01*
X0035131Y0134966D01*
X0035267Y0135144D01*
X0035353Y0135351D01*
X0035382Y0135572D01*
X0035353Y0135794D01*
X0035281Y0135967D01*
Y0136238D01*
X003545D01*
X0035694Y0136286D01*
X0035725Y0136307D01*
X0035756Y0136286D01*
X0036Y0136238D01*
X0036233D01*
X00364Y0135988D01*
X0036319Y0135794D01*
X003629Y0135572D01*
X0036319Y0135351D01*
X0036405Y0135144D01*
X0036541Y0134966D01*
X0036719Y013483D01*
X0036926Y0134744D01*
X0037147Y0134715D01*
X0037369Y0134744D01*
X0037563Y0134825D01*
X0037813Y0134658D01*
Y0134425D01*
X0037861Y0134181D01*
X0037882Y013415D01*
X0037861Y0134119D01*
X0037838Y0134D01*
X0037982D01*
X0037999Y0133974D01*
X0038206Y0133836D01*
X003845Y0133788D01*
X00401D01*
X0040344Y0133836D01*
X0040551Y0133974D01*
X0040568Y0134D01*
X0040712D01*
X0040689Y0134119D01*
X0040668Y013415D01*
X0040689Y0134181D01*
X0040737Y0134425D01*
Y0134594D01*
X0041073D01*
D01*
X0041056Y0134385D01*
D01*
D01*
X0041056Y0134385D01*
X0041056D01*
D01*
D01*
D01*
Y0133585D01*
X0041082Y0133389D01*
X0041157Y0133207D01*
X0041278Y013305D01*
X0041434Y013293D01*
X0041617Y0132854D01*
X0041812Y0132829D01*
X0042312D01*
X0042508Y0132854D01*
X0042691Y013293D01*
X0042847Y013305D01*
X0042878D01*
X0043034Y013293D01*
X0043217Y0132854D01*
X0043412Y0132829D01*
X0043912D01*
X0044108Y0132854D01*
X0044291Y013293D01*
X0044447Y013305D01*
X0044568Y0133207D01*
X0044577Y0133229D01*
X0045594D01*
X0045629Y0133144D01*
X0045762Y0132972D01*
X0045934Y0132839D01*
X0046135Y0132756D01*
X004635Y0132728D01*
X0047D01*
X0047215Y0132756D01*
X0047416Y0132839D01*
X0047588Y0132972D01*
X0047662D01*
X0047834Y0132839D01*
X0048035Y0132756D01*
X004825Y0132728D01*
X00489D01*
X0049115Y0132756D01*
X0049316Y0132839D01*
X0049488Y0132972D01*
X0049621Y0133144D01*
X0049704Y0133345D01*
X0049732Y013356D01*
Y013441D01*
X0049704Y0134625D01*
X0049621Y0134826D01*
X0049584Y0134874D01*
Y0135258D01*
X00496Y0135298D01*
X0049637Y0135572D01*
X00496Y0135847D01*
X0049584Y0135887D01*
Y0136588D01*
X0049621Y0136636D01*
X0049704Y0136837D01*
X0049732Y0137053D01*
Y0137902D01*
X0049704Y0138118D01*
X0049621Y0138319D01*
X0049488Y0138491D01*
X0049316Y0138623D01*
X0049115Y0138706D01*
X00489Y0138735D01*
X004825D01*
X0048035Y0138706D01*
X0047834Y0138623D01*
X0047662Y0138491D01*
X0047588D01*
X0047416Y0138623D01*
X0047215Y0138706D01*
X0047Y0138735D01*
X004635D01*
X0046135Y0138706D01*
X0045934Y0138623D01*
X0045762Y0138491D01*
X0045629Y0138319D01*
X0045594Y0138234D01*
X0044577D01*
X0044568Y0138256D01*
X0044447Y0138412D01*
X0044291Y0138533D01*
X0044108Y0138608D01*
X0043912Y0138634D01*
X0043412D01*
X0043217Y0138608D01*
X0043034Y0138533D01*
X0042878Y0138412D01*
X0042847D01*
X0042691Y0138533D01*
X0042508Y0138608D01*
X0042312Y0138634D01*
X0041812D01*
X0041617Y0138608D01*
X0041434Y0138533D01*
X0041278Y0138412D01*
X0041157Y0138256D01*
X0041082Y0138073D01*
X0041056Y0137878D01*
Y0137077D01*
X0040906Y0136906D01*
X0040129D01*
X00401Y0136912D01*
X0038487D01*
Y0138525D01*
X0038439Y0138769D01*
X0038301Y0138976D01*
X0038094Y0139114D01*
X003785Y0139162D01*
X00376D01*
X0037356Y0139114D01*
X0037325Y0139093D01*
X0037294Y0139114D01*
X003705Y0139162D01*
X00368D01*
X0036556Y0139114D01*
X0036525Y0139093D01*
X0036494Y0139114D01*
X003625Y0139162D01*
X0036D01*
X0035756Y0139114D01*
X0035725Y0139093D01*
X0035694Y0139114D01*
X0035451Y0139162D01*
X003545Y0139165D01*
X003545Y0139495D01*
X0035531Y0139549D01*
X0035597Y0139522D01*
X0035792Y0139496D01*
X0036292D01*
X0036488Y0139522D01*
X0036671Y0139597D01*
X0036827Y0139718D01*
X0036948Y0139874D01*
X0037023Y0140057D01*
X0037049Y0140253D01*
Y0141053D01*
X0037023Y0141248D01*
X0036948Y0141431D01*
X0036827Y0141587D01*
X0036799Y0141609D01*
Y0141819D01*
X003696Y0142028D01*
X0037065Y0142283D01*
X0037102Y0142557D01*
X0037065Y0142832D01*
X003696Y0143087D01*
X0036791Y0143306D01*
X0036572Y0143475D01*
X0036317Y014358D01*
X0036042Y0143617D01*
X0035768Y014358D01*
X0035513Y0143475D01*
X0035294Y0143306D01*
X0035125Y0143087D01*
X003502Y0142832D01*
X0034983Y0142557D01*
X003502Y0142283D01*
X0035125Y0142028D01*
X0035158Y0141985D01*
X0034976Y0141747D01*
X0034888Y0141783D01*
X0034693Y0141809D01*
X0034193D01*
X0033997Y0141783D01*
X0033814Y0141708D01*
X0033658Y0141587D01*
X0033537Y0141431D01*
X0033462Y0141248D01*
X0033436Y0141053D01*
Y0140984D01*
X0033161Y014087D01*
X0033005Y014099D01*
X0032951Y0141012D01*
X0032822Y0141066D01*
X0032626Y0141091D01*
X0024207D01*
X0024034Y0141163D01*
X0023812Y0141192D01*
X0023591Y0141163D01*
X0023384Y0141077D01*
X0023206Y0140941D01*
X00232Y0140933D01*
X0022916Y014103D01*
Y0144089D01*
X0064165D01*
X006428Y0143812D01*
D02*
G37*
G36*
X0060426Y0137638D02*
X0060587Y0137429D01*
X0060796Y0137269D01*
X0061039Y0137168D01*
X0061167Y0137151D01*
X0061282Y0136874D01*
X0061245Y0136826D01*
X0061169Y0136643D01*
X0061144Y0136447D01*
Y0135822D01*
X00619D01*
Y0135322D01*
X0061144D01*
Y0134697D01*
Y0134356D01*
X0060658D01*
X0060491Y0134606D01*
X0060524Y0134686D01*
X0060559Y0134947D01*
Y0136447D01*
X0060524Y0136709D01*
X0060424Y0136952D01*
X0060263Y0137161D01*
X0060059Y0137318D01*
Y0137757D01*
X0060353Y0137816D01*
X0060426Y0137638D01*
D02*
G37*
G36*
X0081822Y0143795D02*
X0081577Y0143693D01*
X0081305Y0143485D01*
X0081097Y0143213D01*
X0080966Y0142897D01*
X0080954Y0142807D01*
X0082232D01*
Y0142307D01*
X0080954D01*
X0080966Y0142218D01*
X0081097Y0141902D01*
X0081305Y014163D01*
X0081557Y0141438D01*
Y0141137D01*
X0081305Y0140945D01*
X0081097Y0140673D01*
X0080966Y0140357D01*
X0080921Y0140018D01*
X0080966Y0139678D01*
X0081097Y0139362D01*
X0081224Y0139196D01*
Y0138083D01*
X0081126Y0138009D01*
X0080976Y0137813D01*
X0080882Y0137585D01*
X0080849Y013734D01*
Y0135565D01*
X0080882Y013532D01*
X0080976Y0135092D01*
X0081126Y0134896D01*
X0081322Y0134746D01*
X008155Y0134652D01*
X0081795Y0134619D01*
X008267D01*
X0082903Y013465D01*
X0083129Y0134452D01*
Y0134153D01*
X0082903Y0133955D01*
X008267Y0133986D01*
X0081795D01*
X008155Y0133953D01*
X0081322Y0133859D01*
X0081126Y0133709D01*
X0080976Y0133513D01*
X0080882Y0133285D01*
X0080865Y0133161D01*
X0075621D01*
Y0138747D01*
Y0142249D01*
X0075635Y0142283D01*
X0075672Y0142557D01*
X0075635Y0142832D01*
X007553Y0143087D01*
X0075361Y0143306D01*
X0075142Y0143475D01*
X0074887Y014358D01*
X0074613Y0143617D01*
X0074338Y014358D01*
X0074083Y0143475D01*
X0073864Y0143306D01*
X0073695Y0143087D01*
X007359Y0142832D01*
X0073553Y0142557D01*
X0073557Y014253D01*
X0073267Y0142452D01*
X007322Y0142567D01*
X0073089Y0142737D01*
X007292Y0142867D01*
X0072722Y0142949D01*
X007251Y0142977D01*
X0072323D01*
Y0141845D01*
X0071823D01*
Y0142977D01*
X0071635D01*
X0071423Y0142949D01*
X0071407Y0142943D01*
X0071147Y0143093D01*
X0071142Y0143136D01*
X00711Y0143237D01*
X0071041Y0143379D01*
X0070881Y0143588D01*
X0070657Y0143812D01*
X0070772Y0144089D01*
X0081764D01*
X0081822Y0143795D01*
D02*
G37*
%LPC*%
G36*
X0071823Y0135316D02*
X0071811Y0135314D01*
X0071768Y0135296D01*
X0070948D01*
X0070758Y0135271D01*
X0070582Y0135198D01*
X007043Y0135082D01*
X0070314Y0134931D01*
X0070241Y0134754D01*
X007022Y013459D01*
X0071823D01*
Y0135316D01*
D02*
G37*
G36*
X0057217Y0130077D02*
X0056311D01*
X0056337Y0129882D01*
X0056412Y0129699D01*
X0056533Y0129543D01*
X0056689Y0129422D01*
X0056872Y0129347D01*
X0057068Y0129321D01*
X0057217D01*
Y0130077D01*
D02*
G37*
G36*
X0031817Y0070704D02*
X0031667D01*
X0031472Y0070678D01*
X0031289Y0070603D01*
X0031133Y0070482D01*
X0031012Y0070326D01*
X0030937Y0070143D01*
X0030911Y0069948D01*
X0031817D01*
Y0070704D01*
D02*
G37*
G36*
X0065338Y0125587D02*
Y012471D01*
X0066215D01*
X0066208Y012476D01*
X0066092Y012504D01*
X0065908Y012528D01*
X0065667Y0125465D01*
X0065388Y012558D01*
X0065338Y0125587D01*
D02*
G37*
G36*
X0035354Y0058043D02*
X0034477D01*
Y0057166D01*
X0034527Y0057173D01*
X0034806Y0057288D01*
X0035047Y0057473D01*
X0035231Y0057713D01*
X0035347Y0057993D01*
X0035354Y0058043D01*
D02*
G37*
G36*
X0033977D02*
X0033099D01*
X0033106Y0057993D01*
X0033222Y0057713D01*
X0033406Y0057473D01*
X0033647Y0057288D01*
X0033926Y0057173D01*
X0033977Y0057166D01*
Y0058043D01*
D02*
G37*
G36*
X004545D02*
X0044573D01*
Y0057166D01*
X0044623Y0057173D01*
X0044903Y0057288D01*
X0045143Y0057473D01*
X0045328Y0057713D01*
X0045443Y0057993D01*
X004545Y0058043D01*
D02*
G37*
G36*
X0044073D02*
X0043196D01*
X0043203Y0057993D01*
X0043318Y0057713D01*
X0043503Y0057473D01*
X0043743Y0057288D01*
X0044023Y0057173D01*
X0044073Y0057166D01*
Y0058043D01*
D02*
G37*
G36*
X0032467Y0070704D02*
X0032318D01*
Y0069948D01*
X0033224D01*
X0033198Y0070143D01*
X0033123Y0070326D01*
X0033002Y0070482D01*
X0032846Y0070603D01*
X0032663Y0070678D01*
X0032467Y0070704D01*
D02*
G37*
G36*
X0030035Y0121834D02*
X0029696Y012179D01*
X002938Y0121659D01*
X0029108Y012145D01*
X00289Y0121179D01*
X0028769Y0120862D01*
X0028724Y0120523D01*
X0028769Y0120184D01*
X00289Y0119867D01*
X0029108Y0119596D01*
X002936Y0119403D01*
Y0119103D01*
X0029108Y011891D01*
X00289Y0118639D01*
X0028769Y0118322D01*
X0028724Y0117983D01*
X0028769Y0117644D01*
X00289Y0117327D01*
X0029108Y0117056D01*
X002938Y0116847D01*
X0029696Y0116716D01*
X0030035Y0116672D01*
X0030375Y0116716D01*
X0030691Y0116847D01*
X0030963Y0117056D01*
X0031171Y0117327D01*
X0031302Y0117644D01*
X0031347Y0117983D01*
X0031302Y0118322D01*
X0031171Y0118639D01*
X0030963Y011891D01*
X0030711Y0119103D01*
Y0119403D01*
X0030963Y0119596D01*
X0031171Y0119867D01*
X0031302Y0120184D01*
X0031347Y0120523D01*
X0031302Y0120862D01*
X0031171Y0121179D01*
X0030963Y012145D01*
X0030691Y0121659D01*
X0030375Y012179D01*
X0030035Y0121834D01*
D02*
G37*
G36*
X0033846D02*
X0033506Y012179D01*
X003319Y0121659D01*
X0032918Y012145D01*
X003271Y0121179D01*
X0032579Y0120862D01*
X0032534Y0120523D01*
X0032579Y0120184D01*
X003271Y0119867D01*
X0032918Y0119596D01*
X003317Y0119403D01*
Y0119103D01*
X0032918Y011891D01*
X003271Y0118639D01*
X0032579Y0118322D01*
X0032567Y0118233D01*
X0035124D01*
X0035112Y0118322D01*
X0034981Y0118639D01*
X0034773Y011891D01*
X0034521Y0119103D01*
Y0119403D01*
X0034773Y0119596D01*
X0034981Y0119867D01*
X0035112Y0120184D01*
X0035157Y0120523D01*
X0035112Y0120862D01*
X0034981Y0121179D01*
X0034773Y012145D01*
X0034501Y0121659D01*
X0034185Y012179D01*
X0033846Y0121834D01*
D02*
G37*
G36*
X0033596Y0117733D02*
X0032567D01*
X0032579Y0117644D01*
X003271Y0117327D01*
X0032918Y0117056D01*
X003319Y0116847D01*
X0033506Y0116716D01*
X0033596Y0116705D01*
Y0117733D01*
D02*
G37*
G36*
X0035124D02*
X0034096D01*
Y0116705D01*
X0034185Y0116716D01*
X0034501Y0116847D01*
X0034773Y0117056D01*
X0034981Y0117327D01*
X0035112Y0117644D01*
X0035124Y0117733D01*
D02*
G37*
G36*
X0041357Y0070704D02*
X0041208D01*
Y0069948D01*
X0042114D01*
X0042088Y0070143D01*
X0042013Y0070326D01*
X0041892Y0070482D01*
X0041736Y0070603D01*
X0041553Y0070678D01*
X0041357Y0070704D01*
D02*
G37*
G36*
X0040708D02*
X0040557D01*
X0040362Y0070678D01*
X0040179Y0070603D01*
X0040023Y0070482D01*
X0039902Y0070326D01*
X0039827Y0070143D01*
X0039801Y0069948D01*
X0040708D01*
Y0070704D01*
D02*
G37*
G36*
X0081982Y0121505D02*
X0081076D01*
X0081102Y0121309D01*
X0081177Y0121127D01*
X0081298Y012097D01*
X0081454Y012085D01*
X0081637Y0120774D01*
X0081832Y0120749D01*
X0081982D01*
Y0121505D01*
D02*
G37*
G36*
X0062298Y0125587D02*
X0062247Y012558D01*
X0061968Y0125465D01*
X0061727Y012528D01*
X0061543Y012504D01*
X0061427Y012476D01*
X006142Y012471D01*
X0062298D01*
Y0125587D01*
D02*
G37*
%LPD*%
D10*
X0042062Y0133985D02*
D03*
X0043662D02*
D03*
X0036042Y0140652D02*
D03*
X0034443D02*
D03*
X0042062Y0137477D02*
D03*
X0043662D02*
D03*
D11*
X0046675Y0133985D02*
D03*
X0048575D02*
D03*
X0034923Y0065723D02*
D03*
X0033022D02*
D03*
X0038103D02*
D03*
X0040002D02*
D03*
X0046675Y0137477D02*
D03*
X0048575D02*
D03*
D12*
X0039275Y013615D02*
D03*
Y013535D02*
D03*
Y013455D02*
D03*
Y013375D02*
D03*
Y013295D02*
D03*
Y013215D02*
D03*
Y013135D02*
D03*
Y013055D02*
D03*
X0030575Y013615D02*
D03*
Y013055D02*
D03*
Y013135D02*
D03*
Y013215D02*
D03*
Y013295D02*
D03*
Y013375D02*
D03*
Y013455D02*
D03*
Y013535D02*
D03*
D13*
X0032125Y01377D02*
D03*
X0032925D02*
D03*
X0033725D02*
D03*
X0034525D02*
D03*
X0035325D02*
D03*
X0036125D02*
D03*
X0036925D02*
D03*
X0037725D02*
D03*
Y0129D02*
D03*
X0036925D02*
D03*
X0036125D02*
D03*
X0035325D02*
D03*
X0034525D02*
D03*
X0033725D02*
D03*
X0032925D02*
D03*
X0032125D02*
D03*
D14*
X0067628Y0131928D02*
D03*
Y0130327D02*
D03*
X0070168Y0131928D02*
D03*
Y0130327D02*
D03*
X0060007Y0131928D02*
D03*
Y0130327D02*
D03*
X0057467Y0130327D02*
D03*
Y0131928D02*
D03*
X0082232Y0121755D02*
D03*
Y0123355D02*
D03*
X0032068Y0068098D02*
D03*
Y0069698D02*
D03*
X0040958Y0068098D02*
D03*
Y0069698D02*
D03*
D15*
X0082232Y0126368D02*
D03*
Y0128268D02*
D03*
D16*
Y0136452D02*
D03*
Y0132152D02*
D03*
D17*
X0072073Y013434D02*
D03*
D18*
Y013744D02*
D03*
D19*
Y0140095D02*
D03*
Y0141845D02*
D03*
D20*
X00619Y0135572D02*
D03*
X00627D02*
D03*
X00635D02*
D03*
X00643D02*
D03*
X00651D02*
D03*
D21*
X005905Y0135697D02*
D03*
Y0141148D02*
D03*
X006795Y0135697D02*
D03*
Y0141148D02*
D03*
D22*
X0039275Y013375D02*
X0040839D01*
X003745D02*
X0039275D01*
X002875Y013295D02*
X0030575D01*
X002895Y013455D02*
X0030575D01*
X0060007Y0126365D02*
Y0130327D01*
X005842Y0124777D02*
X0060007Y0126365D01*
X0036513Y0124777D02*
X005842D01*
X006524Y0130327D02*
X0067628D01*
X0058737Y0123825D02*
X006524Y0130327D01*
X0036399Y0123825D02*
X0058737D01*
X0067628Y0131928D02*
X0070168D01*
X006524D02*
X0067628D01*
X0065088Y013208D02*
X006524Y0131928D01*
X0034571Y0125653D02*
X0036399Y0123825D01*
X0034571Y0125653D02*
Y0128954D01*
X0034525Y0129D02*
X0034571Y0128954D01*
X0035325Y0125965D02*
X0036513Y0124777D01*
X005361Y0078692D02*
X0056197D01*
X0053022Y0078105D02*
X005361Y0078692D01*
X0029528Y0078105D02*
X0053022D01*
X0023812D02*
X0029528D01*
X0049213Y008011D02*
X0050335Y0081232D01*
X0056197D01*
X0049213Y008499D02*
X005043Y0083772D01*
X0056197D01*
X0044132Y0091393D02*
X0056197D01*
X0023812Y0140335D02*
X0032626D01*
X0033679Y0139282D01*
X0024765Y0139383D02*
X0032513D01*
X0032925Y013897D01*
Y01377D02*
Y013897D01*
X0036042Y0140652D02*
Y0142557D01*
X0034525Y01377D02*
Y014057D01*
X0037147Y0135572D02*
X0037725Y013615D01*
Y01377D01*
X0034525Y0135572D02*
Y01377D01*
X0034443Y0140652D02*
X0034525Y014057D01*
X004118Y013135D02*
X0041275Y0131445D01*
X0039275Y013135D02*
X004118D01*
X0032303Y013375D02*
X0032385Y0133667D01*
X0030575Y013375D02*
X0032303D01*
X0035325Y0129D02*
Y013295D01*
X0032125Y013615D02*
X0035325Y013295D01*
X0032125Y013615D02*
Y01377D01*
X0032315Y013215D02*
X0032385Y013208D01*
X0030575Y013215D02*
X0032315D01*
X0054022Y0071073D02*
X0056197D01*
X005207Y0073025D02*
X0054022Y0071073D01*
X0027622Y0073025D02*
X005207D01*
X0053928Y0076152D02*
X0056197D01*
X005334Y0075565D02*
X0053928Y0076152D01*
X0023812Y0075565D02*
X005334D01*
X0054022Y0073613D02*
X0056197D01*
X005334Y0074295D02*
X0054022Y0073613D01*
X0026353Y0074295D02*
X005334D01*
X0025083Y0073025D02*
X0026353Y0074295D01*
X005207Y0061912D02*
X005361Y0063452D01*
X0026035Y0061912D02*
X005207D01*
X0025083Y0062865D02*
X0026035Y0061912D01*
X0050165Y0062865D02*
X0053292Y0065993D01*
X0027622Y0062865D02*
X0050165D01*
X0025083Y0065405D02*
X0027622Y0062865D01*
X0049411Y0063818D02*
X0054126Y0068533D01*
X002921Y0063818D02*
X0049411D01*
X0025083Y0067945D02*
X002921Y0063818D01*
X0025083Y0070485D02*
X0027622Y0073025D01*
X0023812Y0070485D02*
X0025083D01*
X0023812Y0073025D02*
X0025083D01*
X0023812Y0067945D02*
X0025083D01*
X0054126Y0068533D02*
X0056197D01*
X005361Y0063452D02*
X0056197D01*
X0023812Y0065405D02*
X0025083D01*
X0023812Y0062865D02*
X0025083D01*
X0023812Y0060325D02*
X006831D01*
X0071438Y0063452D01*
X0053292Y0065993D02*
X0056197D01*
X0032068Y0066677D02*
Y0068098D01*
Y0066677D02*
X0033022Y0065723D01*
X0040958Y0066677D02*
Y0068098D01*
X0040002Y0065723D02*
X0040958Y0066677D01*
X00381Y006858D02*
X0038103Y0068577D01*
Y0065723D02*
Y0068577D01*
X0034923D02*
X0034925Y006858D01*
X0034923Y0065723D02*
Y0068577D01*
X0082232Y0123355D02*
Y0126368D01*
X005905Y0134298D02*
Y0135697D01*
X0057467Y0132715D02*
X005905Y0134298D01*
X0057467Y0131928D02*
Y0132715D01*
X0065088Y0135585D02*
Y0136842D01*
X0064452Y0137477D02*
X0065088Y0136842D01*
Y0135585D02*
X00651Y0135572D01*
X0028532Y013055D02*
X0030575D01*
X0026353Y012837D02*
X0028532Y013055D01*
X0028253Y013135D02*
X0030575D01*
X0026353Y013325D02*
X0028253Y013135D01*
X0043662Y0137477D02*
X0046675D01*
X0043662Y0133985D02*
X0046675D01*
X0042062D02*
Y0135102D01*
X0041815Y013535D02*
X0042062Y0135102D01*
X0039275Y013535D02*
X0041815D01*
X0042062Y0136678D02*
Y0137477D01*
X0041535Y013615D02*
X0042062Y0136678D01*
X0039275Y013615D02*
X0041535D01*
X0060007Y0131928D02*
X0062395D01*
X00643Y0132867D02*
X0065088Y013208D01*
X00643Y0132867D02*
Y0135572D01*
X00635Y0133033D02*
Y0135572D01*
X0062548Y013208D02*
X00635Y0133033D01*
X0023812Y009398D02*
X002386Y0093933D01*
X0056197D01*
X0023812Y009652D02*
X002386Y0096473D01*
X0056197D01*
X0023812Y009906D02*
X002386Y0099012D01*
X0056197D01*
X0023812Y01016D02*
X002386Y0101552D01*
X0056197D01*
X0023812Y010414D02*
X002386Y0104092D01*
X0056197D01*
X0023812Y010668D02*
X002386Y0106632D01*
X0056197D01*
X0023812Y010922D02*
X002386Y0109173D01*
X0056197D01*
X005615Y011176D02*
X0056197Y0111713D01*
X0023812Y011176D02*
X005615D01*
X0079375Y0060325D02*
X0082232D01*
X0073707Y0065993D02*
X0079375Y0060325D01*
X0071438Y0065993D02*
X0073707D01*
X0079375Y0062865D02*
X0082232D01*
X0073707Y0068533D02*
X0079375Y0062865D01*
X0071438Y0068533D02*
X0073707D01*
X0079375Y0065405D02*
X0082232D01*
X0073707Y0071073D02*
X0079375Y0065405D01*
X0071438Y0071073D02*
X0073707D01*
X0079375Y0067945D02*
X0082232D01*
X0073707Y0073613D02*
X0079375Y0067945D01*
X0071438Y0073613D02*
X0073707D01*
X0079375Y0070485D02*
X0082232D01*
X0073707Y0076152D02*
X0079375Y0070485D01*
X0071438Y0076152D02*
X0073707D01*
X0079375Y0073025D02*
X0082232D01*
X0073707Y0078692D02*
X0079375Y0073025D01*
X0071438Y0078692D02*
X0073707D01*
X0079375Y0075565D02*
X0082232D01*
X0073707Y0081232D02*
X0079375Y0075565D01*
X0071438Y0081232D02*
X0073707D01*
X0079692Y0078105D02*
X0082232D01*
X0074025Y0083772D02*
X0079692Y0078105D01*
X0071438Y0083772D02*
X0074025D01*
X007747Y008509D02*
Y0089217D01*
X0075295Y0091393D02*
X007747Y0089217D01*
X0071438Y0091393D02*
X0075295D01*
X0079375Y0083185D02*
X0082232D01*
X007747Y008509D02*
X0079375Y0083185D01*
X0071438Y0093933D02*
X0071485Y009398D01*
X0082232D01*
X0071438Y0096473D02*
X0071485Y009652D01*
X0082232D01*
X0071438Y0099012D02*
X0071485Y009906D01*
X0082232D01*
X0071438Y0101552D02*
X0071485Y01016D01*
X0082232D01*
X0071485Y010414D02*
X0082232D01*
X0071485Y010668D02*
X0082232D01*
X0071485Y010922D02*
X0082232D01*
X0071438Y0111713D02*
X0071485Y011176D01*
X0082232D01*
X0039275Y013055D02*
X0040587D01*
X004128Y0129857D01*
X0037725Y0129D02*
X0039275D01*
X0040322Y0127952D01*
X0041275D01*
X0036925Y012754D02*
Y0129D01*
Y012754D02*
X0037465Y0127D01*
X0038735D01*
X0035325Y0125965D02*
Y0129D01*
X0033725Y01377D02*
Y0139236D01*
X0036125Y0126435D02*
Y0129D01*
Y0126435D02*
X003683Y012573D01*
X0038735D01*
X00619Y0134D02*
Y0135572D01*
X00615Y01336D02*
X00619Y0134D01*
X00606Y01336D02*
X00615D01*
D23*
X0072073Y0132398D02*
Y013434D01*
X0074613Y0123825D02*
Y0132152D01*
X0070168Y0130327D02*
X0074448D01*
X0073342Y0122555D02*
X0074613Y0123825D01*
X00381Y0122555D02*
X0073342D01*
X0037655Y012211D02*
X00381Y0122555D01*
X0074613Y0138747D02*
Y0142557D01*
X005615Y00889D02*
X0056197Y0088853D01*
X0032702Y00889D02*
X005615D01*
X0023812D02*
X0032702D01*
X0023812Y0083185D02*
X0032702D01*
X0048575Y0133985D02*
Y0137477D01*
X0074613Y0132152D02*
Y0138747D01*
Y0132152D02*
X0082232D01*
X0037655Y0120523D02*
Y012211D01*
X0072073Y0138747D02*
Y0140095D01*
Y013744D02*
Y0138747D01*
X0074613D01*
X0070168Y0140652D02*
X0070725Y0140095D01*
X0072073D01*
X0070168Y0140652D02*
Y0142875D01*
X0069484Y0143559D02*
X0070168Y0142875D01*
X0065453Y0143559D02*
X0069484D01*
X0064446Y0142551D02*
X0065453Y0143559D01*
X0064446Y0137484D02*
Y0142551D01*
Y0137484D02*
X0064452Y0137477D01*
X0082232Y0128268D02*
Y0132152D01*
Y0136452D02*
Y0140018D01*
X006795Y0135697D02*
Y0141148D01*
X005905Y0135697D02*
Y0141148D01*
X0037655Y0116015D02*
Y0117983D01*
Y0116015D02*
X003937Y01143D01*
X0079692D01*
D24*
X0062395Y0131928D02*
X0062548Y013208D01*
D25*
X0023813Y0120523D02*
D03*
X0026353D02*
D03*
X0037655Y0117983D02*
D03*
X0040195D02*
D03*
X0042736D02*
D03*
X0045276D02*
D03*
X0047815D02*
D03*
Y0120523D02*
D03*
X0045276D02*
D03*
X0042736D02*
D03*
X0040195D02*
D03*
X0037655D02*
D03*
X0056197Y0111713D02*
D03*
Y0109173D02*
D03*
Y0106632D02*
D03*
Y0104092D02*
D03*
Y0101552D02*
D03*
Y0099012D02*
D03*
Y0096473D02*
D03*
Y0093933D02*
D03*
Y0091393D02*
D03*
Y0088853D02*
D03*
Y0086312D02*
D03*
Y0083772D02*
D03*
Y0081232D02*
D03*
Y0078692D02*
D03*
Y0076152D02*
D03*
Y0073613D02*
D03*
Y0071073D02*
D03*
Y0068533D02*
D03*
Y0065993D02*
D03*
Y0063452D02*
D03*
X0071438Y0111713D02*
D03*
Y0109173D02*
D03*
Y0106632D02*
D03*
Y0104092D02*
D03*
Y0101552D02*
D03*
Y0099012D02*
D03*
Y0096473D02*
D03*
Y0093933D02*
D03*
Y0091393D02*
D03*
Y0088853D02*
D03*
Y0086312D02*
D03*
Y0083772D02*
D03*
Y0081232D02*
D03*
Y0078692D02*
D03*
Y0076152D02*
D03*
Y0073613D02*
D03*
Y0071073D02*
D03*
Y0068533D02*
D03*
Y0065993D02*
D03*
Y0063452D02*
D03*
X0082232Y0140018D02*
D03*
Y0142557D02*
D03*
X0034925Y006858D02*
D03*
Y007112D02*
D03*
X00381Y006858D02*
D03*
Y007112D02*
D03*
X0023812Y011176D02*
D03*
Y010922D02*
D03*
Y010668D02*
D03*
Y010414D02*
D03*
Y01016D02*
D03*
Y009906D02*
D03*
Y009652D02*
D03*
Y009398D02*
D03*
Y009144D02*
D03*
Y00889D02*
D03*
Y0060325D02*
D03*
Y0062865D02*
D03*
Y0065405D02*
D03*
Y0067945D02*
D03*
Y0070485D02*
D03*
Y0073025D02*
D03*
Y0075565D02*
D03*
Y0078105D02*
D03*
Y0080645D02*
D03*
Y0083185D02*
D03*
X0082232Y0060325D02*
D03*
Y0062865D02*
D03*
Y0065405D02*
D03*
Y0067945D02*
D03*
Y0070485D02*
D03*
Y0073025D02*
D03*
Y0075565D02*
D03*
Y0078105D02*
D03*
Y0080645D02*
D03*
Y0083185D02*
D03*
X0033846Y0120523D02*
D03*
Y0117983D02*
D03*
X0030035D02*
D03*
Y0120523D02*
D03*
X0023812Y0117983D02*
D03*
X0026353D02*
D03*
X0082232Y011176D02*
D03*
Y010922D02*
D03*
Y010668D02*
D03*
Y010414D02*
D03*
Y01016D02*
D03*
Y009906D02*
D03*
Y009652D02*
D03*
Y009398D02*
D03*
Y009144D02*
D03*
Y00889D02*
D03*
D26*
X0026353Y012837D02*
D03*
Y013325D02*
D03*
X0065088Y013208D02*
D03*
Y012446D02*
D03*
X0062548Y013208D02*
D03*
Y012446D02*
D03*
X0049213Y008011D02*
D03*
Y008499D02*
D03*
X0044323Y0058293D02*
D03*
X0039243D02*
D03*
X0034227D02*
D03*
X0029146D02*
D03*
D27*
X00613Y0138143D02*
D03*
X00657D02*
D03*
D28*
X00302Y01378D02*
D03*
X00354Y01227D02*
D03*
X00262Y00583D02*
D03*
X00766Y00924D02*
D03*
X00413Y00861D02*
D03*
X00252D02*
D03*
X0072073Y0132398D02*
D03*
X0074613Y0142557D02*
D03*
X0032702Y00889D02*
D03*
Y0083185D02*
D03*
X0036042Y0142557D02*
D03*
X0041275Y0131445D02*
D03*
X0032385Y0133667D02*
D03*
Y013208D02*
D03*
X0048577Y0135572D02*
D03*
X0079692Y01143D02*
D03*
X00606Y01336D02*
D03*
D29*
X00358Y01345D02*
D03*
X0079378Y00583D02*
D03*
X0048D02*
D03*
X0059057D02*
D03*
X006832D02*
D03*
X0037783Y014D02*
D03*
X0078D02*
D03*
X0047943Y013D02*
D03*
X0078423D02*
D03*
X0059Y012D02*
D03*
X0068262D02*
D03*
X0078423D02*
D03*
X0059Y011D02*
D03*
X0068262D02*
D03*
X0059Y01D02*
D03*
X0068262D02*
D03*
X0059Y009D02*
D03*
Y008D02*
D03*
X0068262D02*
D03*
X0047943Y007D02*
D03*
X0059D02*
D03*
X0068262D02*
D03*
X0027622D02*
D03*
X0023812Y0140335D02*
D03*
X0024765Y0139383D02*
D03*
X0027305Y0075565D02*
D03*
X0029528Y0078105D02*
D03*
X0044132Y009144D02*
D03*
X00381Y010922D02*
D03*
X0042736Y009906D02*
D03*
X0045276Y009652D02*
D03*
X0047815Y009398D02*
D03*
X0034925Y011176D02*
D03*
X0034525Y0135572D02*
D03*
X0037147D02*
D03*
X0041275Y0129857D02*
D03*
Y0127952D02*
D03*
X0038735Y0127D02*
D03*
Y012573D02*
D03*
M02*
